<?xml version="1.0" encoding="utf-8"?>
<!-- Generator: Adobe Illustrator 26.2.1, SVG Export Plug-In . SVG Version: 6.00 Build 0)  -->
<svg version="1.1" id="Capa_1" xmlns="http://www.w3.org/2000/svg" xmlns:xlink="http://www.w3.org/1999/xlink" x="0px" y="0px"
	 viewBox="0 0 22 22" style="enable-background:new 0 0 22 22;" xml:space="preserve">
<style type="text/css">
	.st0{fill:#5939AA;}
	.st1{fill:#FFFFFF;}
</style>
<path class="st0" d="M9.6,21.6h6.8h0.4h0.4v-0.9v-0.9l0.8-2l0.8-2v-2.5v-2.5l-0.8-0.4l-0.8-0.4L17,9.9c-0.1,0.1-0.3,0.2-0.4,0.2
	l-0.2,0.1l-0.7-0.4L15,9.5l-0.2,0.1c-0.1,0.1-0.3,0.2-0.4,0.2l-0.2,0.1l-0.8-0.4L12.7,9l-0.4,0.2l-0.4,0.2l0-2.1l0-2.1l-0.7-0.4
	c-0.4-0.2-0.7-0.4-0.8-0.4c0,0-0.3,0.2-0.7,0.4L9,5.2l0,2.9L9,11l-1.5,1.1L6,13.2V15v1.8l1.5,2.4l1.5,2.4h0.4c0.2,0,0.4,0,0.4,0"/>
<g>
	<g transform="translate(0.000000,511.000000) scale(0.100000,-0.100000)">
		<path class="st1" d="M24.4,5095.8l-10-10l10.3-10.3l10.2-10.2l2.6,2.6l2.6,2.6l-5.7,5.7l-5.7,5.7h26.8h26.7v3.7v3.7H55.7H29.1
			l5.5,5.5l5.5,5.5l-2.6,2.6c-1.5,1.5-2.7,2.6-2.9,2.6C34.5,5105.8,29.9,5101.4,24.4,5095.8z"/>
		<path class="st1" d="M171.7,5103.2l-2.6-2.6l5.5-5.5l5.5-5.5h-26.5h-26.5v-3.7v-3.7h26.7h26.8l-5.7-5.7l-5.7-5.7l2.6-2.6l2.6-2.6
			l10,10c5.5,5.5,10,10.2,10,10.5c0,0.4-19.4,20-19.8,20C174.5,5105.8,173.2,5104.7,171.7,5103.2z"/>
		<path class="st1" d="M96.9,5062.5l-7-4.1l-0.1-29.4l-0.1-29.4l-15-10.6l-14.9-10.6V4960v-18.4l14.8-23.7l14.8-23.7h4.3
			c2.4,0,4.3,0.1,4.3,0.2s-6.9,11.3-15.4,24.8l-15.4,24.6v15.3v15.4l10.8,7.7c5.9,4.2,11,7.8,11.2,7.8c0.2,0.1,0.4-7.1,0.4-17.7
			v-17.9h3.7H97v49.9v49.8l3.7,2.1l3.7,2.1l3.7-2.1l3.7-2.1V5023v-31.2h3.7h3.7v7.6v7.6l3.7,2.1c2.1,1.2,3.9,2.1,4.1,2s1.8-1,3.7-2
			l3.4-1.9v-7.7v-7.7h3.7h3.7l0.3,1.4c0.1,0.7,0.3,3.1,0.3,5.2v3.9l3.6,2.1c2,1.1,3.8,2.1,4.1,2.1s2.1-0.9,4-2l3.5-2l-0.2-5.3
			l-0.2-5.3h3.9h3.8v3.9v3.8l3.6,2c2,1.1,3.8,1.9,4,1.8c0.2,0,2-1,3.9-2.1l3.5-2v-22.6v-22.6l-7.5-20l-7.5-19.9v-10v-10h3.7h3.7v9.3
			v9.3l7.5,20l7.5,19.9v25.4v25.4l-7.6,4.4l-7.6,4.4l-2-1.2c-1.1-0.7-2.8-1.6-3.8-2.1l-1.8-0.9l-7.2,3.7l-7.2,3.7l-1.5-0.8
			c-0.8-0.5-2.6-1.5-3.8-2.2l-2.2-1.2l-7.7,4.4l-7.7,4.4l-3.7-2.1l-3.7-2.2l-0.2,21.4l-0.2,21.3l-7.2,4.1c-3.9,2.3-7.4,4.1-7.7,4.1
			C104.2,5066.6,100.8,5064.8,96.9,5062.5z"/>
	</g>
</g>
</svg>
