<?xml version="1.0" encoding="utf-8"?>
<!-- Generator: Adobe Illustrator 27.0.1, SVG Export Plug-In . SVG Version: 6.00 Build 0)  -->
<svg version="1.1" id="Capa_1" xmlns="http://www.w3.org/2000/svg" xmlns:xlink="http://www.w3.org/1999/xlink" x="0px" y="0px"
	 viewBox="0 0 229 56" style="enable-background:new 0 0 229 56;" xml:space="preserve">
<style type="text/css">
	.st0{fill:#FFFFFF;}
	.st1{fill:#400099;}
	.st2{fill:#56565A;}
</style>
<rect id="Rectángulo_10" class="st0" width="229" height="56"/>
<g id="wjp_logo_text" transform="translate(412.9 128.7)">
	<g id="Grupo_25" transform="translate(26.1 125.8)">
		<path id="Trazado_13" class="st1" d="M-359.8-217.5c-3.7-0.3-7.7-0.5-11.9-0.5c-3.6,0-7.1,0.1-10.3,0.4c-0.4-0.9-0.7-1.8-0.9-2.7
			c3.2-0.2,6.5-0.4,9.9-0.4v-5.1c-9.7,0.1-18.1,1-24.5,2.7c0.7,1.6,1.6,3.2,2.9,4.4c2.3-0.4,4.6-0.8,7.1-1.1c-0.3-1-0.5-2.1-0.7-3.2
			c1-0.1,1.8-0.2,2.7-0.3c0.7,5.3,2.9,9.5,5.9,12c2.1,0.4,4.3,0.6,6.5,0.7v-5.5h2.8v5.5c2-0.1,4.1-0.3,6.1-0.7
			C-362.3-213.1-360.8-215.2-359.8-217.5z"/>
		<path id="Trazado_14" class="st1" d="M-368.3-225.9v-2.7c3.5,0.1,6.9,0.3,10.2,0.6c-0.1-1.8-0.4-3.6-0.9-5.4
			c-4-0.4-8.2-0.6-12.7-0.6c-3.8,0-7.5,0.1-11,0.4c0.3-1,0.7-1.9,1-2.8c2.8-0.2,5.7-0.3,8.6-0.4v-6.6c-1.7,0.1-3.4,0.2-5.1,0.4
			c-4.1,2.5-7.1,7.9-7.5,14.9c4.2-0.4,8.4-0.7,12.6-0.7v-3.4h2.8v11.3c3.9,0.1,7.7,0.2,11.3,0.6c0.3-1,0.5-2.1,0.6-3.2
			c1,0.1,1.8,0.2,2.7,0.3c-0.5,3.8-1.9,7.4-4.2,10.5c2.9-0.9,5.6-2.3,8.1-4c-1.2-0.2-2.4-0.4-3.6-0.5c0.4-0.8,0.7-1.7,0.9-2.6
			c1.8,0.2,3.6,0.5,5.3,0.9c1.2-1.3,2.2-2.8,2.9-4.4C-353.5-224.9-360.9-225.8-368.3-225.9z"/>
		<path id="Trazado_15" class="st1" d="M-392-216.5c2.5,1.8,5.2,3.1,8.1,4c-1.1-1.5-2-3.1-2.7-4.7
			C-388.5-217.1-390.3-216.8-392-216.5z"/>
		<path id="Trazado_16" class="st1" d="M-386.7-235.9c0.8-2.2,2.1-4.2,3.6-5.9c-5.2,1.5-9.5,4.1-12.1,7.2
			C-392.5-235.1-389.7-235.5-386.7-235.9z"/>
		<path id="Trazado_17" class="st1" d="M-355.3-227.6c3.3,0.4,6.5,1,9.7,1.7c0-0.3,0.1-0.7,0.1-1c0-1.5-0.3-3-1-4.3
			c-2.3-0.5-4.9-1-7.6-1.4c-0.2-1-0.5-1.9-0.9-2.9c2.3,0.3,4.4,0.7,6.4,1c-2.7-3.2-7-5.7-12.2-7.2
			C-357.4-237.8-355.4-232.9-355.3-227.6z"/>
		<path id="Trazado_18" class="st1" d="M-387.6-233c-3.2,0.4-6.4,1-9.6,1.7c-0.6,1.4-0.9,2.8-0.9,4.3c0,0.4,0,0.7,0.1,1.1
			c3.2-0.7,6.4-1.3,9.7-1.8C-388.3-229.5-388.1-231.2-387.6-233z"/>
		<path id="Trazado_19" class="st1" d="M-370.2-236.7c3.5,0.1,6.9,0.2,10.2,0.5c-1.1-2.7-3.1-5-5.6-6.6c-0.1,0-0.1-0.1-0.1-0.1
			c-1.5-0.2-3-0.4-4.4-0.4V-236.7L-370.2-236.7z"/>
	</g>
	<g id="Grupo_26" transform="translate(92.934 131.243)">
		<path id="Trazado_20" class="st2" d="M-392.8-242.4c0.1,0,0.2-0.1,0.2-0.2l0,0v-1.2c0-0.1-0.1-0.2-0.2-0.2h-3.3
			c-0.1,0-0.2,0.1-0.2,0.2l0,0v1.2c0,0.1,0.1,0.2,0.2,0.2h0.7l-1.2,5.2l-1.8-6.6c0-0.1-0.1-0.1-0.2-0.1h-1.3c-0.1,0-0.1,0.1-0.2,0.1
			l-1.8,6.7l-1.2-5.2h0.7c0.1,0,0.2-0.1,0.2-0.2l0,0v-1.2c0-0.1-0.1-0.2-0.2-0.2h-3.3c-0.1,0-0.2,0.1-0.2,0.2l0,0v1.2
			c0,0.1,0.1,0.2,0.2,0.2h0.8l2,8.1c0,0.1,0.1,0.1,0.2,0.1h1.6c0.1,0,0.1-0.1,0.2-0.1l1.7-6.2l1.7,6.2c0,0.1,0.1,0.1,0.2,0.1h1.6
			c0.1,0,0.1-0.1,0.2-0.1l2-8.1L-392.8-242.4z"/>
		<path id="Trazado_21" class="st2" d="M-379.5-230.9h1.5c0.1,0,0.2,0.1,0.2,0.2v1.5c0,0.1-0.1,0.2-0.2,0.2h-1.5
			c-0.1,0-0.2-0.1-0.2-0.2v-1.5C-379.6-230.8-379.6-230.9-379.5-230.9z"/>
		<path id="Trazado_22" class="st2" d="M-389.5-228.4c0,0-0.7-0.1-0.9-0.1c-0.7,0-1.4,0.3-1.8,0.9c-0.1-0.6-0.5-0.9-1.1-0.9h-1.4
			c-0.1,0-0.2,0.1-0.2,0.2l0,0v1.2c0,0.1,0.1,0.2,0.2,0.2h0.7v4.1h-0.6c-0.1,0-0.2,0.1-0.2,0.2l0,0v1.2c0,0.1,0.1,0.2,0.2,0.2h3
			c0.1,0,0.2-0.1,0.2-0.2l0,0v-1.2c0-0.1-0.1-0.2-0.2-0.2h-0.6v-1.5c0-1.3,0.6-2.4,1.8-2.4c0.2,0,0.9,0.1,0.9,0.1
			c0.1,0,0.2-0.1,0.2-0.1l0,0v-1.5C-389.3-228.3-389.4-228.4-389.5-228.4z"/>
		<path id="Trazado_23" class="st2" d="M-385.3-237.8c0.1-2.1-1.6-3.9-3.7-4c-2.1-0.1-3.9,1.6-4,3.7s1.6,3.9,3.7,4c0,0,0,0,0,0h0.1
			c2,0.1,3.8-1.5,3.8-3.6V-237.8z M-389.2-235.6c-1.2,0.1-2.2-0.8-2.3-2c-0.1-1.2,0.8-2.2,2-2.3c1.2-0.1,2.2,0.8,2.3,2v0.1
			c0.1,1.1-0.8,2.1-1.9,2.1L-389.2-235.6z"/>
		<path id="Trazado_24" class="st2" d="M-321.7-236.3c-0.1-0.1-0.1-0.1-0.2-0.1l0,0l-0.1,0.1c-0.1,0.1-0.2,0.1-0.2,0.2
			c-0.1,0.1-0.3,0.2-0.4,0.2c-0.4,0.2-0.8,0.3-1.3,0.3c-1.1,0.1-2-0.8-2.1-1.9c0,0,0,0,0,0v-0.2c-0.1-1,0.6-2,1.7-2.1
			c0,0,0.1,0,0.1,0h0.2c0.7,0,1.2,0.3,1.2,0.5v0.5c0,0.1,0.1,0.2,0.2,0.2h1.3c0.1,0,0.2-0.1,0.2-0.2v-0.8c0-1.4-1.9-1.8-2.9-1.8
			c-2.1,0-3.8,1.7-3.8,3.7c0,2.1,1.7,3.8,3.7,3.8c0,0,0.1,0,0.1,0c1.1,0,2.1-0.4,2.9-1.2c0,0,0.1-0.1,0.1-0.2L-321.7-236.3z"/>
		<path id="Trazado_25" class="st2" d="M-384.1-239.8h1v4.1h-0.9c-0.1,0-0.2,0.1-0.2,0.2l0,0v1.2c0,0.1,0.1,0.2,0.2,0.2h3.5
			c0.1,0,0.2-0.1,0.2-0.2l0,0v-1.2c0-0.1-0.1-0.2-0.2-0.2h-0.9v-1.5c0-1.3,0.5-2.4,1.8-2.4c0.2,0,0.9,0.1,0.9,0.1
			c0.1,0,0.2-0.1,0.2-0.1l0,0v-1.5c0-0.1-0.1-0.2-0.1-0.2c0,0-0.7-0.1-0.9-0.1c-0.7,0-1.4,0.4-1.8,1c-0.1-0.6-0.5-0.9-1.1-0.9h-1.6
			c-0.1,0-0.2,0.1-0.2,0.2l0,0v1.2C-384.2-239.8-384.1-239.8-384.1-239.8z"/>
		<path id="Trazado_26" class="st2" d="M-369.9-234c0.7,0,1.5-0.3,2-0.8c0.1,0.4,0.6,0.7,1,0.7h1.2c0.1,0,0.2-0.1,0.2-0.2l0,0v-1.2
			c0-0.1-0.1-0.2-0.2-0.2h-0.6v-8c0-0.1-0.1-0.2-0.2-0.2h-2.4c-0.1,0-0.2,0.1-0.2,0.2l0,0v1.2c0,0.1,0.1,0.2,0.2,0.2h0.7v1.6
			c-0.5-0.4-1.1-0.6-1.8-0.6c-1.9,0-3.3,1.5-3.3,3.7S-371.9-234-369.9-234z M-369.6-239.8c1,0,1.6,0.9,1.6,2.1
			c0,1.5-0.9,2.1-1.6,2.1c-0.9,0-1.6-0.7-1.6-2.1S-370.5-239.8-369.6-239.8L-369.6-239.8z"/>
		<path id="Trazado_27" class="st2" d="M-331.2-243.7h1.5c0.1,0,0.2,0.1,0.2,0.2v1.5c0,0.1-0.1,0.2-0.2,0.2h-1.5
			c-0.1,0-0.2-0.1-0.2-0.2v-1.5C-331.3-243.7-331.2-243.7-331.2-243.7z"/>
		<path id="Trazado_28" class="st2" d="M-385.1-228.5c-2.1,0-3.7,1.8-3.7,3.8c0,2.1,1.8,3.7,3.8,3.7s3.7-1.8,3.7-3.8
			c0-2-1.7-3.7-3.7-3.7H-385.1z M-385.1-222.7c-1.2,0.1-2.2-0.8-2.3-2s0.8-2.2,2-2.3c1.2-0.1,2.2,0.8,2.3,2v0.1
			C-383-223.7-383.9-222.7-385.1-222.7C-385-222.7-385-222.7-385.1-222.7C-385-222.7-385-222.7-385.1-222.7L-385.1-222.7z"/>
		<path id="Trazado_29" class="st2" d="M-397.5-230.8c-0.5-0.2-1.1-0.3-1.7-0.2h-4.7c-0.1,0-0.2,0.1-0.2,0.2l0,0v1.2
			c0,0.1,0.1,0.2,0.2,0.2h0.8v6.6h-0.8c-0.1,0-0.2,0.1-0.2,0.2l0,0v1.2c0,0.1,0.1,0.2,0.2,0.2h3.4c0.1,0,0.2-0.1,0.2-0.2l0,0v-1.2
			c0-0.1-0.1-0.2-0.2-0.2h-0.8v-1.9h2.1c0.5,0,1-0.1,1.5-0.2c1.6-0.7,2.4-2.6,1.7-4.2c0,0,0,0,0,0
			C-396.3-229.9-396.8-230.5-397.5-230.8L-397.5-230.8z M-398.4-226.5c-0.3,0.1-0.6,0.2-0.9,0.2h-1.9v-3.1h1.9c0.3,0,0.7,0.1,1,0.2
			c0.7,0.5,0.9,1.6,0.4,2.3C-398.1-226.8-398.2-226.6-398.4-226.5L-398.4-226.5z"/>
		<path id="Trazado_30" class="st2" d="M-313.6-237.4c0,0,0.1-0.4,0.1-0.6c0-1.8-1-3.3-3.1-3.3c-1.9-0.1-3.5,1.4-3.6,3.4
			c0,0.1,0,0.2,0,0.3c-0.1,2,1.5,3.7,3.5,3.7c0,0,0,0,0,0h0.2c1,0,2-0.4,2.8-1c0,0,0.1-0.1,0.1-0.2l-0.6-1.1
			c-0.1-0.1-0.1-0.1-0.2-0.1h-0.1c-0.1,0.1-0.2,0.1-0.2,0.2c-0.1,0.1-0.2,0.2-0.4,0.2c-0.4,0.2-0.8,0.3-1.3,0.4c-1,0-1.9-0.7-2-1.7
			h4.6C-313.7-237.2-313.6-237.3-313.6-237.4z M-318.3-238.6c0.2-0.7,0.8-1.2,1.6-1.2c0.7,0,1.2,0.5,1.3,1.2H-318.3z"/>
		<path id="Trazado_31" class="st2" d="M-328.8-235.5h-0.7v-5.4c0-0.1-0.1-0.2-0.2-0.2h-2.4c-0.1,0-0.2,0.1-0.2,0.2v1.2
			c0,0.1,0.1,0.2,0.2,0.2h0.7v4.1h-0.7c-0.1,0-0.2,0.1-0.2,0.2v1.2c0,0.1,0.1,0.2,0.2,0.2h3.1c0.1,0,0.2-0.1,0.2-0.2v-1.2
			C-328.7-235.5-328.7-235.5-328.8-235.5z"/>
		<path id="Trazado_32" class="st2" d="M-355.3-243.7h-3.2c-0.1,0-0.2,0.1-0.2,0.2l0,0v1.2c0,0.1,0.1,0.2,0.2,0.2h0.7v5.2
			c0,1.1-0.5,1.4-1.2,1.4c-0.8,0-1.2-0.6-1.2-1.4v-0.3c0-0.1-0.1-0.2-0.2-0.2h-1.5c-0.1,0-0.2,0.1-0.2,0.2l0,0v0.4
			c-0.1,1.5,1,2.9,2.6,3h0.4c1.6,0.1,2.9-1.1,3-2.7v-5.7h0.7c0.1,0,0.2-0.1,0.2-0.2l0,0v-1.2C-355.2-243.7-355.3-243.7-355.3-243.7z
			"/>
		<path id="Trazado_33" class="st2" d="M-356.2-222.7h-0.4c-0.4,0-1.2-0.1-1.2-1.2v-2.8h1.4c0.1,0,0.2-0.1,0.2-0.2l0,0v-1.2
			c0-0.1-0.1-0.2-0.2-0.2h-1.4v-1.5c0-0.1-0.1-0.2-0.2-0.2h-1.5c-0.1,0-0.2,0.1-0.2,0.2l0,0v1.5h-1c-0.1,0-0.2,0.1-0.2,0.2l0,0v1.2
			c0,0.1,0.1,0.2,0.2,0.2h1v2.9c-0.1,1.4,0.9,2.6,2.3,2.7c0.2,0,0.3,0,0.5,0c0.2,0,0.4,0,0.6-0.1c0.1,0,0.1-0.1,0.1-0.2v-1.3
			C-356-222.7-356.1-222.7-356.2-222.7L-356.2-222.7z"/>
		<path id="Trazado_34" class="st2" d="M-341.4-238.3c-0.9-0.3-1.3-0.5-1.3-0.9c0-0.3,0.3-0.5,0.9-0.5s0.9,0.2,0.9,0.4v0.5
			c0,0.1,0.1,0.2,0.2,0.2h1.3c0.1,0,0.2-0.1,0.2-0.2v-0.9c0-1.3-1.7-1.6-2.6-1.6c-1.2,0-2.7,0.5-2.7,2.1c0,1.4,1.3,1.9,2.3,2.3
			l0.6,0.2c0.2,0.1,0.3,0.1,0.5,0.2c0.2,0.1,0.3,0.3,0.4,0.5c0,0.3-0.3,0.6-1,0.6c-0.7,0-1.2-0.3-1.2-0.5v-0.5
			c0-0.1-0.1-0.2-0.2-0.2h-1.3c-0.1,0-0.2,0.1-0.2,0.2v0.8c0,1.3,1.6,1.8,2.9,1.8c1.5,0,2.9-0.7,2.9-2.2
			C-339-237.5-340.5-238-341.4-238.3z"/>
		<path id="Trazado_35" class="st2" d="M-378-228.3h-2.4c-0.1,0-0.2,0.1-0.2,0.2l0,0v1.2c0,0.1,0.1,0.2,0.2,0.2h0.7v5.5
			c0,1.1-0.7,1.2-1.2,1.2h-0.7c-0.1,0-0.2,0.1-0.2,0.1l0,0v1.2c0,0.1,0.1,0.1,0.1,0.2c0,0,0.7,0.1,0.9,0.1c1.4,0.1,2.7-0.9,2.8-2.3
			c0-0.1,0-0.3,0-0.4v-6.9C-377.8-228.2-377.8-228.3-378-228.3L-378-228.3z"/>
		<path id="Trazado_36" class="st2" d="M-346.3-235.5h-0.9v-5.4c0-0.1-0.1-0.2-0.2-0.2h-2.4c-0.1,0-0.2,0.1-0.2,0.2l0,0v1.2
			c0,0.1,0.1,0.2,0.2,0.2h0.7v1.8c0.1,1.2-0.7,2.2-1.9,2.3c-0.8,0-1-0.5-1-1.4v-4c0-0.1-0.1-0.2-0.2-0.2h-2.3
			c-0.1,0-0.2,0.1-0.2,0.2l0,0v1.2c0,0.1,0.1,0.2,0.2,0.2h0.7v3c0,1.9,0.9,2.8,2.4,2.8c0.9,0,1.7-0.4,2.3-1c0.1,0.5,0.5,0.9,1,0.8
			c0,0,0,0,0,0h1.5c0.1,0,0.2-0.1,0.2-0.2l0,0v-1.2C-346.2-235.5-346.2-235.5-346.3-235.5z"/>
		<path id="Trazado_37" class="st2" d="M-362.1-223.5c-0.1-0.1-0.1-0.1-0.2-0.1l0,0l-0.1,0.1c-0.1,0.1-0.2,0.1-0.2,0.2
			c-0.1,0.1-0.3,0.2-0.4,0.2c-0.4,0.2-0.8,0.3-1.3,0.3c-1.1,0.1-2-0.8-2.1-1.9c0,0,0,0,0,0v-0.2c-0.1-1,0.6-2,1.7-2.1
			c0,0,0.1,0,0.1,0h0.2c0.7,0,1.2,0.3,1.2,0.5v0.5c0,0.1,0.1,0.2,0.2,0.2h1.3c0.1,0,0.2-0.1,0.2-0.2l0,0v-0.9c0-1.4-1.9-1.8-2.9-1.8
			c-2.1,0-3.7,1.8-3.7,3.8c0,2,1.7,3.7,3.7,3.7l0,0c1.1,0,2.1-0.4,2.9-1.2c0,0,0.1-0.1,0.1-0.2L-362.1-223.5z"/>
		<path id="Trazado_38" class="st2" d="M-374.8-234.1c0.2,0,0.4,0,0.7-0.1c0.1,0,0.1-0.1,0.1-0.2v-1.3c0-0.1-0.1-0.2-0.1-0.2h-0.4
			c-0.3,0-0.4-0.1-0.4-0.7v-7.3c0-0.1-0.1-0.2-0.2-0.2h-2.4c-0.1,0-0.2,0.1-0.2,0.2l0,0v1.2c0,0.1,0.1,0.2,0.2,0.2h0.7v6.1
			C-376.9-234.6-375.9-234.1-374.8-234.1z"/>
		<path id="Trazado_39" class="st2" d="M-372.7-228.5c-1.9,0-3.6,1.5-3.6,3.4c0,0.1,0,0.2,0,0.3c-0.1,2,1.5,3.7,3.5,3.7c0,0,0,0,0,0
			h0.2c1,0,2-0.4,2.8-1c0,0,0.1-0.1,0.1-0.2l-0.6-1.1c-0.1-0.1-0.1-0.1-0.2-0.1h-0.1c-0.1,0.1-0.2,0.1-0.2,0.2
			c-0.1,0.1-0.2,0.2-0.4,0.2c-0.4,0.2-0.8,0.3-1.3,0.4c-1,0-1.9-0.7-2-1.7h4.6c0.1,0,0.1-0.1,0.2-0.1c0,0,0.1-0.4,0.1-0.6
			C-369.6-226.9-370.6-228.5-372.7-228.5z M-374.3-225.7c0.2-0.7,0.8-1.2,1.6-1.2c0.7,0,1.2,0.5,1.3,1.2H-374.3z"/>
		<path id="Trazado_40" class="st2" d="M-333.8-235.6h-0.4c-0.4,0-1.2-0.1-1.2-1.2v-2.8h1.4c0.1,0,0.2-0.1,0.2-0.2v-1.2
			c0-0.1-0.1-0.2-0.2-0.2h-1.4v-1.5c0-0.1-0.1-0.2-0.2-0.2h-1.5c-0.1,0-0.2,0.1-0.2,0.2v1.5h-1c-0.1,0-0.2,0.1-0.2,0.2v1.2
			c0,0.1,0.1,0.2,0.2,0.2h1v2.9c-0.1,1.4,0.9,2.6,2.3,2.7c0.2,0,0.3,0,0.5,0c0.2,0,0.4,0,0.6-0.1c0.1,0,0.1-0.1,0.1-0.2v-1.3
			C-333.6-235.5-333.7-235.6-333.8-235.6C-333.8-235.6-333.8-235.6-333.8-235.6L-333.8-235.6z"/>
	</g>
</g>
</svg>
