<?xml version="1.0" encoding="UTF-8"?><svg id="Capa_1" xmlns="http://www.w3.org/2000/svg" xmlns:xlink="http://www.w3.org/1999/xlink" viewBox="0 0 257.04 129.51"><defs><style>.cls-1{stroke-width:2.13px;}.cls-1,.cls-2,.cls-3,.cls-4{fill:none;}.cls-1,.cls-3,.cls-4,.cls-5{stroke-linejoin:round;}.cls-1,.cls-5{stroke:#2a2a9a;}.cls-6{clip-path:url(#clippath);}.cls-2,.cls-7,.cls-8{stroke-width:0px;}.cls-3{stroke-dasharray:0 0 0 0 0 0 4 4;stroke-width:.53px;}.cls-3,.cls-4{stroke:#d1cfd1;}.cls-4{stroke-width:1.07px;}.cls-9{clip-path:url(#clippath-1);}.cls-7{fill:#524f4c;}.cls-8,.cls-5{fill:#2a2a9a;}.cls-5{stroke-linecap:round;stroke-width:.71px;}</style><clipPath id="clippath"><rect class="cls-2" x="30.35" width="226.69" height="115.59"/></clipPath><clipPath id="clippath-1"><rect class="cls-2" width="257.04" height="129.51"/></clipPath></defs><rect class="cls-2" width="257.04" height="129.51"/><g class="cls-6"><line class="cls-3" x1="30.35" y1="115.59" x2="257.04" y2="115.59"/><line class="cls-3" x1="30.35" y1="93.58" x2="257.04" y2="93.58"/><line class="cls-3" x1="30.35" y1="71.56" x2="257.04" y2="71.56"/><line class="cls-3" x1="30.35" y1="49.54" x2="257.04" y2="49.54"/><line class="cls-3" x1="30.35" y1="27.52" x2="257.04" y2="27.52"/><line class="cls-3" x1="30.35" y1="5.5" x2="257.04" y2="5.5"/><circle class="cls-5" cx="44.51" cy="78.34" r="2.49"/><circle class="cls-5" cx="107.48" cy="76.11" r="2.49"/><circle class="cls-5" cx="233.42" cy="73.23" r="2.49"/><polyline class="cls-1" points="44.51 78.34 107.48 76.11 233.42 73.23"/><path class="cls-8" d="m35.16,88.41h0v-.1l.03-.1.02-.1.03-.09.03-.09.03-.09.03-.09.04-.08.04-.09.04-.08h0l.04-.07.05-.08.05-.07.05-.07.05-.07.05-.06.06-.06.06-.06.06-.06.06-.05h0l.07-.05.07-.05.07-.05.07-.04.07-.04.07-.04.08-.04.08-.03.08-.03.08-.03h0l.09-.02.08-.02.09-.02.09-.02.09-.02h.09l.09-.02h.19s.38-.01.38-.01l.1.02.09.02h.09l.08.03.09.02.08.03.08.02h0l.08.03.08.03.07.04.08.03.07.04.06.04.07.05.06.04.06.05.06.05h0l.06.05.05.05.05.06.05.05.04.06.05.06.03.06.04.07.04.06.03.07h0l.03.07.02.07.03.07.02.07v.07l.03.08v.07l.02.08v.15h0v.33l-.02.06v.06l-.02.05v.06l-.03.05h0v.06l-.03.05-.02.04-.02.05-.02.05-.02.04-.03.05-.02.04-.03.04-.03.04h0l-.03.04-.03.03-.03.04-.04.04-.03.03-.04.03-.04.03-.03.03-.05.03-.04.03h0l-.04.03-.05.02-.04.03-.05.02-.05.02-.05.02-.05.03-.05.02-.05.02h-.05l.12.06.12.04.12.06.1.05.1.06.1.07.09.07.08.07.07.08.07.08h0l.06.09.05.09.05.09.04.1.04.1.03.11.02.11v.12l.02.12v.12h0v.22l-.02.1v.1l-.03.09-.02.1-.03.09-.03.09-.03.08-.04.09h0l-.04.08-.05.08-.05.08-.05.07-.05.07-.05.07-.06.07-.06.06-.07.06-.06.06h0l-.07.05-.07.06-.08.04-.07.05-.08.05-.08.04-.08.03-.09.04-.08.03-.09.03h0l-.09.03-.09.03-.09.02-.1.02h-.09l-.1.03h-.39s-.21.01-.21.01h-.1s-.1-.01-.1-.01l-.1-.02-.09-.02h-.09l-.09-.03-.09-.02-.08-.03h0l-.08-.02-.08-.03-.07-.03-.08-.04-.07-.03-.07-.04-.06-.04-.07-.04-.06-.05-.06-.05h0l-.06-.05-.06-.05-.05-.05-.06-.06-.05-.06-.05-.06-.05-.06-.05-.07-.04-.07-.04-.07h0l-.04-.07-.04-.07-.04-.08-.04-.08-.04-.08-.03-.08-.04-.09-.03-.08-.03-.09-.03-.1.54-.22h0l.04-.02h.05l.04-.02h.04l.04-.02h.23l.03.02.04.02.03.02h.03l.02.04.03.02.02.02.02.03.02.03h0l.02.04v.03l.03.04.02.03.02.04.02.03.02.04.02.03.02.03.02.04h0l.02.03.03.04.02.03.03.03.02.03.03.03.03.03.02.03.03.03.03.02h0l.03.03.03.02.04.03.03.02.03.02.04.02.04.02.03.02.04.02.04.02h.04l.05.03h.04l.05.02h.05l.05.02h.39l.06-.02h.05l.06-.02h.05l.05-.02.05-.02.05-.02h0l.04-.02.05-.03.04-.02.04-.02.04-.03.04-.03.04-.03.03-.03.04-.03.03-.03h0l.03-.03.03-.04.03-.03.02-.04.03-.03.02-.04.02-.04.02-.04.02-.04v-.04h0l.02-.04v-.04l.02-.04v-.04l.02-.04v-.08s0-.04,0-.04v-.09h0v-.34s0-.04,0-.04l-.02-.04v-.05h0l-.02-.04v-.04l-.03-.04-.02-.04-.02-.03-.02-.04-.03-.04-.03-.03-.03-.03-.03-.03h0l-.04-.03-.04-.03-.04-.03-.05-.02-.05-.02-.05-.03-.05-.02-.06-.02-.06-.02-.07-.02h-.07l-.07-.03h-.07l-.08-.02h-.09l-.09-.02h-.4v-.88h.41s.08-.01.08-.01l.07-.02.07-.02h.06l.06-.03h.06l.06-.03.05-.02.05-.02.05-.02.05-.02.04-.03.04-.02.04-.03.04-.03h0l.03-.03.03-.03.04-.03.02-.03.03-.03.02-.04.03-.04v-.03l.03-.04.02-.04h0v-.04l.02-.04v-.04l.02-.05v-.04l.02-.05v-.18h0v-.2l-.02-.08-.02-.09-.02-.08-.04-.07-.03-.07-.05-.07-.04-.06-.06-.06h0l-.06-.05-.06-.04-.07-.04-.07-.04-.07-.02-.08-.03-.08-.02h-.09l-.08-.02h-.27l-.04.02h-.08l-.04.02h-.04l-.03.02h0l-.04.02h-.04l-.03.02-.04.02-.03.02-.03.02h-.03l-.04.04-.03.02-.03.02h0l-.03.02-.02.02-.03.03-.03.02-.02.03-.03.03-.02.02-.02.03-.02.03-.02.03h0l-.02.03-.02.03-.02.03v.03l-.03.04v.03l-.03.03v.04l-.02.03v.04h0l-.02.04-.02.04-.02.04-.02.04-.02.03-.02.03-.03.03-.02.02-.03.02h-.03l-.03.03h-.03l-.03.02h-.07s-.22.01-.22.01l-.65-.13h-.02Z"/><path class="cls-8" d="m43.98,90.97v-2.36h0v-.43s0-.07,0-.07l.02-.08v-.16l-2.23,3.1s2.2,0,2.2,0Zm1.98,0v.72h0v.08h0v.03l-.02.02h0v.03h0l-.02.03h0l-.02.02h0l-.02.02h-.06s-.71.01-.71.01v1.77h-1.07v-1.77h-3.17s-.02-.01-.02-.01l-.02-.02h-.02l-.02-.03h-.02l-.02-.03h-.02v-.03l-.02-.02v-.02l-.02-.02v-.02l-.02-.02v-.05l-.13-.62,3.42-4.58h1.17v4.51h.91-.06Z"/><path class="cls-8" d="m49.94,88.22h0v.24l-.02.07v.08l-.03.07-.02.07-.02.07-.02.07-.03.07h0l-.03.06-.03.07-.03.06-.03.06-.04.06-.03.05-.04.05-.04.06-.05.05-.04.04h0l-.05.05-.05.04-.05.04-.05.04-.05.04-.06.03-.05.03-.06.03-.06.03-.06.03h0l-.06.02-.06.02-.06.02-.07.02h-.06l-.06.02h-.07l-.06.02h-.34l-.07-.02h-.07l-.07-.02-.06-.02-.06-.02-.07-.02-.06-.02h0l-.06-.03-.06-.03-.05-.03-.06-.03-.05-.03-.06-.04-.05-.04-.04-.04-.05-.04-.05-.05h0l-.04-.04-.04-.05-.04-.06-.04-.05-.03-.05-.04-.06-.03-.06-.03-.06-.03-.07-.02-.06h0l-.03-.07-.02-.07-.02-.07v-.07l-.03-.07v-.08l-.02-.07v-.24h0v-.25s0-.07,0-.07l.02-.08.02-.08v-.07l.03-.07.02-.07.03-.07h0l.02-.07.03-.06.03-.07.03-.06.04-.05.03-.06.04-.06.04-.05.04-.05.04-.05h0l.05-.04.05-.05.04-.04.05-.04.06-.03.05-.04.06-.03.05-.03.06-.03.06-.03h0l.06-.02.07-.02.06-.02.06-.02h.07l.07-.03h.21s.07-.01.07-.01h.28s.06.03.06.03h.07l.06.03.07.02.06.02.06.02h0l.06.03.06.03.06.03.06.03.05.04.05.03.05.04.05.04.05.05.05.04h0l.04.05.04.05.04.05.04.06.04.06.03.05.03.06.03.07.03.06.03.07h0l.02.07.02.07.02.07.02.07v.08l.02.08v.07l.02.08v.17Zm-.95,0h0v-.27s0-.04,0-.04l-.02-.05v-.04l-.02-.05v-.04h0v-.03l-.02-.04v-.04l-.03-.03v-.03l-.03-.03-.02-.03v-.03l-.03-.03-.02-.02h0l-.02-.02-.02-.03-.02-.02-.03-.02h-.02l-.02-.03h-.03l-.02-.03h-.03l-.02-.02h-.03l-.03-.02h-.02l-.03-.02h-.08s-.06-.01-.06-.01h-.21s-.02.01-.02.01l-.03.02h-.03l-.02.02h-.03l-.02.02-.03.02h-.02l-.02.03h-.03l-.02.03-.02.02-.02.03-.02.02h0l-.02.02v.03l-.03.03v.03l-.03.03v.03l-.03.03v.04l-.02.04v.03h0v.04l-.02.05v.04l-.02.05v.14s0,.06,0,.06v.11h0v.3s0,.05,0,.05l.02.04v.04l.02.04h0v.04l.02.03v.03l.03.04v.03l.03.03v.02l.03.03v.03l.03.02h0l.02.02.02.02.02.02.02.02.03.02h.02l.02.03h.03l.02.02h.03l.02.02h.03l.03.02h.05s.03.01.03.01h.32l.02-.02h.03l.03-.02h.02l.03-.02h.02l.03-.03h.02l.02-.03.03-.02.02-.02.02-.02.02-.02h0l.02-.02.02-.03v-.03l.03-.02.02-.03v-.03l.03-.04v-.03l.02-.03v-.04h0v-.04l.02-.04v-.04l.02-.05v-.19s0-.11.01-.11Zm3.36-1.56h0v-.03h.02v-.02s.03-.02.03-.02h0l.02-.02v-.02h.03s.02-.01.02-.01l.02-.02h.02l.02-.02h.02l.02-.02h.09s.96-.01.96-.01l-5.37,7.04h0l-.02.02v.02h-.04v.03h-.03l-.02.02v.02h-.03s-.02.01-.02.01l-.02.02h-.06l-.02.02h-1.04l5.37-7.04v.03Zm1.68,5.34h0v.16l-.02.08v.07l-.02.08v.07l-.03.07-.02.07-.03.07-.02.07h0l-.03.06-.03.07-.03.06-.04.06-.03.06-.04.05-.04.05-.04.06-.04.05-.05.04h0l-.04.05-.05.04-.05.04-.05.04-.06.04-.05.03-.06.04-.05.03-.06.03-.06.02h0l-.06.03-.07.02-.06.02h-.06l-.06.03h-.07l-.06.02h-.2s-.14.01-.14.01h-.07s-.07-.01-.07-.01l-.06-.02-.07-.02h-.06l-.07-.03-.06-.02-.06-.03h0l-.06-.02-.06-.03-.06-.03-.05-.04-.06-.03-.05-.04-.05-.04-.05-.04-.05-.04-.04-.05h0l-.05-.04-.04-.05-.04-.06-.03-.05-.04-.05-.03-.06-.03-.06-.03-.06-.03-.07-.03-.06h0l-.02-.07-.02-.07-.02-.07-.02-.07v-.07l-.02-.08v-.07l-.02-.08v-.16h0v-.25l.02-.07v-.08l.02-.08.02-.07.02-.07.02-.07.02-.07h0l.03-.07.03-.06.03-.07.03-.06.03-.05.04-.06.03-.06.04-.05.04-.05.05-.05h0l.04-.04.05-.05.05-.04.05-.04.05-.03.06-.04.05-.03.06-.03.06-.03.06-.03h0l.06-.02.06-.02.07-.02.06-.02h.07l.06-.03h.21s.07-.01.07-.01h.28s.07.03.07.03h.06l.07.03.06.02.07.02.06.02h0l.06.03.06.03.06.03.05.03.05.04.06.03.05.04.05.04.04.05.05.04h0l.04.05.04.05.04.05.04.06.04.06.03.05.03.06.03.07.03.06.03.07h0l.02.07.02.07.02.07.02.07v.08l.03.08v.15s0,.09,0,.09v.08h.01Zm-.96,0h0v-.36s0-.04,0-.04l-.02-.05v-.04h0v-.03l-.03-.04v-.04l-.02-.03-.02-.03-.02-.03v-.03l-.03-.03-.02-.03-.02-.02h0l-.02-.02-.02-.03-.02-.02-.02-.02h-.02l-.03-.03h-.02l-.03-.03h-.02l-.03-.02h-.02l-.03-.02h-.03l-.03-.02h-.17s-.06-.01-.06-.01h-.03s-.05.01-.05.01h-.06l-.03.02h-.02l-.03.02h-.02l-.03.02-.02.02h-.03l-.02.03h-.02l-.02.03-.02.02-.02.03-.02.02h0l-.02.02-.02.03-.02.03v.03l-.03.03v.03l-.03.03v.04l-.02.04v.03h0v.04l-.02.05v.09s0,.04,0,.04v.27h0v.39l.02.04v.04h0v.04l.02.03v.04l.03.03v.03l.03.03v.03l.03.03.02.02.02.02h0l.02.03.02.02.02.02.02.02h.02l.02.03h.03l.02.03h.03l.02.02h.03l.02.02h.06l.03.02h.31l.03-.02h.06l.02-.02h.03l.02-.02.03-.02h.02l.03-.03h.02l.02-.03.02-.02.02-.02.02-.03h0l.02-.02.02-.02.02-.03v-.03l.03-.03.02-.03v-.03l.02-.04.02-.03v-.04h0v-.04l.02-.04v-.18s0-.05,0-.05v-.16h-.01Z"/><path class="cls-8" d="m98.13,86.26h0v-.1l.03-.11.02-.09.03-.1.03-.09.03-.09.03-.09.04-.08.03-.08.05-.08h0l.04-.08.05-.07.04-.08.06-.07.05-.06.05-.07.06-.06.06-.06.06-.05.06-.06h0l.07-.05.07-.05.06-.04.08-.05.07-.04.07-.04.08-.03.08-.03.08-.03.08-.03h0l.09-.03.08-.02.09-.02.09-.02h.09l.09-.03h.18s.1-.01.1-.01h.29l.09.02h.1l.09.02h.09l.08.03.09.03.08.02.08.03h0l.08.03.08.03.07.03.08.04.07.04.06.04.07.04.06.05.06.04.06.05h0l.06.05.05.06.05.05.05.06.04.06.04.06.04.06.04.06.04.07.03.06h0l.03.07.02.07.03.07.02.07v.08l.03.07v.08l.02.07v.16h0v.32l-.02.06v.06l-.02.06v.05l-.03.06h0v.05l-.03.05-.02.05-.02.05-.02.04-.02.05-.03.04-.02.04-.03.04-.03.04h0l-.03.04-.03.04-.03.03-.04.04-.03.03-.04.04-.04.03-.04.03-.04.03-.04.02h0l-.04.03-.05.02-.04.03-.05.02-.05.03-.05.02-.05.02-.05.02-.05.02-.05.02h0l.12.04.12.05.12.05.1.06.1.06.1.06.08.07.09.07.07.08.07.08h0l.06.09.05.09.05.09.04.1.04.11.03.1.02.12v.11l.02.12v.13h0v.31l-.03.1v.1l-.04.09-.02.09-.03.09-.04.09-.03.08h0l-.04.08-.05.08-.05.08-.05.07-.05.08-.05.06-.06.07-.06.06-.07.06-.06.06h0l-.07.06-.07.05-.08.05-.07.05-.08.04-.08.04-.08.04-.09.03-.08.04-.09.03h0l-.09.03-.09.02-.1.02-.09.02-.09.02h-.1l-.09.02h-.2s-.41.01-.41.01l-.1-.02h-.1l-.09-.02-.09-.02-.09-.02-.09-.02-.08-.02h0l-.08-.03-.08-.03-.07-.03-.08-.03-.07-.04-.07-.04-.06-.04-.07-.04-.06-.04-.06-.05h0l-.06-.05-.06-.05-.06-.06-.05-.06-.05-.05-.05-.07-.05-.06-.05-.06-.04-.07-.04-.07h0l-.04-.07-.05-.08-.03-.08-.04-.07-.04-.08-.03-.09-.04-.08-.03-.09-.03-.09-.03-.09.54-.23h.04l.05-.03h.04l.04-.02h.12s.04-.01.04-.01h.03s.04.01.04.01l.04.02h.03l.04.02.03.02.03.02.02.02.03.02.02.03.02.03.02.03h0v.03l.03.04.02.03.02.04.02.03.02.04.02.03.02.03.02.04.02.03h0l.02.04.03.03.02.03.03.03.02.03.03.03.03.03.02.03.03.03.03.03h0l.03.02.03.03.04.02.03.02.03.03.04.02.04.02.03.02.04.02h.04l.04.03h.05l.04.02h.05l.05.02h.04l.06.02h.4s.05-.01.05-.01l.06-.02.05-.02h.05l.05-.03.05-.02h0l.04-.02.05-.02.04-.03.04-.02.04-.03.04-.02.04-.03.03-.03.03-.03.04-.04h0l.03-.03.03-.03.02-.04.03-.03.03-.04.02-.04.02-.04.02-.03.02-.04v-.04h.01l.02-.04v-.04l.02-.05v-.04l.02-.04v-.16s.01-.04.01-.04h0v-.25s-.01-.05-.01-.05l-.02-.04v-.09l-.02-.04h0l-.02-.04v-.05l-.03-.04-.02-.03-.02-.04-.02-.04-.03-.03-.03-.03-.03-.04-.03-.03h0l-.04-.03-.04-.02-.04-.03-.05-.03-.05-.02-.05-.02-.05-.03-.06-.02h-.06l-.07-.03h0l-.07-.02h-.07l-.07-.03h-.08l-.09-.02h-.28s-.11-.01-.11-.01h-.1v-.89h.34s.07-.01.07-.01l.08-.02h.07l.07-.02.06-.02h.06l.06-.03.06-.02.05-.02.05-.02.05-.02.05-.02.04-.02.04-.03.04-.02.04-.03h0l.03-.03.03-.03.03-.03.03-.04.03-.03.02-.04.02-.03.02-.04.02-.04.02-.04h0v-.04l.02-.04v-.04l.02-.04v-.05l.02-.04v-.19h.01v-.19s-.03-.09-.03-.09l-.02-.09-.02-.08-.04-.07-.03-.07-.05-.07-.04-.06-.06-.05h0l-.06-.05-.06-.05-.07-.04-.07-.03-.07-.03-.08-.02-.08-.02-.09-.02h-.22s-.05-.01-.05-.01h-.04s-.08.01-.08.01l-.04.02h-.08l-.04.03h-.03l-.04.02h-.04l-.03.03h-.04l-.03.03-.03.02-.04.02-.03.02-.03.02-.03.02h0l-.03.03-.02.02-.03.02-.03.03-.02.02-.03.03-.02.03-.02.02-.02.03-.02.03h0l-.02.03-.02.03-.02.04-.02.03v.03l-.03.03v.04l-.02.03v.04l-.02.03h0l-.02.05-.02.04-.02.04-.02.03-.02.03-.03.03-.02.03-.02.02-.03.02-.03.02h-.03l-.03.02h-.03l-.03.02h-.12s-.05.01-.05.01h-.04s-.05-.01-.05-.01l-.65-.12h0Z"/><path class="cls-8" d="m106,86.87l-.25.31h0l.04-.02.04-.02.05-.02.04-.02h.04l.05-.03h.05l.04-.03h.05l.05-.02h.05l.05-.02h.05l.05-.02h.1s.06-.01.06-.01h.05s.36-.01.36-.01l.08.02h.08l.07.03h.08l.08.03.08.03.08.02h0l.07.03.08.03.07.04.07.03.07.04.07.05.07.04.06.05.06.05.06.05h0l.06.06.05.06.06.06.05.06.05.07.04.07.05.07.04.07.04.08.04.08h0l.03.08.03.09.03.08.02.09.02.1.02.09v.1l.02.1v.21h.01v.2s-.01.1-.01.1l-.02.1-.02.09-.02.1-.02.09-.03.09-.03.09-.04.09h0l-.04.09-.04.08-.04.09-.05.08-.05.08-.05.07-.06.07-.06.08-.06.07-.07.06h0l-.07.07-.07.06-.07.06-.08.05-.08.06-.08.05-.09.05-.08.04-.09.04-.1.04h0l-.09.04-.1.03-.1.03-.1.02-.1.03h-.11l-.11.03h-.22s-.45.01-.45.01l-.1-.03h-.11l-.1-.03-.1-.03-.1-.03-.1-.03-.09-.03h0l-.09-.04-.09-.04-.08-.05-.08-.04-.08-.05-.08-.06-.08-.05-.07-.06-.07-.06-.06-.07h0l-.07-.07-.06-.07-.06-.07-.05-.08-.05-.07-.05-.09-.05-.08-.04-.09-.04-.09-.03-.09h0l-.04-.09-.02-.1-.03-.1-.02-.1-.02-.1-.02-.11v-.1l-.02-.11v-.23h0v-.31l.03-.1.02-.1.02-.11.03-.1.03-.11.03-.11.04-.1h0l.05-.11.04-.11.06-.11.06-.11.06-.11.06-.11.08-.12.07-.11.08-.12.09-.11,1.72-2.32h0l.02-.02.02-.02.02-.03.03-.02.02-.02.03-.02.03-.02.03-.02h.03l.03-.03h0l.04-.02h.03l.04-.03h.04l.04-.02h.12s.05-.01.05-.01h.04s1.1-.01,1.1-.01l-2.14,2.63h0Zm.28,3.67h.22s.06-.01.06-.01l.05-.02.05-.02h.06l.05-.03.05-.02h0l.05-.02.04-.02.05-.02.04-.03.05-.03.04-.03.04-.03.04-.03.04-.03.03-.04h0l.04-.03.03-.04.03-.04.03-.04.03-.04.03-.04.02-.05.03-.04.02-.05.02-.05h0l.02-.05.02-.05v-.05l.03-.05v-.05l.02-.06v-.16s.01-.06.01-.06h0v-.23s-.01-.06-.01-.06l-.02-.06-.02-.05v-.05l-.03-.05v-.05h-.01l-.02-.05-.02-.05-.03-.05-.02-.04-.03-.04-.03-.04-.03-.04-.03-.04-.03-.04-.03-.03h0l-.04-.04-.04-.03-.03-.03-.04-.03-.05-.03-.04-.02-.04-.03-.05-.02-.05-.02-.04-.02h-.05l-.05-.03h-.06l-.05-.02h-.05l-.06-.02h-.11s-.06-.01-.06-.01h-.05s-.12-.01-.12-.01h-.06s-.05.01-.05.01l-.05.02h-.06l-.05.02-.05.02h-.05l-.05.03h0l-.05.02-.04.03-.05.02-.04.03-.04.02-.04.03-.04.03-.04.03-.03.04-.04.03h0l-.03.04-.03.04-.03.03-.03.04-.03.05-.03.04-.02.04-.02.05-.02.04-.02.05h0l-.02.05-.02.05v.05l-.02.05v.05l-.02.06v.1s-.01.06-.01.06v.05h-.01v.23s.01.06.01.06l.02.05v.06l.02.05.02.05v.05h.01l.02.05.02.05.02.04.02.05.03.04.02.04.03.04.03.04.03.04.03.03h0l.03.04.04.03.03.03.04.03.04.03.04.03.04.02.05.02.04.03.05.02h0l.05.02h.05l.05.03h.06l.05.02h.11s.06.01.06.01h.06s.07.01.07.01h0Z"/><path class="cls-8" d="m112.91,85.99h0v.24l-.02.08v.07l-.03.08-.02.07-.02.07-.02.07-.03.06h0l-.03.07-.03.06-.03.06-.03.06-.04.06-.03.05-.04.06-.05.05-.04.05-.04.05h0l-.05.04-.05.05-.05.04-.05.03-.05.04-.06.04-.05.03-.06.03-.06.03-.06.02h0l-.06.03-.06.02-.06.02h-.07l-.06.03h-.06l-.07.02h-.19s-.15.01-.15.01h-.06s-.07-.01-.07-.01l-.07-.02-.07-.02h-.06l-.06-.03-.07-.02-.06-.03h0l-.06-.02-.06-.03-.05-.03-.06-.03-.05-.04-.06-.04-.05-.03-.05-.04-.04-.05-.05-.04h0l-.04-.05-.04-.05-.04-.05-.04-.06-.03-.05-.04-.06-.03-.06-.03-.06-.03-.06-.02-.07h0l-.03-.06-.02-.07-.02-.07v-.07l-.03-.08v-.07l-.02-.08v-.24h-.01v-.24s.01-.08.01-.08l.02-.08.02-.07v-.08l.03-.07.02-.07.03-.07h0l.02-.06.03-.07.03-.06.03-.06.04-.06.03-.06.04-.05.04-.05.04-.05.04-.05h0l.05-.05.04-.04.05-.04.05-.04.06-.04.05-.03.06-.04.05-.03.06-.03.06-.02h0l.06-.03.07-.02.06-.02.06-.02h.07l.07-.02h.07l.06-.02h.36l.07.02h.06l.07.02.06.02.07.02.06.02.06.03h0l.06.02.06.03.06.03.06.04.05.03.05.04.05.04.05.04.05.04.05.05h0l.04.05.04.05.04.05.04.05.04.06.03.06.03.06.03.06.03.07.03.06h0l.02.07.02.07.02.07.02.08v.07l.02.08v.08l.02.08v.16Zm-.95,0h0v-.26s-.01-.05-.01-.05l-.02-.05v-.04l-.02-.04v-.04h-.01v-.04l-.02-.04-.02-.03v-.04l-.02-.03-.02-.03-.02-.03-.02-.03v-.02l-.03-.03h0l-.02-.02-.02-.02-.02-.02-.03-.02-.02-.02-.02-.02h-.03l-.02-.02-.03-.02h-.02l-.03-.02h-.03l-.02-.02h-.14s-.18-.01-.18-.01h-.03s-.03.01-.03.01h-.05l-.03.02h-.02l-.03.02-.02.02h-.03l-.02.02-.02.02-.03.02-.02.02-.02.02-.02.02-.02.02h0l-.02.03v.02l-.03.03v.03l-.03.03v.03l-.03.04v.03l-.02.04v.04h-.01v.04l-.02.04v.04l-.02.05v.15s-.01.05-.01.05v.06s-.01.05-.01.05h0v.21s.01.05.01.05v.05s.01.04.01.04l.02.04v.04l.02.04h0v.04l.02.03v.04l.03.03v.03l.03.03v.03l.03.02v.03l.03.02h0l.02.03.02.02.02.02h.02l.03.03.02.02h.02l.03.03h.02l.03.02h.02l.03.02h.05l.03.02h.12s.11.01.11.01h.03s.06-.01.06-.01l.03-.02h.05l.03-.02h.02l.03-.02.02-.02h.03l.02-.03.02-.02h.03l.02-.03.02-.02.02-.03h0l.02-.02v-.03l.03-.02.02-.03.02-.03v-.03l.02-.03.02-.04v-.03l.02-.04h0v-.04l.02-.04v-.04l.02-.04v-.2s.01-.11.01-.11h0Zm3.36-1.55h0v-.02h.02l.02-.02h.01l.02-.02v-.02h.03s.01-.01.01-.01l.02-.03h.02l.02-.02h.02l.02-.02h.1s.06-.01.06-.01h.03s.9-.01.9-.01l-5.37,7.05h-.02v.03h-.02l-.02.03h-.01l-.02.02-.02.02h-.01l-.02.02h-.02l-.02.02h-.02l-.02.02h-.06s-.02.01-.02.01h-.03s-.97.01-.97.01l5.37-7.03v-.02Zm1.68,5.33h0v.16l-.02.08v.08l-.02.07v.08l-.03.07-.02.07-.03.07-.02.06h0l-.03.07-.03.06-.03.06-.04.06-.03.06-.04.05-.04.06-.04.05-.04.05-.05.05h0l-.05.04-.04.05-.05.04-.05.04-.06.03-.05.04-.06.03-.05.03-.06.03-.06.03h0l-.06.02-.07.02-.06.02-.06.02h-.06l-.07.02h-.06l-.07.02h-.34l-.07-.02h-.06l-.07-.02-.07-.02-.06-.02-.06-.02-.06-.02h0l-.06-.03-.06-.03-.06-.03-.05-.03-.06-.04-.05-.03-.05-.04-.05-.04-.05-.05-.04-.04h0l-.05-.05-.04-.05-.04-.05-.03-.06-.04-.05-.03-.06-.04-.06-.02-.06-.03-.06-.03-.07h0l-.02-.06-.02-.07-.02-.07-.02-.07v-.08l-.02-.07v-.08l-.02-.08v-.16h0v-.24l.02-.08v-.08l.02-.07.02-.08.02-.07.02-.07.02-.07h0l.03-.06.03-.07.02-.06.04-.06.03-.06.04-.06.03-.05.04-.05.04-.05.05-.05h0l.04-.05.05-.04.05-.04.05-.04.05-.04.06-.03.05-.04.06-.03.06-.03.06-.02h0l.06-.03.06-.02.06-.02.07-.02h.07l.06-.02h.07l.07-.02h.35l.07.02h.07l.06.02.07.02.06.02.06.02.07.03h0l.06.02.06.03.05.03.06.04.05.03.06.04.05.04.04.04.05.04.05.05h0l.04.05.04.05.04.05.04.05.04.06.03.06.03.06.03.06.03.07.03.06h0l.02.07.02.07.02.07.02.08v.07l.03.08v.16l.02.08s0,.08,0,.08Zm-.96,0h0v-.26s-.01-.05-.01-.05l-.02-.05v-.08l-.02-.04h0l-.02-.04v-.04l-.02-.03v-.04l-.03-.03-.02-.03v-.03l-.03-.03-.02-.02-.02-.03h0l-.02-.02-.02-.02-.02-.02-.02-.02-.02-.02-.03-.02h-.02l-.03-.02-.02-.02h-.03l-.02-.02h-.03l-.03-.02h-.14s-.18-.01-.18-.01h-.02s-.03.01-.03.01h-.06l-.02.02h-.03l-.02.02-.03.02h-.02l-.03.02-.02.02-.02.02-.02.02-.02.02-.02.02-.02.02h0l-.02.03-.02.02-.02.03v.03l-.03.03v.03l-.03.04v.03l-.02.04v.04h-.01v.04l-.02.04v.04l-.02.05v.31h0v.35l.02.04v.04l.02.04h0v.04l.02.04v.03l.03.03v.03l.03.03v.03l.03.03.02.02.02.03h0l.02.02.02.02.02.02.02.02.02.02h.02l.03.03h.02l.03.02h.02l.03.02h.02l.03.02h.08s.03.01.03.01h.03s.18.01.18.01h.03s.02-.01.02-.01h.03s.03-.01.03-.01l.03-.02h.02l.03-.02h.02l.03-.02.02-.02h.03l.02-.03.02-.02.02-.02.02-.02.02-.02h0l.02-.03.02-.02.02-.03v-.03l.03-.03.02-.03v-.03l.02-.03v-.04l.03-.04h0v-.04l.02-.04v-.08l.02-.05v-.15s.01-.11.01-.11Z"/><path class="cls-8" d="m224.07,83.37h0v-.1l.03-.1.02-.1.03-.09.03-.09.03-.09.03-.09.03-.09.04-.08.05-.08h0l.04-.07.05-.08.04-.07.05-.07.06-.07.05-.06.06-.06.06-.06.06-.06.06-.05h0l.07-.05.06-.05.07-.05.07-.04.08-.04.07-.04.08-.04.08-.03.08-.03.08-.03h0l.08-.02.09-.03.09-.02h.09l.09-.03h.09l.09-.02h.18s.39-.01.39-.01l.09.02h.1l.08.03.09.02.09.02.08.03.08.02h0l.08.03.08.03.07.04.07.03.08.04.06.04.07.05.06.04.06.05.06.05h0l.06.05.05.05.05.06.05.05.04.06.04.06.04.06.04.07.03.06.04.07h0l.02.07.03.07.02.07.02.07.02.07.02.08v.3h0v.27s0,.06,0,.06l-.02.06v.06l-.02.05v.06l-.03.05h0l-.02.05v.05l-.03.05-.02.05-.02.05-.03.04-.02.05-.02.04-.03.04-.03.04h0l-.03.04-.03.03-.03.04-.04.03-.03.04-.04.03-.04.03-.04.03-.04.03-.04.03h0l-.04.02-.05.03-.04.02-.05.03-.05.02-.05.02-.05.02-.05.03h-.05l-.05.03h0l.12.05.12.04.12.06.1.05.1.06.1.07.08.07.08.07.08.08.07.08h0l.06.08.05.09.05.1.04.1.04.1.02.11.03.11v.12l.02.12v.12h0v.32l-.03.1v.09l-.04.1-.02.09-.03.09-.04.08-.03.09h0l-.05.08-.04.08-.05.08-.05.07-.05.07-.06.07-.05.07-.06.06-.07.06-.06.06h0l-.07.05-.08.05-.07.05-.07.05-.08.04-.08.05-.08.03-.09.04-.09.03-.08.03h0l-.09.03-.1.03-.09.02-.09.02h-.09l-.1.02h-.09l-.1.02h-.61l-.1-.02-.09-.02h-.09l-.09-.03-.09-.02-.08-.03h0l-.08-.02-.08-.03-.07-.03-.08-.04-.07-.03-.07-.04-.07-.04-.06-.04-.06-.05-.06-.05h0l-.06-.05-.06-.05-.06-.05-.05-.06-.05-.06-.05-.06-.05-.06-.05-.07-.04-.07-.04-.07h0l-.05-.07-.04-.07-.04-.08-.03-.08-.04-.08-.04-.08-.03-.09-.03-.09-.03-.09-.03-.09.54-.22h0l.04-.02h.04l.05-.02h.04l.04-.02h.19s.04.01.04.01l.03.02.03.02h.04l.02.03.03.02.02.03.03.02.02.03.02.03h0v.04l.03.03.02.04.02.03.02.04.02.03.02.04.02.03.02.03.02.04h0l.02.03.03.03.02.04.02.03.03.03.03.03.02.03.03.03.03.03.03.02h0l.03.03.03.02.03.03.04.02.03.02.04.02.03.02.04.02.04.02.04.02h.04l.05.03h.04l.05.02h.04l.05.02h.45l.06-.02h.05l.06-.02.05-.02h.05l.05-.03h0l.04-.02.05-.03.04-.02.04-.03.04-.02.04-.03.03-.03.04-.03.03-.03.04-.03h0l.03-.04.03-.03.02-.03.03-.04.02-.04.03-.03.02-.04.02-.04v-.04l.03-.04h0l.02-.04v-.04l.02-.04v-.04l.02-.04v-.21h0v-.29l-.02-.05v-.13h0l-.02-.04v-.04l-.03-.04-.02-.04-.02-.04-.02-.03-.03-.04-.03-.03-.03-.03-.03-.03h0l-.04-.03-.04-.03-.04-.03-.05-.02-.05-.03-.05-.02-.06-.02-.05-.02-.07-.02-.06-.02h-.07l-.07-.03h-.08l-.08-.02h-.08l-.09-.02h-.4v-.88h.33l.08-.02h.08l.07-.02h.06l.07-.02.06-.02h.06l.06-.03.05-.02.05-.02.05-.02.05-.02.04-.03.04-.02.04-.03.04-.03h0l.03-.03.03-.03.03-.03.03-.03.03-.04.02-.03.02-.04.02-.03.02-.04.02-.04h0v-.04l.02-.04v-.05l.02-.04v-.09s0-.04,0-.04v-.14h0v-.1l-.02-.1v-.09l-.03-.08-.03-.08-.03-.08-.03-.07-.05-.06-.05-.06-.05-.06h0l-.06-.05-.06-.04-.07-.04-.07-.04-.07-.03-.08-.02-.08-.02h-.09l-.09-.02h-.3s-.04.01-.04.01l-.04.02h-.04l-.04.02h-.03l-.04.03h-.04l-.03.02-.04.02-.03.02h-.03l-.04.03-.03.02-.03.03-.03.02h0l-.03.02-.03.02-.02.03-.03.02-.02.03-.03.02-.02.03-.02.03-.02.03-.02.03h0l-.02.03-.02.03-.02.03-.02.03v.04l-.03.03v.03l-.02.04v.03l-.02.04h0l-.02.04-.02.04-.02.04-.02.04-.02.03-.03.03-.02.02-.03.03-.02.02h-.03l-.03.03h-.03l-.03.02h-.29l-.65-.12.02-.02Z"/><path class="cls-8" d="m232.23,87.7h.23l.05-.02h.05l.06-.02h.05l.04-.03h.05l.05-.03.04-.02.04-.02.04-.02.04-.03.04-.02.04-.03.03-.03.03-.03.04-.03h0l.03-.03.03-.03.02-.04.03-.03.03-.04.02-.03.02-.04.02-.04.02-.04.02-.05h0v-.04l.02-.04.02-.05v-.04l.02-.05v-.14s0-.1,0-.1h0v-.12l-.02-.11v-.1l-.04-.1-.03-.09-.03-.09-.05-.08-.05-.08-.05-.07-.06-.06h0l-.07-.06-.08-.05-.08-.05-.08-.04-.09-.03-.09-.03-.1-.02h-.1l-.11-.02h-.34l-.1.02-.1.02-.09.03-.09.03-.08.04-.08.05-.08.05-.06.06h0l-.07.06-.05.07-.05.08-.05.08-.03.09-.03.09-.03.1v.1l-.02.11v.12h0v.19l.02.05v.09l.03.05v.04l.03.04h0v.05l.03.04.02.04.02.04.02.03.03.04.02.03.03.04.03.03.03.03h0l.03.03.04.03.03.03.04.03.04.02.04.03.04.02.04.02.04.02.05.02h.05l.05.03h.04l.06.02h.05l.05.02h.25Zm0-5.49h-.21s-.05.01-.05.01l-.05.02h-.04l-.05.02-.04.02h-.04l-.04.03-.04.02-.03.02-.04.02-.03.02-.04.03-.03.02-.03.03-.03.02-.02.03h0l-.03.03-.02.03-.03.03-.02.03-.02.03-.02.04-.02.03v.04l-.03.03v.04h0v.04l-.02.03v.04l-.02.04v.24h0v.34l.02.04v.04h0v.04l.02.04.02.03.02.04v.04l.03.03.02.04.02.03.03.04.02.03h0l.03.03.02.03.03.03.03.02.04.03.03.02.03.03.04.02.04.02.04.02h0l.04.02h.05l.04.03h.05l.05.02h.1s.06.01.06.01h.06s.23.01.23.01h.05s.05-.01.05-.01l.05-.02h.05l.04-.03h.05l.04-.03h0l.04-.02.04-.02.04-.02.03-.03.04-.02.03-.03.03-.02.03-.03.02-.03.03-.03h0l.02-.03.03-.04.02-.03.02-.04.02-.03v-.04l.03-.04v-.03l.02-.04.02-.04h0v-.13l.02-.04v-.25h0v-.28l-.02-.04v-.03l-.02-.04h0l-.02-.04v-.03l-.03-.04-.02-.03-.02-.04-.02-.03-.02-.03-.02-.03-.02-.03-.03-.03h0l-.03-.03-.02-.02-.03-.03-.04-.02-.03-.03-.03-.02-.04-.02-.03-.02-.04-.02-.04-.02h-.04l-.04-.03h-.05l-.04-.02h-.05l-.05-.02h-.15s-.05-.01-.05-.01h0Zm1.22,2.61h0l.12.04.13.05.11.06.11.06.1.06.09.07.09.07.08.08.07.08.07.09h0l.06.09.05.09.05.1.04.1.04.11.02.11.03.11v.12l.02.12v.13h0v.19s0,.09,0,.09l-.02.09-.02.09-.02.08-.03.09-.02.08-.03.08-.04.08h0l-.04.07-.04.08-.04.07-.05.07-.05.07-.05.06-.06.07-.05.06-.07.06-.06.05h0l-.07.06-.07.05-.07.05-.08.04-.07.05-.08.04-.09.04-.08.03-.09.04-.09.03h0l-.1.03-.09.02-.1.02-.1.02-.1.02h-.1l-.11.02h-.1l-.11.02h-.34l-.1-.02h-.11l-.1-.02-.1-.02-.1-.02-.1-.02-.1-.02-.09-.03h0l-.09-.03-.09-.04-.08-.03-.09-.04-.08-.04-.08-.05-.07-.04-.07-.05-.07-.05-.07-.06h0l-.06-.05-.07-.06-.05-.06-.06-.07-.05-.06-.05-.07-.05-.07-.05-.07-.04-.08-.03-.07h0l-.04-.08-.03-.08-.03-.08-.02-.09-.02-.08-.02-.09v-.09l-.02-.09v-.19h0v-.25l.02-.12.03-.11.02-.11.04-.11.04-.1.05-.1.05-.09.06-.09h0l.07-.09.07-.08.08-.08.09-.07.09-.07.1-.06.11-.06.11-.06.13-.05.13-.04h0l-.11-.05-.09-.05-.1-.05-.08-.06-.08-.06-.08-.06-.07-.07-.07-.07-.06-.08-.05-.08h0l-.05-.08-.05-.09-.04-.08-.03-.1-.03-.09-.02-.1-.02-.1v-.11l-.02-.11v-.11h0v-.24l.02-.08.02-.08v-.07l.04-.08.02-.07.03-.08.03-.07h0l.04-.07.03-.07.04-.06.05-.07.04-.06.05-.06.05-.06.06-.05.05-.06.06-.05h0l.06-.05.06-.05.07-.05.07-.04.07-.05.07-.04.08-.03.07-.04.08-.03.09-.03h0l.08-.03.09-.03.08-.02.09-.02h.1l.09-.03h.09l.1-.02h.49l.09.02.09.02h.09l.09.03.09.02.09.03.08.03h0l.08.03.08.03.08.04.08.03.07.04.07.05.07.04.07.05.06.05.06.05h0l.06.05.05.06.06.05.05.06.05.06.04.06.04.07.04.06.04.07.04.07h0l.03.07.03.08.02.07.02.08.02.07.02.08v.08l.02.08v.16h0v.11l-.02.11v.11l-.03.1-.02.1-.03.09-.03.1-.04.08-.05.09-.05.08h0l-.05.08-.06.08-.07.07-.07.07-.08.06-.08.06-.08.06-.1.05-.09.05-.1.05h.01Z"/><path class="cls-8" d="m238.85,83.11h0v.24s0,.07,0,.07l-.02.08-.02.07-.02.07-.02.07-.02.07-.03.07h0l-.03.06-.03.07-.03.06-.03.06-.04.05-.04.06-.04.05-.04.06-.04.05-.04.04h0l-.05.05-.05.04-.05.04-.05.04-.05.04-.06.03-.05.03-.06.03-.06.03-.06.03h0l-.06.02-.06.02-.07.02-.06.02h-.06l-.06.02h-.07l-.06.02h-.35l-.06-.02h-.07l-.07-.02-.06-.02-.07-.02-.06-.02-.06-.02h0l-.06-.03-.06-.03-.06-.03-.05-.03-.05-.03-.06-.04-.05-.04-.05-.04-.04-.04-.05-.05h0l-.04-.04-.04-.05-.04-.06-.04-.05-.04-.06-.03-.05-.03-.06-.03-.06-.03-.07-.02-.06h0l-.03-.07-.02-.07-.02-.07v-.07l-.03-.07v-.08l-.02-.07v-.24h0v-.25s0-.08,0-.08l.02-.07.02-.08v-.07l.03-.07.02-.07.03-.07h0l.02-.07.03-.06.03-.07.03-.06.03-.06.04-.05.04-.06.04-.05.04-.05.04-.05h0l.05-.04.04-.05.05-.04.05-.04.06-.03.05-.04.05-.03.06-.03.06-.03.06-.03h0l.06-.02.06-.02.07-.02.06-.02h.07l.07-.03h.28s.14-.01.14-.01h.07s.06.01.06.01l.07.03h.07l.06.03.07.02.06.02.06.02h0l.06.03.06.03.06.03.05.03.06.04.05.03.05.04.05.04.05.05.05.04h0l.04.05.04.05.04.05.04.06.04.05.03.06.03.06.03.07.03.06.03.07h0l.02.07.02.07.02.07.02.07v.08l.02.07v.08l.02.08v.17h0Zm-.95,0h0v-.32l-.02-.04v-.05l-.02-.04v-.04h0v-.04l-.02-.03-.02-.04v-.03l-.03-.03v-.03l-.03-.03-.02-.03-.02-.03v-.02h0l-.02-.03-.02-.02-.03-.02-.02-.02h-.02l-.02-.03-.03-.02h-.02l-.03-.02h-.02l-.03-.02h-.03l-.02-.02h-.06s-.03-.01-.03-.01h-.32l-.02.02h-.03l-.02.02h-.03l-.03.02h-.02l-.02.03-.03.02h-.02l-.02.03-.02.02-.02.02-.02.03h0l-.02.02v.03l-.03.03-.02.03v.03l-.03.03v.03l-.02.04v.03l-.02.04h0l-.02.04v.09l-.02.04v.1s0,.11,0,.11v.11h0v.3l.02.05v.08l.02.04h0v.03l.02.04v.03l.02.03.02.04v.02l.03.03.02.03v.02l.03.03h0l.02.02.02.02.02.02.02.02.02.02h.03l.02.03h.02l.03.02h.03l.02.02h.03l.02.02h.06s.03.01.03.01h.32l.02-.02h.03l.03-.02h.02l.03-.02h.02l.03-.03h.02l.02-.03.02-.02.03-.02.02-.02.02-.02h0v-.03l.03-.02.02-.03.02-.03v-.02l.03-.04v-.03l.03-.03v-.04l.02-.03h0v-.04l.02-.04v-.04l.02-.05v-.3h0Zm3.36-1.56h0v-.03h.02v-.02l.02-.02h0l.02-.02v-.02h.05v-.02h.02l.03-.02h.02l.02-.02h1.05l-5.37,7.04h0l-.02.02h0l-.02.03h0l-.02.03h0l-.02.02v.02h-.03s-.02.01-.02.01l-.02.02h-.06l-.02.02h-1.04l5.37-7.04h.01Zm1.68,5.34h0v.16s0,.08,0,.08l-.02.07v.08l-.03.07v.07l-.03.07-.03.07-.02.07h0l-.03.06-.03.07-.03.06-.04.06-.03.05-.04.06-.04.05-.04.06-.04.05-.05.04h0l-.05.05-.04.04-.05.04-.06.04-.05.04-.05.03-.06.04-.06.03-.05.03-.06.02h0l-.07.03-.06.02-.06.02h-.06l-.07.03h-.06l-.06.02h-.2s-.14.01-.14.01h-.07s-.07-.01-.07-.01l-.07-.02-.06-.02h-.07l-.06-.03-.06-.02-.06-.03h0l-.07-.02-.05-.03-.06-.03-.06-.04-.05-.03-.05-.04-.05-.04-.05-.04-.05-.04-.04-.05h0l-.05-.04-.04-.05-.04-.06-.04-.05-.03-.06-.03-.05-.04-.06-.03-.06-.02-.07-.03-.06h0l-.02-.07-.02-.07-.02-.07-.02-.07v-.07l-.02-.08v-.07l-.02-.08v-.16h0v-.25l.02-.08v-.07l.02-.08.02-.07.02-.07.02-.07.02-.07h0l.03-.07.02-.06.03-.07.04-.06.03-.06.03-.05.04-.06.04-.05.04-.05.05-.05h0l.04-.04.05-.05.05-.04.05-.04.05-.03.05-.04.06-.03.06-.03.05-.03.07-.03h0l.06-.02.06-.02.06-.02.07-.02h.06l.07-.03h.14s.07-.01.07-.01h.07s.14-.01.14-.01h.07s.07.01.07.01l.07.03h.06l.07.03.06.02.06.02.07.02h0l.06.03.06.03.05.03.06.03.05.04.05.03.06.04.04.04.05.05.05.04h0l.04.05.04.05.04.05.04.06.04.05.03.06.03.06.03.07.03.06.03.07h0l.02.07.02.07.02.07.02.07v.08l.02.07v.08l.02.08v.17h0Zm-.96,0h0v-.32l-.02-.04v-.13h0l-.02-.04v-.03l-.02-.04-.02-.03v-.03l-.03-.03v-.03l-.03-.03-.02-.03-.02-.02h0l-.02-.03-.02-.02-.02-.02-.02-.02h-.02l-.03-.03-.02-.02h-.03l-.02-.02h-.03l-.03-.02h-.02l-.03-.02h-.05s-.03-.01-.03-.01h-.12s-.06-.01-.06-.01h-.03s-.05.01-.05.01h-.06l-.03.02h-.02l-.03.02h-.03l-.02.02h-.02l-.03.03-.02.02h-.02l-.02.03-.03.02-.02.02v.03h0l-.02.02-.02.03-.02.03v.03l-.03.03v.03l-.03.03v.04l-.02.03v.04h0v.04l-.02.04v.05l-.02.04v.15s0,.17,0,.17h0v.3s0,.05,0,.05l.02.04v.04l.02.04h0v.04l.02.03v.04l.03.03v.03l.03.03v.03l.03.02.02.03.02.02h0v.03l.03.02.03.02h.02l.02.03.02.02h.03l.02.03h.02l.03.02h.03l.02.02h.06l.03.02h.31l.03-.02h.05l.03-.02h.03l.02-.02.03-.02h.02l.03-.03.02-.02h.02l.02-.03.02-.02.02-.03h0l.02-.02.02-.03.02-.02v-.03l.03-.03v-.03l.03-.03v-.04l.02-.03.02-.04h0v-.08s0-.04,0-.04l.02-.05v-.3h0Z"/></g><g class="cls-9"><path class="cls-7" d="m17.1,115.6h0v.36l-.02.18v.17l-.03.16-.02.16-.03.16-.03.15-.04.14-.04.15h0l-.04.13-.04.13-.05.13-.05.12-.05.11-.06.11-.06.11-.06.1-.07.1-.07.09h0l-.07.09-.07.08-.08.08-.08.07-.08.07-.08.07-.09.06-.09.05-.09.05-.1.05h0l-.09.04-.1.04-.1.03-.1.03-.1.03-.1.02h-.1l-.11.02h-.22s-.21.01-.21.01l-.11-.02h-.1l-.11-.03-.1-.03-.1-.03-.1-.03-.09-.04-.1-.04h0l-.09-.05-.09-.05-.09-.05-.09-.06-.08-.07-.08-.07-.08-.07-.08-.08-.07-.08-.07-.09h0l-.07-.09-.06-.1-.07-.1-.06-.11-.05-.11-.06-.11-.05-.12-.04-.13-.05-.13-.04-.13h0l-.04-.15-.03-.14-.03-.15-.03-.16-.02-.16-.02-.16v-.17l-.02-.18v-.36h-.01v-.37l.02-.18v-.17l.03-.16.02-.16.03-.16.03-.15.03-.14.04-.14h0l.04-.14.05-.13.04-.13.05-.12.06-.11.05-.12.06-.1.07-.11.06-.09.07-.09h0l.07-.09.07-.09.08-.08.08-.07.08-.07.08-.07.09-.06.09-.05.09-.05.09-.05h0l.1-.04.09-.04.1-.03.1-.03.1-.02.11-.02.1-.02h.11l.11-.02h.32l.11.02.1.02.1.02.1.02.1.03.1.03.1.04.09.04h0l.1.05.09.05.09.05.09.06.08.07.08.07.08.07.08.08.07.09.07.09h0l.07.09.07.09.06.11.06.1.06.12.05.11.05.12.05.13.04.13.04.14h0l.04.14.04.14.03.15.03.16.02.16.02.16v.17l.02.18v.37Zm-.93,0h0v-.47l-.02-.15v-.14l-.03-.13v-.13l-.03-.13-.03-.12-.03-.11h0l-.02-.11-.03-.1-.04-.11-.03-.09-.04-.09-.03-.09-.04-.09-.05-.07-.04-.08-.05-.07h0l-.04-.07-.05-.06-.05-.06-.05-.05-.05-.05-.06-.05-.05-.04-.06-.04-.06-.03-.06-.03h0l-.06-.03-.06-.03-.07-.02-.06-.02-.06-.02h-.07l-.06-.02h-.39l-.07.02h-.06l-.06.03-.06.02-.07.02-.06.03-.06.03h0l-.06.03-.06.03-.06.04-.05.04-.06.05-.05.05-.05.05-.05.06-.05.06-.05.07h0l-.04.07-.04.08-.04.07-.04.09-.04.09-.04.09-.03.09-.04.11-.03.1-.03.11h0l-.02.11-.02.12-.02.13-.02.13-.02.13v.14l-.02.15v.47h-.01v.46s.01.15.01.15l.02.14.02.13.02.13.02.13.02.12.02.11h0l.03.11.03.1.04.1.03.1.04.09.04.09.04.08.04.08.04.08.04.07h0l.05.06.05.06.05.06.05.06.05.05.06.04.05.05.06.04.06.03.06.04h0l.06.02.06.03.07.02.06.02h.06l.06.03h.26s.14.01.14.01h.06s.06-.01.06-.01l.07-.03h.06l.06-.03.07-.02.06-.03.06-.02h0l.06-.04.06-.03.06-.04.05-.05.06-.04.05-.05.05-.06.05-.06.05-.06.04-.06h0l.05-.07.04-.08.05-.08.04-.08.03-.09.04-.09.03-.1.04-.1.03-.1.02-.11h0l.03-.11.03-.12.02-.13v-.13l.03-.13v-.14l.02-.15v-.3s.01-.16,0-.16Z"/><path class="cls-7" d="m21.01,113.74h0v.24s-.01.08-.01.08l-.02.08-.02.07v.08l-.03.07-.03.07-.02.07h0l-.03.06-.03.06-.03.06-.03.06-.03.06-.04.06-.04.05-.04.05-.04.05-.04.05h0l-.04.04-.05.04-.05.04-.04.04-.05.03-.06.04-.05.03-.05.03-.06.03-.06.02h0l-.05.02-.06.02-.06.02-.06.02h-.06l-.06.02h-.06l-.06.02h-.33l-.06-.02h-.06l-.07-.02-.06-.02-.06-.02-.06-.02-.06-.02h0l-.05-.02-.06-.03-.05-.03-.06-.03-.05-.04-.05-.03-.04-.04-.05-.04-.05-.04-.04-.04h0l-.04-.05-.04-.05-.04-.05-.03-.05-.04-.06-.03-.06-.03-.06-.03-.06-.03-.06-.02-.06h0l-.02-.07-.02-.07-.02-.07-.02-.08v-.07l-.02-.08v-.08l-.02-.08v-.16h0v-.25l.02-.08v-.08l.02-.07.02-.08.02-.07.02-.07.02-.06h0l.02-.07.03-.06.03-.07.03-.06.03-.05.04-.06.03-.05.04-.05.04-.05.04-.05h0l.04-.04.05-.05.05-.04.04-.04.05-.03.05-.04.06-.03.05-.03.06-.02.05-.03h0l.06-.02.06-.02.06-.02.06-.02h.07l.06-.02h.13s.06-.01.06-.01h.33l.07.02h.06l.06.03.06.02.06.02.06.02h0l.06.03.05.02.06.03.05.03.05.04.05.03.05.04.05.04.04.05.04.04h0l.05.05.04.05.04.05.03.05.04.06.03.05.03.06.03.07.03.06.02.07h0l.02.06.02.07.02.07.02.08v.07l.02.08v.08l.02.08s0,.17,0,.17Zm-.69,0h0v-.25s-.01-.05-.01-.05l-.02-.06v-.1l-.03-.05v-.05h-.01v-.04l-.03-.05-.02-.04v-.04l-.03-.04-.02-.04-.02-.03-.03-.03-.02-.03-.03-.03h0l-.02-.03-.02-.03-.03-.03-.03-.02-.03-.02-.03-.02-.03-.02-.03-.02-.03-.02h-.03l-.03-.02h-.04l-.03-.02h-.04l-.03-.02h-.11s-.21-.01-.21-.01h-.04s-.03.01-.03.01l-.04.02h-.03l-.03.02h-.04l-.03.02-.03.02-.03.02-.03.02-.03.02-.02.02-.03.02-.03.03-.02.03-.03.03h0l-.02.03-.02.03-.02.03-.02.03-.02.04-.02.04-.02.04-.02.04v.05l-.03.04h0v.05l-.02.05v.05l-.02.05v.11s-.01.06-.01.06v.19h-.01v.13s.01.12.01.12v.11l.02.05v.05l.02.05v.05h.01l.02.04v.04l.03.04.02.04.02.04.02.04.02.03.02.03.02.04.02.03h0l.03.02.02.03.03.02.03.03.02.02.03.02h.03l.03.03.03.02h.03l.04.02h.03l.03.02h.04l.03.02h.14s.15.01.15.01h.03s.07-.01.07-.01l.04-.02h.03l.04-.02h.03l.03-.02.03-.02.03-.02h.03l.03-.03.03-.02.03-.03.03-.02.02-.03.02-.02h0l.03-.03.02-.04.03-.03.02-.03.02-.04.02-.04v-.04l.03-.04.02-.04v-.04h.01v-.05l.03-.05v-.1s.01-.06.01-.06l.02-.05v-.19s.01-.06.01-.06Zm3.22-1.58h.02v-.02h.02v-.03h.02v-.02h.02v-.02h.03s.01-.01.01-.01l.02-.02h.03s.02-.01.02-.01h.02s.02-.01.02-.01h.71l-5.24,7.02h-.01v.03h-.02v.02h-.01v.02h-.03v.02h-.02l-.02.02h-.02l-.02.02h-.78s5.23-7.01,5.23-7.01Zm1.43,5.33h0v.24l-.02.08v.07l-.02.08-.02.07-.02.07-.02.07-.03.07h0l-.02.06-.03.06-.03.06-.03.06-.04.06-.03.06-.04.05-.04.05-.04.05-.05.05h0l-.04.04-.04.04-.05.04-.05.04-.05.03-.05.04-.05.03-.06.03-.05.03-.06.02h0l-.06.02-.06.02-.05.02-.06.02h-.06l-.06.02h-.07l-.06.02h-.32l-.07-.02h-.06l-.07-.02-.06-.02-.06-.02-.06-.02-.06-.02h0l-.05-.02-.06-.03-.05-.03-.05-.03-.05-.04-.05-.03-.05-.04-.05-.04-.04-.04-.05-.04h0l-.04-.05-.04-.05-.03-.05-.04-.05-.03-.06-.03-.06-.03-.06-.03-.06-.03-.06-.03-.06h0l-.02-.07-.02-.07-.02-.07v-.07l-.03-.08v-.15s-.01-.08-.01-.08v-.08s-.01-.08-.01-.08h-.01v-.17s.01-.08.01-.08v-.08s.01-.08.01-.08l.03-.08v-.07l.03-.07.02-.07.02-.07h0l.03-.07.03-.06.03-.06.03-.06.03-.06.03-.06.04-.05.03-.05.04-.05.04-.05h0l.05-.04.04-.05.05-.04.05-.04.05-.03.05-.04.05-.03.05-.03.06-.02.05-.03h0l.06-.02.06-.02.06-.02.06-.02h.07l.06-.02h.26s.14-.01.14-.01h.06s.07.01.07.01l.06.02h.06l.06.03.06.02.06.02.06.02h0l.06.03.05.02.06.03.05.03.05.04.05.03.05.04.05.04.04.05.04.04h0l.05.05.04.05.04.05.03.05.04.06.03.06.03.06.03.06.03.06.02.07h0l.02.07.02.07.02.07.02.07v.08l.02.08v.08l.02.08v.17h0Zm-.69,0h0v-.31s-.01-.05-.01-.05l-.02-.06v-.05l-.02-.05-.02-.04h0v-.05l-.03-.05v-.04l-.03-.04-.02-.04-.02-.03-.02-.04-.02-.03-.03-.03-.02-.03h0l-.02-.03-.03-.03-.03-.02-.02-.03-.03-.02-.03-.02-.03-.02-.03-.02h-.03l-.04-.02h0l-.03-.02h-.03l-.04-.02h-.07s-.03-.01-.03-.01h-.04s-.03-.01-.03-.01h-.04s-.14-.01-.14-.01h-.04s-.04.01-.04.01h-.03s-.03.01-.03.01l-.04.02h-.03l-.04.03h-.03l-.03.02-.03.02-.03.02-.03.02-.02.02-.03.03-.03.02-.02.03-.03.03h0l-.02.03-.02.03-.02.03-.02.04-.02.03-.02.04-.02.04-.02.04v.05l-.03.05h0v.04l-.02.05v.05l-.02.06v.17s-.01.06-.01.06v.06s-.01.07-.01.07h0v.24s.01.06.01.06v.05s.01.05.01.05l.02.05v.05l.02.05h0l.02.04v.04l.03.04.02.04.02.04.02.04.02.03.02.03.02.04.02.03h0l.03.02.02.03.03.02.03.03.02.02.03.02h.03l.03.03.03.02h.03l.04.02h.03l.04.02h.03l.03.02h.4l.03-.02h.04l.03-.02h.03l.04-.02.03-.02.03-.02h.03l.03-.03.03-.02.02-.03.03-.02.03-.03.02-.02h0l.02-.03.03-.04.02-.03.02-.03.02-.04.02-.04.02-.04v-.04l.03-.04v-.04h0l.02-.05v-.05l.02-.05v-.05l.02-.05v-.18s.01-.12.01-.12h.01Z"/><path class="cls-7" d="m10.73,96.31h.09s.02.01.02.01h.02s.03.01.03.01l.02.02.02.02h.02v.03h.01l.02.02h.02v.03s.01.02.01.02l.02.03v.04s.01.03.01.03v.02s.01.57.01.57h-4.78v-.31h0v-.04h0v-.03s.01-.06.01-.06l.02-.02v-.04h0v-.02l.02-.02v-.02l.02-.02v-.02l.02-.02.02-.02h.01l.02-.03v-.02l2.31-2.3h0l.06-.06.05-.06.06-.05.05-.06.05-.06.05-.05.05-.06.05-.05.05-.05.05-.06h0l.05-.05.04-.06.04-.05.05-.05.04-.06.04-.05.03-.06.04-.05.04-.05.03-.06h0l.03-.05.03-.06.03-.05.03-.05.03-.06.02-.05.02-.06.03-.05.02-.06v-.05h0l.02-.06.02-.06v-.05l.02-.06v-.06l.02-.06v-.12s.01-.13.01-.13h0v-.24l-.02-.05v-.06l-.02-.05-.02-.05-.02-.05-.02-.05h0l-.02-.04-.02-.05-.02-.04-.03-.05-.02-.04-.03-.03-.03-.04-.03-.04-.04-.03-.03-.03h0l-.03-.03-.04-.03-.04-.03-.04-.02-.04-.03-.04-.02-.04-.02-.04-.02-.05-.02h-.05l-.04-.03h-.05l-.05-.02h-.05l-.05-.02h-.05l-.05-.02h-.37l-.05.02h-.05l-.05.02h-.05l-.05.02-.05.02h-.04l-.05.03-.04.02-.04.02-.04.02-.04.03-.04.02-.04.03-.04.02-.04.03h0l-.03.03-.03.03-.04.03-.03.03-.03.04-.03.03-.02.04-.03.03-.03.04-.02.04h0l-.02.04-.03.04-.02.04v.04l-.03.04-.02.05v.04l-.03.05v.04l-.02.05h0v.03l-.03.03v.03l-.03.03v.02l-.03.03-.02.02h0l-.02.03h-.03l-.02.02h-.02l-.02.02h-.22l-.47-.09h0l.02-.09.02-.1.02-.09.02-.09.03-.09.03-.08.03-.09.03-.08.04-.08.03-.07h0l.05-.08.04-.07.05-.07.04-.07.05-.06.06-.06.05-.06.06-.06.05-.06.06-.05h0l.07-.05.06-.04.07-.05.07-.04.07-.04.07-.04.07-.03.08-.04.07-.03.08-.02h0l.08-.03.08-.02.08-.02.09-.02h.08l.09-.03h.17s.09-.01.09-.01h.45l.08.03h.09l.08.03.08.02.09.02.07.03h0l.08.03.08.03.07.03.07.04.07.03.07.04.07.05.06.04.06.05.06.05h0l.06.05.05.06.05.06.05.06.05.06.04.06.04.07.04.06.04.07.03.08h0l.04.07.02.08.03.08.02.08.02.08v.09l.03.08v.28h.01v.23l-.02.08v.07l-.02.08-.02.07-.02.07-.02.07-.02.07h0l-.02.07-.03.07-.03.06-.03.07-.03.07-.03.06-.04.06-.04.07-.03.06-.05.06h0l-.04.06-.04.07-.04.06-.05.06-.05.06-.04.06-.05.06-.05.06-.06.06-.05.06h0l-.05.06-.06.06-.05.06-.06.05-.05.06-.06.06-.06.06-.06.06-.06.06-.06.06-1.89,1.93h.05l.04-.02h.04l.04-.02h.08s.04-.01.04-.01l.04-.02h.08s.04-.01.04-.01h.04s.04-.01.04-.01h.12s.08-.01.08-.01h.04s2.43-.01,2.43-.01h.01Z"/><path class="cls-7" d="m17.1,93.58h0v.36l-.02.18v.17l-.03.17-.02.16-.03.15-.03.15-.04.15-.04.14h0l-.04.13-.04.13-.05.13-.05.12-.05.11-.06.12-.06.1-.06.1-.07.1-.07.09h0l-.07.09-.07.08-.08.08-.08.08-.08.07-.08.06-.09.06-.09.06-.09.05-.1.04h0l-.09.04-.1.04-.1.03-.1.03-.1.03-.1.02h-.1l-.11.02h-.22s-.21.01-.21.01l-.11-.02h-.1l-.11-.03-.1-.03-.1-.03-.1-.03-.09-.04-.1-.04h0l-.09-.04-.09-.05-.09-.06-.09-.06-.08-.06-.08-.07-.08-.08-.08-.08-.07-.08-.07-.09h0l-.07-.09-.06-.1-.07-.1-.06-.1-.05-.12-.06-.11-.05-.12-.04-.13-.05-.13-.04-.13h0l-.04-.14-.03-.15-.03-.15-.03-.15-.02-.16-.02-.17v-.17l-.02-.18v-.36h-.01v-.37l.02-.17v-.17l.03-.17.02-.16.03-.16.03-.15.03-.14.04-.14h0l.04-.14.05-.13.04-.12.05-.13.06-.11.05-.11.06-.11.07-.1.06-.1.07-.09h0l.07-.09.07-.08.08-.08.08-.08.08-.07.08-.06.09-.06.09-.06.09-.05.09-.05h0l.1-.04.09-.04.1-.03.1-.03.1-.02.11-.02.1-.02h.11l.11-.02h.32l.11.02.1.02.1.02.1.02.1.03.1.03.1.04.09.04h0l.1.05.09.05.09.06.09.06.08.06.08.07.08.08.08.08.07.08.07.09h0l.07.09.07.1.06.1.06.11.06.11.05.11.05.13.05.12.04.13.04.14h0l.04.14.04.14.03.15.03.16.02.16.02.17v.17l.02.17v.37Zm-.93,0h0v-.47l-.02-.15v-.14l-.03-.13v-.13l-.03-.12-.03-.12-.03-.12h0l-.02-.11-.03-.1-.04-.1-.03-.1-.04-.09-.03-.09-.04-.08-.05-.08-.04-.08-.05-.07h0l-.04-.06-.05-.07-.05-.05-.05-.06-.05-.05-.06-.05-.05-.04-.06-.04-.06-.03-.06-.03h0l-.06-.03-.06-.03-.07-.02-.06-.02h-.06l-.07-.03h-.06l-.06-.02h-.33l-.07.02-.06.02h-.06l-.06.03-.07.02-.06.03-.06.03h0l-.06.03-.06.03-.06.04-.05.04-.06.05-.05.05-.05.06-.05.05-.05.07-.05.06h0l-.04.07-.04.08-.04.08-.04.08-.04.09-.04.09-.03.1-.04.1-.03.1-.03.11h0l-.02.12-.02.12-.02.12-.02.13-.02.13v.14l-.02.15v.47h-.01v.47s.01.14.01.14l.02.14.02.14.02.13.02.12.02.12.02.11h0l.03.11.03.11.04.1.03.09.04.09.04.09.04.08.04.08.04.08.04.07h0l.05.06.05.07.05.05.05.06.05.05.06.05.05.04.06.04.06.04.06.03h0l.06.03.06.02.07.02.06.02.06.02h.06l.07.02h.13s.26.01.26.01l.06-.02h.07l.06-.03.06-.02.07-.02.06-.02.06-.03h0l.06-.03.06-.04.06-.04.05-.04.06-.05.05-.05.05-.06.05-.05.05-.07.04-.06h0l.05-.07.04-.08.05-.08.04-.08.03-.09.04-.09.03-.09.04-.1.03-.11.02-.11h0l.03-.11.03-.12.02-.12v-.13l.03-.14v-.14l.02-.14v-.31s.01-.16.01-.16Z"/><path class="cls-7" d="m21.01,91.72h0v.25s-.01.08-.01.08l-.02.07-.02.08v.07l-.03.07-.03.07-.02.07h0l-.03.06-.03.07-.03.06-.03.06-.03.05-.04.06-.04.05-.04.05-.04.05-.04.05h0l-.04.04-.05.04-.05.04-.04.04-.05.04-.06.03-.05.03-.05.03-.06.03-.06.02h0l-.05.03-.06.02h-.06l-.06.03h-.06l-.06.02h-.06l-.06.02h-.33l-.06-.02h-.06l-.07-.02-.06-.02h-.06l-.06-.03-.06-.03h0l-.05-.02-.06-.03-.05-.03-.06-.03-.05-.03-.05-.04-.04-.04-.05-.04-.05-.04-.04-.04h0l-.04-.05-.04-.05-.04-.05-.03-.05-.04-.06-.03-.05-.03-.06-.03-.06-.03-.07-.02-.06h0l-.02-.07-.02-.07-.02-.07-.02-.07v-.08l-.02-.07v-.08l-.02-.08v-.17h0v-.25l.02-.08v-.07l.02-.08.02-.07.02-.07.02-.07.02-.07h0l.02-.07.03-.06.03-.06.03-.06.03-.06.04-.06.03-.05.04-.05.04-.05.04-.05h0l.04-.04.05-.04.05-.05.04-.03.05-.04.05-.03.06-.04.05-.02.06-.03.05-.03h0l.06-.02.06-.02.06-.02h.06l.07-.03h.06l.06-.02h.2s.13-.01.13-.01h.07s.06.01.06.01l.07.02.06.02h.06l.06.03.06.02.06.02h0l.06.03.05.03.06.02.05.04.05.03.05.04.05.03.05.05.04.04.04.04h0l.05.05.04.05.04.05.03.05.04.06.03.06.03.06.03.06.03.06.02.07h0l.02.07.02.07.02.07.02.07v.08l.02.07v.08l.02.08s0,.17,0,.17Zm-.69,0h0v-.25s-.01-.05-.01-.05l-.02-.06v-.1l-.03-.05v-.05h-.01v-.04l-.03-.05-.02-.04v-.04l-.03-.04-.02-.03-.02-.04-.03-.03-.02-.03-.03-.03h0l-.02-.03-.02-.03-.03-.02-.03-.03-.03-.02-.03-.02-.03-.02-.03-.02h-.03l-.03-.03h-.03l-.04-.02h-.03l-.04-.02h-.07s-.03-.01-.03-.01h-.32l-.04.02h-.03l-.03.02h-.04l-.03.03h-.03l-.03.03-.03.02-.03.02-.02.02-.03.03-.03.02-.02.03-.03.03h0l-.02.03-.02.03-.02.03-.02.04-.02.03-.02.04-.02.04-.02.04v.05l-.03.04h0v.05l-.02.05v.05l-.02.05v.11s-.01.06-.01.06v.19h-.01v.13s.01.12.01.12v.11l.02.05v.05l.02.05v.05h.01l.02.04v.04l.03.05.02.03.02.04.02.04.02.03.02.04.02.03.02.03h0l.03.02.02.03.03.02.03.03.02.02.03.02.03.02h.03l.03.03h.03l.04.02h.03l.03.02h.04l.03.02h.11s.21.01.21.01h.04s.03-.01.03-.01l.04-.02h.03l.04-.02h.03l.03-.02.03-.02h.03l.03-.03.03-.02.03-.02.03-.03.03-.02.02-.03.02-.02h0l.03-.03.02-.03.03-.04.02-.03.02-.04.02-.04v-.03l.03-.05.02-.04v-.04h.01v-.05l.03-.05v-.1s.01-.06.01-.06l.02-.05v-.18s.01-.07.01-.07Zm3.22-1.58h.02v-.02h.02v-.02h.02v-.02h.02v-.02h.02v-.02h.02l.02-.02h.07s.04-.01.04-.01h.02s.67-.01.67-.01l-5.24,7.02h0v.02h-.02s-.01.01-.01.01v.02h-.01v.02h-.03v.02h-.02l-.02.02h-.05s-.01.01-.01.01h-.02s-.04.01-.04.01h-.02s-.67.01-.67.01l5.23-7.02h-.01Zm1.43,5.33h0v.24l-.02.08v.08l-.02.07-.02.07-.02.07-.02.07-.03.07h0l-.02.06-.03.07-.03.06-.03.06-.04.05-.03.06-.04.05-.04.05-.04.05-.05.05h0l-.04.04-.04.04-.05.04-.05.04-.05.04-.05.03-.05.03-.06.03-.05.03-.06.02h0l-.06.03-.06.02h-.05l-.06.03h-.06l-.06.02h-.07l-.06.02h-.32l-.07-.02h-.06l-.07-.02-.06-.02h-.06l-.06-.03-.06-.03h0l-.05-.02-.06-.03-.05-.03-.05-.03-.05-.03-.05-.04-.05-.04-.05-.04-.04-.04-.05-.04h0l-.04-.05-.04-.05-.03-.05-.04-.05-.03-.06-.03-.05-.03-.06-.03-.06-.03-.07-.03-.06h0l-.02-.07-.02-.07-.02-.07v-.07l-.03-.07v-.16s-.01-.08-.01-.08v-.08s-.01-.08-.01-.08h-.01v-.17s.01-.08.01-.08v-.08s.01-.08.01-.08l.03-.07v-.08l.03-.07.02-.07.02-.07h0l.03-.06.03-.07.03-.06.03-.06.03-.06.03-.06.04-.05.03-.05.04-.05.04-.05h0l.05-.04.04-.04.05-.05.05-.03.05-.04.05-.03.05-.04.05-.02.06-.03.05-.03h0l.06-.02.06-.02.06-.02h.06l.07-.03h.06l.07-.02h.46l.06.02.06.02h.06l.06.03.06.02.06.02h0l.06.03.05.03.06.02.05.04.05.03.05.04.05.03.05.05.04.04.04.04h0l.05.05.04.05.04.05.03.05.04.06.03.06.03.06.03.06.03.07.02.06h0l.02.07.02.07.02.07.02.08v.07l.02.08v.08l.02.08s0,.17,0,.17Zm-.69,0h0v-.31s-.01-.05-.01-.05l-.02-.06v-.05l-.02-.05-.02-.04h0v-.05l-.03-.04v-.05l-.03-.04-.02-.03-.02-.04-.02-.04-.02-.03-.03-.03-.02-.03h0l-.02-.03-.03-.03-.03-.02-.02-.03-.03-.02-.03-.02-.03-.02h-.03l-.03-.03h-.04l-.03-.02-.03-.02h-.07s-.04-.01-.04-.01l-.03-.02h-.15s-.07-.01-.07-.01h-.03s-.08.01-.08.01l-.03.02h-.07l-.03.03h-.04l-.03.02-.03.02h-.03l-.03.03-.03.02-.02.02-.03.03-.03.02-.02.03-.03.03h0l-.02.03-.02.03-.02.03-.02.04-.02.04-.02.03-.02.04-.02.05v.04l-.03.05h0v.04l-.02.05v.05l-.02.06v.17s-.01.06-.01.06v.06s-.01.07-.01.07h0v.24s.01.06.01.06v.05s.01.05.01.05l.02.05v.05l.02.05h0l.02.04v.04l.03.05.02.03.02.04.02.04.02.03.02.04.02.03.02.03h0l.03.02.02.03.03.02.03.03.02.02.03.02.03.02h.03l.03.03h.03l.04.02h.03l.04.02h.03l.03.02h.11s.22.01.22.01h.03s.04-.01.04-.01l.03-.02h.04l.03-.02h.03l.04-.02.03-.02h.03l.03-.03.03-.02.03-.02.02-.03.03-.02.03-.03.02-.02h0l.02-.03.03-.03.02-.04.02-.03.02-.04.02-.04.02-.03v-.05l.03-.04v-.04h0l.02-.05v-.05l.02-.05v-.05l.02-.05v-.18s.01-.12.01-.12h.01Z"/><path class="cls-7" d="m9.45,72.55v-2.95h0v-.25s.01-.04.01-.04h0v-.12s.01-.06.01-.06v-.13s-2.6,3.55-2.6,3.55h2.58Zm1.86,0v.51h0v.04h0v.04h-.01s-.01.01-.01.01v.03h-.01v.02h-.01l-.02.02h-.01v.02h-.03s-.95.01-.95.01v1.89h-.78v-1.89h-3.29s-.02-.01-.02-.01v-.02h-.02l-.02-.02h-.01v-.03h-.01v-.04h-.02v-.02h-.02v-.05l-.1-.45,3.49-4.63h.83v4.58h1.08-.06Z"/><path class="cls-7" d="m17.1,71.56h0v.37l-.02.17v.17l-.03.17-.02.16-.03.15-.03.15-.04.15-.04.14h0l-.04.13-.04.13-.05.13-.05.12-.05.12-.06.11-.06.1-.06.11-.07.09-.07.09h0l-.07.09-.07.09-.08.07-.08.08-.08.07-.08.06-.09.06-.09.06-.09.05-.1.04h0l-.09.05-.1.03-.1.04-.1.03-.1.02-.1.02-.1.02h-.22s-.43.01-.43.01l-.1-.03-.11-.02-.1-.02-.1-.03-.1-.04-.09-.03-.1-.05h0l-.09-.04-.09-.05-.09-.06-.09-.06-.08-.06-.08-.07-.08-.08-.08-.07-.07-.09-.07-.09h0l-.07-.09-.06-.09-.07-.11-.06-.1-.05-.11-.06-.12-.05-.12-.04-.13-.05-.13-.04-.13h0l-.04-.14-.03-.15-.03-.15-.03-.15-.02-.16-.02-.17v-.17l-.02-.17v-.37h-.01v-.37l.02-.17v-.17l.03-.17.02-.16.03-.15.03-.15.03-.15.04-.14h0l.04-.14.05-.13.04-.12.05-.12.06-.12.05-.11.06-.11.07-.1.06-.1.07-.09h0l.07-.09.07-.08.08-.08.08-.08.08-.07.08-.06.09-.06.09-.06.09-.05.09-.05h0l.1-.04.09-.03.1-.04.1-.03.1-.02.11-.02.1-.02h.22s.1-.01.1-.01h.33l.1.03.1.02.1.02.1.03.1.04.1.03.09.04h0l.1.05.09.05.09.06.09.06.08.06.08.07.08.08.08.08.07.08.07.09h0l.07.09.07.1.06.1.06.11.06.11.05.12.05.12.05.12.04.13.04.14h0l.04.14.04.15.03.15.03.15.02.16.02.17v.17l.02.17v.37Zm-.93,0h0v-.47l-.02-.14v-.14l-.03-.14v-.13l-.03-.12-.03-.12-.03-.12h0l-.02-.1-.03-.11-.04-.1-.03-.1-.04-.09-.03-.09-.04-.08-.05-.08-.04-.07-.05-.08h0l-.04-.06-.05-.06-.05-.06-.05-.06-.05-.05-.06-.04-.05-.05-.06-.03-.06-.04-.06-.03h0l-.06-.03-.06-.02-.07-.03-.06-.02h-.06l-.07-.03h-.26s-.13-.01-.13-.01h-.06s-.07.01-.07.01l-.06.03h-.06l-.06.03-.07.03-.06.02-.06.03h0l-.06.03-.06.04-.06.03-.05.05-.06.04-.05.05-.05.06-.05.06-.05.06-.05.06h0l-.04.08-.04.07-.04.08-.04.08-.04.09-.04.09-.03.1-.04.1-.03.11-.03.1h0l-.02.12-.02.12-.02.12-.02.13-.02.14v.14l-.02.14v.47h-.01v.47s.01.14.01.14l.02.14.02.14.02.13.02.12.02.12.02.11h0l.03.11.03.11.04.1.03.09.04.1.04.08.04.09.04.08.04.07.04.07h0l.05.07.05.06.05.06.05.05.05.05.06.05.05.04.06.04.06.04.06.03h0l.06.03.06.02.07.02.06.02.06.02h.06l.07.02h.13s.26.01.26.01l.06-.02h.07l.06-.03.06-.02.07-.02.06-.02.06-.03h0l.06-.03.06-.04.06-.04.05-.04.06-.05.05-.05.05-.05.05-.06.05-.06.04-.07h0l.05-.07.04-.07.05-.08.04-.09.03-.08.04-.1.03-.09.04-.1.03-.11.02-.11h0l.03-.11.03-.12.02-.12v-.13l.03-.14v-.14l.02-.14v-.31s.01-.16.01-.16h0Z"/><path class="cls-7" d="m21.01,69.7h0v.25s-.01.08-.01.08l-.02.07-.02.08v.07l-.03.07-.03.07-.02.07h0l-.03.06-.03.07-.03.06-.03.06-.03.05-.04.06-.04.05-.04.05-.04.05-.04.05h0l-.04.04-.05.05-.05.04-.04.03-.05.04-.06.03-.05.03-.05.03-.06.03-.06.02h0l-.05.03-.06.02-.06.02h-.06l-.06.02-.06.02h-.19s-.26.01-.26.01h-.06s-.06-.03-.06-.03h-.07l-.06-.02-.06-.02-.06-.02-.06-.03h0l-.05-.02-.06-.03-.05-.03-.06-.03-.05-.03-.05-.04-.04-.03-.05-.04-.05-.05-.04-.04h0l-.04-.05-.04-.05-.04-.05-.03-.05-.04-.06-.03-.05-.03-.06-.03-.06-.03-.07-.02-.06h0l-.02-.07-.02-.07-.02-.07-.02-.07v-.08l-.02-.07v-.08l-.02-.08v-.17h0v-.24l.02-.08v-.08l.02-.08.02-.07.02-.07.02-.07.02-.07h0l.02-.07.03-.06.03-.06.03-.06.03-.06.04-.05.03-.06.04-.05.04-.05.04-.05h0l.04-.04.05-.04.05-.04.04-.04.05-.04.05-.03.06-.03.05-.03.06-.03.05-.03h0l.06-.02.06-.02.06-.02h.06l.07-.03h.12s.07-.01.07-.01h.46l.06.03h.06l.06.03.06.02.06.02h0l.06.03.05.03.06.03.05.03.05.03.05.04.05.04.05.04.04.04.04.04h0l.05.05.04.05.04.05.03.06.04.05.03.06.03.06.03.06.03.06.02.07h0l.02.07.02.07.02.07.02.07v.08l.02.08v.08l.02.08s0,.16,0,.16Zm-.69,0h0v-.24s-.01-.06-.01-.06l-.02-.06v-.1l-.03-.05v-.05h-.01v-.04l-.03-.04-.02-.05v-.04l-.03-.03-.02-.04-.02-.04-.03-.03-.02-.03-.03-.03h0l-.02-.03-.02-.03-.03-.02-.03-.03-.03-.02-.03-.02-.03-.02-.03-.02h-.03l-.03-.03h-.03l-.04-.02h-.03l-.04-.02h-.1s-.04-.01-.04-.01h-.03s-.15-.01-.15-.01h-.03s-.04.01-.04.01h-.03s-.04.01-.04.01l-.03.02h-.03l-.04.02h0l-.03.02h-.03l-.03.03-.03.02-.03.02-.02.02-.03.03-.03.02-.02.03-.03.03h0l-.02.03-.02.03-.02.03-.02.04-.02.04-.02.03-.02.04-.02.05v.04l-.03.04h0v.05l-.02.05v.05l-.02.05v.12s-.01.06-.01.06v.18h-.01v.13s.01.12.01.12v.11l.02.05v.05l.02.05v.05h.01l.02.04v.05l.03.04.02.04.02.03.02.04.02.04.02.03.02.03.02.03h0l.03.03.02.02.03.03.03.02.02.02.03.02.03.02.03.02h.03l.03.02h0l.04.02h.03l.03.02h.07l.04.02h.32l.03-.02h.07l.04-.02.03-.02h.03l.03-.02.03-.02.03-.02.03-.02.03-.02.03-.02.03-.03.02-.02.02-.03h0l.03-.03.02-.03.03-.03.02-.04.02-.04.02-.03v-.04l.03-.04.02-.05v-.04h.01v-.05l.03-.05v-.1s.01-.05.01-.05l.02-.06v-.18s.01-.07.01-.07Zm3.22-1.58h.02v-.02h.02v-.02h.02v-.02h.02v-.02h.02v-.02h.02l.02-.02h.05s.02-.01.02-.01h.73s-5.24,7.01-5.24,7.01h0v.02h-.03v.02h-.01v.02h-.03v.02h-.02l-.02.02h-.01s-.02.01-.02.01l-.02.02h-.07s-.69.01-.69.01l5.23-7.02h-.01Zm1.43,5.33h0v.24l-.02.08v.08l-.02.07-.02.07-.02.07-.02.07-.03.07h0l-.02.06-.03.07-.03.06-.03.06-.04.05-.03.06-.04.05-.04.05-.04.05-.05.05h0l-.04.04-.04.05-.05.04-.05.03-.05.04-.05.03-.05.03-.06.03-.05.03-.06.02h0l-.06.03-.06.02-.05.02h-.06l-.06.02-.06.02h-.19s-.26.01-.26.01h-.07s-.06-.03-.06-.03h-.07l-.06-.02-.06-.02-.06-.02-.06-.03h0l-.05-.02-.06-.03-.05-.03-.05-.03-.05-.03-.05-.04-.05-.03-.05-.04-.04-.05-.05-.04h0l-.04-.05-.04-.05-.03-.05-.04-.05-.03-.06-.03-.05-.03-.06-.03-.06-.03-.07-.03-.06h0l-.02-.07-.02-.07-.02-.07v-.07l-.03-.07v-.16s-.01-.08-.01-.08v-.08s-.01-.08-.01-.08h-.01v-.17s.01-.08.01-.08v-.08s.01-.08.01-.08l.03-.07v-.08l.03-.07.02-.07.02-.07h0l.03-.06.03-.07.03-.06.03-.06.03-.06.03-.05.04-.06.03-.05.04-.05.04-.05h0l.05-.04.04-.04.05-.04.05-.04.05-.04.05-.03.05-.03.05-.03.06-.03.05-.03h0l.06-.02.06-.02.06-.02h.06l.07-.03h.26s.06-.01.06-.01h.27s.06.01.06.01l.06.03h.06l.06.03.06.02.06.02h0l.06.03.05.03.06.03.05.03.05.03.05.04.05.04.05.04.04.04.04.04h0l.05.05.04.05.04.05.03.06.04.05.03.06.03.06.03.06.03.07.02.06h0l.02.07.02.07.02.07.02.08v.07l.02.08v.08l.02.08v.17h0Zm-.69,0h0v-.31s-.01-.05-.01-.05l-.02-.05v-.05l-.02-.05-.02-.05h0v-.05l-.03-.04v-.04l-.03-.04-.02-.04-.02-.04-.02-.03-.02-.04-.03-.03-.02-.03h0l-.02-.03-.03-.02-.03-.03-.02-.02-.03-.03-.03-.02h-.03l-.03-.03-.03-.02h-.04l-.03-.02h-.03l-.04-.02h-.03l-.04-.02h-.1s-.08-.01-.08-.01h-.18s-.03.01-.03.01l-.03.02h-.04l-.03.02h-.04l-.03.02-.03.02-.03.02h-.03l-.03.03-.02.03-.03.02-.03.03-.02.02-.03.03h0l-.02.03-.02.03-.02.04-.02.03-.02.04-.02.04-.02.04-.02.04v.04l-.03.05h0v.05l-.02.05v.05l-.02.05v.17s-.01.06-.01.06v.06s-.01.07-.01.07h0v.24s.01.06.01.06v.05s.01.06.01.06l.02.05v.04l.02.05h0l.02.04v.05l.03.04.02.04.02.03.02.04.02.04.02.03.02.03.02.03h0l.03.03.02.02.03.03.03.02.02.02.03.02.03.02.03.02h.03l.03.02h0l.04.02h.03l.04.02h.06l.04.02h.32l.04-.02h.07l.03-.02.03-.02h.04l.03-.02.03-.02.03-.02.03-.02.03-.02.02-.02.03-.03.03-.02.02-.03h0l.02-.03.03-.03.02-.03.02-.04.02-.04.02-.03.02-.04v-.04l.03-.05v-.04h0l.02-.05v-.04l.02-.05v-.06l.02-.05v-.17s.01-.13.01-.13h.01Z"/><path class="cls-7" d="m8.69,52.46h.21l.07-.02h.06l.07-.02h.06l.06-.03.06-.02.06-.02h0l.06-.03.05-.02.06-.03.05-.03.05-.03.05-.03.05-.04.04-.03.05-.04.04-.04h0l.04-.04.04-.05.04-.04.03-.05.03-.05.04-.05.02-.05.03-.05.03-.05.02-.06h0l.02-.05.02-.06.02-.06v-.06l.03-.06v-.12s.01-.07.01-.07v-.06s.01-.07.01-.07h0v-.27l-.02-.06v-.06l-.03-.06-.02-.06v-.06l-.04-.06h0l-.02-.05-.02-.06-.03-.05-.03-.05-.03-.05-.03-.05-.04-.04-.03-.05-.04-.04-.04-.04h0l-.04-.04-.04-.03-.05-.04-.04-.03-.05-.03-.05-.03-.05-.03-.05-.03-.05-.02-.06-.02h0l-.06-.02-.05-.02-.06-.02h-.06l-.06-.02h-.07l-.06-.02h-.47l-.07.02-.06.02h-.06l-.07.03-.06.02-.06.03h0l-.05.02-.06.03-.05.03-.05.03-.05.03-.05.03-.05.04-.04.04-.05.04-.04.04h0l-.04.04-.04.04-.03.05-.04.04-.03.05-.03.05-.03.05-.02.05-.03.05-.02.06h0l-.02.05-.02.06v.05l-.03.06v.05l-.02.06v.12s-.01.11-.01.11h0v.27l.02.06v.06l.02.07.02.06.02.05v.06h0l.03.06.02.05.02.06.03.05.03.05.03.05.03.04.03.05.04.04.03.04h0l.04.04.05.04.04.04.04.03.05.03.05.04.05.03.05.02.05.03.05.02h0l.06.02.06.02.06.02h.06l.06.02h.07l.06.02h.22Zm-.52-3.82h0l-.02.03-.02.02-.02.02-.02.03v.02l-.03.02-.02.03-.02.02-.02.02-.02.03h0v.02l-.03.02-.02.02v.03l-.03.02-.02.02v.02l-.03.02v.03l-.03.02h0l.05-.04.05-.03.06-.03.05-.03.06-.03.05-.02.06-.03.06-.02.06-.02.06-.02h0l.06-.02.06-.02h.07l.06-.02h.07l.07-.02h.27s.18,0,.18,0l.08.02h.08l.09.02h.08l.08.03.08.03.08.02.07.03h0l.08.03.07.03.08.03.07.04.06.04.07.04.06.05.07.05.06.05.05.05h0l.06.06.06.06.05.06.05.06.04.06.05.07.04.07.04.08.04.07.03.08h0l.04.08.03.08.02.09.02.09.02.09.02.09v.09l.02.1v.2h0v.29l-.02.09-.02.09-.02.1-.02.09-.03.08-.03.09-.04.09h0l-.03.08-.04.08-.05.08-.04.08-.05.07-.05.08-.06.07-.06.07-.06.06-.06.07h0l-.07.06-.06.06-.07.05-.08.06-.07.05-.08.05-.08.04-.09.04-.09.04-.09.04h0l-.09.04-.09.03-.09.02-.1.03-.1.02h-.1l-.1.03h-.21s-.43,0-.43,0l-.1-.02-.1-.02-.09-.02-.1-.02-.09-.03-.09-.03-.09-.03h0l-.09-.03-.08-.04-.08-.05-.08-.04-.08-.05-.07-.05-.07-.05-.07-.06-.07-.06-.06-.06h0l-.06-.06-.06-.07-.05-.07-.05-.07-.05-.08-.05-.08-.04-.08-.04-.08-.04-.09-.04-.09h0l-.03-.09-.02-.09-.03-.1-.02-.1-.02-.1v-.1l-.03-.11v-.32h0v-.19l.02-.1v-.1l.03-.1.02-.1.03-.1.03-.1.04-.11.03-.1h0l.05-.11.05-.11.05-.11.06-.11.07-.12.07-.11.07-.12.08-.11.08-.12.09-.12,1.82-2.45h0v-.02h.03s.02-.03.02-.03h.01l.02-.03h.02l.02-.03h.02l.03-.03h.02l.03-.02h.02l.03-.02h.03l.02-.02h.09s.85,0,.85,0l-2.12,2.68h0Z"/><path class="cls-7" d="m17.1,49.54h0v.37l-.02.17v.17l-.03.17-.02.16-.03.16-.03.15-.04.14-.04.14h0l-.04.14-.04.13-.05.12-.05.12-.05.12-.06.11-.06.11-.06.1-.07.09-.07.1h0l-.07.08-.07.09-.08.08-.08.07-.08.07-.08.06-.09.06-.09.06-.09.05-.1.05h0l-.09.04-.1.04-.1.03-.1.03-.1.02-.1.02-.1.02h-.11l-.11.02h-.32l-.11-.02-.1-.02-.11-.02-.1-.02-.1-.03-.1-.03-.09-.04-.1-.04h0l-.09-.05-.09-.05-.09-.06-.09-.06-.08-.06-.08-.07-.08-.07-.08-.08-.07-.09-.07-.08h0l-.07-.1-.06-.09-.07-.1-.06-.11-.05-.11-.06-.12-.05-.12-.04-.12-.05-.13-.04-.14h0l-.04-.14-.03-.14-.03-.15-.03-.16-.02-.16-.02-.17v-.17l-.02-.17v-.37h-.01v-.36l.02-.18v-.17l.03-.17.02-.16.03-.15.03-.15.03-.15.04-.14h0l.04-.13.05-.13.04-.13.05-.12.06-.12.05-.11.06-.11.07-.1.06-.1.07-.09h0l.07-.09.07-.08.08-.08.08-.07.08-.07.08-.07.09-.06.09-.06.09-.05.09-.04h0l.1-.04.09-.04.1-.03.1-.03.1-.03.11-.02h.1l.11-.02h.43l.11.02h.1l.1.03.1.03.1.03.1.03.1.04.09.04h0l.1.04.09.05.09.06.09.06.08.07.08.07.08.07.08.08.07.08.07.09h0l.07.09.07.1.06.1.06.11.06.11.05.12.05.12.05.13.04.13.04.13h0l.04.14.04.15.03.15.03.15.02.16.02.17v.17l.02.18v.36s.01,0,.01,0Zm-.93,0h0v-.47l-.02-.14v-.14l-.03-.14v-.13l-.03-.12-.03-.12-.03-.11h0l-.02-.11-.03-.11-.04-.1-.03-.1-.04-.09-.03-.09-.04-.08-.05-.08-.04-.07-.05-.07h0l-.04-.07-.05-.06-.05-.06-.05-.05-.05-.05-.06-.05-.05-.04-.06-.04-.06-.04-.06-.03h0l-.06-.03-.06-.02-.07-.02-.06-.02-.06-.02h-.07l-.06-.02h-.06l-.07-.02h-.2l-.06.02h-.07l-.06.02-.06.02-.06.02-.07.02-.06.02-.06.03h0l-.06.03-.06.04-.06.04-.05.04-.06.05-.05.05-.05.05-.05.06-.05.06-.05.07h0l-.04.07-.04.07-.04.08-.04.08-.04.09-.04.09-.03.1-.04.1-.03.11-.03.11h0l-.02.11-.02.12-.02.12-.02.13-.02.14v.14l-.02.14v.47h-.01v.47s.01.15.01.15l.02.14.02.13.02.13.02.12.02.12.02.12h0l.03.11.03.1.04.1.03.1.04.09.04.09.04.08.04.08.04.07.04.07h0l.05.07.05.06.05.06.05.05.05.05.06.05.05.05.06.03.06.04.06.03h0l.06.03.06.02.07.03.06.02h.06l.06.02h.07l.06.02h.13s.14,0,.14,0l.06-.02h.06l.07-.02h.06l.06-.03.07-.03.06-.02.06-.03h0l.06-.03.06-.04.06-.03.05-.05.06-.05.05-.05.05-.05.05-.06.05-.06.04-.07h0l.05-.07.04-.07.05-.08.04-.08.03-.09.04-.09.03-.1.04-.1.03-.1.02-.11h0l.03-.12.03-.12.02-.12v-.13l.03-.13v-.14l.02-.15v-.31s.01-.16,0-.16Z"/><path class="cls-7" d="m21.01,47.69h0v.24s-.01.08-.01.08l-.02.08-.02.07v.07l-.03.07-.03.07-.02.07h0l-.03.07-.03.06-.03.06-.03.06-.03.06-.04.05-.04.06-.04.05-.04.05-.04.04h0l-.04.05-.05.04-.05.04-.04.04-.05.03-.06.03-.05.04-.05.03-.06.02-.06.03h0l-.05.02-.06.02-.06.02h-.06l-.06.03h-.06l-.06.02h-.19s-.13,0-.13,0h-.07s-.06,0-.06,0l-.06-.02-.07-.02h-.06l-.06-.03-.06-.02-.06-.02h0l-.05-.03-.06-.02-.05-.03-.06-.04-.05-.03-.05-.03-.04-.04-.05-.04-.05-.04-.04-.05h0l-.04-.04-.04-.05-.04-.05-.03-.06-.04-.05-.03-.06-.03-.06-.03-.06-.03-.06-.02-.07h0l-.02-.07-.02-.07-.02-.07-.02-.07v-.07l-.02-.08v-.08l-.02-.08v-.16h0v-.25l.02-.08v-.08l.02-.07.02-.08.02-.07.02-.07.02-.07h0l.02-.06.03-.07.03-.06.03-.06.03-.06.04-.05.03-.06.04-.05.04-.05.04-.04h0l.04-.05.05-.04.05-.04.04-.04.05-.04.05-.03.06-.03.05-.03.06-.03.05-.02h0l.06-.03.06-.02h.06l.06-.03h.07l.06-.02h.06l.07-.02h.33l.06.02h.07l.06.02.06.02h.06l.06.03.06.03h0l.06.02.05.03.06.03.05.03.05.03.05.04.05.04.05.04.04.04.04.05h0l.05.04.04.05.04.05.03.06.04.05.03.06.03.06.03.06.03.07.02.06h0l.02.07.02.07.02.07.02.08v.07l.02.08v.08l.02.08v.17Zm-.69,0h0v-.25s-.01-.06-.01-.06l-.02-.05v-.11l-.03-.05v-.04h-.01v-.05l-.03-.04-.02-.04v-.04l-.03-.04-.02-.04-.02-.03-.03-.04-.02-.03-.03-.03h0l-.02-.03-.02-.02-.03-.03-.03-.02-.03-.03-.03-.02-.03-.02h-.03l-.03-.03h-.03l-.03-.03h-.04l-.03-.02h-.07l-.04-.02h-.32l-.03.02h-.07l-.03.02-.04.02h-.03l-.03.03h-.03l-.03.03-.03.02-.02.03-.03.02-.03.03-.02.02-.03.03h0l-.02.03-.02.03-.02.04-.02.03-.02.04-.02.04-.02.04-.02.04v.04l-.03.05h0v.04l-.02.05v.05l-.02.06v.11s-.01.06-.01.06v.19h-.01v.12s.01.12.01.12v.11l.02.06v.05l.02.05v.04h.01l.02.05v.04l.03.04.02.04.02.04.02.03.02.04.02.03.02.03.02.03h0l.03.03.02.03.03.02.03.02.02.02.03.02.03.02.03.02h.03l.03.03h.04l.03.02h.03l.04.02h.21s.07,0,.07,0h.04s.07,0,.07,0h.07l.03-.02h.04l.03-.02h0l.03-.02h.03l.03-.03.03-.02.03-.02.03-.02.03-.02.03-.02.02-.03.02-.03h0l.03-.03.02-.03.03-.03.02-.04.02-.03.02-.04v-.04l.03-.04.02-.04v-.05h.01v-.04l.03-.05v-.11s.01-.05.01-.05l.02-.06v-.18s.01-.06,0-.06Zm3.22-1.58h.02v-.03h.02v-.02h.02v-.02h.02v-.02h.02v-.02h.06v-.02h.07s.71,0,.71,0l-5.24,7.02h-.01v.02h-.02v.03h-.01v.02h-.03v.02h-.04v.02h-.06s-.02,0-.02,0h-.73l5.23-7.01h-.01Zm1.43,5.32h0v.25l-.02.07v.08l-.02.07-.02.08-.02.07-.02.07-.03.06h0l-.02.07-.03.06-.03.06-.03.06-.04.06-.03.05-.04.06-.04.05-.04.05-.05.04h0l-.04.05-.04.04-.05.04-.05.04-.05.03-.05.03-.05.04-.06.03-.05.02-.06.03h0l-.06.02-.06.02-.05.02h-.06l-.06.03h-.06l-.07.02h-.45l-.06-.02-.07-.02h-.06l-.06-.03-.06-.02-.06-.02h0l-.05-.03-.06-.02-.05-.03-.05-.04-.05-.03-.05-.03-.05-.04-.05-.04-.04-.04-.05-.05h0l-.04-.04-.04-.05-.03-.05-.04-.06-.03-.05-.03-.06-.03-.06-.03-.06-.03-.06-.03-.07h0l-.02-.06-.02-.07-.02-.07v-.08l-.03-.07v-.15s-.01-.08-.01-.08v-.08s-.01-.09-.01-.09h-.01v-.17s.01-.08.01-.08v-.08s.01-.07.01-.07l.03-.08v-.07l.03-.07.02-.07.02-.07h0l.03-.07.03-.06.03-.07.03-.06.03-.06.03-.05.04-.05.03-.06.04-.05.04-.04h0l.05-.05.04-.04.05-.04.05-.04.05-.04.05-.03.05-.03.05-.03.06-.03.05-.02h0l.06-.03.06-.02h.06l.06-.03h.07l.06-.02h.07l.06-.02h.33l.07.02h.06l.06.02.06.02h.06l.06.03.06.03h0l.06.02.05.03.06.03.05.03.05.03.05.04.05.04.05.04.04.04.04.05h0l.05.04.04.05.04.06.03.05.04.05.03.06.03.06.03.07.03.06.02.07h0l.02.07.02.07.02.07.02.07v.08l.02.07v.08l.02.08v.17Zm-.69,0h0v-.3s-.01-.06-.01-.06l-.02-.05v-.05l-.02-.05-.02-.05h0v-.04l-.03-.05v-.04l-.03-.04-.02-.04-.02-.04-.02-.03-.02-.04-.03-.03-.02-.03h0l-.02-.03-.03-.02-.03-.03-.02-.02-.03-.02-.03-.02-.03-.02-.03-.02h-.03l-.04-.03h-.03l-.03-.02h-.04l-.03-.02h-.07s-.04,0-.04,0h-.32l-.03.02h-.04l-.03.02h-.04l-.03.03h-.03l-.03.03-.03.02-.03.02-.02.02-.03.02-.03.03-.02.02-.03.03h0l-.02.03-.02.03-.02.04-.02.03-.02.04-.02.04-.02.04-.02.04v.05l-.03.04h0v.05l-.02.05v.05l-.02.05v.17s-.01.06-.01.06v.07s-.01.06-.01.06h0v.25s.01.05.01.05v.06s.01.05.01.05l.02.05v.05l.02.04h0l.02.05v.04l.03.04.02.04.02.04.02.03.02.04.02.03.02.03.02.03h0l.03.03.02.03.03.02.03.02.02.02.03.02.03.02.03.02h.03l.03.03h.04l.03.02h.04l.03.02h.11s.07,0,.07,0h.25s.03,0,.03,0l.04-.02h.03l.03-.02h0l.04-.02h.03l.03-.03.03-.02.03-.02.03-.02.02-.02.03-.02.03-.03.02-.03h0l.02-.03.03-.03.02-.03.02-.04.02-.03.02-.04.02-.04v-.04l.03-.04v-.05h0l.02-.04v-.05l.02-.05v-.05l.02-.06v-.17s.01-.13.01-.13h.01Z"/><path class="cls-7" d="m8.7,30.47h.27l.06-.02h.06l.06-.02.06-.02h.06l.05-.03h0l.06-.02.05-.02.05-.03.05-.02.05-.03.05-.03.04-.03.05-.03.04-.03.03-.04h0l.04-.03.04-.04.03-.04.04-.04.03-.04.02-.04.03-.05.03-.05.02-.04.02-.05h0l.02-.05.02-.05v-.05l.03-.06v-.05l.02-.06v-.23h0v-.21l-.02-.07v-.06l-.02-.06-.02-.06-.02-.06-.02-.06-.02-.05h0l-.02-.05-.03-.05-.03-.05-.03-.05-.03-.04-.04-.04-.03-.04-.04-.04-.04-.04-.04-.03h0l-.04-.03-.04-.03-.05-.03-.04-.03-.05-.02-.05-.03-.05-.02-.05-.02h-.05l-.06-.03h0l-.05-.02h-.05l-.06-.02h-.06l-.05-.02h-.12s-.05-.01-.05-.01h-.06s-.23-.01-.23-.01h-.06s-.06.01-.06.01l-.06.02h-.05l-.06.02h-.05l-.06.03h0l-.05.02h-.05l-.05.03-.05.02-.05.03-.05.02-.04.03-.05.03-.04.03-.05.03h0l-.04.03-.03.04-.04.04-.04.04-.03.04-.03.04-.03.05-.03.05-.03.05-.03.05h0l-.02.05-.02.06-.02.06v.06l-.03.06v.13s-.01.07-.01.07v.14h-.01v.12s.01.11.01.11l.02.06v.05l.02.06.02.05.02.05v.05h.01l.03.05.02.04.03.05.02.05.03.04.03.04.03.04.04.04.03.04.04.03h0l.04.04.04.03.04.03.05.03.04.03.05.03.05.02.05.03.06.02.05.02h0l.06.02h.05l.06.03h.07l.06.02h.06l.07.02h.2Zm0-5.92h-.24s-.06.01-.06.01l-.06.02-.05.02h-.05l-.06.03h-.05l-.04.03-.05.03-.04.02-.05.02-.04.03-.04.02-.03.03-.04.03-.04.03-.03.03h0l-.03.04-.03.03-.03.04-.03.04-.02.03-.03.04-.02.04-.02.04-.02.05-.02.04h0v.04l-.02.05-.02.04v.05l-.02.05v.14s-.01.1-.01.1h0v.24s.01.05.01.05l.02.05v.04l.02.05v.04h0l.02.05.02.04v.05l.03.04.03.04.02.04.02.04.03.04.03.04.03.03h0l.03.04.04.03.03.03.04.03.04.03.04.03.04.03.05.02.04.03.05.02h0l.05.02.05.02h.06l.06.03h.05l.07.02h.12s.4.01.4.01l.06-.02h.06l.06-.03h.05l.05-.03.05-.02h0l.05-.02.05-.03.05-.02.04-.03.04-.03.04-.03.04-.03.03-.03.04-.03.03-.04h0l.03-.03.03-.04.03-.04.02-.04.02-.04.03-.04.02-.04v-.05l.03-.04v-.05h.01l.02-.04v-.05l.02-.04v-.05l.02-.05v-.14s.01-.1.01-.1h0v-.2l-.02-.04v-.05l-.02-.05v-.04l-.02-.05-.02-.04h0l-.02-.04-.02-.05-.02-.04-.02-.04-.02-.04-.03-.03-.02-.04-.03-.04-.03-.03-.04-.04h0l-.03-.03-.03-.03-.04-.03-.04-.03-.04-.02-.04-.03-.04-.02-.05-.02-.04-.03-.05-.02h-.05l-.05-.03h-.05l-.05-.03h-.06l-.06-.02h-.18s-.06-.01-.06-.01h.01Zm1.02,2.82h0l.14.04.12.05.12.05.11.05.11.06.1.07.09.07.09.08.08.08.07.08h0l.07.1.06.09.06.1.05.11.03.11.04.12.02.12.02.13v.26h0v.28l-.02.09-.02.08-.02.09-.02.08-.03.08-.03.08-.04.07h0l-.03.08-.04.07-.04.07-.05.07-.05.06-.05.06-.05.07-.06.05-.06.06-.06.05h0l-.06.06-.07.05-.07.04-.07.05-.08.04-.07.04-.08.04-.09.03-.08.03-.09.03h0l-.09.03-.09.02-.1.03h-.09l-.1.03h-.1l-.1.02h-.2s-.42.01-.42.01l-.1-.02h-.1l-.1-.03h-.09l-.1-.04-.09-.02-.09-.03h0l-.09-.03-.08-.03-.09-.03-.08-.04-.07-.04-.08-.04-.07-.05-.07-.04-.07-.05-.07-.06h0l-.06-.05-.06-.06-.05-.05-.06-.07-.05-.06-.05-.06-.04-.07-.04-.07-.04-.07-.04-.08h0l-.03-.07-.03-.08-.03-.08-.02-.08-.02-.09-.02-.08v-.09l-.02-.09v-.19h0v-.13l.02-.13.02-.13.02-.12.03-.12.04-.11.05-.11.06-.1.06-.09.06-.1h0l.08-.08.08-.08.09-.08.09-.07.1-.07.11-.06.11-.05.12-.05.12-.05.13-.04h0l-.11-.04-.1-.05-.1-.05-.09-.06-.09-.06-.08-.07-.08-.06-.07-.08-.07-.07-.06-.09h0l-.05-.08-.05-.09-.05-.09-.03-.1-.03-.1-.03-.1-.02-.1v-.11l-.02-.11v-.12h0v-.23l.02-.07v-.08l.03-.07.02-.07.02-.08.03-.07.03-.07h0l.03-.06.04-.07.03-.06.04-.07.05-.06.04-.06.05-.05.05-.06.05-.05.06-.06h0l.06-.05.06-.04.06-.05.07-.04.06-.04.07-.04.07-.04.08-.03.07-.04.08-.03h0l.08-.02.08-.03.09-.02.08-.02h.09l.09-.03h.38s.19-.01.19-.01h.09s.09.01.09.01l.09.03h.09l.09.03.08.02.08.03.08.02h0l.08.03.08.04.07.03.08.04.07.04.06.04.07.04.06.05.06.04.06.05h0l.06.06.05.05.05.06.05.05.04.06.05.06.04.07.03.06.04.07.03.06h0l.03.07.03.07.02.08.02.07.02.07v.08l.02.07v.23h0v.23l-.02.11-.02.1-.03.1-.03.1-.04.1-.04.09-.05.09-.06.08h0l-.05.09-.07.07-.07.08-.08.06-.08.07-.09.06-.09.06-.1.05-.1.05-.12.04h.01Z"/><path class="cls-7" d="m17.1,27.52h0v.37l-.02.18v.17l-.03.16-.02.16-.03.16-.03.15-.04.14-.04.14h0l-.04.14-.04.13-.05.12-.05.12-.05.12-.06.11-.06.11-.06.1-.07.1-.07.09h0l-.07.09-.07.08-.08.08-.08.07-.08.07-.08.07-.09.06-.09.05-.09.05-.1.05h0l-.09.04-.1.04-.1.03-.1.03-.1.02-.1.02-.1.02h-.11l-.11.02h-.32l-.11-.02-.1-.02-.11-.02-.1-.02-.1-.03-.1-.03-.09-.04-.1-.04h0l-.09-.05-.09-.05-.09-.05-.09-.06-.08-.07-.08-.07-.08-.07-.08-.08-.07-.08-.07-.09h0l-.07-.09-.06-.1-.07-.1-.06-.11-.05-.11-.06-.12-.05-.12-.04-.12-.05-.13-.04-.14h0l-.04-.14-.03-.14-.03-.15-.03-.16-.02-.16-.02-.16v-.17l-.02-.18v-.37h-.01v-.36l.02-.18v-.17l.03-.16.02-.16.03-.16.03-.15.03-.14.04-.15h0l.04-.13.05-.13.04-.13.05-.12.06-.12.05-.11.06-.1.07-.11.06-.09.07-.1h0l.07-.08.07-.09.08-.08.08-.07.08-.07.08-.07.09-.06.09-.05.09-.05.09-.05h0l.1-.04.09-.04.1-.03.1-.03.1-.03.11-.02h.1l.11-.02h.21s.22-.01.22-.01l.11.02h.1l.1.03.1.03.1.03.1.03.1.04.09.04h0l.1.05.09.05.09.05.09.06.08.07.08.07.08.07.08.08.07.09.07.08h0l.07.1.07.09.06.11.06.1.06.11.05.12.05.12.05.13.04.13.04.13h0l.04.15.04.14.03.15.03.16.02.16.02.16v.17l.02.18v.36Zm-.93,0h0v-.46l-.02-.15v-.14l-.03-.13v-.13l-.03-.13-.03-.12-.03-.11h0l-.02-.11-.03-.11-.04-.1-.03-.09-.04-.1-.03-.08-.04-.09-.05-.08-.04-.07-.05-.07h0l-.04-.07-.05-.06-.05-.06-.05-.05-.05-.05-.06-.05-.05-.04-.06-.04-.06-.03-.06-.04h0l-.06-.02-.06-.03-.07-.02-.06-.02-.06-.02h-.07l-.06-.02h-.39l-.07.02h-.06l-.06.03-.06.02-.07.02-.06.03-.06.02h0l-.06.04-.06.03-.06.04-.05.04-.06.05-.05.05-.05.05-.05.06-.05.06-.05.07h0l-.04.07-.04.07-.04.08-.04.09-.04.08-.04.1-.03.09-.04.1-.03.11-.03.11h0l-.02.11-.02.12-.02.13-.02.13-.02.13v.14l-.02.15v.46h-.01v.47s.01.15.01.15l.02.14.02.13.02.13.02.13.02.12.02.11h0l.03.11.03.1.04.1.03.1.04.09.04.09.04.08.04.08.04.07.04.07h0l.05.07.05.06.05.06.05.06.05.05.06.04.05.05.06.04.06.03.06.03h0l.06.03.06.03.07.02.06.02h.06l.06.03h.13s.07.01.07.01h.06s.14.01.14.01h.06s.06-.01.06-.01l.07-.03h.06l.06-.03.07-.02.06-.03.06-.03h0l.06-.03.06-.03.06-.04.05-.05.06-.04.05-.05.05-.06.05-.06.05-.06.04-.07h0l.05-.07.04-.07.05-.08.04-.08.03-.09.04-.09.03-.1.04-.1.03-.1.02-.11h0l.03-.11.03-.12.02-.13v-.13l.03-.13v-.14l.02-.15v-.3s.01-.17.01-.17h0Z"/><path class="cls-7" d="m21.01,25.67h0v.24s-.01.08-.01.08l-.02.08-.02.07v.08l-.03.07-.03.07-.02.06h0l-.03.07-.03.06-.03.06-.03.06-.03.06-.04.05-.04.06-.04.05-.04.05-.04.04h0l-.04.05-.05.04-.05.04-.04.04-.05.03-.06.04-.05.03-.05.03-.06.02-.06.03h0l-.05.02-.06.02-.06.02-.06.02h-.06l-.06.02h-.12s-.07.01-.07.01h-.06s-.13.01-.13.01h-.07s-.06-.01-.06-.01l-.06-.02h-.07l-.06-.03-.06-.02-.06-.02-.06-.02h0l-.05-.03-.06-.02-.05-.03-.06-.03-.05-.04-.05-.03-.04-.04-.05-.04-.05-.04-.04-.05h0l-.04-.04-.04-.05-.04-.05-.03-.06-.04-.05-.03-.06-.03-.06-.03-.06-.03-.06-.02-.07h0l-.02-.06-.02-.07-.02-.07-.02-.08v-.07l-.02-.08v-.08l-.02-.08v-.16h0v-.25l.02-.08v-.08l.02-.07.02-.08.02-.07.02-.07.02-.07h0l.02-.06.03-.07.03-.06.03-.06.03-.05.04-.06.03-.05.04-.05.04-.05.04-.05h0l.04-.05.05-.04.05-.04.04-.04.05-.03.05-.04.06-.03.05-.03.06-.03.05-.02h0l.06-.02.06-.02.06-.02.06-.02h.07l.06-.02h.06l.07-.02h.33l.06.02h.07l.06.02.06.02.06.02.06.02.06.02h0l.06.02.05.03.06.03.05.03.05.04.05.03.05.04.05.04.04.04.04.05h0l.05.05.04.05.04.05.03.05.04.06.03.05.03.06.03.06.03.07.02.06h0l.02.07.02.07.02.07.02.08v.07l.02.08v.08l.02.08v.17Zm-.69,0h0v-.25s-.01-.06-.01-.06l-.02-.05v-.1l-.03-.05v-.05h-.01v-.05l-.03-.04-.02-.04v-.04l-.03-.04-.02-.04-.02-.03-.03-.03-.02-.04-.03-.03h0l-.02-.02-.02-.03-.03-.03-.03-.02-.03-.02-.03-.02-.03-.02-.03-.02-.03-.02h-.03l-.03-.02h-.04l-.03-.02h-.04l-.03-.02h-.07s-.11-.01-.11-.01h-.18l-.03.02h-.04l-.03.02h-.03l-.04.02h-.03l-.03.03-.03.02-.03.02-.03.02-.02.02-.03.02-.03.03-.02.03-.03.02h0l-.02.03-.02.04-.02.03-.02.03-.02.04-.02.04-.02.04-.02.04v.04l-.03.05h0v.05l-.02.05v.05l-.02.05v.11s-.01.06-.01.06v.19h-.01v.13s.01.11.01.11v.12l.02.05v.05l.02.05v.04h.01l.02.05v.04l.03.04.02.04.02.04.02.04.02.03.02.03.02.03.02.03h0l.03.03.02.03.03.02.03.02.02.03.03.02h.03l.03.03.03.02h.03l.04.02h.03l.03.02h.07s.04.01.04.01h.03s.04.01.04.01h.03s.15.01.15.01h.03s.04-.01.04-.01h.03s.04-.01.04-.01l.03-.02h.04l.03-.02h.03l.03-.03.03-.02h.03l.03-.03.03-.03.03-.02.03-.02.02-.03.02-.03h0l.03-.03.02-.03.03-.03.02-.03.02-.04.02-.04v-.04l.03-.04.02-.04v-.05h.01v-.04l.03-.05v-.1s.01-.06.01-.06l.02-.06v-.18s.01-.06,0-.06Zm3.22-1.58h.02v-.02s.01-.02.01-.02h.03v-.02h.02v-.02h.02v-.02h.04l.02-.02h.09s.69-.01.69-.01l-5.24,7.02h-.01v.02s-.01.02-.01.02h-.02s-.01.03-.01.03h-.02v.02h-.04s-.01.03-.01.03h-.05s-.02.01-.02.01h-.02s-.71.01-.71.01l5.23-7.01v-.02Zm1.43,5.32h0v.25l-.02.08v.07l-.02.08-.02.07-.02.07-.02.07-.03.06h0l-.02.07-.03.06-.03.06-.03.06-.04.06-.03.05-.04.06-.04.05-.04.05-.05.04h0l-.04.05-.04.04-.05.04-.05.04-.05.03-.05.04-.05.03-.06.03-.05.02-.06.03h0l-.06.02-.06.02-.05.02-.06.02h-.06l-.06.02h-.13s-.06.01-.06.01h-.07s-.13.01-.13.01h-.06s-.07-.01-.07-.01l-.06-.02h-.07l-.06-.03-.06-.02-.06-.02-.06-.02h0l-.05-.03-.06-.02-.05-.03-.05-.03-.05-.04-.05-.03-.05-.04-.05-.04-.04-.04-.05-.05h0l-.04-.04-.04-.05-.03-.05-.04-.06-.03-.05-.03-.06-.03-.06-.03-.06-.03-.06-.03-.07h0l-.02-.06-.02-.07-.02-.07v-.07l-.03-.08v-.15s-.01-.08-.01-.08v-.08s-.01-.09-.01-.09h-.01v-.16s.01-.08.01-.08v-.08s.01-.08.01-.08l.03-.08v-.07l.03-.07.02-.07.02-.07h0l.03-.07.03-.06.03-.06.03-.06.03-.06.03-.06.04-.05.03-.05.04-.05.04-.05h0l.05-.05.04-.04.05-.04.05-.04.05-.03.05-.04.05-.03.05-.03.06-.03.05-.02h0l.06-.02.06-.02.06-.02.06-.02h.07l.06-.02h.07l.06-.02h.33l.07.02h.06l.06.02.06.02.06.02.06.02.06.02h0l.06.02.05.03.06.03.05.03.05.04.05.03.05.04.05.04.04.04.04.05h0l.05.05.04.05.04.05.03.05.04.06.03.06.03.06.03.06.03.06.02.07h0l.02.07.02.07.02.07.02.07v.08l.02.08v.08l.02.08s0,.16,0,.16Zm-.69,0h0v-.3s-.01-.06-.01-.06l-.02-.05v-.05l-.02-.05-.02-.05h0v-.04l-.03-.05v-.04l-.03-.04-.02-.04-.02-.04-.02-.03-.02-.03-.03-.04-.02-.03h0l-.02-.02-.03-.03-.03-.03-.02-.02-.03-.02-.03-.02-.03-.02-.03-.02h-.03l-.04-.03h-.03l-.03-.02h-.04l-.03-.02h-.11s-.03-.01-.03-.01h-.29s-.03.01-.03.01l-.04.02h-.03l-.04.02h0l-.03.02h-.03l-.03.03-.03.02-.03.02-.02.02-.03.02-.03.03-.02.03-.03.02h0l-.02.03-.02.04-.02.03-.02.03-.02.04-.02.04-.02.04-.02.04v.05l-.03.04h0v.05l-.02.05v.05l-.02.05v.18s-.01.06-.01.06v.06s-.01.06-.01.06h0v.25s.01.05.01.05v.06s.01.05.01.05l.02.05v.05l.02.04h0l.02.05v.04l.03.04.02.04.02.04.02.04.02.03.02.03.02.03.02.03h0l.03.03.02.03.03.02.03.02.02.03.03.02h.03l.03.03.03.02h.03l.04.02h.03l.04.02h.06s.04.01.04.01h.04s.03.01.03.01h.04s.14.01.14.01h.04s.03-.01.03-.01h.04s.03-.01.03-.01l.04-.02h.03l.03-.02h.04l.03-.03.03-.02h.03l.03-.03.03-.03.02-.02.03-.02.03-.03.02-.03h0l.02-.03.03-.03.02-.03.02-.03.02-.04.02-.04.02-.04v-.04l.03-.04v-.05h0l.02-.04v-.05l.02-.05v-.05l.02-.06v-.17s.01-.13.01-.13h0Z"/><path class="cls-7" d="m5.09,8.41v.68H1.25v-.68h1.53V3.52h0v-.44l-1.28,1.09h0v.02h0l-.02.02h-.02s-.02.01-.02.01h-.02s-.07.01-.07.01h-.02s-.03-.01-.03-.01h-.02s0-.01,0-.01h0v-.03h0v-.02h0v-.02h0l-.28-.39,2.13-1.84h.73v6.5h1.41-.17Z"/><path class="cls-7" d="m11.3,5.51h0v.36l-.02.18v.17l-.03.16-.02.16-.03.16-.03.15-.04.15-.04.14h0l-.04.13-.04.13-.05.13-.05.12-.05.11-.06.11-.06.11-.06.1-.07.1-.07.09h0l-.07.09-.07.08-.08.08-.08.08-.08.06-.08.07-.09.06-.09.05-.09.06-.1.04h0l-.09.04-.1.04-.1.03-.1.03-.1.03-.1.02h-.1l-.11.02h-.22s-.21.01-.21.01l-.11-.02h-.1l-.11-.03-.1-.03-.1-.03-.1-.03-.09-.04-.1-.04h0l-.09-.04-.09-.06-.09-.05-.09-.06-.08-.07-.08-.06-.08-.08-.08-.08-.07-.08-.07-.09h0l-.07-.09-.06-.1-.07-.1-.06-.11-.05-.11-.06-.11-.05-.12-.04-.13-.05-.13-.04-.13h0l-.04-.14-.03-.15-.03-.15-.03-.16-.02-.16-.02-.16v-.17l-.02-.18v-.36h-.01v-.37l.02-.17v-.18l.03-.16.02-.16.03-.16.03-.15.03-.14.04-.14h0l.04-.14.05-.13.04-.13.05-.12.06-.11.05-.11.06-.11.07-.1.06-.1.07-.09h0l.07-.09.07-.09.08-.07.08-.08.08-.07.08-.06.09-.06.09-.06.09-.05.09-.05h0l.1-.04.09-.04.1-.03.1-.03.1-.02.11-.02.1-.02h.11l.11-.02h.32l.11.02.1.02.1.02.1.02.1.03.1.03.1.04.09.04h0l.1.05.09.05.09.06.09.06.08.06.08.07.08.08.08.07.07.09.07.09h0l.07.09.07.1.06.1.06.11.06.11.05.11.05.12.05.13.04.13.04.14h0l.04.14.04.14.03.15.03.16.02.16.02.16v.18l.02.17v.18s.01.19,0,.19Zm-.93,0h0v-.47l-.02-.15v-.14l-.03-.13v-.13l-.03-.13-.03-.11-.03-.12h0l-.02-.11-.03-.1-.04-.1-.03-.1-.04-.09-.03-.09-.04-.08-.05-.08-.04-.08-.05-.07h0l-.04-.06-.05-.07-.05-.05-.05-.06-.05-.05-.06-.05-.05-.04-.06-.04-.06-.03-.06-.03h0l-.06-.03-.06-.03-.07-.02-.06-.02-.06-.02h-.07l-.06-.02h-.39l-.07.02h-.06l-.06.03-.06.02-.07.02-.06.03-.06.03h0l-.06.03-.06.03-.06.04-.05.04-.06.05-.05.05-.05.06-.05.05-.05.07-.05.06h0l-.04.07-.04.08-.04.08-.04.08-.04.09-.04.09-.03.1-.04.1-.03.1-.03.11h0l-.02.12-.02.11-.02.13-.02.13-.02.13v.14l-.02.15v.47h-.01v.47s.01.14.01.14l.02.14.02.14.02.13.02.12.02.12.02.11h0l.03.11.03.11.04.1.03.09.04.09.04.09.04.08.04.08.04.08.04.07h0l.05.06.05.07.05.05.05.06.05.05.06.05.05.04.06.04.06.04.06.03h0l.06.02.06.03.07.02.06.02.06.02h.06l.07.02h.13s.26.01.26.01l.06-.02h.07l.06-.03.06-.02.07-.02.06-.03.06-.02h0l.06-.03.06-.04.06-.04.05-.04.06-.05.05-.05.05-.06.05-.05.05-.07.04-.06h0l.05-.07.04-.08.05-.08.04-.08.03-.09.04-.09.03-.09.04-.1.03-.11.02-.11h0l.03-.11.03-.12.02-.12v-.13l.03-.14v-.14l.02-.14v-.31s.01-.16.01-.16h0Z"/><path class="cls-7" d="m17.1,5.51h0v.36l-.02.18v.17l-.03.16-.02.16-.03.16-.03.15-.04.15-.04.14h0l-.04.13-.04.13-.05.13-.05.12-.05.11-.06.11-.06.11-.06.1-.07.1-.07.09h0l-.07.09-.07.08-.08.08-.08.08-.08.06-.08.07-.09.06-.09.05-.09.06-.1.04h0l-.09.04-.1.04-.1.03-.1.03-.1.03-.1.02h-.1l-.11.02h-.22s-.21.01-.21.01l-.11-.02h-.1l-.11-.03-.1-.03-.1-.03-.1-.03-.09-.04-.1-.04h0l-.09-.04-.09-.06-.09-.05-.09-.06-.08-.07-.08-.06-.08-.08-.08-.08-.07-.08-.07-.09h0l-.07-.09-.06-.1-.07-.1-.06-.11-.05-.11-.06-.11-.05-.12-.04-.13-.05-.13-.04-.13h0l-.04-.14-.03-.15-.03-.15-.03-.16-.02-.16-.02-.16v-.17l-.02-.18v-.36h-.01v-.37l.02-.17v-.18l.03-.16.02-.16.03-.16.03-.15.03-.14.04-.14h0l.04-.14.05-.13.04-.13.05-.12.06-.11.05-.11.06-.11.07-.1.06-.1.07-.09h0l.07-.09.07-.09.08-.07.08-.08.08-.07.08-.06.09-.06.09-.06.09-.05.09-.05h0l.1-.04.09-.04.1-.03.1-.03.1-.02.11-.02.1-.02h.11l.11-.02h.32l.11.02.1.02.1.02.1.02.1.03.1.03.1.04.09.04h0l.1.05.09.05.09.06.09.06.08.06.08.07.08.08.08.07.07.09.07.09h0l.07.09.07.1.06.1.06.11.06.11.05.11.05.12.05.13.04.13.04.14h0l.04.14.04.14.03.15.03.16.02.16.02.16v.18l.02.17v.18s.01.19.01.19Zm-.93,0h0v-.47l-.02-.15v-.14l-.03-.13v-.13l-.03-.13-.03-.11-.03-.12h0l-.02-.11-.03-.1-.04-.1-.03-.1-.04-.09-.03-.09-.04-.08-.05-.08-.04-.08-.05-.07h0l-.04-.06-.05-.07-.05-.05-.05-.06-.05-.05-.06-.05-.05-.04-.06-.04-.06-.03-.06-.03h0l-.06-.03-.06-.03-.07-.02-.06-.02-.06-.02h-.07l-.06-.02h-.39l-.07.02h-.06l-.06.03-.06.02-.07.02-.06.03-.06.03h0l-.06.03-.06.03-.06.04-.05.04-.06.05-.05.05-.05.06-.05.05-.05.07-.05.06h0l-.04.07-.04.08-.04.08-.04.08-.04.09-.04.09-.03.1-.04.1-.03.1-.03.11h0l-.02.12-.02.11-.02.13-.02.13-.02.13v.14l-.02.15v.47h-.01v.47s.01.14.01.14l.02.14.02.14.02.13.02.12.02.12.02.11h0l.03.11.03.11.04.1.03.09.04.09.04.09.04.08.04.08.04.08.04.07h0l.05.06.05.07.05.05.05.06.05.05.06.05.05.04.06.04.06.04.06.03h0l.06.02.06.03.07.02.06.02.06.02h.06l.07.02h.13s.26.01.26.01l.06-.02h.07l.06-.03.06-.02.07-.02.06-.03.06-.02h0l.06-.03.06-.04.06-.04.05-.04.06-.05.05-.05.05-.06.05-.05.05-.07.04-.06h0l.05-.07.04-.08.05-.08.04-.08.03-.09.04-.09.03-.09.04-.1.03-.11.02-.11h0l.03-.11.03-.12.02-.12v-.13l.03-.14v-.14l.02-.14v-.31s.01-.16.01-.16h0Z"/><path class="cls-7" d="m21.01,3.65h0v.25s-.01.07-.01.07l-.02.08-.02.08v.07l-.03.07-.03.07-.02.07h0l-.03.06-.03.06-.03.07-.03.05-.03.06-.04.06-.04.05-.04.05-.04.05-.04.05h0l-.04.04-.05.04-.05.04-.04.04-.05.04-.06.03-.05.03-.05.03-.06.03-.06.02h0l-.05.02-.06.03h-.06l-.06.03h-.06l-.06.02h-.06l-.06.02h-.33l-.06-.02h-.06l-.07-.02-.06-.02h-.06l-.06-.04-.06-.02h0l-.05-.02-.06-.03-.05-.03-.06-.03-.05-.03-.05-.04-.04-.04-.05-.04-.05-.04-.04-.04h0l-.04-.05-.04-.05-.04-.05-.03-.05-.04-.06-.03-.06-.03-.05-.03-.07-.03-.06-.02-.06h0l-.02-.07-.02-.07-.02-.07-.02-.07v-.08l-.02-.08v-.07l-.02-.08v-.17h0v-.25l.02-.08v-.07l.02-.08.02-.07.02-.08.02-.07.02-.06h0l.02-.07.03-.06.03-.06.03-.06.03-.06.04-.06.03-.05.04-.05.04-.05.04-.05h0l.04-.04.05-.05.05-.04.04-.03.05-.04.05-.03.06-.04.05-.03.06-.02.05-.03h0l.06-.02.06-.02.06-.02h.06l.07-.03h.06l.06-.02h.46l.07.02.06.02h.06l.06.03.06.02.06.02h0l.06.03.05.02.06.03.05.04.05.03.05.04.05.03.05.04.04.05.04.04h0l.05.05.04.05.04.05.03.05.04.06.03.06.03.06.03.06.03.06.02.07h0l.02.06.02.07.02.08.02.07v.08l.02.07v.08l.02.08s0,.17,0,.17Zm-.69,0h0v-.25s-.01-.05-.01-.05l-.02-.06v-.1l-.03-.05v-.05h-.01v-.04l-.03-.05-.02-.04v-.04l-.03-.04-.02-.03-.02-.04-.03-.03-.02-.03-.03-.03h0l-.02-.03-.02-.03-.03-.03-.03-.02-.03-.02-.03-.02-.03-.02-.03-.02h-.03l-.03-.03h-.03l-.04-.02h-.03l-.04-.02h-.42l-.04.02h-.03l-.03.02h-.04l-.03.03h-.03l-.03.03-.03.02-.03.02-.02.02-.03.02-.03.03-.02.03-.03.03h0l-.02.03-.02.03-.02.03-.02.04-.02.03-.02.04-.02.04-.02.04v.05l-.03.04h0v.05l-.02.05v.05l-.02.05v.11s-.01.06-.01.06v.19h-.01v.13s.01.12.01.12v.11l.02.05v.05l.02.05v.05h.01l.02.04v.04l.03.04.02.04.02.04.02.04.02.03.02.04.02.03.02.03h0l.03.02.02.03.03.02.03.03.02.02.03.02.03.02h.03l.03.03h.03l.04.02h.03l.03.02h.04l.03.02h.11s.21.01.21.01h.04s.03-.01.03-.01l.04-.02h.03l.04-.02h.03l.03-.02.03-.02h.03l.03-.03.03-.02.03-.02.03-.03.03-.02.02-.03.02-.02h0l.03-.03.02-.03.03-.04.02-.03.02-.04.02-.04v-.04l.03-.04.02-.04v-.04h.01v-.05l.03-.05v-.1s.01-.06.01-.06l.02-.05v-.18s.01-.07.01-.07h0Zm3.22-1.58h.02v-.02h.02v-.02h.02v-.02h.02v-.02h.02v-.02h.02l.02-.02h.07s.04,0,.04,0h.69l-5.24,7.02h-.01v.03h-.02v.02h-.01v.02h-.03v.02h-.02l-.02.02h-.02l-.02.02h-.05s-.04.01-.04.01h-.02s-.67.01-.67.01l5.23-7.02v-.02Zm1.43,5.33h0v.24l-.02.08v.07l-.02.08-.02.07-.02.07-.02.07-.03.07h0l-.02.06-.03.06-.03.07-.03.05-.04.06-.03.06-.04.05-.04.05-.04.05-.05.05h0l-.04.04-.04.04-.05.04-.05.04-.05.04-.05.03-.05.03-.06.03-.05.03-.06.02h0l-.06.02-.06.03h-.05l-.06.03h-.06l-.06.02h-.07l-.06.02h-.32l-.07-.02h-.06l-.07-.02-.06-.02h-.06l-.06-.04-.06-.02h0l-.05-.02-.06-.03-.05-.03-.05-.03-.05-.03-.05-.04-.05-.04-.05-.04-.04-.04-.05-.04h0l-.04-.05-.04-.05-.03-.05-.04-.05-.03-.06-.03-.06-.03-.05-.03-.07-.03-.06-.03-.06h0l-.02-.07-.02-.07-.02-.07v-.07l-.03-.08v-.15s-.01-.08-.01-.08v-.08s-.01-.08-.01-.08h-.01v-.17s.01-.08.01-.08v-.08s.01-.08.01-.08l.03-.07v-.08l.03-.07.02-.07.02-.07h0l.03-.06.03-.07.03-.06.03-.06.03-.06.03-.06.04-.05.03-.05.04-.05.04-.05h0l.05-.04.04-.05.05-.04.05-.03.05-.04.05-.03.05-.04.05-.03.06-.02.05-.03h0l.06-.02.06-.02.06-.02h.06l.07-.03h.06l.07-.02h.46l.06.02.06.02h.06l.06.03.06.02.06.02h0l.06.03.05.02.06.03.05.04.05.03.05.04.05.03.05.04.04.05.04.04h0l.05.05.04.05.04.05.03.05.04.06.03.06.03.06.03.06.03.07.02.06h0l.02.07.02.07.02.07.02.08v.07l.02.08v.08l.02.08s0,.17,0,.17Zm-.69,0h0v-.31s-.01-.05-.01-.05l-.02-.06v-.05l-.02-.05-.02-.04h0v-.05l-.03-.04v-.05l-.03-.04-.02-.04-.02-.03-.02-.04-.02-.03-.03-.03-.02-.03h0l-.02-.03-.03-.03-.03-.02-.02-.03-.03-.02-.03-.02-.03-.02h-.03l-.03-.03h-.04l-.03-.03h-.03l-.04-.02h-.07l-.03-.02h-.11s-.14-.01-.14-.01h-.04s-.04.01-.04.01l-.03.02h-.07l-.03.02-.04.02h-.03l-.03.03h-.03l-.03.03-.03.02-.02.02-.03.03-.03.02-.02.03-.03.03h0l-.02.03-.02.03-.02.03-.02.04-.02.03-.02.04-.02.04-.02.05v.04l-.03.05h0v.04l-.02.05v.05l-.02.06v.17s-.01.06-.01.06v.06s-.01.07-.01.07h0v.24s.01.06.01.06v.05s.01.05.01.05l.02.05v.05l.02.05h0l.02.04v.04l.03.04.02.04.02.04.02.04.02.03.02.04.02.03.02.03h0l.03.02.02.03.03.02.03.03.02.02.03.02.03.02h.03l.03.03h.03l.04.02h.03l.04.02h.03l.03.02h.11s.22.01.22.01h.03s.04-.01.04-.01l.03-.02h.04l.03-.02h.03l.04-.02.03-.02h.03l.03-.03.03-.02.03-.02.02-.03.03-.02.03-.03.02-.02h0l.02-.03.03-.03.02-.04.02-.03.02-.04.02-.04.02-.04v-.04l.03-.04v-.04h0l.02-.05v-.05l.02-.05v-.05l.02-.05v-.18s.01-.12.01-.12h0Z"/><line class="cls-4" x1="30.35" y1="115.59" x2="257.04" y2="115.59"/><line class="cls-4" x1="65.5" y1="115.59" x2="65.5" y2="118.33"/><line class="cls-4" x1="107.48" y1="115.59" x2="107.48" y2="118.33"/><line class="cls-4" x1="149.46" y1="115.59" x2="149.46" y2="118.33"/><line class="cls-4" x1="191.44" y1="115.59" x2="191.44" y2="118.33"/><line class="cls-4" x1="233.42" y1="115.59" x2="233.42" y2="118.33"/><line class="cls-4" x1="44.51" y1="115.59" x2="44.51" y2="118.33"/><line class="cls-4" x1="86.49" y1="115.59" x2="86.49" y2="118.33"/><line class="cls-4" x1="128.47" y1="115.59" x2="128.47" y2="118.33"/><line class="cls-4" x1="170.45" y1="115.59" x2="170.45" y2="118.33"/><line class="cls-4" x1="212.43" y1="115.59" x2="212.43" y2="118.33"/><path class="cls-7" d="m60.09,120.52v1.45l-.08.78h0v.12l-.02.02v.03l-.02.02v.02l-.03.02v.02h0v.02h-.03s-.02.01-.02.01l-.02.02h-.02l-.02.02h-.05s-.15.01-.15.01l-.03-.02h-.02l-.02-.02h0l-.02-.02-.02-.02h0v-.02l-.02-.02v-.02l-.02-.02v-.03l-.02-.02v-.03l-.02-.03v-.06l-.08-.78v-1.45h.77-.02Z"/><path class="cls-7" d="m65.81,127.01v.68h-3.84v-.68h1.54v-4.89h0v-.35s0-.09,0-.09l-1.27,1.09h0l-.02.02h0v.02h-.02v.02h-.09s-.09.01-.09.01h0s-.03-.01-.03-.01h-.03s0-.03,0-.03h0s0-.03,0-.03h0v-.02h-.02l-.28-.4,2.14-1.84h.72v6.5h1.41-.09Z"/><path class="cls-7" d="m68.33,123.23h0l.12-.02.1-.02.11-.02.11-.02h.1l.1-.02h.1l.1-.02h.52s.1.03.1.03h.1l.1.03.09.02.1.02.09.03.08.03h0l.09.04.08.04.08.03.08.05.07.04.07.05.07.05.06.05.06.05.06.06h0l.06.06.05.06.05.06.05.07.04.07.05.07.03.07.04.07.03.08.03.07h0l.03.08.03.09.02.08.02.08.02.09v.08l.02.09v.18s.01.09.01.09h0v.34l-.03.1-.02.11-.02.1-.02.1-.03.1-.04.09-.04.09h0l-.04.1-.04.08-.05.09-.05.08-.05.08-.06.08-.05.07-.07.08-.06.07-.07.06h0l-.07.07-.07.06-.08.06-.08.05-.08.05-.08.05-.08.05-.09.04-.09.04-.1.03h0l-.09.04-.1.03-.09.02-.1.03-.1.02h-.11l-.1.02h-.11l-.1.02h-.48s-.06-.01-.06-.01l-.06-.02h-.06l-.06-.03h-.05l-.06-.02-.06-.02h-.05l-.06-.03h-.05l-.05-.03-.06-.02-.05-.02-.05-.02h0l-.05-.02-.05-.02-.05-.03-.05-.02-.04-.02-.05-.03-.04-.02-.05-.03-.04-.02-.05-.03h0l-.04-.03-.04-.03-.04-.02-.04-.03-.04-.03-.04-.03-.03-.03-.04-.03-.03-.03-.04-.03.28-.38h0l.02-.02.02-.02.02-.02.02-.02h.02l.03-.02h.02l.03-.02h.18l.03.02.02.02h.02l.03.02h0l.02.02.03.02h.03l.03.03h.03l.03.03.03.02.03.02.04.02h.03l.04.03.04.02.04.02.04.02.04.02h.04l.05.03.04.02h.05l.04.03h.05l.06.03h.05l.05.02h.24s.35.01.35.01h.07s.07-.03.07-.03h.07l.06-.02.07-.02.06-.02.06-.03h0l.06-.02.06-.03.05-.03.06-.03.05-.03.05-.04.05-.03.04-.04.05-.04.04-.05h0l.05-.04.04-.05.03-.05.04-.05.03-.05.04-.06.03-.05.02-.06.03-.06.02-.06h0l.03-.06.02-.07v-.06l.03-.07v-.07l.02-.07v-.14s.01-.08.01-.08v-.08h.01v-.19l-.02-.06v-.06l-.02-.06v-.06l-.02-.06-.02-.06-.02-.05h0l-.02-.05-.02-.06-.03-.05-.02-.04-.03-.05-.03-.05-.04-.04-.03-.04-.04-.04-.04-.04h0l-.04-.04-.04-.03-.04-.04-.05-.03-.05-.03-.05-.03-.05-.03-.05-.02-.06-.02-.06-.03h0l-.06-.02h-.06l-.06-.03h-.07l-.07-.02h-.07l-.07-.02h-.15s-.3-.01-.3-.01h-.05s-.06.01-.06.01h-.06s-.05.01-.05.01l-.06.02h-.12l-.06.02-.06.02h-.06l-.05.02-.06.02h-.06l-.06.03-.06.02-.07.02-.56-.17.58-3.35h3.39v.39h0v.15s-.03.03-.03.03v.03l-.02.03-.02.03-.02.02-.03.03h0l-.02.02-.03.02-.03.02-.03.02h-.04l-.04.02h-.21s-2.25.01-2.25.01l-.33,1.88v.02Z"/><path class="cls-7" d="m102.07,120.52v1.45l-.08.78h0v.06l-.02.03v.05l-.02.03v.02l-.02.02-.02.02v.02h-.01v.02h-.03s-.02.01-.02.01l-.02.02h-.02l-.02.02h-.05s-.15.01-.15.01l-.03-.02h-.02l-.02-.02h0l-.02-.02-.02-.02h0v-.02l-.02-.02v-.02l-.02-.02v-.03l-.02-.02v-.03l-.02-.03v-.06s-.09-.78-.09-.78v-1.45h.77-.01Z"/><path class="cls-7" d="m107.79,127.01v.68h-3.84v-.68h1.54v-4.89h0v-.35s.01-.09.01-.09l-1.27,1.09h-.01l-.02.02h0v.02h-.03v.02h-.09s-.09.01-.09.01h-.01s-.03-.01-.03-.01h-.05s-.01-.01-.01-.01v-.02h-.02s-.01-.01-.01-.01v-.02h-.01v-.02h-.01l-.28-.4,2.14-1.84h.72v6.5h1.41-.04Z"/><path class="cls-7" d="m113.91,120.52v.4h0v.16s-.01.03-.01.03v.02s-.01.03-.01.03v.02s-.01.02-.01.02h0v.03l-.02.02v.04l-.02.02h0v.03s-.01.02-.01.02h-.01v.03l-2.98,5.98h0v.03l-.03.02v.03l-.03.02-.02.03-.02.02-.02.02-.02.02-.02.02-.02.02h0l-.02.02h-.03l-.03.03h-.03l-.02.02h-.07l-.03.02h-.72l3.01-5.91h0l.02-.03v-.02l.02-.02.02-.03v-.02l.02-.02.02-.03v-.02l.02-.02.02-.02h0v-.02l.03-.02v-.02l.03-.02v-.02l.03-.02v-.02l.03-.02v-.02l.03-.02h-3.81s-.01-.01-.01-.01h-.03v-.02h-.03v-.03h-.02v-.02s-.01-.02-.01-.02h-.02v-.02l-.02-.02h0v-.03h-.01v-.64h4.87v-.02Z"/><path class="cls-7" d="m144.05,120.52v1.45l-.08.78h0v.06l-.02.03v.05l-.02.03v.02l-.03.02v.02l-.02.02h0l-.02.02h0l-.02.02h-.02l-.02.02h-.02l-.02.02h-.18l-.03-.02h-.02l-.02-.02h0l-.02-.02-.02-.02h0v-.02l-.02-.02v-.02l-.03-.02v-.08l-.02-.03v-.06l-.08-.78v-1.45h.77-.04Z"/><path class="cls-7" d="m149.77,127.01v.68h-3.84v-.68h1.54v-4.89h0v-.44l-1.27,1.09h0l-.02.02h0v.02h-.02v.02h-.08s-.09.01-.09.01h0s-.03-.01-.03-.01h-.05v-.03h0s0-.03,0-.03h0v-.02h0l-.28-.4,2.14-1.84h.72v6.5h1.41-.08Z"/><path class="cls-7" d="m151.9,122.63h0v.26s0,.06,0,.06l.02.06.02.06v.06l.03.05v.06h0l.02.05.03.05.02.05.03.05.02.04.03.05.03.04.03.04.04.04.03.04h0l.04.04.04.03.04.03.04.03.05.03.04.03.05.02.05.03.05.02.05.02h0l.05.02h.06l.05.03h.06l.06.02h.06l.06.02h.53l.06-.03h.06l.06-.03.06-.02.05-.02h0l.06-.03.05-.02.05-.03.05-.03.05-.03.05-.03.04-.04.04-.03.04-.04.04-.04h0l.04-.04.04-.04.03-.04.03-.04.03-.05.03-.04.03-.05.02-.05.02-.05.02-.05h0l.02-.05.02-.05v-.05l.03-.05v-.06l.02-.05v-.16s0-.06,0-.06h0v-.25s0-.06,0-.06l-.03-.06v-.06l-.03-.06-.02-.06-.02-.05h0l-.02-.05-.02-.06-.03-.05-.02-.05-.03-.04-.03-.05-.04-.04-.03-.05-.03-.04-.04-.04h0l-.04-.03-.04-.04-.04-.03-.05-.03-.04-.03-.05-.03-.04-.03-.05-.02-.05-.02-.06-.03h0l-.05-.02h-.05l-.06-.03h-.05l-.06-.02h-.06l-.06-.02h-.37l-.07.02h-.06l-.06.02h-.05l-.06.03-.06.02-.05.02h0l-.05.02-.06.02-.05.03-.05.03-.04.03-.05.03-.04.03-.05.03-.04.04-.04.03h0l-.03.04-.04.04-.04.05-.03.04-.03.04-.03.05-.03.05-.02.05-.02.05-.03.05h0l-.02.05v.06l-.03.05v.06l-.03.06v.11l-.02.07v.12-.02Zm2.08,2.2h0l.02-.02.02-.03.02-.03.02-.03.02-.03.03-.02.02-.03v-.03l.03-.02.02-.03h0l.02-.03.02-.02.02-.03.02-.02.02-.03v-.03l.03-.02.02-.03.02-.02v-.03h0l-.05.04-.06.04-.06.04-.06.04-.06.03-.06.04-.07.03-.06.02-.07.03-.07.02h0l-.07.03-.07.02h-.07l-.07.03h-.07l-.07.02h-.31s-.16.01-.16.01h-.08s-.07-.01-.07-.01l-.08-.02-.08-.02-.07-.02-.08-.02-.07-.02-.08-.03h0l-.07-.02-.07-.03-.06-.04-.07-.03-.07-.04-.06-.04-.06-.05-.06-.04-.06-.05-.05-.05h0l-.06-.05-.05-.06-.05-.06-.04-.06-.05-.06-.04-.07-.04-.07-.04-.07-.04-.07-.03-.08h0l-.03-.07-.03-.08-.02-.09-.02-.08-.02-.09-.02-.09v-.09l-.02-.09v-.2h0v-.27s.03-.09.03-.09v-.09l.03-.09.02-.08.03-.09.03-.08.03-.09h0l.04-.08.04-.08.04-.07.05-.08.04-.07.05-.07.06-.07.05-.06.06-.07.06-.06h0l.07-.06.06-.06.07-.05.07-.05.08-.05.07-.05.08-.04.08-.05.09-.03.08-.04h0l.09-.03.09-.03.09-.03.1-.02.09-.02.1-.02h.09l.1-.02h.51l.1.02.09.02.09.02.09.02.09.02.09.03.08.03h0l.09.04.08.04.07.04.08.04.07.05.07.05.07.05.07.05.06.06.06.06h0l.06.06.06.07.05.06.05.07.05.07.04.08.04.08.04.07.04.09.03.08h0l.03.09.03.08.03.09.02.09.02.1v.09l.02.1v.1l.02.1v.1h0v.24s0,.06,0,.06v.12l-.02.06v.05l-.02.06h0v.05l-.03.06v.05l-.02.06-.02.05-.02.06-.02.05v.06l-.04.05-.02.05h0l-.02.06-.02.05-.02.05-.03.06-.02.05-.03.05-.03.06-.03.05-.03.05-.03.05h0l-.03.06-.03.05-.03.05-.04.05-.03.06-.04.05-.03.06-.04.05-.04.05-.04.06-1.74,2.52h0l-.02.02v.02h-.03v.03l-.03.02h-.02l-.02.03h-.02l-.02.02h-.03l-.02.02h-.03l-.02.02h-.03l-.03.02h-.11s-.85.01-.85.01l2.18-2.86h0Z"/><path class="cls-7" d="m186.03,120.52v1.45l-.08.78h0v.06l-.02.03v.05l-.02.03v.02l-.03.02v.02l-.02.02h0l-.02.02h0l-.02.02h-.02l-.02.02h-.02l-.02.02h-.19l-.02-.02h-.02l-.02-.02h0l-.02-.02-.02-.02h0v-.02l-.02-.02v-.02l-.03-.02v-.05s0-.03,0-.03l-.02-.03v-.06s-.09-.78-.09-.78v-1.45h.77-.02Z"/><path class="cls-7" d="m191.6,126.84h.05s.05.01.05.01l.03.02h.02l.02.02h.02l.02.02.02.02h0v.02l.03.02h0v.04s0,.02,0,.02l.02.02v.05s0,.59,0,.59h-4.78v-.31h0v-.15l.02-.02v-.02h0v-.02l.02-.02v-.02l.02-.02v-.02l.03-.02h0l.02-.03v-.02l.03-.02,2.29-2.3h0l.06-.06.06-.06.05-.05.05-.06.06-.05.05-.06.05-.05.05-.06.05-.05.04-.06h0l.05-.05.04-.05.05-.06.04-.05.04-.06.04-.05.04-.05.03-.06.04-.05.03-.06h0l.04-.05.03-.05.03-.06.02-.05.03-.06.02-.05.03-.06.02-.05.02-.06.02-.05h0l.02-.06v-.05l.02-.06.02-.06v-.24s0-.06,0-.06v-.07h0v-.23l-.02-.06v-.05l-.02-.06-.02-.05v-.05l-.03-.05h0l-.02-.04-.02-.05-.03-.04-.02-.04-.03-.04-.03-.04-.03-.04-.03-.04-.03-.03-.04-.03h0l-.03-.03-.04-.03-.03-.03-.04-.02-.04-.03-.04-.02-.05-.02-.04-.02h-.05l-.04-.03h0l-.05-.02h-.05l-.05-.02h-.05l-.05-.02h-.1s-.05-.01-.05-.01h-.05s-.22-.01-.22-.01h-.05s-.05.01-.05.01l-.05.02h-.05l-.05.02h-.05l-.04.03h0l-.05.02h-.04l-.05.03-.04.02-.04.03-.04.02-.04.02-.04.03-.04.03-.03.02h0l-.04.03-.03.03-.03.03-.03.04-.03.03-.03.03-.03.04-.03.03-.02.04-.03.04h0l-.02.04-.02.04-.02.04-.02.04-.02.04-.02.05v.04l-.02.05-.02.04v.05h0v.03l-.02.03-.02.03v.03l-.03.03-.02.02v.02l-.03.02h-.02l-.02.02h-.02l-.03.02h-.02l-.03.02h-.19l-.46-.09h0v-.09l.03-.1.02-.09.02-.09.03-.09.03-.08.03-.09.03-.08.04-.07.04-.08h0l.04-.08.04-.07.05-.07.05-.06.05-.07.05-.06.05-.06.06-.06.06-.05.06-.06h0l.06-.05.07-.04.06-.05.07-.04.07-.04.07-.04.07-.03.08-.03.07-.03.08-.03h0l.08-.03.08-.02.09-.02.08-.02h.08l.09-.02h.09l.09-.02h.45l.08.02h.09l.08.02.09.02.08.02.08.02.08.03h0l.08.03.07.03.08.03.07.04.07.04.06.04.07.04.06.05.06.04.06.05h0l.06.06.05.05.06.06.05.06.04.06.05.06.04.07.04.07.03.07.04.07h0l.03.07.03.08.02.08.02.08.02.08.02.09v.09l.02.09v.18h0v.23l-.02.08v.08l-.02.07-.02.07v.07l-.03.07-.03.07h0l-.02.07-.03.07-.03.07-.03.06-.03.07-.03.06-.04.07-.03.06-.04.06-.04.06h0l-.04.07-.05.06-.04.06-.05.06-.04.06-.05.06-.05.06-.05.06-.05.06-.06.06h0l-.05.06-.05.06-.06.06-.05.06-.06.06-.06.06-.06.05-.05.06-.06.06-.06.06-1.89,1.93h.04l.04-.02h.04l.04-.02h.08l.04-.02h.08s.04-.01.04-.01l.04-.02h.12s.04-.01.04-.01h.04s.12-.01.12-.01h.04s2.4-.01,2.4-.01h.04Z"/><path class="cls-7" d="m197.55,127.01v.68h-3.84v-.68h1.54v-4.89h0v-.44l-1.27,1.09h0l-.02.02h0v.02h-.02v.02h-.08s-.09.01-.09.01h0s-.04-.01-.04-.01h-.04v-.03h0s0-.03,0-.03h0v-.02h0l-.28-.4,2.14-1.84h.72v6.5h1.41-.07Z"/><path class="cls-7" d="m228.01,120.52v1.45l-.08.78h0v.06l-.02.03v.05l-.02.03v.02l-.03.02v.02l-.02.02h0l-.02.02h0l-.02.02h-.02l-.02.02h-.02l-.03.02h-.18l-.02-.02h-.02l-.02-.02h0l-.02-.02-.02-.02h0v-.02l-.02-.02-.02-.02v-.02l-.02-.03v-.05s0-.03,0-.03l-.02-.03v-.03l-.08-.78v-1.45h.77Z"/><path class="cls-7" d="m233.58,126.84h.05s.05.01.05.01l.03.02h.02l.02.02h.02l.02.02.02.02h0v.02l.03.02h0v.06l.02.02v.64h-4.78v-.31h0v-.13s0-.02,0-.02l.02-.02v-.02h0v-.02l.02-.02v-.02l.02-.02v-.02l.03-.02h0l.02-.03v-.02l.03-.02,2.29-2.3h0l.06-.06.05-.06.06-.05.05-.06.06-.05.05-.06.05-.05.05-.06.05-.05.04-.06h0l.05-.05.04-.05.05-.06.04-.05.04-.06.04-.05.04-.05.03-.06.04-.05.03-.06h0l.03-.05.04-.05.02-.06.03-.05.03-.06.02-.05.03-.06.02-.05.02-.06.02-.05h0v-.06l.03-.05v-.06l.03-.06v-.12s0-.06,0-.06v-.19h0v-.23l-.02-.06v-.05l-.02-.06-.02-.05v-.05l-.03-.05h0l-.02-.04-.03-.05-.02-.04-.02-.04-.03-.04-.03-.04-.03-.04-.03-.04-.03-.03-.04-.03h0l-.03-.03-.04-.03-.04-.03-.03-.02-.04-.03-.04-.02-.05-.02-.04-.02h-.05l-.04-.03h0l-.05-.02h-.05l-.05-.02h-.05l-.05-.02h-.1s-.05-.01-.05-.01h-.05s-.22-.01-.22-.01h-.05s-.05.01-.05.01l-.05.02h-.05l-.05.02h-.05l-.04.03h0l-.05.02h-.04l-.05.03-.04.02-.04.03-.04.02-.04.02-.04.03-.04.03-.03.02h0l-.04.03-.03.03-.03.03-.03.04-.03.03-.03.03-.03.04-.03.03-.02.04-.03.04h0l-.02.04-.02.04-.02.04-.02.04-.02.04-.02.05v.04l-.02.05-.02.04v.05h0v.03l-.02.03-.02.03v.03l-.03.03-.02.02v.02l-.03.02h-.02l-.02.02h-.02l-.03.02h-.02l-.03.02h-.19l-.46-.09h0v-.09l.03-.1.02-.09.02-.09.03-.09.03-.08.03-.09.03-.08.04-.07.04-.08h0l.04-.08.04-.07.05-.07.05-.06.05-.07.05-.06.05-.06.06-.06.06-.05.06-.06h0l.06-.05.07-.04.06-.05.07-.04.07-.04.07-.04.07-.03.08-.03.07-.03.08-.03h0l.08-.03.08-.02.09-.02.08-.02h.08l.09-.02h.09l.09-.02h.45l.08.02h.09l.08.02.09.02.08.02.08.02.08.03h0l.08.03.07.03.08.03.07.04.07.04.06.04.07.04.06.05.06.04.06.05h0l.06.06.05.05.06.06.04.06.05.06.05.06.04.07.04.07.03.07.04.07h0l.03.07.03.08.02.08.02.08.02.08.02.09v.09l.02.09v.18h0v.23l-.02.08v.08l-.02.07-.02.07v.07l-.03.07-.03.07h0l-.02.07-.03.07-.03.07-.03.06-.03.07-.03.06-.04.07-.03.06-.04.06-.04.06h0l-.04.07-.05.06-.04.06-.05.06-.04.06-.05.06-.05.06-.05.06-.05.06-.06.06h0l-.05.06-.05.06-.06.06-.05.06-.06.06-.06.06-.06.05-.05.06-.06.06-.06.06-1.89,1.93h.04l.04-.02h.04l.04-.02h.08l.04-.02h.08s.04-.01.04-.01l.04-.02h.12s.04-.01.04-.01h.04s.12-.01.12-.01h.04s2.4-.01,2.4-.01h.04Z"/><path class="cls-7" d="m235.09,122.46h0l.02-.09.02-.1.02-.09.02-.09.03-.09.02-.08.03-.09.04-.08.03-.07.04-.08h0l.04-.08.05-.07.04-.07.05-.06.05-.07.05-.06.05-.06.06-.06.06-.05.06-.06h0l.06-.05.07-.04.06-.05.07-.04.07-.04.07-.04.07-.03.08-.03.07-.03.08-.03h0l.08-.03.09-.02.08-.02.08-.02h.09l.08-.02h.09l.09-.02h.45l.09.02h.08l.08.02.09.02.08.02.07.02.08.02h0l.08.03.07.03.07.03.07.04.07.03.07.04.06.04.06.04.06.05.05.04h0l.06.05.05.05.05.06.05.05.04.06.04.06.04.06.04.06.04.07.03.06h0l.03.07.02.07.03.08.02.07v.07l.03.08v.08l.02.08v.16h0v.26s0,.06,0,.06l-.02.06v.06l-.02.06-.02.05-.02.06h0l-.02.05v.05l-.04.05-.02.05-.02.05-.03.04-.03.05-.02.04-.04.04-.03.04h0l-.03.04-.03.04-.04.04-.04.03-.03.04-.04.03-.05.03-.04.04-.04.03-.05.02h0l-.04.03-.05.03-.05.02-.05.03-.05.02-.05.02-.06.03-.05.02-.06.02h-.05l.13.05.13.05.13.05.11.05.11.06.1.06.1.07.08.08.08.08.08.08h0l.07.09.06.1.05.1.04.1.04.1.04.12.02.11.02.12v.25h0v.29l-.03.09v.09l-.04.09-.02.09-.03.08-.03.08-.04.08h0l-.04.08-.04.08-.04.07-.05.07-.05.07-.05.07-.05.06-.06.06-.06.06-.07.06h0l-.06.05-.07.05-.07.05-.07.05-.08.04-.08.04-.08.04-.08.04-.08.03-.09.03h0l-.08.03-.09.03-.09.02-.09.02h-.09l-.1.03h-.19s-.09.01-.09.01h-.53l-.1-.03h-.1l-.09-.03-.09-.02-.08-.02-.09-.03h0l-.08-.03-.07-.03-.08-.04-.07-.03-.07-.04-.07-.04-.06-.05-.07-.04-.06-.05-.05-.05h0l-.06-.05-.05-.05-.05-.05-.05-.06-.05-.06-.04-.06-.05-.06-.04-.06-.04-.07-.03-.07h0l-.04-.07-.03-.07-.04-.07-.03-.07-.03-.07-.03-.08-.03-.08-.03-.07-.02-.08-.03-.08.39-.16h.03l.03-.02h.03l.03-.02h.2l.02.02h.03l.02.03h.02l.02.03.02.02.02.02v.02l.03.03h0v.03l.02.03.02.03v.03l.03.03.02.04v.03l.03.04.02.04.02.03h0l.02.04.02.04.02.04.03.04.03.04.02.03.03.04.03.04.03.03.04.04h0l.03.03.04.04.04.03.04.03.04.04.04.03.05.02.05.03.05.03.05.02h0l.05.03.06.02.06.02h.06l.07.03h.07l.07.02h.23s.14.01.14.01h.07s.07-.01.07-.01l.07-.02h.06l.07-.03.06-.02.06-.02.05-.02h0l.06-.03.05-.02.05-.03.05-.03.05-.03.05-.04.04-.03.04-.04.04-.03.04-.04h0l.04-.04.03-.04.04-.04.03-.04.03-.05.03-.04.02-.05.03-.04.02-.05.02-.05h0l.02-.04v-.05l.03-.05v-.05l.02-.04v-.24h0v-.22l-.02-.06v-.1l-.03-.05v-.05l-.02-.05h0l-.02-.05-.02-.04-.02-.05-.02-.04-.03-.04-.03-.05-.03-.03-.04-.04-.03-.04-.04-.04h0l-.04-.03-.05-.03-.05-.03-.05-.03-.06-.03-.05-.03-.07-.02-.06-.03-.07-.02-.07-.02h0l-.07-.02-.08-.02h-.08l-.08-.02-.09-.02h-.19l-.11-.02h-.21v-.65h.34s.08-.01.08-.01l.08-.02.07-.02h.07l.07-.03.07-.02h0l.06-.02.06-.02.06-.02.06-.02.05-.03.05-.02.05-.03.05-.03.04-.03.04-.04h0l.04-.03.04-.03.04-.04.03-.04.03-.04.03-.04.02-.04.03-.04.02-.05.02-.04h0l.02-.05v-.04l.03-.05v-.05l.02-.05v-.27h0v-.29l-.02-.05-.02-.06v-.05l-.03-.04-.02-.05h0l-.02-.05-.02-.04-.02-.04-.03-.04-.02-.04-.03-.04-.03-.03-.03-.04-.03-.03-.03-.03h0l-.04-.03-.03-.03-.04-.02-.04-.03-.04-.02-.04-.02-.04-.02-.05-.02-.04-.02-.05-.02h-.04l-.05-.02h-.05l-.05-.02h-.05l-.05-.02h-.15s-.22-.01-.22-.01h-.05s-.05.01-.05.01l-.05.02h-.05l-.05.02h-.05l-.04.03h0l-.05.02h-.04l-.05.03-.04.02-.04.03-.04.02-.04.02-.04.03-.04.03-.03.02h0l-.04.03-.03.03-.03.03-.03.04-.03.03-.03.03-.03.04-.03.03-.02.04-.03.04h0l-.02.04-.02.04-.02.04-.02.04-.02.04-.02.05v.04l-.02.05-.02.04v.05h0v.03l-.02.03-.02.03v.03l-.03.03-.02.02-.02.02v.02h-.03s-.02.01-.02.01l-.02.02h-.02l-.03.02h-.05s-.16.01-.16.01l-.47-.09h.03Z"/></g></svg>