<?xml version="1.0" encoding="UTF-8"?><svg id="Capa_1" xmlns="http://www.w3.org/2000/svg" viewBox="0 0 126.1 63.04"><defs><style>.cls-1{fill:#fa4d57;}.cls-1,.cls-2,.cls-3,.cls-4{stroke-width:0px;}.cls-2{fill:#b5b5b5;}.cls-3{fill:#fff;}.cls-4{fill:#003b88;}</style></defs><polygon class="cls-4" points="85.63 41.04 87.24 39.47 88.85 37.89 90.46 36.32 92.08 34.75 93.69 33.18 95.3 31.61 96.92 30.04 98.53 28.46 100.14 26.89 101.75 25.32 103.37 23.75 104.98 22.18 106.59 20.6 108.2 19.03 106.69 17.53 105.12 16.08 103.51 14.68 101.85 13.34 100.15 12.06 98.4 10.83 96.61 9.66 94.79 8.56 92.93 7.52 91.03 6.54 89.1 5.62 87.14 4.77 85.16 3.99 83.15 3.28 81.11 2.63 79.06 2.06 76.99 1.55 74.9 1.11 72.8 .75 70.68 .45 68.56 .23 66.43 .08 64.3 0 62.17 0 60.03 .06 57.9 .2 55.78 .41 53.67 .69 51.56 1.05 49.47 1.47 47.39 1.96 45.34 2.53 43.3 3.16 41.28 3.87 39.29 4.64 37.33 5.47 35.4 6.38 33.5 7.34 31.63 8.38 29.8 9.47 28 10.63 26.25 11.84 24.54 13.12 22.87 14.45 21.25 15.84 19.68 17.28 18.15 18.77 16.68 20.32 15.26 21.91 13.9 23.55 12.59 25.24 11.34 26.97 10.15 28.74 9.02 30.55 7.95 32.39 6.94 34.27 6 36.19 5.12 38.13 4.31 40.11 3.57 42.11 2.9 44.13 2.29 46.18 1.76 48.25 1.29 50.33 .9 52.43 .57 54.53 .32 56.65 .14 58.78 .03 60.91 0 63.04 2.25 63.04 4.5 63.04 6.75 63.04 9 63.04 11.26 63.04 13.51 63.04 15.76 63.04 18.01 63.04 20.26 63.04 22.52 63.04 24.77 63.04 27.02 63.04 29.27 63.04 31.52 63.04 31.6 60.91 31.81 58.79 32.17 56.69 32.67 54.61 33.31 52.58 34.09 50.59 35 48.66 36.03 46.79 37.19 45 38.47 43.3 39.87 41.68 41.36 40.16 42.96 38.75 44.65 37.44 46.42 36.26 48.27 35.19 50.19 34.26 52.17 33.45 54.19 32.79 56.26 32.26 58.36 31.87 60.48 31.62 62.61 31.52 64.74 31.56 66.87 31.75 68.97 32.08 71.06 32.55 73.1 33.16 75.1 33.91 77.04 34.79 78.92 35.8 80.73 36.94 82.45 38.19 84.09 39.56 85.63 41.04"/><polygon class="cls-2" points="91.61 49.69 93.65 48.73 95.69 47.78 97.73 46.82 99.77 45.87 101.81 44.91 103.85 43.96 105.89 43.01 107.93 42.05 109.97 41.1 112.01 40.14 114.04 39.19 116.08 38.24 118.12 37.28 120.16 36.33 119.13 34.22 118.02 32.15 116.83 30.13 115.57 28.15 114.23 26.22 112.83 24.34 111.35 22.51 109.81 20.74 108.2 19.03 106.59 20.6 104.98 22.18 103.37 23.75 101.75 25.32 100.14 26.89 98.53 28.46 96.92 30.04 95.3 31.61 93.69 33.18 92.08 34.75 90.46 36.32 88.85 37.89 87.24 39.47 85.63 41.04 87.39 43 88.98 45.11 90.39 47.34 91.61 49.69"/><polygon class="cls-1" points="94.58 63.04 96.83 63.04 99.08 63.04 101.33 63.04 103.58 63.04 105.84 63.04 108.09 63.04 110.34 63.04 112.59 63.04 114.84 63.04 117.1 63.04 119.35 63.04 121.6 63.04 123.85 63.04 126.1 63.04 126.06 60.75 125.94 58.45 125.73 56.16 125.43 53.88 125.06 51.61 124.6 49.36 124.06 47.12 123.44 44.91 122.74 42.72 121.96 40.56 121.1 38.43 120.16 36.33 118.12 37.28 116.08 38.24 114.04 39.19 112.01 40.14 109.97 41.1 107.93 42.05 105.89 43.01 103.85 43.96 101.81 44.91 99.77 45.87 97.73 46.82 95.69 47.78 93.65 48.73 91.61 49.69 92.5 51.8 93.25 53.98 93.83 56.2 94.24 58.46 94.49 60.75 94.58 63.04"/><path class="cls-3" d="m42.12,16.7v.38h0v.15s-.01.03-.01.03v.02s-.01.03-.01.03v.02s0,.02,0,.02h0v.02s-.02.02-.02.02v.04s-.02.02-.02.02h-.01v.03h-.01s0,.03,0,.03h0s-1.92,3.97-1.92,3.97h0l-.02.02v.03s-.02.02-.02.02l-.02.02-.02.02v.02s-.03.02-.03.02l-.02.02-.02.02-.02.02h-.03s-.02.03-.02.03h-.02s-.03.02-.03.02h-.03s-.03.02-.03.02h-.03s-.03.01-.03.01h-.7l1.96-3.87h0v-.02s.02-.03.02-.03l.02-.02v-.02s.02-.02.02-.02l.02-.03v-.02s.02-.02.02-.02l.02-.02v-.02h0v-.02s.03-.02.03-.02v-.02s.02-.02.02-.02l.02-.02v-.02s.03-.02.03-.02h0s.02-.03.02-.03l.02-.02h-2.48s-.01-.01-.01-.01h-.02s0,0,0,0h-.01s-.02-.02-.02-.02h-.01s-.01-.02-.01-.02h-.01s0-.03,0-.03h-.01s-.01-.02-.01-.02v-.02s-.01-.01-.01-.01h0v-.05h0v-.6h3.5Z"/><path class="cls-3" d="m43.78,18.54h.07s.03-.02.03-.02h.07s.03-.01.03-.01h.06s.03,0,.03,0h.04s.03,0,.03,0h.09s.03-.01.03-.01h.38s.07.02.07.02h.07s.07.02.07.02l.07.02h.06s.07.03.07.03l.06.03h0l.06.02.06.03.05.03.06.03.05.03.05.03.05.04.04.04.05.03.04.05h0l.04.04.04.04.04.05.03.05.03.04.03.06.03.05.03.05.02.05.02.06h0l.02.06.02.05.02.06v.06s.02.06.02.06v.06s.02.07.02.07v.12s.01.07.01.07h0v.16s-.02.07-.02.07v.08s-.02.07-.02.07v.08s-.03.07-.03.07l-.02.07-.03.07-.03.06h0l-.03.07-.03.06-.03.06-.04.06-.03.06-.04.06-.05.05-.04.06-.05.05-.05.04h0l-.05.05-.05.04-.06.05-.06.04-.06.03-.06.04-.06.03-.06.03-.07.03-.07.03h0l-.07.02-.07.03-.07.02h-.07s-.08.03-.08.03h-.07s-.08.02-.08.02h-.16s-.08.01-.08.01h-.14s-.05-.01-.05-.01h-.09s-.04-.02-.04-.02h-.09s-.04-.02-.04-.02h-.04s-.05-.02-.05-.02h-.04s-.04-.02-.04-.02l-.04-.02h-.04s-.04-.02-.04-.02l-.04-.02h-.04s-.03-.03-.03-.03h0l-.04-.02h-.04s-.03-.03-.03-.03l-.04-.02-.03-.02-.04-.02-.03-.02-.04-.02-.03-.02-.03-.02h0l-.03-.02-.03-.02-.03-.03-.03-.02-.03-.02-.03-.02-.03-.03-.02-.02-.03-.02-.03-.03.27-.37h0l.02-.02.02-.02.02-.02h.02s.02-.02.02-.02l.02-.02h.05s.03,0,.03,0h.11s.02.02.02.02h.03s.02.02.02.02h.02s.02.02.02.02h.02s.02.03.02.03h.02s.02.02.02.02h.02s.02.03.02.03h.02s.02.02.02.02h.03s.02.03.02.03h.03s.02.02.02.02l.03.02h.03s.02.02.02.02h.03s.03.02.03.02l.03.02h.03s.04.02.04.02h.03s.04.02.04.02h.07s.04,0,.04,0h.04s.04,0,.04,0h.27s.04-.02.04-.02h.09s.04-.03.04-.03h.03s.04-.02.04-.02h0l.04-.02.03-.02.03-.02.04-.02.03-.02.03-.02.03-.02.02-.03.03-.02.02-.03h0l.03-.03.02-.03.02-.03.02-.03.02-.03.02-.03v-.04s.03-.03.03-.03v-.04s.02-.04.02-.04h0l.02-.04v-.04s.02-.04.02-.04v-.04s.01-.04.01-.04v-.04s.01-.04.01-.04v-.05s0-.04,0-.04v-.04h0v-.16s-.02-.08-.02-.08l-.02-.07-.02-.06-.03-.07-.03-.05-.04-.06-.04-.05-.04-.05h0l-.05-.04-.06-.04-.06-.04-.06-.03-.07-.03-.07-.02h-.08s-.08-.03-.08-.03h-.4s-.07.02-.07.02h-.08s-.07.02-.07.02l-.08.02-.07.02-.08.02-.07.03-.54-.16.42-2.46h2.5v.37h0v.11s-.02.03-.02.03v.03s-.02.03-.02.03v.03s-.03.02-.03.02l-.02.03-.02.02h0l-.03.03h-.03s-.03.03-.03.03l-.03.02h-.04s-.04.02-.04.02h-.04s-.05,0-.05,0h-.05s-.06.01-.06.01h-1.39l-.18,1.05Z"/><path class="cls-3" d="m49.04,17.93h0v.11s-.01.06-.01.06v.05s-.02.05-.02.05v.06s-.02.05-.02.05v.04s-.03.05-.03.05l-.02.05h0l-.02.04-.02.05-.02.04-.03.04-.02.04-.03.04-.03.04-.02.04-.03.03-.04.04h0l-.03.03-.03.03-.04.03-.03.02-.04.03-.04.02-.04.03-.04.02-.04.02h-.04s-.04.03-.04.03l-.05.02h-.04s-.04.02-.04.02h-.05s-.04.02-.04.02h-.09s-.05.01-.05.01h-.19s-.05-.01-.05-.01h-.05s-.05-.02-.05-.02h-.04s-.05-.02-.05-.02l-.04-.02-.04-.02h-.04s-.05-.03-.05-.03l-.04-.02-.03-.03-.04-.02-.04-.03-.03-.02-.04-.03-.03-.03-.03-.03h0l-.03-.04-.03-.03-.03-.04-.03-.04-.02-.04-.03-.04-.02-.04-.02-.04-.02-.05-.02-.04h0v-.05s-.03-.05-.03-.05v-.04s-.02-.05-.02-.05v-.06s-.02-.05-.02-.05v-.05s0-.06,0-.06v-.11h0v-.23s.02-.05.02-.05v-.05s.02-.05.02-.05v-.05s.03-.05.03-.05v-.05h0l.02-.05.02-.04.02-.05.02-.04.03-.04.02-.04.03-.04.03-.04.03-.03.03-.04h0l.03-.03.03-.03.04-.03.03-.02.04-.03.04-.03.03-.02.04-.02.05-.02.04-.02h0l.04-.02h.04s.05-.02.05-.02l.04-.02h.05s.05-.01.05-.01h.05s.04-.02.04-.02h.25s.05.02.05.02h.09s.05.03.05.03h.04s.05.02.05.02l.04.02h0l.04.02.04.02.05.02.03.02.04.03.04.03.04.02.03.03.03.03.04.03h0l.03.04.03.03.02.04.03.04.03.04.02.04.02.04.02.05.02.04.02.05h0l.02.05v.05s.03.05.03.05v.05s.02.05.02.05v.11s0,.05,0,.05v.06s.01.06.01.06Zm-.67,0h0v-.19s-.01-.03-.01-.03v-.03s-.01-.03-.01-.03v-.03s-.02-.03-.02-.03h0v-.03s-.02-.02-.02-.02v-.03s-.02-.02-.02-.02v-.02s-.02-.02-.02-.02v-.03s-.02,0-.02,0v-.02s-.03-.02-.03-.02h0v-.02s-.03,0-.03,0v-.02s-.03,0-.03,0h-.01s-.02-.02-.02-.02h-.02s-.01-.02-.01-.02h-.02s-.02-.02-.02-.02h-.02s-.02,0-.02,0h-.02s-.02-.01-.02-.01h-.01s-.02,0-.02,0h-.04s-.03-.01-.03-.01h-.08s-.02.01-.02.01h-.04s-.02,0-.02,0h-.02s-.01.01-.01.01h-.02s-.02.02-.02.02h-.02s0,.02,0,.02h-.02s-.02.02-.02.02h-.01s-.02.02-.02.02v.02s-.03,0-.03,0v.02h-.01v.02s-.02.02-.02.02h-.02s-.01.04-.01.04v.02s-.02.02-.02.02v.02s-.02.03-.02.03v.05h0v.03s-.02.03-.02.03v.06s-.01.03-.01.03v.07s0,.04,0,.04v.08h0v.15s0,.03,0,.03v.06s.01.03.01.03v.03s.02.03.02.03h0v.03s0,.02,0,.02v.02s.02.03.02.03v.02s.02.02.02.02v.02s.03.02.03.02h.01s.01.03.01.03h0v.02s.03,0,.03,0h.01s.02.03.02.03h.01s.02.02.02.02h.02s0,.02,0,.02h.02s.02.02.02.02h.03s.02,0,.02,0h.02s.02.01.02.01h.02s.02,0,.02,0h.17s.01,0,.01,0h.02s.02-.01.02-.01h.02s.02,0,.02,0h.02s.02-.02.02-.02h.01s.02-.02.02-.02h.02s.01-.02.01-.02l.02-.02h.01s.02-.02.02-.02v-.02h.01l.02-.02h.01s.01-.03.01-.03v-.02s.02-.02.02-.02v-.02s.02-.03.02-.03v-.02s.02-.02.02-.02v-.03h.01v-.03s.02-.03.02-.03v-.06s.01-.03.01-.03v-.03s.01-.04.01-.04v-.11Zm2.35-1.09h.01s0-.02,0-.02h.01s.01-.02.01-.02h.01s0-.02,0-.02h.02s0-.02,0-.02h.01s.01,0,.01,0h.01s.02-.02.02-.02h.01s.02,0,.02,0h.01s.02-.01.02-.01h.06s.02,0,.02,0h.64l-3.77,4.94h-.01s-.01.02-.01.02v.02s-.02,0-.02,0h-.02s0,.02,0,.02h-.01s-.02.02-.02.02h-.01s-.01.01-.01.01h-.01s-.02.02-.02.02h-.04s-.02.01-.02.01h-.7l3.76-4.93Zm1.18,3.74h0v.17s-.01.05-.01.05v.05s-.02.06-.02.06l-.02.05v.04s-.03.05-.03.05l-.02.05h0l-.02.05-.02.04-.02.04-.02.04-.03.04-.02.04-.03.04-.03.04-.03.03-.03.04h0l-.03.03-.04.03-.03.03-.04.02-.04.03-.03.02-.04.03-.04.02-.04.02-.05.02h-.04s-.04.03-.04.03h-.05s-.04.02-.04.02h-.05s-.04.02-.04.02h-.04s-.05.01-.05.01h-.09s-.05,0-.05,0h-.15s-.04-.02-.04-.02h-.05s-.05-.02-.05-.02h-.04s-.05-.03-.05-.03h-.04s-.04-.03-.04-.03l-.04-.02-.04-.02-.04-.03-.04-.02-.03-.03-.04-.02-.03-.03-.04-.03-.03-.03h0l-.03-.04-.03-.03-.03-.04-.02-.04-.03-.04-.02-.04-.02-.04-.02-.04-.02-.04-.02-.05h0l-.02-.05v-.05s-.03-.04-.03-.04v-.05s-.02-.06-.02-.06v-.05s-.01-.05-.01-.05v-.06s-.01-.05-.01-.05v-.06h0v-.17s.01-.06.01-.06v-.05s.02-.05.02-.05v-.05s.03-.05.03-.05v-.05s.03-.05.03-.05h0l.02-.05.02-.04.02-.05.02-.04.02-.04.03-.04.02-.04.03-.04.03-.03.03-.04h0l.03-.03.04-.03.03-.03.04-.02.03-.03.04-.03.04-.02.04-.02.04-.02.04-.02h.04s.05-.03.05-.03h.04s.05-.03.05-.03h.05s.04-.01.04-.01h.05s.05-.02.05-.02h.25s.04.02.04.02h.1s.04.03.04.03h.05s.04.03.04.03h.04s.05.03.05.03l.04.02.04.02.04.02.04.03.03.03.04.02.03.03.03.03.04.03h0l.03.04.03.03.02.04.03.04.03.04.02.04.02.04.02.05.02.04.02.05h0l.02.05v.05s.03.05.03.05v.05s.02.05.02.05v.05s.01.06.01.06v.06s.01.05.01.05v.06Zm-.67,0h0v-.19s-.01-.03-.01-.03v-.03s-.01-.03-.01-.03v-.03s-.02-.03-.02-.03h0v-.05s-.02-.03-.02-.03v-.02s-.02-.02-.02-.02v-.02s-.03-.02-.03-.02v-.02s-.02-.02-.02-.02v-.02h0l-.02-.02h-.01s-.02-.03-.02-.03h-.01s-.02-.02-.02-.02h-.01s-.02-.02-.02-.02h-.02s-.02-.02-.02-.02h-.02s0-.02,0-.02h-.04s-.02,0-.02,0h-.02s-.02-.01-.02-.01h-.04s-.02,0-.02,0h-.08s-.02,0-.02,0h-.04s-.02.01-.02.01h-.02s-.02,0-.02,0h-.02s-.02.02-.02.02h-.01s-.02.02-.02.02h-.02s0,.02,0,.02h-.02s-.01.02-.01.02l-.02.02h-.01s-.02.03-.02.03h0v.02s-.02.02-.02.02v.02s-.02.02-.02.02l-.02.02v.02s-.02.02-.02.02v.05s-.02.03-.02.03h0v.03s-.01.03-.01.03v.03s-.01.03-.01.03v.03s-.01.04-.01.04v.11s0,.04,0,.04h0v.08s0,.03,0,.03v.1s.01.03.01.03v.03s.01.03.01.03v.03h.01v.03s.02.02.02.02v.05s.02.02.02.02l.02.02v.02s.02.02.02.02v.02s.02,0,.02,0h0l.02.02h.01s.02.03.02.03h.01s.02.02.02.02h0s.02.02.02.02h.02s.01.02.01.02h.02s.02.02.02.02h.04s.02,0,.02,0h.02s.02.01.02.01h.2s.02-.01.02-.01h.02s.02,0,.02,0h0s.02-.02.02-.02h.02s.02-.02.02-.02h.02s.01-.02.01-.02h.02s.01-.02.01-.02l.02-.02h.01s.02-.03.02-.03h0s.01-.03.01-.03v-.02s.03-.02.03-.02v-.02s.02-.02.02-.02v-.02s.02-.03.02-.03v-.02s.01-.03.01-.03h0v-.03s.02-.03.02-.03v-.06s.01-.03.01-.03v-.03s.01-.04.01-.04v-.11Z"/><path class="cls-3" d="m98.63,38.03v.65h-2.8v-.65h1.03v-2.95h0v-.37s-.72.61-.72.61h-.01s-.02.02-.02.02h-.01s0,.02,0,.02h-.03s-.01.02-.01.02h-.04s0,0,0,0h-.11s-.01,0-.01,0h-.03s0-.01,0-.01h-.02s0,0,0,0h-.01s0-.01,0-.01h0s0-.02,0-.02h-.02s0-.02,0-.02h-.01v-.02l-.28-.37,1.55-1.32h.71v4.43h.91Z"/><path class="cls-3" d="m102.7,38.03v.65h-2.8v-.65h1.02v-2.95h0v-.18s0-.04,0-.04v-.15l-.73.61h-.01s0,.02,0,.02h0s-.02.02-.02.02h-.02s0,.02,0,.02h-.04s0,0,0,0h-.12s-.01,0-.01,0h-.03s0-.01,0-.01h0s-.01,0-.01,0h0s0-.01,0-.01h-.01s0-.02,0-.02h-.01s0-.01,0-.01h0s0,0,0,0h0s-.01-.02-.01-.02l-.27-.37,1.55-1.32h.71v4.43h.91Z"/><path class="cls-3" d="m105.75,34.84h0v.16s-.02.06-.02.06v.05l-.02.05v.05s-.02.05-.02.05l-.02.05-.02.05h0l-.02.04-.02.05-.02.04-.02.04-.03.04-.03.04-.02.04-.03.03-.03.04-.03.03h0l-.04.03-.03.03-.04.03-.03.03-.04.02-.04.03-.04.02-.04.02-.04.02-.04.02h0l-.04.02h-.05s-.04.03-.04.03h-.04s-.05.02-.05.02h-.09s-.04.01-.04.01h-.05s-.04,0-.04,0h-.1s-.05,0-.05,0h-.05s-.05-.01-.05-.01h-.04s-.05-.02-.05-.02l-.04-.02h-.05s-.04-.03-.04-.03h0l-.04-.02-.04-.02-.04-.02-.04-.02-.04-.03-.04-.02-.03-.03-.04-.03-.03-.03-.03-.03h0l-.03-.03-.03-.04-.03-.03-.02-.04-.03-.04-.02-.04-.03-.04-.02-.04-.02-.05v-.04h0l-.02-.05-.02-.05v-.05s-.02-.05-.02-.05v-.05s-.02-.05-.02-.05v-.11s-.01-.06-.01-.06v-.05h0v-.17s.01-.06.01-.06v-.05s.02-.06.02-.06v-.05s.02-.05.02-.05l.02-.05.02-.05h0v-.04s.03-.05.03-.05l.02-.04.03-.04.02-.05.03-.04.02-.03.03-.04.03-.04.03-.03h0l.03-.03.03-.03.04-.03.03-.03.04-.02.04-.03.04-.02.04-.02.04-.02.04-.02h0l.04-.02h.05s.04-.03.04-.03h.05s.04-.02.04-.02h.05s.05-.01.05-.01h.05s.05,0,.05,0h.19s.05,0,.05,0h.05s.04.02.04.02h.05s.04.03.04.03h.05s.04.03.04.03h0l.04.02.05.02.04.02.04.02.03.03.04.02.04.03.03.03.04.03.03.03h0l.03.03.03.04.03.04.02.03.03.04.02.05.02.04.02.04.02.05.02.04h0l.02.05v.05s.03.05.03.05v.05s.02.06.02.06v.05s0,.06,0,.06v.05s.01.06.01.06v.06Zm-.67,0h0v-.19s0-.03,0-.03v-.04s0-.03,0-.03v-.03s-.02-.02-.02-.02h0v-.03s0-.03,0-.03v-.02s-.02-.02-.02-.02v-.03s-.03-.02-.03-.02v-.02s-.02-.02-.02-.02v-.02s-.03-.01-.03-.01h0v-.02s-.02-.02-.02-.02h-.02s-.01-.02-.01-.02l-.02-.02h-.02s-.01-.02-.01-.02h-.02s-.02-.02-.02-.02h-.04s-.01-.02-.01-.02h-.04s-.02,0-.02,0h-.02s-.02-.01-.02-.01h-.17s-.02.01-.02.01h-.01s-.02,0-.02,0h-.02s-.02.02-.02.02h-.04s-.01.02-.01.02h-.02s-.02.02-.02.02v.02s-.03,0-.03,0h0s-.01.03-.01.03l-.02.02h0s0,.03,0,.03v.02s-.02.02-.02.02l-.02.02v.03s0,.02,0,.02v.02s-.02.03-.02.03v.03h0v.02s0,.03,0,.03v.03s-.01.04-.01.04v.03s0,.03,0,.03v.04s-.01.04-.01.04v.08h0v.14s.01.04.01.04v.03s0,.03,0,.03v.03s.01.03.01.03v.03h0v.02s.02.03.02.03v.02s0,.02,0,.02v.02s.03.02.03.02v.02s.02.02.02.02v.02s.02.02.02.02h.02s.01.03.01.03h0s.02.02.02.02v.02s.03,0,.03,0h.02s.01.02.01.02h.04s.02.02.02.02h.04s.01,0,.01,0h.02s.02.01.02.01h.04s.02,0,.02,0h.09s.02,0,.02,0h.04s.02-.01.02-.01h.02s.01,0,.01,0h.02s.02-.02.02-.02h.04s.01-.02.01-.02h.02s.02-.03.02-.03h.01s.02-.02.02-.02v-.02s.02,0,.02,0h0l.02-.02v-.02s.02-.02.02-.02v-.02s.03-.02.03-.02v-.02s.02-.02.02-.02v-.02s.01-.03.01-.03v-.02h0v-.03s.02-.03.02-.03v-.06s0-.03,0-.03v-.04s0-.03,0-.03v-.11Zm2.36-1.09h.01s0-.02,0-.02h0s.01-.02.01-.02h0s.01-.02.01-.02h0s0-.02,0-.02h.01s0-.02,0-.02h0s.02-.01.02-.01h0s.02-.02.02-.02h.05s.02,0,.02,0h.68l-3.77,4.94h0s0,.02,0,.02h-.01s0,.02,0,.02h0s-.01.02-.01.02h0s0,.02,0,.02h-.01s-.02,0-.02,0h0s0,.02,0,.02h-.03s-.02,0-.02,0h-.03s0,.01,0,.01h-.69l3.77-4.93Zm1.17,3.74h0v.22s-.02.05-.02.05v.05s-.02.05-.02.05l-.02.05-.02.05v.05h-.01l-.02.04-.02.05-.03.04-.02.04-.03.04-.02.04-.03.04-.03.03-.03.04-.03.03h0l-.03.03-.04.03-.03.03-.04.03-.03.03-.04.02-.04.02-.04.03-.04.02h-.04s-.05.03-.05.03l-.04.02h-.04s-.05.02-.05.02h-.04s-.05.02-.05.02h-.09s-.04.01-.04.01h-.2s-.05-.01-.05-.01h-.04s-.05-.02-.05-.02h-.04s-.05-.02-.05-.02l-.04-.02-.05-.02h-.04s-.04-.03-.04-.03l-.04-.03-.04-.02-.04-.02-.03-.03-.04-.03-.03-.03-.04-.03-.03-.03h0l-.03-.03-.03-.04-.02-.03-.03-.04-.03-.04-.02-.04-.02-.04-.02-.04-.02-.05-.02-.04h0l-.02-.05v-.05s-.02-.05-.02-.05l-.02-.05v-.05s0-.05,0-.05v-.06s0-.05,0-.05v-.06s-.01-.05-.01-.05h0v-.12s.01-.05.01-.05v-.06s0-.05,0-.05v-.06s.03-.05.03-.05v-.05s.02-.05.02-.05l.02-.05h0l.02-.04.02-.05.02-.04.02-.04.02-.05.03-.04.03-.03.02-.04.03-.04.03-.03h0l.03-.03.04-.03.03-.03.04-.03.03-.02.04-.03.04-.02.04-.02.04-.02.04-.02h0l.05-.02h.04s.05-.03.05-.03h.04s.05-.02.05-.02h.04s.05,0,.05,0h.05s.05-.01.05-.01h.2s.05.01.05.01h.04s.05.02.05.02h.04s.05.03.05.03h.04s.05.03.05.03h0l.04.02.04.02.04.02.04.02.04.03.03.02.04.03.03.03.04.03.03.03h0l.03.03.03.04.03.04.02.03.03.04.02.05.02.04.03.04v.05s.03.04.03.04h0l.02.05.02.05v.05s.02.05.02.05v.06s.02.05.02.05v.06s.01.05.01.05v.12Zm-.67,0h0v-.22s0-.03,0-.03v-.04s-.02-.02-.02-.02v-.03h0v-.03s-.02-.03-.02-.03v-.02s-.02-.02-.02-.02v-.03s-.02-.02-.02-.02v-.02s-.03-.02-.03-.02v-.02s-.02,0-.02,0h0l-.02-.02v-.02s-.03,0-.03,0h-.01s-.02-.03-.02-.03h0s-.02-.02-.02-.02h-.02s-.02-.02-.02-.02h-.03s-.02-.02-.02-.02h-.04s-.02-.01-.02-.01h-.02s-.02,0-.02,0h-.16s-.02,0-.02,0h-.02s-.02.01-.02.01h-.02s-.02.02-.02.02h-.03s-.02.02-.02.02h-.02s-.01.02-.01.02l-.02.02h-.01s-.02.02-.02.02v.02s-.02.02-.02.02h-.02s0,.03,0,.03v.02s-.02.02-.02.02v.02s-.02.03-.02.03v.02s-.02.02-.02.02v.03s-.02.03-.02.03h0v.03s-.01.02-.01.02v.04s0,.03,0,.03v.03s0,.04,0,.04v.15h0v.21s0,.03,0,.03v.03s0,.03,0,.03v.03h.01v.02s.02.03.02.03v.02s.02.02.02.02v.03s.02.02.02.02v.02s.02.02.02.02h0s.02.03.02.03h0v.02s.02.01.02.01h.02s.01.03.01.03h.02s.01.02.01.02h.02s.02.02.02.02h.02s0,.02,0,.02h.04s.02,0,.02,0h.02s.02,0,.02,0h.02s.02.01.02.01h.16s.02-.01.02-.01h.02s.02,0,.02,0h.02s.02,0,.02,0h0s.02-.02.02-.02h.02s.02-.02.02-.02h0s.02-.02.02-.02v-.02s.03,0,.03,0h.01s.02-.03.02-.03h0v-.02s.02,0,.02,0l.02-.02v-.02s.02-.02.02-.02v-.03s.02-.02.02-.02v-.02s.02-.03.02-.03v-.02h0v-.06s.02-.03.02-.03v-.06s0-.04,0-.04v-.14Z"/><path class="cls-3" d="m105.9,54.67v.65h-2.8v-.65h1.02v-2.96h0v-.03s0-.04,0-.04v-.29s-.72.61-.72.61h-.02s-.01.02-.01.02h0s0,0,0,0h-.02s-.01.02-.01.02h-.02s-.02,0-.02,0h-.02s0,.01,0,.01h-.1s0-.01,0-.01h-.03s0,0,0,0h-.01s0-.01,0-.01h-.01s0-.01,0-.01h0s-.01,0-.01,0h0s0-.01,0-.01h0v-.02h-.01s0-.02,0-.02h0l-.28-.38,1.55-1.31h.71v4.43h.91Z"/><path class="cls-3" d="m108.84,53.4v-1.65h0v-.3s0-.06,0-.06v-.05s.01-.06.01-.06v-.05s-1.57,2.17-1.57,2.17h1.55Zm1.39,0v.51h0v.04s-.01.01-.01.01h0s0,.02,0,.02v.02h0s-.01.02-.01.02h0s0,.02,0,.02h-.01s0,.01,0,.01h0s-.01.02-.01.02h-.04s-.02.01-.02.01h-.48v1.24h-.75v-1.24h-2.19s-.02-.01-.02-.01h0s-.02-.01-.02-.01h0s-.02-.02-.02-.02h-.03s0-.03,0-.03h-.01s0-.02,0-.02h0s-.01-.03-.01-.03h0s-.01-.03-.01-.03h0s0-.03,0-.03h0s-.09-.45-.09-.45l2.4-3.21h.82v3.16h.64Z"/><path class="cls-3" d="m113.02,51.47h0v.12s0,.05,0,.05v.05s-.02.06-.02.06v.05s-.02.05-.02.05v.05s-.03.04-.03.04l-.02.05h0l-.02.05-.02.04-.02.04-.03.05-.02.04-.03.04-.02.03-.03.04-.03.03-.04.04h0l-.03.03-.03.03-.04.03-.03.03-.04.02-.04.02-.04.03-.04.02-.04.02-.04.02h-.04s-.05.03-.05.03h-.04s-.04.02-.04.02h-.05s-.04.02-.04.02h-.05s-.04.01-.04.01h-.29s-.05-.02-.05-.02h-.04s-.05-.02-.05-.02h-.04s-.05-.03-.05-.03h-.04s-.04-.03-.04-.03l-.05-.02-.04-.02-.03-.03-.04-.02-.04-.02-.03-.03-.04-.03-.03-.03-.03-.03h0l-.03-.04-.03-.03-.03-.04-.03-.03-.02-.04-.02-.04-.03-.05-.02-.04-.02-.04-.02-.05h0v-.05s-.03-.04-.03-.04v-.05s-.02-.05-.02-.05v-.05s-.02-.06-.02-.06v-.05s0-.05,0-.05v-.12h0v-.22s.02-.06.02-.06v-.05s.02-.05.02-.05v-.05s.03-.05.03-.05v-.05h0l.02-.05.02-.04.02-.05.03-.04.02-.04.02-.04.03-.04.03-.03.03-.04.03-.03h0l.03-.04.03-.03.04-.02.03-.03.04-.03.04-.02.03-.03.04-.02.05-.02.04-.02h.04s.05-.03.05-.03h.04s.05-.02.05-.02h.04s.05-.02.05-.02h.05s.04-.01.04-.01h.05s.05,0,.05,0h.1s.05,0,.05,0h.05s.05.02.05.02h.04s.05.02.05.02h.04s.05.03.05.03h.04s.04.03.04.03l.05.02.04.02.03.03.04.02.04.03.04.03.03.02.03.03.04.04h0l.03.03.03.04.02.03.03.04.03.04.02.04.02.04.02.05.02.04.02.05h0l.02.05v.05s.03.05.03.05v.05s.02.05.02.05v.11s.02.06.02.06v.11Zm-.67,0h0v-.18s0-.04,0-.04v-.03s-.01-.03-.01-.03v-.03s-.02-.03-.02-.03h0v-.02s-.02-.03-.02-.03v-.02s-.02-.03-.02-.03v-.02s-.02-.02-.02-.02v-.02s-.02-.02-.02-.02v-.02s-.03-.02-.03-.02h-.01s-.02-.03-.02-.03h-.01s-.02-.03-.02-.03h-.01s-.02-.02-.02-.02h-.02s-.01-.02-.01-.02h-.02s-.02-.02-.02-.02h-.04s-.02-.02-.02-.02h-.03s-.02,0-.02,0h-.06s-.03-.01-.03-.01h-.04s-.02.01-.02.01h-.06s-.02,0-.02,0h-.01s-.02.02-.02.02h-.04s-.02.02-.02.02h-.01s-.02.02-.02.02h-.02s-.01.02-.01.02l-.02.02h-.01s-.02.03-.02.03h-.01s0,.03,0,.03v.02s-.03.02-.03.02v.02s-.02.02-.02.02v.02s-.02.03-.02.03v.02s0,.03,0,.03v.02h0v.03s-.02.03-.02.03v.06s0,.04,0,.04v.07s-.01.03-.01.03v.08h0v.15s.01.03.01.03v.07s0,.03,0,.03v.03s.02.02.02.02h0v.03s0,.02,0,.02v.03s.02.02.02.02v.02s.02.02.02.02v.02s.03.02.03.02v.02s.02.01.02.01h0v.02s.03.01.03.01v.02s.03.01.03.01h.01s.02.02.02.02h.02s.01.02.01.02h.02s.02.02.02.02h.02s.02.01.02.01h.01s.02.01.02.01h.04s.02.01.02.01h.17s.02-.01.02-.01h.03s.02-.01.02-.01h.02s.02-.02.02-.02h.02s.01-.02.01-.02h.02s.02-.02.02-.02h.01s.02-.02.02-.02v-.02s.03-.01.03-.01v-.02h.03s.01-.03.01-.03v-.02s.02-.02.02-.02v-.02s.02-.02.02-.02v-.02s.02-.03.02-.03v-.02s.02-.03.02-.03h0v-.02s.02-.03.02-.03v-.06s.01-.04.01-.04v-.03s0-.03,0-.03v-.12Zm2.35-1.09h0s0-.02,0-.02h.01s0-.02,0-.02h.01s0-.02,0-.02h.02s0-.01,0-.01h0s.01-.02.01-.02h0s.02-.02.02-.02h.03s.02,0,.02,0h0s.02-.01.02-.01h.7l-3.77,4.94h0s-.01.02-.01.02h0s0,.02,0,.02h-.01s0,.02,0,.02h0s-.01.01-.01.01h0s-.02.02-.02.02h0s-.01.01-.01.01h-.02s-.01.01-.01.01h-.02s-.01,0-.01,0h-.07s-.65.01-.65.01l3.76-4.94Zm1.18,3.74h0v.17s0,.05,0,.05v.06s-.02.05-.02.05l-.02.05v.05s-.03.05-.03.05l-.02.04h0v.05s-.04.04-.04.04l-.02.04-.02.05-.03.04-.02.04-.03.03-.03.04-.03.03-.03.04h0l-.03.03-.04.03-.03.03-.04.03-.04.02-.03.03-.04.02-.04.02-.04.02-.05.02h0l-.04.02h-.04s-.05.03-.05.03h-.04s-.04.02-.04.02h-.09s-.05.01-.05.01h-.05s-.04,0-.04,0h-.1s-.05,0-.05,0h-.05s-.04-.01-.04-.01h-.05s-.05-.02-.05-.02l-.04-.02h-.04s-.05-.03-.05-.03h0l-.04-.02-.04-.02-.04-.02-.04-.02-.04-.03-.03-.02-.04-.03-.03-.03-.04-.03-.03-.03h0l-.03-.04-.03-.03-.03-.04-.02-.03-.03-.04-.02-.04-.02-.05-.02-.04-.02-.04-.02-.05h0l-.02-.04v-.05s-.03-.05-.03-.05v-.05s-.02-.05-.02-.05v-.11s-.02-.05-.02-.05v-.12h0v-.17s.02-.05.02-.05v-.11s.02-.05.02-.05l.02-.05v-.05s.03-.05.03-.05h0l.02-.05.02-.04.02-.05.02-.04.02-.04.03-.04.02-.04.03-.03.03-.04.03-.03h0l.03-.03.04-.04.03-.02.04-.03.03-.03.04-.02.04-.03.04-.02.04-.02.04-.02h.05s.04-.03.04-.03h.04s.05-.02.05-.02h.05s.04-.02.04-.02h.05s.05-.01.05-.01h.05s.05-.01.05-.01h.1s.05.01.05.01h.04s.05.02.05.02h.05s.04.02.04.02h.05s.04.03.04.03h.04s.05.03.05.03l.04.02.04.02.04.03.04.02.03.03.04.03.03.02.03.04.04.03h0l.03.03.03.04.02.03.03.04.03.04.02.04.02.04.02.05.02.04.02.05h0l.02.05v.05s.03.05.03.05v.05s.02.05.02.05v.06s0,.05,0,.05v.06s0,.05,0,.05v.06Zm-.67,0h0v-.18s0-.04,0-.04v-.03s-.01-.03-.01-.03v-.03s-.02-.03-.02-.03h0v-.05s-.02-.02-.02-.02v-.03s-.02-.02-.02-.02v-.02s-.02-.02-.02-.02l-.02-.02v-.02s-.02-.02-.02-.02h-.02s0-.03,0-.03h-.02s0-.03,0-.03h-.02s0-.02,0-.02h-.02s-.02-.02-.02-.02h-.02s-.02-.02-.02-.02h-.03s-.02-.02-.02-.02h-.04s-.02,0-.02,0h-.06s-.02-.01-.02-.01h-.04s-.02.01-.02.01h-.06s-.02,0-.02,0h-.02s-.02.02-.02.02h-.04s0,.02,0,.02h-.02s-.02.02-.02.02h0s-.02.02-.02.02v.02s-.03.01-.03.01v.02s-.03,0-.03,0h0v.02s-.02.02-.02.02v.02s-.02.02-.02.02l-.02.02v.02s-.02.03-.02.03v.05s-.02.02-.02.02h0v.03s-.01.03-.01.03v.03s0,.03,0,.03v.04s-.01.03-.01.03v.11s0,.04,0,.04h0v.08s0,.04,0,.04v.1s.01.03.01.03v.03s0,.03,0,.03v.02h.01v.03s.02.02.02.02v.05s.02.02.02.02l.02.02v.02s.02.02.02.02v.02s.02.02.02.02h.02s0,.03,0,.03h.02s0,.02,0,.02l.02.02h0s.02.02.02.02h.02s0,0,0,0h.02s.02.02.02.02h.04s.02.01.02.01h.02s.02,0,.02,0h.04s.02.01.02.01h.08s.02-.01.02-.01h.04s.02,0,.02,0h.02s.02-.01.02-.01h0s.02-.02.02-.02h.04s.02-.02.02-.02h0s.02-.03.02-.03h0s.02-.02.02-.02v-.02s.03-.01.03-.01h0v-.02s.02-.02.02-.02l.02-.02v-.02s.02-.02.02-.02v-.02s.02-.02.02-.02v-.03s.02-.02.02-.02v-.03h0v-.02s.02-.03.02-.03v-.06s.01-.04.01-.04v-.03s0-.03,0-.03v-.12Z"/></svg>