<?xml version="1.0" encoding="UTF-8"?><svg id="Capa_1" xmlns="http://www.w3.org/2000/svg" viewBox="0 0 126.1 63.05"><defs><style>.cls-1{fill:#fa4d57;}.cls-1,.cls-2,.cls-3,.cls-4{stroke-width:0px;}.cls-2{fill:#b5b5b5;}.cls-3{fill:#fff;}.cls-4{fill:#003b88;}</style></defs><polygon class="cls-4" points="70.32 32.38 70.84 30.18 71.35 27.99 71.87 25.8 72.39 23.61 72.91 21.42 73.43 19.23 73.95 17.04 74.47 14.85 74.99 12.65 75.51 10.46 76.03 8.27 76.54 6.08 77.06 3.89 77.58 1.7 75.49 1.24 73.38 .85 71.25 .54 69.12 .29 66.98 .12 64.84 .03 62.7 0 60.55 .05 58.41 .17 56.27 .37 54.14 .63 52.03 .97 49.92 1.38 47.83 1.86 45.76 2.42 43.7 3.04 41.67 3.73 39.67 4.5 37.69 5.32 35.74 6.22 33.82 7.18 31.94 8.21 30.09 9.3 28.28 10.45 26.51 11.67 24.78 12.94 23.1 14.27 21.47 15.66 19.88 17.1 18.34 18.59 16.85 20.14 15.42 21.74 14.04 23.38 12.72 25.07 11.46 26.81 10.25 28.58 9.11 30.4 8.03 32.25 7.02 34.14 6.06 36.06 5.18 38.02 4.36 40 3.61 42.01 2.93 44.05 2.32 46.1 1.78 48.18 1.31 50.27 .91 52.38 .58 54.5 .32 56.63 .14 58.77 .03 60.91 0 63.05 2.25 63.05 4.5 63.05 6.75 63.05 9 63.05 11.26 63.05 13.51 63.05 15.76 63.05 18.01 63.05 20.26 63.05 22.52 63.05 24.77 63.05 27.02 63.05 29.27 63.05 31.52 63.05 31.6 60.87 31.83 58.69 32.2 56.54 32.73 54.42 33.4 52.34 34.21 50.31 35.17 48.34 36.25 46.44 37.47 44.63 38.81 42.9 40.26 41.27 41.83 39.74 43.49 38.33 45.25 37.03 47.1 35.86 49.02 34.82 51.01 33.91 53.06 33.15 55.16 32.53 57.29 32.06 59.46 31.73 61.64 31.56 63.82 31.54 66 31.67 68.17 31.95 70.32 32.38"/><polygon class="cls-2" points="79.79 36.34 80.99 34.43 82.18 32.52 83.38 30.61 84.57 28.7 85.77 26.8 86.96 24.89 88.16 22.98 89.35 21.07 90.55 19.16 91.75 17.26 92.94 15.35 94.14 13.44 95.33 11.53 96.53 9.62 94.57 8.44 92.56 7.33 90.51 6.3 88.43 5.33 86.32 4.45 84.17 3.64 82 2.92 79.8 2.27 77.58 1.7 77.06 3.89 76.54 6.08 76.03 8.27 75.51 10.46 74.99 12.65 74.47 14.85 73.95 17.04 73.43 19.23 72.91 21.42 72.39 23.61 71.87 25.8 71.35 27.99 70.84 30.18 70.32 32.38 72.8 33.07 75.22 33.97 77.55 35.06 79.79 36.34"/><polygon class="cls-1" points="94.58 63.05 96.83 63.05 99.08 63.05 101.33 63.05 103.58 63.05 105.84 63.05 108.09 63.05 110.34 63.05 112.59 63.05 114.84 63.05 117.1 63.05 119.35 63.05 121.6 63.05 123.85 63.05 126.1 63.05 126.07 60.86 125.95 58.66 125.76 56.47 125.49 54.29 125.15 52.12 124.73 49.96 124.24 47.82 123.67 45.69 123.03 43.59 122.31 41.51 121.52 39.46 120.67 37.44 119.74 35.44 118.74 33.48 117.68 31.56 116.55 29.68 115.35 27.83 114.09 26.03 112.77 24.27 111.39 22.56 109.95 20.9 108.45 19.3 106.9 17.74 105.29 16.24 103.63 14.79 101.92 13.41 100.17 12.08 98.37 10.82 96.53 9.62 95.33 11.53 94.14 13.44 92.94 15.35 91.75 17.26 90.55 19.16 89.35 21.07 88.16 22.98 86.96 24.89 85.77 26.8 84.57 28.7 83.38 30.61 82.18 32.52 80.99 34.43 79.79 36.34 81.67 37.62 83.46 39.03 85.14 40.56 86.71 42.21 88.15 43.97 89.46 45.84 90.63 47.79 91.66 49.82 92.54 51.92 93.27 54.07 93.84 56.28 94.25 58.52 94.49 60.78 94.58 63.05"/><path class="cls-3" d="m28.2,25.27h.03s.04-.02.04-.02h.06s.03-.01.03-.01h.04s.03,0,.03,0h.03s.03-.01.03-.01h.06s.03,0,.03,0h.09s.03-.01.03-.01h.35s.07.02.07.02h.08s.07.02.07.02l.06.02.07.02.06.02.06.02h0l.06.02.06.03.06.03.05.03.06.03.05.03.04.04.05.04.04.04.05.04h0l.04.04.04.05.03.04.04.05.03.05.03.05.03.05.02.05.03.06.02.05h0l.02.06.02.06v.06s.03.05.03.05v.06s.02.07.02.07v.12s.01.06.01.06v.07h0v.23s-.02.08-.02.08v.07s-.03.08-.03.08l-.02.07-.02.07-.02.07-.03.07h0l-.03.06-.03.06-.03.07-.04.06-.04.05-.04.06-.04.06-.05.05-.04.05-.05.05h0l-.05.04-.06.05-.05.04-.06.04-.06.04-.06.03-.06.03-.07.04-.06.02-.07.03h0l-.07.03-.07.02-.07.02h-.08s-.07.03-.07.03h-.08s-.07.02-.07.02h-.08s-.08.01-.08.01h-.27s-.04-.01-.04-.01h-.05s-.04,0-.04,0h-.05s-.04-.02-.04-.02h-.04s-.05-.02-.05-.02h-.04s-.04-.02-.04-.02h-.04s-.04-.02-.04-.02l-.04-.02h-.04s-.04-.03-.04-.03h-.04s-.04-.03-.04-.03h-.03s-.04-.03-.04-.03l-.04-.02-.03-.02-.04-.02-.03-.02-.04-.02-.03-.02-.03-.02-.03-.02h0l-.04-.02-.03-.02-.03-.02-.03-.03-.02-.02-.03-.02-.03-.02-.03-.03-.02-.02-.03-.02.27-.37h0l.02-.03v-.02s.03,0,.03,0l.02-.02h.03s.02-.02.02-.02h.02s.03-.02.03-.02h.12s.02.01.02.01h.02s.01.02.01.02h.04s.02.02.02.02h0l.02.02h.02s.01.02.01.02h.02s.02.02.02.02l.03.02h.02s.02.02.02.02h.02s.02.03.02.03h.03s.02.02.02.02l.03.02h.03s.02.02.02.02h.03s.03.02.03.02l.03.02h.03s.03.02.03.02h.03s.04.02.04.02h.03s.04.02.04.02h.08s.04.01.04.01h.08s.05,0,.05,0h.04s.05,0,.05,0h.09s.04-.01.04-.01h.04s.04-.02.04-.02h.04s.04-.03.04-.03h.04s.03-.03.03-.03h.04s.03-.03.03-.03l.03-.02.03-.02.03-.03.03-.02.03-.02.02-.03.03-.03h0l.02-.02.03-.03.02-.03.02-.04.02-.03v-.03s.03-.04.03-.04l.02-.03v-.04s.02-.03.02-.03h0v-.04s.02-.04.02-.04v-.04s.02-.04.02-.04v-.05s.01-.04.01-.04v-.04s.01-.04.01-.04v-.09h0v-.16s-.02-.07-.02-.07v-.07s-.04-.07-.04-.07l-.02-.06-.03-.06-.04-.06-.04-.05-.05-.05h0l-.05-.04-.05-.04-.06-.04-.07-.03-.06-.02-.08-.02-.07-.02h-.09s-.08-.02-.08-.02h-.31s-.08.02-.08.02h-.07s-.08.03-.08.03h-.07s-.07.03-.07.03l-.08.03-.08.02-.54-.15.43-2.46h2.5v.36h0v.08s0,.03,0,.03v.03s-.02.03-.02.03v.03s-.03.03-.03.03l-.02.03-.02.02-.02.03h0l-.02.02-.03.02h-.03s-.04.03-.04.03h-.03s-.04.02-.04.02h-.05s-.05.02-.05.02h-1.49l-.18,1.06Z"/><path class="cls-3" d="m34.67,23.43v.37h0v.15s0,.03,0,.03v.03s-.01.02-.01.02v.02s-.01.02-.01.02h0v.02s-.02.02-.02.02v.04s-.02.02-.02.02v.02s0,0,0,0v.02s-.02.01-.02.01v.02l-1.93,3.95h0v.02s-.02.03-.02.03l-.02.02v.02s-.03.02-.03.02v.03s-.03.02-.03.02h-.02s-.02.03-.02.03l-.02.02h0l-.03.02h-.02s-.03.02-.03.02h-.02s-.03.02-.03.02h-.03s-.03.02-.03.02h-.1s-.63.01-.63.01l1.96-3.88h0v-.02s.02-.03.02-.03l.02-.02v-.02s.02-.02.02-.02l.02-.02v-.03s.02-.02.02-.02v-.02s.03-.02.03-.02h0v-.02s.02-.02.02-.02l.02-.02v-.02s.03-.01.03-.01v-.02s.03-.02.03-.02v-.02s.03-.02.03-.02v-.02s-2.41,0-2.41,0h-.06s-.02-.01-.02-.01h-.01s0-.02,0-.02h-.02s-.01-.02-.01-.02h0s-.01-.02-.01-.02h-.01s0-.03,0-.03h-.01s-.01-.02-.01-.02v-.02h-.01v-.03h0v-.61h3.5Z"/><path class="cls-3" d="m37.52,24.65h0v.17s-.01.05-.01.05v.06s-.02.05-.02.05l-.02.05v.05s-.03.04-.03.04l-.02.05h0l-.02.05-.02.04-.02.04-.02.05-.03.04-.02.04-.03.03-.03.04-.03.03-.03.04h0l-.04.03-.03.03-.03.03-.04.03-.04.02-.04.02-.03.03-.04.02-.05.02-.04.02h-.04s-.04.03-.04.03h-.05s-.04.02-.04.02h-.05s-.04.02-.04.02h-.05s-.04,0-.04,0h-.29s-.05-.02-.05-.02h-.04s-.05-.02-.05-.02h-.04s-.05-.03-.05-.03h-.04s-.04-.03-.04-.03l-.04-.02-.04-.02-.04-.03-.04-.02-.04-.02-.03-.03-.04-.03-.03-.03-.03-.03h0l-.03-.04-.03-.03-.03-.04-.02-.03-.03-.04-.02-.04-.02-.05-.03-.04v-.04s-.03-.05-.03-.05h0l-.02-.05v-.04s-.03-.05-.03-.05v-.05s-.02-.05-.02-.05v-.06s-.01-.05-.01-.05v-.05s-.01-.06-.01-.06v-.06h0v-.17s.01-.05.01-.05v-.06s.02-.05.02-.05v-.05s.03-.05.03-.05v-.05s.03-.05.03-.05h0l.02-.05v-.04s.04-.05.04-.05l.02-.04.02-.04.03-.04.02-.04.03-.03.03-.04.03-.03h0l.03-.04.03-.03.04-.02.03-.03.04-.03.04-.02.04-.03.04-.02.04-.02.04-.02h.04s.05-.03.05-.03h.04s.05-.02.05-.02h.04s.05-.02.05-.02h.05s.05-.01.05-.01h.05s.05,0,.05,0h.1s.04,0,.04,0h.05s.05.02.05.02h.05s.04.02.04.02h.05s.04.03.04.03h.04s.05.03.05.03l.04.02.04.02.04.03.04.02.03.03.04.03.03.02.04.03.03.04h0l.03.03.03.04.03.03.02.04.03.04.02.04.02.04.03.05.02.04v.05h.01l.02.05.02.05v.05s.02.05.02.05v.05s.02.06.02.06v.11s.01.05.01.05v.06Zm-.66,0h0v-.04s-.01-.04-.01-.04v-.1s0-.04,0-.04v-.03s-.01-.03-.01-.03v-.03s-.02-.03-.02-.03h0v-.05s-.02-.02-.02-.02v-.03s-.02-.02-.02-.02v-.02s-.03-.02-.03-.02v-.02s-.02-.02-.02-.02l-.02-.02h-.01s-.01-.03-.01-.03h-.02s-.01-.03-.01-.03h-.02s-.02-.02-.02-.02h-.01s-.02-.02-.02-.02h-.02s-.02-.02-.02-.02h-.03s-.02-.02-.02-.02h-.04s-.02,0-.02,0h-.06s-.02-.01-.02-.01h-.04s-.02.01-.02.01h-.06s-.02,0-.02,0h-.02s-.02.02-.02.02h-.04s0,.02,0,.02h-.02s-.02.02-.02.02h-.01s-.02.02-.02.02v.02s-.03,0-.03,0v.02s-.03.01-.03.01h0v.02s-.02.02-.02.02v.02s-.02.02-.02.02v.02s-.02.02-.02.02v.03s-.02.02-.02.02v.03s-.02.02-.02.02h0v.03s-.01.03-.01.03v.03s0,.03,0,.03v.04s-.01.03-.01.03v.07s-.01.04-.01.04v.04h0v.12s.01.03.01.03v.07s.01.03.01.03v.03s0,.03,0,.03v.02h.01v.03s.02.02.02.02v.03s.02.02.02.02v.02s.02.02.02.02v.02s.02.02.02.02v.02s.02.01.02.01h0l.02.02h.01s.02.03.02.03h.01s.02.02.02.02h.01s.02.02.02.02h.02s0,.02,0,.02h.02s.02.02.02.02h.04s.02,0,.02,0h.04s.02.01.02.01h.16s.02-.01.02-.01h.04s.01,0,.01,0h.02s.02-.02.02-.02h.02s.02-.02.02-.02h.01s.02-.02.02-.02h.02s.01-.02.01-.02l.02-.02h.01s.01-.03.01-.03h.02s.01-.03.01-.03v-.02s.03-.02.03-.02v-.02s.02-.02.02-.02v-.02s.02-.03.02-.03v-.02s0-.03,0-.03h0v-.02s.02-.03.02-.03v-.06s.01-.04.01-.04v-.03s0-.03,0-.03v-.12Zm2.35-1.09h.01s.01-.02.01-.02h0s.01-.02.01-.02h.01s.01-.02.01-.02h0s.01-.01.01-.01h.01s0-.02,0-.02h.02s.01-.02.01-.02h.03s.02,0,.02,0h.02s.02-.01.02-.01h.69l-3.77,4.94h0v.02h-.01s-.02.02-.02.02h0s-.01.02-.01.02h-.01s0,.01,0,.01h-.01s-.01.02-.01.02h-.02s-.01,0-.01,0h-.02s-.01.01-.01.01h-.01s-.02,0-.02,0h-.07s-.64.01-.64.01l3.76-4.94Zm1.18,3.74h0v.06s-.01.06-.01.06v.1s-.02.06-.02.06v.05s-.02.05-.02.05l-.02.05v.05s-.03.04-.03.04h0l-.02.05-.02.04-.03.04-.02.05-.02.04-.03.04-.03.03-.03.04-.03.03-.03.04h0l-.03.03-.04.03-.03.03-.04.03-.03.02-.04.03-.04.02-.04.02-.04.02-.04.02h0l-.05.02h-.04s-.04.03-.04.03h-.05s-.04.02-.04.02h-.09s-.05.01-.05.01h-.04s-.05,0-.05,0h-.1s-.05,0-.05,0h-.04s-.05-.01-.05-.01h-.05s-.04-.02-.04-.02l-.05-.02h-.04s-.05-.03-.05-.03h0l-.04-.02-.04-.02-.04-.02-.04-.02-.04-.03-.03-.02-.04-.03-.03-.03-.03-.03-.04-.03h0l-.03-.04-.03-.03-.02-.04-.03-.03-.02-.04-.03-.04-.02-.05-.02-.04-.02-.04-.02-.05h0l-.02-.04v-.05s-.02-.05-.02-.05v-.05s-.02-.05-.02-.05v-.06s-.02-.05-.02-.05v-.11s-.01-.06-.01-.06h0v-.11s.01-.06.01-.06v-.05s.02-.06.02-.06v-.05s.02-.05.02-.05v-.05s.02-.05.02-.05l.02-.05h0l.02-.05.02-.04.02-.05.02-.04.03-.04.02-.04.03-.04.02-.03.03-.04.03-.03h0l.04-.03.03-.04.03-.02.04-.03.03-.03.04-.02.04-.03.04-.02.04-.02.04-.02h.05s.04-.03.04-.03h.05s.04-.02.04-.02h.05s.05-.02.05-.02h.04s.05,0,.05,0h.05s.05-.01.05-.01h.1s.05.01.05.01h.05s.04.02.04.02h.05s.05.02.05.02h.04s.04.03.04.03h.05s.04.03.04.03l.04.02.04.02.04.03.04.02.04.03.03.03.03.02.04.04.03.03h0l.03.03.03.04.03.03.02.04.03.04.02.04.03.04.02.05.02.04v.05h.01l.02.05.02.05v.05s.02.05.02.05v.05s.02.06.02.06v.05s0,.06,0,.06v.11Zm-.67,0h0v-.08s-.01-.03-.01-.03v-.11s0-.03,0-.03v-.03s-.02-.03-.02-.03v-.03h0v-.02s-.02-.03-.02-.03v-.02s-.02-.03-.02-.03v-.02s-.02-.02-.02-.02v-.02s-.02-.02-.02-.02l-.02-.02v-.02h-.03s-.01-.03-.01-.03h-.01s-.02-.03-.02-.03h-.02s0-.02,0-.02h-.02s-.02-.02-.02-.02h-.01s-.02-.02-.02-.02h-.04s-.02-.02-.02-.02h-.04s-.02,0-.02,0h-.06s-.02-.01-.02-.01h-.04s-.02.01-.02.01h-.06s-.02,0-.02,0h-.02s-.02.02-.02.02h-.03s-.02.02-.02.02h-.02s0,.02,0,.02h-.02s-.02.02-.02.02v.02s-.03.01-.03.01v.02s-.02,0-.02,0h0l-.02.02v.02s-.02.02-.02.02v.02s-.02.02-.02.02v.02s-.02.03-.02.03v.02s-.02.03-.02.03v.02h-.01v.06s-.02.03-.02.03v.1s-.01.04-.01.04v.11h0v.18s.01.04.01.04v.06s.02.03.02.03v.02h0v.03s.02.02.02.02v.03s.02.02.02.02v.02s.02.02.02.02v.02s.02.02.02.02v.02s.03.02.03.02h.01s0,.03,0,.03h.02s.01.02.01.02l.02.02h.02s0,.02,0,.02h.02s.02,0,.02,0h.01s.02.02.02.02h.04s.02.01.02.01h.02s.02,0,.02,0h.04s.02.01.02.01h.08s.02-.01.02-.01h.04s.02,0,.02,0h.02s.02-.01.02-.01h.02s.02-.02.02-.02h.03s.02-.02.02-.02h0s.02-.03.02-.03h.02s.01-.02.01-.02v-.02s.03,0,.03,0h0v-.02s.03-.02.03-.02v-.02s.02-.02.02-.02v-.02s.02-.02.02-.02v-.02s.02-.03.02-.03v-.02s.02-.03.02-.03h0v-.05s.02-.03.02-.03v-.07s0-.03,0-.03v-.11s.01-.04.01-.04Z"/><path class="cls-3" d="m77.99,21.31v.65h-2.81v-.65h1.03v-2.95h0v-.29s.01-.04.01-.04v-.03l-.73.61h-.02s-.02.02-.02.02h-.01s-.01.02-.01.02h-.03s-.01.01-.01.01h-.01s-.02,0-.02,0h-.13s-.01,0-.01,0h-.02s-.01-.01-.01-.01h-.02s0,0,0,0h-.01s-.01-.02-.01-.02h-.02v-.02h-.01s-.01,0-.01,0h0s0-.02,0-.02l-.27-.37,1.54-1.32h.72v4.43h.91Z"/><path class="cls-3" d="m82.32,19.43h0v.13s-.01.12-.01.12v.13s-.02.12-.02.12v.12s-.03.11-.03.11v.11s-.04.11-.04.11l-.02.1-.03.1h0l-.03.09-.03.1-.03.09-.04.08-.04.08-.04.08-.04.08-.04.07-.05.07-.05.07h0l-.05.06-.05.06-.06.05-.05.05-.06.05-.06.05-.06.04-.07.04-.06.04-.07.03h0l-.07.03-.07.03-.07.02-.07.02-.08.02h-.07s-.08.02-.08.02h-.07s-.08,0-.08,0h-.08s-.08,0-.08,0h-.15s-.08-.02-.08-.02h-.07s-.07-.03-.07-.03l-.08-.02-.07-.02-.07-.03-.06-.03h0l-.07-.03-.07-.04-.06-.04-.06-.04-.06-.05-.06-.05-.05-.05-.06-.05-.05-.06-.05-.06h0l-.05-.07-.05-.07-.04-.07-.04-.08-.04-.08-.04-.08-.04-.08-.03-.09-.03-.1-.03-.09h0l-.03-.1-.02-.1-.02-.11-.02-.11v-.11s-.03-.12-.03-.12v-.12s-.01-.13-.01-.13v-.12s-.01-.13-.01-.13h0v-.26s.01-.13.01-.13v-.12s.03-.12.03-.12v-.11s.03-.11.03-.11l.02-.11.02-.1.03-.1h0l.03-.09.03-.1.03-.08.04-.09.04-.08.04-.08.04-.08.04-.07.05-.07.05-.06h0l.05-.07.05-.05.06-.06.05-.05.06-.05.06-.05.06-.04.06-.04.07-.03.07-.04h0l.06-.03.07-.02.07-.03.08-.02.07-.02h.07s.08-.02.08-.02h.08s.07,0,.07,0h.31s.08.02.08.02h.07s.08.03.08.03l.07.02.07.03.07.02.07.03h0l.07.04.06.03.07.04.06.04.06.05.06.05.05.05.06.06.05.05.05.07h0l.05.06.05.07.04.07.04.08.04.08.04.08.04.09.03.08.03.1.03.09h0l.03.1.02.1.03.11v.11s.03.11.03.11v.12s.02.12.02.12v.13s0,.12,0,.12v.14Zm-.9,0h0v-.41s-.02-.1-.02-.1v-.09s-.02-.08-.02-.08v-.08s-.02-.08-.02-.08l-.02-.08h0l-.02-.07v-.06s-.03-.07-.03-.07l-.02-.06-.02-.06-.03-.06-.02-.05-.02-.05-.03-.05-.03-.04h0l-.02-.04-.03-.04-.03-.04-.03-.03-.03-.03-.03-.03-.03-.03-.04-.02-.03-.02-.03-.02h0l-.04-.02h-.03s-.04-.02-.04-.02h-.04s-.03-.02-.03-.02h-.04s-.04-.02-.04-.02h-.07s-.04,0-.04,0h-.07s-.04,0-.04,0h-.04s-.03.02-.03.02h-.04s-.03.02-.03.02h-.04s-.03.02-.03.02l-.04.02h0l-.03.02-.04.02-.03.02-.03.03-.03.03-.03.03-.03.03-.03.04-.03.04-.02.04h0l-.03.04-.03.05-.02.05-.02.05-.02.06-.03.06-.02.06v.07s-.03.06-.03.06l-.02.07h0v.08s-.03.08-.03.08v.08s-.02.08-.02.08v.09s-.01.1-.01.1v.09s-.01.1-.01.1v.11s-.01.11-.01.11h0v.21s.01.1.01.1v.1s.01.09.01.09v.09s.02.08.02.08v.09s.03.07.03.07v.08h.01l.02.07.02.07v.06s.03.06.03.06l.03.06.02.06.02.05.02.05.03.05.03.04h0l.02.04.03.04.03.04.03.03.03.03.03.03.03.03.03.02.04.02.03.02h0l.04.02h.03s.04.03.04.03h.03s.04.02.04.02h.07s.04,0,.04,0h.03s.04.01.04.01h.08s.03-.01.03-.01h.04s.04,0,.04,0h.03s.04-.02.04-.02l.04-.02h.03s.04-.03.04-.03h0l.03-.02.03-.02.04-.02.03-.03.03-.03.03-.03.03-.03.03-.04.03-.04.02-.04h0l.03-.04.03-.05.02-.05.02-.05.03-.06.02-.06.02-.06.02-.06v-.07s.03-.07.03-.07h0l.02-.08v-.07s.02-.09.02-.09v-.08s.02-.09.02-.09v-.09s.02-.1.02-.1v-.31Z"/><path class="cls-3" d="m85.1,18.12h0v.17s0,.05,0,.05v.05s-.02.05-.02.05v.05s-.03.05-.03.05l-.02.05v.05h-.01l-.02.04-.03.05-.02.04-.02.04-.03.04-.02.04-.03.04-.03.03-.03.04-.03.03h0l-.03.03-.04.03-.03.03-.04.03-.04.03-.03.02-.04.02-.04.02-.04.02-.05.02h0l-.04.02h-.04s-.05.03-.05.03h-.04s-.04.02-.04.02h-.05s-.04,0-.04,0h-.05s-.05.01-.05.01h-.19s-.05-.01-.05-.01h-.04s-.05-.02-.05-.02h-.05s-.04-.03-.04-.03h-.04s-.05-.03-.05-.03h0l-.04-.02-.04-.02-.04-.02-.04-.02-.04-.02-.03-.03-.04-.03-.03-.03-.04-.03-.03-.03h0l-.03-.03-.03-.04-.03-.03-.02-.04-.03-.04-.02-.04-.02-.04-.02-.04-.02-.05-.02-.04h0l-.02-.05v-.05s-.03-.05-.03-.05v-.05s-.02-.05-.02-.05v-.1s-.02-.06-.02-.06v-.11h0v-.17s.02-.06.02-.06v-.1s.02-.06.02-.06l.02-.05v-.05s.03-.04.03-.04h0l.02-.05.02-.05.02-.04.02-.04.02-.04.03-.04.02-.04.03-.04.03-.03.03-.04h0l.03-.03.04-.03.03-.03.04-.03.03-.02.04-.03.04-.02.04-.02.04-.02.04-.02h0l.05-.02h.04s.04-.03.04-.03h.05s.05-.02.05-.02h.04s.05,0,.05,0h.05s.05,0,.05,0h.2s.04,0,.04,0h.05s.05.02.05.02h.04s.05.03.05.03h.04s.05.03.05.03h0l.04.02.04.02.04.02.04.02.04.03.03.02.04.03.03.03.04.03.03.03h0l.03.04.03.03.03.04.03.04.02.04.02.04.03.04.02.04.02.05.02.05h0v.04s.03.05.03.05v.05s.02.06.02.06v.05s.02.05.02.05v.06s0,.05,0,.05v.12Zm-.66,0h0v-.12s-.01-.03-.01-.03v-.07s-.01-.03-.01-.03v-.03s-.02-.03-.02-.03v-.03h0v-.03s-.02-.02-.02-.02v-.03s-.02-.02-.02-.02v-.03s-.02-.02-.02-.02v-.02s-.03-.02-.03-.02v-.02s-.02-.01-.02-.01h0l-.02-.02h-.01s-.02-.03-.02-.03h0s-.02-.02-.02-.02v-.02s-.03,0-.03,0h-.02s-.02-.01-.02-.01h-.01s-.02-.02-.02-.02h-.02s-.02,0-.02,0h-.02s-.02,0-.02,0h-.04s-.02-.01-.02-.01h-.12s-.02.01-.02.01h-.04s-.02,0-.02,0h-.02s-.02.02-.02.02h-.02s0,0,0,0h-.02s-.02.02-.02.02v.02s-.03.01-.03.01h0s-.02.03-.02.03h0s-.02.03-.02.03h-.01s0,.03,0,.03v.02s-.02.02-.02.02v.02s-.02.03-.02.03v.02s-.02.03-.02.03v.02s-.02.03-.02.03h0v.06s-.02.03-.02.03v.06s-.01.04-.01.04v.11s-.01.04-.01.04h0v.07s.01.04.01.04v.1s.01.03.01.03v.03s.02.03.02.03v.03h0v.02s.02.03.02.03v.02s.02.02.02.02v.03s.02.02.02.02v.02s.02.01.02.01v.02s.02.02.02.02h.02s0,.03,0,.03h.02s0,.03,0,.03h.02s.01.02.01.02h.02s.02.02.02.02h0s.02,0,.02,0h.02s.02.02.02.02h.04s.02.01.02.01h.04s.02,0,.02,0h.12s.02,0,.02,0h.04s.02-.01.02-.01h.02s.02-.02.02-.02h.03s.02-.02.02-.02h.02s0-.02,0-.02h.02s0-.03,0-.03h.02s.01-.03.01-.03h.02s.01-.03.01-.03v-.02s.03-.01.03-.01v-.02s.02-.02.02-.02v-.03s.02-.02.02-.02v-.02s.02-.03.02-.03v-.02h.01v-.06s.02-.03.02-.03v-.06s.01-.03.01-.03v-.08s.01-.03.01-.03v-.04Zm2.35-1.09h.01s0-.02,0-.02h.01s.01-.02.01-.02h.01s0-.02,0-.02h.01s.01-.02.01-.02h0s.01-.02.01-.02h.03s.02-.02.02-.02h.03s.02-.01.02-.01h.04s.02,0,.02,0h.65l-3.76,4.94h-.01s-.01.02-.01.02h0s-.01.02-.01.02h-.01s-.02.02-.02.02h-.01s-.01.02-.01.02h0s-.01.02-.01.02h-.03s-.01.01-.01.01h-.02s-.01,0-.01,0h-.03s-.02.01-.02.01h-.68l3.76-4.93Zm1.18,3.74h0v.11s-.01.06-.01.06v.05s-.02.05-.02.05v.05s-.02.05-.02.05l-.02.05v.05s-.03.05-.03.05h0l-.02.04-.02.05-.02.04-.03.04-.02.04-.03.04-.03.04-.02.03-.04.04-.03.03h0l-.03.03-.03.04-.04.02-.03.03-.04.03-.04.02-.04.02-.04.03-.04.02-.04.02h-.04s-.05.03-.05.03h-.04s-.05.02-.05.02h-.04s-.04.02-.04.02h-.05s-.05,0-.05,0h-.28s-.05-.02-.05-.02h-.05s-.04-.02-.04-.02h-.05s-.04-.03-.04-.03h-.04s-.05-.03-.05-.03l-.04-.02-.04-.03-.04-.02-.03-.02-.04-.03-.04-.03-.03-.02-.03-.04-.03-.03h0l-.04-.03-.02-.04-.03-.03-.03-.04-.02-.04-.03-.04-.02-.04-.02-.04-.02-.05-.02-.04h0v-.05s-.03-.05-.03-.05v-.05s-.02-.05-.02-.05v-.05s-.02-.05-.02-.05v-.05s-.01-.06-.01-.06v-.11h0v-.23s.02-.05.02-.05v-.05s.02-.06.02-.06v-.05s.03-.05.03-.05v-.04h0l.02-.05.02-.05.02-.04.02-.04.03-.04.02-.04.03-.04.03-.04.02-.03.04-.04h0l.03-.03.03-.03.03-.03.04-.03.04-.02.03-.03.04-.02.04-.02.04-.02.05-.02h0l.04-.02h.04s.05-.03.05-.03h.04s.05-.02.05-.02h.05s.04,0,.04,0h.05s.05-.01.05-.01h.2s.05.01.05.01h.05s.04.02.04.02h.05s.04.03.04.03h.05s.04.03.04.03h0l.04.02.04.02.04.02.04.02.04.03.04.02.03.03.04.03.03.03.03.03h0l.03.04.03.03.03.04.03.04.02.04.02.04.03.04.02.04.02.05.02.05h0v.04s.03.05.03.05v.05s.02.06.02.06v.05s.02.05.02.05v.06s0,.05,0,.05v.06s.01.06.01.06Zm-.67,0h0v-.12s-.01-.03-.01-.03v-.07s-.01-.03-.01-.03v-.03s0-.03,0-.03v-.03h-.01v-.03s-.02-.02-.02-.02v-.03s-.02-.02-.02-.02v-.03s-.02-.02-.02-.02v-.02s-.02-.02-.02-.02l-.02-.02h-.01s-.01-.03-.01-.03h-.02s-.01-.03-.01-.03h-.02s-.01-.02-.01-.02l-.02-.02h-.02s-.01-.02-.01-.02h-.04s-.02-.02-.02-.02h-.02s-.02,0-.02,0h-.02s-.02-.01-.02-.01h-.04s-.02,0-.02,0h-.12s-.02,0-.02,0h-.04s-.02.01-.02.01h-.02s-.01.02-.01.02h-.02s-.02,0-.02,0h-.02s-.01.02-.01.02l-.02.02h-.01s-.02.02-.02.02v.02s-.03.01-.03.01v.02h-.02s-.02.03-.02.03v.02s-.02.02-.02.02v.02s-.02.03-.02.03v.02s-.02.03-.02.03v.02s-.02.03-.02.03h0v.06s-.01.03-.01.03v.03s-.01.03-.01.03v.04s0,.03,0,.03v.12h0v.18s0,.03,0,.03v.03s.01.03.01.03v.03s.01.03.01.03h0v.02s.02.03.02.03v.02s.02.03.02.03v.02s.02.02.02.02v.02s.02.02.02.02l.02.02h.01s.01.03.01.03h.02s.01.03.01.03h.02s.01.02.01.02h.02s.01.02.01.02h.02s.02.02.02.02h.02s.01,0,.01,0h.02s.02.02.02.02h.06s.02.01.02.01h.16s.02-.01.02-.01h.04s.02-.02.02-.02h.04s.02-.02.02-.02h.01s.02-.02.02-.02h.02s.01-.02.01-.02h.02s.01-.03.01-.03h.02s.01-.03.01-.03h.01s.02-.03.02-.03v-.02s.02-.02.02-.02v-.02s.02-.02.02-.02v-.03s.02-.02.02-.02v-.03s.02-.02.02-.02h0v-.03s.01-.03.01-.03v-.03s0-.03,0-.03v-.03s.01-.03.01-.03v-.08s.01-.03.01-.03v-.04Z"/><path class="cls-3" d="m97.86,39.03h0l.02-.07v-.07s.02-.07.02-.07l.02-.07.02-.06.02-.06.03-.07.02-.05.03-.06.03-.06h0l.03-.05.03-.05.03-.06.04-.04.04-.05.04-.05.03-.04.05-.04.04-.04.04-.04h0l.05-.03.05-.04.05-.03.05-.03.05-.03.05-.03.05-.02.06-.02.05-.02.06-.02h0l.06-.02.06-.02h.06s.06-.02.06-.02h.07s.06-.02.06-.02h.06s.07,0,.07,0h.07s.06-.01.06-.01h.14s.07.01.07.01h.06s.07.02.07.02h.06s.06.02.06.02l.06.02h.06s.05.03.05.03h0l.06.02.05.03.06.02.05.02.05.03.04.03.05.03.04.03.05.04.04.03h0l.04.04.03.03.04.04.03.04.03.04.03.04.03.05.03.04.02.05.02.04h0l.02.05.02.05.02.05v.05s.02.05.02.05v.05s.02.06.02.06v.05s0,.05,0,.05v.06h0v.18s0,.05,0,.05v.04s-.02.04-.02.04v.08s-.02.04-.02.04h0l-.02.03v.04s-.02.03-.02.03v.04s-.03.03-.03.03l-.02.03v.03s-.03.03-.03.03l-.02.03-.02.03h0l-.02.02-.02.03-.02.02-.03.03-.02.02-.03.02-.03.03-.02.02-.03.02-.03.02h0l-.03.02h-.03s-.04.03-.04.03l-.03.02h-.03s-.04.03-.04.03h-.03s-.04.03-.04.03h-.03s-.04.03-.04.03h0l.09.03.08.03.08.03.08.04.07.05.06.04.06.05.06.05.05.06.05.05h0l.04.06.04.07.03.06.03.07.03.08.02.07v.08s.02.08.02.08v.09s0,.08,0,.08h0v.22s-.02.07-.02.07v.07s-.03.07-.03.07l-.02.06-.02.06-.02.06-.03.06h0l-.03.06-.03.06-.03.05-.04.05-.03.05-.04.05-.04.05-.04.04-.05.04-.05.04h0l-.04.04-.05.04-.06.03-.05.04-.05.03-.06.02-.06.03-.06.03-.06.02-.06.02h0l-.06.02-.07.02h-.06s-.07.03-.07.03h-.06s-.07.02-.07.02h-.13s-.07.01-.07.01h-.36s-.07-.02-.07-.02h-.07s-.06-.02-.06-.02h-.06s-.06-.03-.06-.03h-.06s-.05-.03-.05-.03l-.06-.02-.05-.02-.05-.03-.05-.02-.05-.03-.05-.03-.05-.03-.04-.03-.04-.03h0l-.04-.04-.04-.04-.04-.03-.04-.04-.04-.05-.03-.04-.04-.04-.03-.05-.03-.05-.03-.04h0l-.03-.06-.03-.05-.02-.05-.03-.06-.03-.05-.02-.06-.03-.06-.02-.06-.02-.07-.02-.06.38-.16h.03s.03-.02.03-.02h.03s.03-.01.03-.01h.02s.03,0,.03,0h.08s.03,0,.03,0h.03s.02.02.02.02h.02s.02.02.02.02h.02s.02.02.02.02l.02.02.02.02v.02s.02.02.02.02h0l.02.03v.02s.02.02.02.02v.03s.03.02.03.02v.03s.03.02.03.02v.03s.02.02.02.02l.02.02h0l.02.03v.02s.03.02.03.02l.02.02v.03s.03.02.03.02l.02.02.02.02.02.02.02.02h.02s.03.03.03.03l.02.02h.02s.03.03.03.03l.02.02h.03s.02.02.02.02l.03.02h.03s.03.02.03.02h.03s.03.02.03.02h.06s.04,0,.04,0h.03s.04.01.04.01h.24s.04-.01.04-.01h.04s.04-.02.04-.02h.03s.04-.02.04-.02l.03-.02h.04s.03-.03.03-.03h.03s.03-.03.03-.03l.02-.02.03-.02.03-.02.02-.02.02-.02.03-.03h0l.02-.02.02-.02.02-.03.02-.02v-.03s.03-.02.03-.02v-.03s.03-.03.03-.03v-.02s.02-.03.02-.03h0v-.03s.02-.03.02-.03v-.03s.02-.03.02-.03v-.05s0-.03,0-.03v-.06s.01-.03.01-.03h0v-.11s-.01-.03-.01-.03v-.07s0-.03,0-.03v-.03s-.01-.03-.01-.03v-.03h0v-.03s-.02-.03-.02-.03v-.02s-.03-.03-.03-.03v-.03s-.03-.02-.03-.02l-.02-.03-.02-.02-.02-.02-.02-.02h0l-.03-.02-.03-.02-.03-.02-.03-.02-.03-.02h-.04s-.04-.03-.04-.03h-.04s-.04-.03-.04-.03h-.05s-.04-.02-.04-.02h-.05s-.06-.02-.06-.02h-.05s-.06,0-.06,0h-.07s-.06-.01-.06-.01h-.07s-.07-.01-.07-.01h-.08v-.62h.24s.05,0,.05,0h.05s.05-.02.05-.02h.05s.05,0,.05,0l.04-.02h.04s.04-.02.04-.02h.04s.03-.03.03-.03h.04s.03-.03.03-.03h.03s.03-.03.03-.03l.03-.02.02-.02h0l.03-.02.02-.02.02-.02.02-.03.02-.02.02-.03v-.02s.02-.03.02-.03l.02-.02v-.03h.01v-.03s0-.03,0-.03v-.03s.02-.03.02-.03v-.06s0-.03,0-.03v-.07s.01-.03.01-.03h0v-.07s-.01-.07-.01-.07v-.06s-.03-.06-.03-.06v-.05s-.04-.06-.04-.06l-.02-.05-.03-.04-.04-.04-.03-.04h0l-.04-.04-.05-.03-.05-.03-.04-.02-.06-.02-.05-.02h-.06s-.06-.02-.06-.02h-.06s-.07-.01-.07-.01h-.12s-.02.01-.02.01h-.03s-.03,0-.03,0h-.03s-.02.02-.02.02h-.03s-.03.02-.03.02h-.02l-.03.02h-.02s-.02.02-.02.02h-.03s-.02.02-.02.02l-.02.02h-.02s-.03.03-.03.03h-.02s-.01.03-.01.03l-.02.02-.02.02h-.02s-.02.03-.02.03v.02s-.03.02-.03.02v.02s-.03.02-.03.02h0v.02s-.02.02-.02.02l-.02.03v.02s-.02.02-.02.02v.03s-.02.02-.02.02v.02s0,.03,0,.03v.02h0v.03s-.03.03-.03.03v.03s-.03.02-.03.02v.03s-.03.02-.03.02v.02s-.03.01-.03.01l-.02.02h-.02s-.02.02-.02.02h-.04s-.03.02-.03.02h-.18s-.46-.09-.46-.09Z"/><path class="cls-3" d="m104.99,41.88h.08s.02,0,.02,0h.03s.02.02.02.02h.02s.02.02.02.02l.02.02h0s.02.03.02.03h0s.02.03.02.03v.02s.02.02.02.02v.04s0,.03,0,.03v.02s0,.03,0,.03v.52h-3.48v-.29h0v-.04h0v-.05s0-.02,0-.02v-.02s.01-.02.01-.02h0v-.03h0v-.02s.02-.02.02-.02v-.02s.02-.02.02-.02v-.02s.03-.01.03-.01v-.02s.02-.02.02-.02h.02s0-.03,0-.03l1.54-1.54h0l.04-.04.04-.04.03-.04.04-.03.03-.04.04-.04.03-.04.03-.03.03-.04.04-.04h0l.03-.03.03-.04.02-.03.03-.04.03-.03.02-.04.03-.03.02-.04.02-.03.02-.04h0l.02-.03.02-.04.02-.04v-.03s.03-.04.03-.04l.02-.03v-.04s.02-.03.02-.03v-.04s.03-.03.03-.03h0v-.04s.02-.04.02-.04v-.07s.02-.04.02-.04v-.08s0-.04,0-.04v-.08h0v-.13s0-.04,0-.04v-.03s-.01-.03-.01-.03v-.03s-.02-.03-.02-.03v-.02h-.01v-.03s-.02-.03-.02-.03l-.02-.02v-.03s-.02-.02-.02-.02l-.02-.03-.02-.02v-.02s-.03-.02-.03-.02l-.02-.02h0l-.02-.02-.02-.02h-.02s-.02-.03-.02-.03h-.03s-.02-.03-.02-.03h-.02s-.03-.02-.03-.02h-.03s-.02-.02-.02-.02h-.03s-.03-.02-.03-.02h-.03s-.03-.01-.03-.01h-.02s-.04,0-.04,0h-.06s-.03-.01-.03-.01h-.15s-.03.01-.03.01h-.03s-.03,0-.03,0h-.03s-.02.02-.02.02h-.03s-.03.02-.03.02h-.02l-.03.02h-.02s-.02.02-.02.02h-.03s-.02.02-.02.02l-.02.02h-.02s-.02.03-.02.03h-.02s-.02.03-.02.03l-.02.02-.02.02h-.02s0,.03,0,.03l-.02.02-.02.02v.02s-.02.02-.02.02h0l-.02.02v.02s-.02.03-.02.03l-.02.02v.02s-.02.03-.02.03v.02s0,.02,0,.02v.03s-.02.02-.02.02h0v.03s-.03.03-.03.03v.03s-.02.02-.02.02l-.02.03v.02s-.03.02-.03.02h-.02s-.02.03-.02.03h0s-.02.02-.02.02h-.05s-.02.02-.02.02h-.19s-.45-.09-.45-.09h0v-.07s.02-.07.02-.07l.02-.07v-.07s.03-.06.03-.06l.02-.06.03-.07.02-.05.03-.06.03-.06h0l.03-.05.03-.05.04-.06.03-.04.04-.05.04-.05.04-.04.04-.04.04-.04.04-.04h0l.05-.03.05-.04.05-.03.05-.03.05-.03.05-.03.05-.02.06-.02.06-.02.05-.02h0l.06-.02.06-.02h.06s.07-.02.07-.02h.06s.06-.02.06-.02h.07s.06,0,.06,0h.07s.06-.01.06-.01h.14s.07.01.07.01h.07s.06.02.06.02h.06s.07.02.07.02l.06.02.06.02.06.02h0l.05.02.06.02.05.03.06.02.05.03.05.03.04.03.05.04.04.03.04.04h0l.04.04.04.04.04.04.03.04.04.05.03.04.03.05.03.05.02.05.03.05h0l.02.06.02.05.02.06v.06s.02.05.02.05v.06s.02.07.02.07v.06s0,.06,0,.06v.07h0v.16s0,.05,0,.05v.06s-.02.05-.02.05v.05s-.02.05-.02.05l-.02.05v.04h-.01l-.02.05-.02.05-.02.05-.02.04-.02.05-.02.04-.02.05-.03.04-.03.05-.02.04h0l-.03.04-.03.05-.03.04-.03.04-.03.04-.03.05-.04.04-.03.04-.04.04-.04.04h0l-.03.04-.04.04-.04.04-.04.05-.04.04-.03.04-.04.04-.04.04-.04.04-.04.04-1.15,1.17h.04s.03-.02.03-.02h.06s.04-.02.04-.02h.03s.03-.01.03-.01h.03s.04-.02.04-.02h.06s.03-.01.03-.01h.04s.03-.01.03-.01h.09s.03,0,.03,0h1.36Z"/><path class="cls-3" d="m108.23,38.84h0v.17s-.02.06-.02.06v.1s-.03.05-.03.05v.05s-.03.05-.03.05l-.02.04h0l-.02.05-.02.04-.02.05-.02.04-.03.04-.03.04-.02.03-.03.04-.03.04-.03.03h0l-.04.03-.03.03-.03.03-.04.03-.04.02-.04.03-.04.02-.04.02-.04.02-.04.02h0l-.04.02h-.04s-.05.02-.05.02h-.04s-.05.02-.05.02h-.04s-.05.02-.05.02h-.09s-.04,0-.04,0h-.1s-.05,0-.05,0h-.05s-.05-.02-.05-.02h-.04s-.05-.02-.05-.02h-.04s-.05-.02-.05-.02l-.04-.02h0l-.04-.02-.04-.02-.04-.02-.04-.02-.04-.03-.04-.02-.03-.03-.04-.03-.03-.03-.03-.03h0l-.03-.03-.03-.04-.03-.04-.02-.03-.03-.04-.02-.04-.02-.04-.03-.05-.02-.04v-.05h0l-.02-.04-.02-.05v-.05s-.02-.05-.02-.05v-.05s-.02-.05-.02-.05v-.11s0-.06,0-.06v-.06h0v-.17s0-.05,0-.05v-.06s.02-.05.02-.05v-.05s.02-.05.02-.05l.02-.05.02-.05h0v-.05s.03-.04.03-.04l.03-.04.02-.05.02-.04.03-.04.02-.04.03-.03.03-.04.03-.03h0l.03-.03.03-.03.04-.03.03-.03.04-.03.04-.02.04-.02.04-.03.04-.02h.04s.04-.03.04-.03l.05-.02h.04s.05-.02.05-.02h.04s.05-.02.05-.02h.05s.05,0,.05,0h.29s.05.02.05.02h.05s.04.02.04.02h.05s.04.03.04.03l.04.02h.05s.04.03.04.03l.04.03.04.02.03.02.04.03.04.03.03.03.04.03.03.03h0l.03.03.03.04.03.03.02.04.03.04.02.04.02.05.03.04v.04s.03.05.03.05h0l.02.05v.05s.03.05.03.05v.05s.02.05.02.05v.06s0,.05,0,.05v.06s.01.06.01.06v.05Zm-.67,0h0v-.18s-.01-.04-.01-.04v-.03s0-.03,0-.03v-.03s-.02-.03-.02-.03h0v-.02s0-.03,0-.03v-.02s-.02-.03-.02-.03v-.02s-.03-.02-.03-.02v-.02s-.02-.02-.02-.02v-.02s-.03-.02-.03-.02h0s0-.03,0-.03h-.02s0-.03,0-.03h-.02s-.02-.02-.02-.02h0s-.02-.02-.02-.02h-.02s-.02-.02-.02-.02h-.03s-.02-.02-.02-.02h-.06s-.02-.01-.02-.01h-.17s-.01.01-.01.01h-.04s-.02.02-.02.02h-.04s-.02.02-.02.02h0s-.02.02-.02.02h-.02s0,.02,0,.02l-.02.02h0s-.01.03-.01.03h-.02s-.01.03-.01.03v.02s-.02.02-.02.02v.02s-.02.02-.02.02v.02s-.02.03-.02.03v.02s-.02.03-.02.03v.02h-.01v.03s0,.03,0,.03v.03s-.01.03-.01.03v.04s0,.03,0,.03v.08s0,.03,0,.03v.04h0v.12s0,.03,0,.03v.07s0,.03,0,.03v.03s.01.03.01.03v.02h0v.03s.02.02.02.02v.03s.02.02.02.02v.02s.02.02.02.02v.02s.02.02.02.02v.02s.02.01.02.01h0l.02.02v.02s.02,0,.02,0h.02s0,.02,0,.02h.02s.02.03.02.03h.03s.02.02.02.02h.02s.02.01.02.01h.02s.02.01.02.01h.01s.02,0,.02,0h.07s.02.01.02.01h.04s.02-.01.02-.01h.06s.02,0,.02,0h.02s.01-.01.01-.01h.02s.02-.02.02-.02h.02s.02-.01.02-.01v-.02s.03,0,.03,0h.02s0-.02,0-.02h.02s0-.03,0-.03v-.02h.03s0-.03,0-.03v-.02s.02-.02.02-.02l.02-.02v-.02s.02-.02.02-.02v-.03s0-.02,0-.02v-.03h0v-.02s.02-.03.02-.03v-.06s0-.03,0-.03v-.04s.01-.03.01-.03v-.12Zm2.36-1.09h0s0-.02,0-.02h.01s0-.02,0-.02h0s.01-.01.01-.01h0s.01-.02.01-.02h0s0-.02,0-.02h.02s0-.02,0-.02h.03s.02-.01.02-.01h.02s0,0,0,0h.7l-3.77,4.94h-.01s0,.02,0,.02h0s-.01.02-.01.02h0s0,.02,0,.02h-.01s0,.02,0,.02h-.03s-.01.02-.01.02h-.03s0,.01,0,.01h-.02s0,0,0,0h-.03s-.02.01-.02.01h-.66l3.76-4.94Zm1.17,3.75h0v.22s-.02.05-.02.05v.05s-.02.05-.02.05l-.02.05v.05s-.03.04-.03.04h0l-.02.05-.02.04-.03.05-.02.04-.02.04-.03.04-.03.04-.03.03-.03.04-.03.03h0l-.03.03-.04.03-.03.03-.04.03-.03.02-.04.03-.04.02-.04.02-.04.02-.04.02h0l-.05.02h-.04s-.04.03-.04.03h-.05s-.04.02-.04.02h-.05s-.04.01-.04.01h-.05s-.04,0-.04,0h-.2s-.05,0-.05,0h-.04s-.05-.02-.05-.02h-.04s-.05-.03-.05-.03h-.04s-.05-.03-.05-.03h0l-.04-.02-.04-.02-.04-.02-.04-.02-.04-.03-.03-.02-.04-.03-.03-.03-.04-.03-.03-.03h0l-.03-.03-.03-.04-.02-.03-.03-.04-.03-.04-.02-.04-.02-.04-.02-.05-.02-.04-.02-.05h0l-.02-.04v-.05s-.02-.05-.02-.05l-.02-.05v-.05s-.01-.05-.01-.05v-.06s0-.05,0-.05v-.06s0-.05,0-.05h0v-.12s0-.06,0-.06v-.05s0-.06,0-.06v-.05s.03-.05.03-.05v-.05s.02-.05.02-.05l.02-.05h0l.02-.04.02-.05.02-.04.02-.05.02-.04.03-.04.03-.04.02-.03.03-.04.03-.03h0l.03-.03.04-.03.03-.03.04-.03.03-.03.04-.02.04-.02.04-.03.04-.02h.04s.05-.03.05-.03l.04-.02h.05s.04-.02.04-.02h.05s.04-.02.04-.02h.05s.05-.01.05-.01h.3s.04.02.04.02h.05s.04.02.04.02h.05s.04.03.04.03l.05.02h.04s.04.03.04.03l.04.03.04.02.04.02.03.03.04.03.03.03.04.03.03.03h0l.03.03.03.04.03.03.02.04.03.04.02.04.02.05.03.04.02.05v.04h.01l.02.05.02.05v.05s.02.05.02.05v.05s.02.06.02.06v.05s.01.06.01.06v.12Zm-.66,0h0v-.04s0-.04,0-.04v-.15s-.01-.03-.01-.03v-.03s-.02-.03-.02-.03v-.03h0v-.02s-.02-.03-.02-.03v-.02s-.02-.03-.02-.03v-.02s-.02-.02-.02-.02v-.02s-.03-.02-.03-.02v-.02s-.02-.02-.02-.02h-.02s0-.03,0-.03h-.01s-.02-.03-.02-.03h-.02s-.01-.02-.01-.02h-.02s-.02-.02-.02-.02h0s-.02-.02-.02-.02h-.04s-.02-.01-.02-.01h-.02s-.02-.01-.02-.01h-.02s-.02-.01-.02-.01h-.16s-.02.01-.02.01h-.02s-.02.01-.02.01h-.02s-.02.01-.02.01h0s-.02.02-.02.02h-.02s-.02.02-.02.02h0s-.02.02-.02.02v.02s-.03.01-.03.01v.02s-.02,0-.02,0h0l-.02.02v.02s-.02.02-.02.02v.02s-.02.02-.02.02v.02s-.02.03-.02.03v.02s-.02.03-.02.03v.02h0v.03s0,.03,0,.03v.03s-.01.03-.01.03v.04s0,.03,0,.03v.16h0v.21s0,.03,0,.03v.03s.01.03.01.03v.02h0v.03s.02.03.02.03v.02s.02.02.02.02v.02s.02.03.02.03v.02s.02,0,.02,0v.02s.03.02.03.02h0s.01.03.01.03h.02s0,.03,0,.03h.02s0,.02,0,.02h.02s.02.02.02.02h.02s0,.01,0,.01h.02s.02.02.02.02h.04s.02,0,.02,0h.04s.02.01.02.01h.12s.02-.01.02-.01h.04s.02,0,.02,0h.02s.02-.02.02-.02h.03s.02-.02.02-.02h.02s.01-.02.01-.02h.02s.02-.03.02-.03h.01s0-.03,0-.03h.02s0-.03,0-.03v-.02s.03,0,.03,0v-.02s.02-.03.02-.03v-.02s.02-.02.02-.02v-.02s.02-.03.02-.03v-.03h.01v-.05s.02-.03.02-.03v-.06s.01-.04.01-.04v-.14Z"/></svg>