<?xml version="1.0" encoding="UTF-8"?><svg id="Capa_1" xmlns="http://www.w3.org/2000/svg" viewBox="0 0 126.1 63.05"><defs><style>.cls-1{fill:#fa4d57;}.cls-1,.cls-2,.cls-3,.cls-4{stroke-width:0px;}.cls-2{fill:#b5b5b5;}.cls-3{fill:#fff;}.cls-4{fill:#003b88;}</style></defs><polygon class="cls-4" points="84.38 39.84 85.9 38.18 87.43 36.52 88.95 34.86 90.47 33.2 92 31.54 93.52 29.89 95.04 28.23 96.57 26.57 98.09 24.91 99.61 23.25 101.14 21.59 102.66 19.94 104.18 18.28 105.71 16.62 104.1 15.19 102.45 13.83 100.75 12.51 99.01 11.26 97.23 10.07 95.41 8.94 93.55 7.87 91.65 6.86 89.72 5.92 87.76 5.05 85.78 4.24 83.76 3.5 81.72 2.83 79.66 2.23 77.59 1.7 75.49 1.24 73.38 .85 71.26 .54 69.13 .29 66.99 .12 64.84 .03 62.7 0 60.55 .05 58.41 .17 56.28 .36 54.15 .63 52.03 .97 49.92 1.38 47.83 1.86 45.76 2.42 43.71 3.04 41.68 3.73 39.67 4.49 37.69 5.32 35.74 6.22 33.82 7.18 31.94 8.21 30.09 9.3 28.28 10.45 26.51 11.66 24.79 12.94 23.1 14.27 21.47 15.65 19.88 17.1 18.34 18.59 16.85 20.14 15.42 21.74 14.04 23.38 12.72 25.07 11.46 26.8 10.25 28.58 9.11 30.4 8.03 32.25 7.02 34.14 6.06 36.06 5.18 38.02 4.36 40 3.61 42.01 2.93 44.04 2.32 46.1 1.78 48.18 1.31 50.27 .91 52.38 .58 54.5 .32 56.63 .14 58.77 .03 60.91 0 63.05 2.25 63.05 4.5 63.05 6.75 63.05 9 63.05 11.26 63.05 13.51 63.05 15.76 63.05 18.01 63.05 20.26 63.05 22.52 63.05 24.77 63.05 27.02 63.05 29.27 63.05 31.52 63.05 31.6 60.91 31.81 58.78 32.18 56.66 32.68 54.58 33.33 52.53 34.11 50.54 35.03 48.6 36.08 46.73 37.25 44.93 38.55 43.22 39.95 41.6 41.46 40.08 43.08 38.66 44.78 37.36 46.57 36.18 48.44 35.12 50.37 34.19 52.36 33.39 54.4 32.74 56.49 32.22 58.6 31.84 60.73 31.61 62.87 31.53 65.02 31.59 67.15 31.8 69.27 32.15 71.36 32.64 73.41 33.28 75.41 34.05 77.35 34.96 79.23 35.99 81.03 37.16 82.75 38.44 84.38 39.84"/><polygon class="cls-2" points="90.62 47.76 92.59 46.67 94.56 45.57 96.53 44.48 98.5 43.39 100.46 42.3 102.43 41.2 104.4 40.11 106.37 39.02 108.34 37.93 110.31 36.83 112.28 35.74 114.25 34.65 116.22 33.56 118.19 32.46 117.06 30.52 115.86 28.61 114.6 26.75 113.27 24.93 111.88 23.16 110.43 21.44 108.91 19.78 107.34 18.17 105.71 16.62 104.18 18.28 102.66 19.94 101.14 21.59 99.61 23.25 98.09 24.91 96.57 26.57 95.04 28.23 93.52 29.89 92 31.54 90.47 33.2 88.95 34.86 87.43 36.52 85.9 38.18 84.38 39.84 86.17 41.62 87.82 43.55 89.3 45.6 90.62 47.76"/><polygon class="cls-1" points="94.58 63.05 96.83 63.05 99.08 63.05 101.33 63.05 103.58 63.05 105.84 63.05 108.09 63.05 110.34 63.05 112.59 63.05 114.84 63.05 117.1 63.05 119.35 63.05 121.6 63.05 123.85 63.05 126.1 63.05 126.06 60.77 125.94 58.5 125.73 56.22 125.44 53.96 125.08 51.71 124.62 49.47 124.09 47.26 123.48 45.06 122.79 42.88 122.02 40.74 121.18 38.62 120.25 36.53 119.26 34.48 118.19 32.46 116.22 33.56 114.25 34.65 112.28 35.74 110.31 36.83 108.34 37.93 106.37 39.02 104.4 40.11 102.43 41.2 100.46 42.3 98.5 43.39 96.53 44.48 94.56 45.57 92.59 46.67 90.62 47.76 91.65 49.79 92.54 51.89 93.27 54.06 93.84 56.26 94.25 58.51 94.49 60.77 94.58 63.05"/><path class="cls-3" d="m40.92,17.22v.38h0v.12s0,.03,0,.03v.05s-.01.03-.01.03v.02s-.02.02-.02.02h0v.04s-.02.02-.02.02v.02h-.01s0,.03,0,.03v.02h-.01s-.01.03-.01.03h-.01s-1.92,3.97-1.92,3.97h0v.02s-.02.02-.02.02l-.02.03v.02s-.03.02-.03.02l-.02.02v.02s-.03.02-.03.02l-.02.02-.02.02h-.03s-.02.03-.02.03h-.03s-.02.02-.02.02h-.03s-.03.02-.03.02h-.07s-.03,0-.03,0h-.66l1.96-3.87h0v-.03s.02-.02.02-.02l.02-.02v-.02s.02-.03.02-.03l.02-.02v-.02s.02-.02.02-.02v-.02s.03-.02.03-.02h0v-.02s.02-.02.02-.02l.02-.02v-.02s.03-.02.03-.02v-.02s.03-.02.03-.02v-.02s.03,0,.03,0v-.02s-2.41,0-2.41,0h-.03s-.02,0-.02,0h-.03s-.01-.01-.01-.01h-.02s-.01-.02-.01-.02h-.01s0-.02,0-.02h-.01s-.01-.03-.01-.03h0s-.01-.02-.01-.02v-.02s-.01,0-.01,0v-.02s-.01,0-.01,0v-.02h0v-.6h3.5Z"/><path class="cls-3" d="m43.65,20.38v-1.66h0v-.09s.01-.05.01-.05v-.16s0-.05,0-.05v-.11s.02-.06.02-.06l-1.58,2.18h1.54Zm1.4,0v.5h0v.02h-.01v.02h0s-.01.03-.01.03h0s0,.02,0,.02h0s-.01.02-.01.02h-.01s-.01.02-.01.02h0s-.01.02-.01.02h-.01s0,0,0,0h-.02s-.01.01-.01.01h-.51v1.24h-.76v-1.24h-2.22s-.01-.02-.01-.02h-.03s-.01-.02-.01-.02h-.02s-.01-.02-.01-.02h0s-.01-.03-.01-.03h-.01s-.01-.02-.01-.02v-.02s-.02,0-.02,0h0s-.01-.03-.01-.03v-.02l-.09-.43,2.4-3.21h.82v3.16h.64Z"/><path class="cls-3" d="m47.84,18.45h0v.11s-.01.06-.01.06v.05s-.02.05-.02.05v.05s-.02.05-.02.05l-.02.05v.05s-.03.05-.03.05h0l-.02.04-.02.05-.02.04-.03.04-.02.04-.03.04-.03.04-.03.04-.03.03-.03.03h0l-.03.04-.03.03-.04.02-.04.03-.03.03-.04.02-.04.02-.04.02-.04.02-.04.02h0l-.05.02h-.04s-.04.03-.04.03h-.05s-.04.02-.04.02h-.05s-.04.01-.04.01h-.05s-.04,0-.04,0h-.2s-.04,0-.04,0h-.05s-.05-.02-.05-.02h-.04s-.05-.03-.05-.03h-.04s-.04-.03-.04-.03h0l-.05-.02-.04-.02-.04-.02-.04-.02-.03-.02-.04-.03-.04-.03-.03-.02-.03-.03-.04-.04h0l-.03-.03-.02-.03-.03-.04-.03-.04-.02-.04-.03-.04-.02-.04-.02-.04-.02-.05-.02-.04h0v-.05s-.03-.05-.03-.05v-.05s-.02-.05-.02-.05v-.05s-.02-.05-.02-.05v-.05s-.01-.06-.01-.06v-.11h-.01v-.06s.01-.06.01-.06v-.11s.02-.05.02-.05v-.05s.02-.06.02-.06v-.05s.03-.05.03-.05v-.04h.01l.02-.05.02-.05.02-.04.02-.04.03-.04.02-.04.03-.04.03-.04.02-.03.03-.04h0l.04-.03.03-.03.03-.03.04-.03.04-.02.03-.03.04-.02.04-.02.04-.02.05-.02h0l.04-.02h.04s.05-.03.05-.03h.04s.05-.02.05-.02h.05s.04-.01.04-.01h.05s.05,0,.05,0h.2s.05,0,.05,0h.04s.05.02.05.02h.05s.04.03.04.03h.05s.04.03.04.03h0l.04.02.04.02.04.02.04.02.04.03.04.02.03.03.04.03.03.03.03.03h0l.03.04.03.03.03.04.03.04.02.04.03.04.02.04.02.04.02.05.02.05h0l.02.04v.05s.02.05.02.05v.06s.02.05.02.05v.05s.02.06.02.06v.11s.01.06.01.06Zm-.67,0h0v-.15s0-.04,0-.04v-.06s-.02-.03-.02-.03v-.06h-.01v-.03s-.02-.02-.02-.02v-.03s-.02-.02-.02-.02v-.02s-.02-.03-.02-.03v-.02s-.02-.02-.02-.02h-.02s0-.03,0-.03h0v-.02s-.03-.01-.03-.01v-.02s-.03-.01-.03-.01h0s-.02-.03-.02-.03h-.02s-.01-.02-.01-.02h-.04s-.02-.02-.02-.02h-.02s-.02,0-.02,0h-.02s-.02-.01-.02-.01h-.04s-.02,0-.02,0h-.12s-.02,0-.02,0h-.04s-.02.01-.02.01h-.02s-.01.02-.01.02h-.02s-.02.01-.02.01h-.02s-.01.02-.01.02l-.02.02h0s-.02.02-.02.02v.02s-.03.01-.03.01v.02h-.01v.02s-.03,0-.03,0v.02s-.02.02-.02.02v.03s-.02.02-.02.02v.02s-.02.03-.02.03v.02s-.01.03-.01.03h0v.03s-.02.03-.02.03v.06s-.01.03-.01.03v.04s-.01.03-.01.03v.12h0v.18s.01.03.01.03v.03s.01.03.01.03v.03s.02.03.02.03h0v.05s.02.02.02.02v.02s.02.03.02.03v.02s.02.02.02.02h0s.02.03.02.03v.02h.02s.02.03.02.03h0s.02.03.02.03h0s.02.02.02.02h.01s.02.02.02.02h.02s.02,0,.02,0h.01s.02.02.02.02h.04s.02,0,.02,0h.04s.02.01.02.01h.12s.02-.01.02-.01h.04s.02,0,.02,0h.02s.02-.02.02-.02h.04s.01-.02.01-.02h.02s.02-.02.02-.02h0s.02-.03.02-.03h0s.02-.03.02-.03h.01s0-.03,0-.03l.02-.02h0s.01-.03.01-.03v-.02s.02-.03.02-.03v-.02s.02-.02.02-.02v-.03s.02-.02.02-.02h0v-.03s.01-.03.01-.03v-.03s.02-.03.02-.03v-.1s0-.04,0-.04v-.07Zm2.35-1.09h0s.01-.02.01-.02h.01s0-.02,0-.02h.01s.01-.02.01-.02h.01s0-.02,0-.02h.02s0-.02,0-.02h.03s0-.02,0-.02h.03s.02,0,.02,0h.04s.02-.01.02-.01h.65l-3.76,4.94h0s-.01.02-.01.02h-.01s-.01.02-.01.02h0s-.01.02-.01.02h-.01s-.02.02-.02.02h-.01s-.01.02-.01.02h-.03s0,0,0,0h-.01s-.02.01-.02.01h-.02s-.01,0-.01,0h-.7l3.76-4.93Zm1.18,3.74h0v.17s-.02.05-.02.05v.1s-.03.05-.03.05v.05s-.03.05-.03.05l-.02.05h0l-.02.04-.02.05-.02.04-.02.04-.03.04-.03.04-.02.04-.03.04-.03.03-.03.03h0l-.04.04-.03.03-.04.02-.03.03-.04.03-.04.02-.04.03-.04.02-.04.02-.04.02h-.04s-.04.03-.04.03h-.05s-.04.02-.04.02h-.05s-.04.02-.04.02h-.05s-.04,0-.04,0h-.29s-.05-.02-.05-.02h-.04s-.05-.02-.05-.02h-.04s-.05-.03-.05-.03h-.04s-.04-.03-.04-.03l-.04-.02-.04-.02-.04-.03-.04-.02-.04-.03-.03-.03-.04-.02-.03-.03-.03-.04h0l-.03-.03-.03-.03-.03-.04-.02-.04-.03-.04-.02-.04-.03-.04-.02-.04-.02-.05v-.04h0l-.02-.05-.02-.05v-.05s-.02-.05-.02-.05v-.05s-.02-.05-.02-.05v-.11s-.01-.05-.01-.05v-.06h0v-.17s.01-.06.01-.06v-.05s.02-.05.02-.05v-.06s.02-.05.02-.05l.02-.05.02-.04h0v-.05s.03-.05.03-.05l.02-.04.03-.04.02-.04.03-.04.02-.04.03-.04.03-.03.03-.04h0l.03-.03.03-.03.04-.03.03-.03.04-.02.04-.03.04-.02.04-.02.04-.02.04-.02h0l.04-.02h.05s.04-.03.04-.03h.05s.04-.02.04-.02h.05s.05-.01.05-.01h.05s.05,0,.05,0h.19s.05,0,.05,0h.05s.05.02.05.02h.04s.05.03.05.03h.04s.04.03.04.03h0l.05.02.04.02.04.02.04.02.03.03.04.02.04.03.03.03.03.03.03.03h0l.03.04.03.03.03.04.03.04.02.04.03.04.02.04.02.04.02.05.02.05h0l.02.04v.05s.03.05.03.05v.06s.02.05.02.05v.05s.01.06.01.06v.05s.01.06.01.06v.06Zm-.67,0h0v-.15s0-.04,0-.04v-.06s-.01-.03-.01-.03v-.03s-.02-.03-.02-.03h0v-.03s0-.02,0-.02v-.03s-.02-.02-.02-.02v-.02s-.03-.03-.03-.03v-.02s-.02-.02-.02-.02h-.01s-.02-.03-.02-.03h0v-.02s-.02,0-.02,0l-.02-.02h-.01s-.02-.02-.02-.02l-.02-.02h-.01s-.02-.02-.02-.02h-.04s-.02-.02-.02-.02h-.03s-.02-.02-.02-.02h-.06s-.02-.01-.02-.01h-.13s-.02.01-.02.01h-.03s-.02.02-.02.02h-.04s-.02.02-.02.02h-.03s-.02.02-.02.02l-.02.02h0s-.02.02-.02.02v.02s-.02,0-.02,0l-.02.02h0v.02s-.02.01-.02.01l-.02.02v.02s-.02.03-.02.03v.02s-.02.02-.02.02v.03s-.02.02-.02.02v.03h0v.03s-.02.03-.02.03v.06s-.01.03-.01.03v.11s-.01.04-.01.04v.04h0v.11s.01.04.01.04v.09s.01.03.01.03v.03s.02.03.02.03h0v.05s.02.02.02.02v.03s.02.02.02.02v.02s.02.02.02.02l.02.02v.02s.02.01.02.01h0l.02.02h.01s0,.03,0,.03h.02s0,.02,0,.02h.02s.02.02.02.02h.01s.02.02.02.02h.02s.02,0,.02,0h.02s.02.02.02.02h.05s.02,0,.02,0h.17s.02,0,.02,0h.04s.01-.02.01-.02h.04s.02-.02.02-.02h.02s.01-.02.01-.02h.02s.02-.02.02-.02h.01s.02-.03.02-.03h.01s0-.03,0-.03h.02s.01-.03.01-.03v-.02s.02-.02.02-.02l.02-.02v-.02s.02-.03.02-.03v-.02s.01-.03.01-.03v-.02h0v-.03s.02-.03.02-.03v-.06s.01-.03.01-.03v-.07s0-.04,0-.04v-.07Z"/><path class="cls-3" d="m96.89,35.68v.65h-2.8v-.65h1.02v-2.96h0v-.17s0-.04,0-.04v-.15l-.73.61h-.01s0,.02,0,.02h0s-.02.02-.02.02h-.02s0,0,0,0h-.02s0,.01,0,.01h-.01s0,0,0,0h-.12s-.01,0-.01,0h-.03s0-.01,0-.01h-.01s0,0,0,0h0s-.01,0-.01,0h0s0-.02,0-.02h-.01s0-.01,0-.01h0s0-.02,0-.02h-.01s-.27-.38-.27-.38l1.55-1.32h.71v4.43h.91Z"/><path class="cls-3" d="m101.22,33.79h0v.26s0,.13,0,.13v.12s-.03.11-.03.11v.12s-.03.11-.03.11l-.02.1-.03.11-.02.1h0l-.03.09-.03.09-.04.09-.03.09-.04.08-.04.08-.05.08-.04.07-.05.07-.05.06h0l-.05.06-.05.06-.05.06-.06.05-.06.05-.06.05-.06.04-.07.04-.06.04-.07.03h0l-.07.03-.07.03-.07.02-.07.02-.07.02h-.08s-.07.02-.07.02h-.08s-.08,0-.08,0h-.31s-.07-.02-.07-.02h-.08s-.07-.03-.07-.03l-.07-.02-.07-.02-.07-.03-.07-.03h0l-.07-.03-.06-.04-.07-.04-.06-.04-.06-.05-.05-.05-.06-.05-.05-.06-.06-.06-.05-.06h0l-.05-.06-.04-.07-.05-.07-.04-.08-.04-.08-.04-.08-.03-.09-.04-.09-.03-.09-.03-.09h0l-.02-.1-.03-.11-.02-.1-.02-.11v-.12s-.02-.11-.02-.11v-.12s-.02-.13-.02-.13v-.13s0-.13,0-.13h0v-.26s.02-.12.02-.12v-.12s.02-.12.02-.12v-.11s.03-.11.03-.11l.02-.11.03-.1.02-.1h0l.03-.1.03-.09.04-.09.03-.08.04-.09.04-.07.04-.08.05-.07.04-.07.05-.07h0l.05-.06.06-.06.05-.05.06-.06.05-.04.06-.05.06-.04.07-.04.06-.04.07-.03h0l.07-.03.07-.03.07-.02.07-.02.07-.02h.08s.07-.02.07-.02h.08s.08-.02.08-.02h.23s.08.02.08.02h.07s.08.02.08.02l.07.02.07.02.07.02.07.03.07.03h0l.07.03.06.04.07.04.06.04.06.05.06.04.06.06.05.05.05.06.05.06h0l.05.07.05.07.04.07.05.08.04.07.04.09.03.08.04.09.03.09.03.1h0l.02.1.03.1.02.11.02.11v.11s.03.12.03.12v.12s0,.12,0,.12v.13s0,.13,0,.13Zm-.89,0h0v-.11s0-.1,0-.1v-.2s0-.09,0-.09v-.09s-.02-.08-.02-.08l-.02-.09v-.07s-.03-.08-.03-.08h0v-.07s-.03-.07-.03-.07l-.02-.06-.02-.06-.02-.06-.02-.06-.03-.05-.02-.05-.03-.05-.02-.04h0l-.03-.04-.03-.04-.03-.04-.03-.03-.03-.03-.03-.03-.03-.03-.03-.02-.04-.02-.03-.02h0l-.04-.02h-.03s-.04-.03-.04-.03h-.03s-.04-.02-.04-.02h-.07s-.04-.02-.04-.02h-.19s-.03.02-.03.02h-.07s-.04.02-.04.02l-.04.02h-.03s-.04.03-.04.03h0l-.03.02-.03.02-.04.02-.03.03-.03.03-.03.03-.03.03-.03.04-.02.04-.03.04h0l-.03.04-.02.05-.03.05-.02.05-.02.06-.02.06-.02.06-.02.06-.02.07-.02.07h0v.08s-.02.07-.02.07v.09s-.02.08-.02.08v.09s-.02.09-.02.09v.1s0,.1,0,.1v.21h0v.41s.02.1.02.1v.09s.02.08.02.08v.08s.02.08.02.08v.07h0l.02.08.02.06.02.07.02.06.02.06.02.05.02.06.03.05.02.05.03.04h0l.03.04.02.04.03.04.03.03.03.03.03.03.03.03.04.02.03.02.03.02h0l.04.02h.03s.04.02.04.02h.04s.03.02.03.02h.04s.03.02.03.02h.11s.04,0,.04,0h.11s.04-.02.04-.02h.04s.03-.02.03-.02h.04s.03-.02.03-.02l.04-.02h0l.03-.02.04-.02.03-.02.03-.03.03-.03.03-.03.03-.03.03-.04.03-.04.03-.04h0l.02-.04.03-.05.02-.05.03-.06.02-.05.02-.06.02-.06.02-.07.02-.06v-.08h0l.02-.07v-.08s.03-.08.03-.08v-.08s.02-.09.02-.09v-.19s0-.1,0-.1v-.22Z"/><path class="cls-3" d="m104.01,32.49h0v.11s0,.05,0,.05v.06s-.02.05-.02.05v.05s-.02.05-.02.05l-.02.05v.05s-.03.04-.03.04h0l-.02.05-.02.04-.02.05-.03.04-.02.04-.03.04-.03.04-.03.03-.03.04-.03.03h0l-.03.03-.03.03-.04.03-.04.03-.03.02-.04.03-.04.02-.04.02-.04.02-.04.02h0l-.05.02h-.04s-.04.02-.04.02l-.05.02h-.04s-.05,0-.05,0h-.04s-.05.01-.05.01h-.04s-.05,0-.05,0h-.1s-.05,0-.05,0h-.04s-.05-.01-.05-.01h-.05s-.04-.03-.04-.03h-.05s-.04-.02-.04-.02l-.04-.02h0l-.05-.02-.04-.02-.04-.02-.04-.02-.03-.03-.04-.02-.04-.03-.03-.03-.03-.03-.04-.03h0l-.03-.03-.02-.04-.03-.03-.03-.04-.02-.04-.03-.04-.02-.04-.02-.05-.02-.04-.02-.05h0v-.04s-.03-.05-.03-.05v-.05s-.02-.05-.02-.05v-.05s-.02-.05-.02-.05v-.06s0-.05,0-.05v-.11h-.01v-.06s.01-.06.01-.06v-.11s.02-.05.02-.05v-.06s.02-.05.02-.05v-.05s.03-.05.03-.05v-.05h.01l.02-.04.02-.05.02-.04.02-.05.03-.04.02-.04.03-.04.03-.03.02-.04.03-.03h0l.04-.03.03-.03.03-.03.04-.03.04-.03.03-.02.04-.02.04-.02.04-.02.05-.02h0l.04-.02.04-.02h.05s.04-.02.04-.02h.05s.05-.02.05-.02h.04s.05,0,.05,0h.3s.04.02.04.02h.05s.05.02.05.02h.04s.05.03.05.03l.04.02h0l.04.02.04.02.04.02.04.02.04.02.04.03.03.03.04.03.03.03.03.03h0l.03.03.03.04.03.03.03.04.02.04.03.04.02.05.02.04.02.05.02.04h0l.02.05v.05s.02.05.02.05v.05s.02.06.02.06v.05s.02.05.02.05v.12s0,.06,0,.06Zm-.67,0h0v-.16s-.01-.03-.01-.03v-.07s-.02-.03-.02-.03v-.05h-.01v-.03s-.02-.03-.02-.03v-.02s-.02-.03-.02-.03v-.02s-.02-.02-.02-.02v-.02s-.02-.02-.02-.02l-.02-.02v-.02h-.02s-.02-.03-.02-.03h0s-.02-.02-.02-.02v-.02s-.03,0-.03,0h-.02s0-.02,0-.02h-.02s-.02-.01-.02-.01h-.02s-.02-.02-.02-.02h-.04s-.02,0-.02,0h-.02s-.02-.01-.02-.01h-.16s-.02.01-.02.01h-.02s-.02,0-.02,0h-.02s0,.02,0,.02h-.04s-.02.02-.02.02h0s-.02.02-.02.02v.02s-.03,0-.03,0h0s-.02.03-.02.03h0s-.01.03-.01.03l-.02.02v.02s-.02.02-.02.02v.02s-.02.02-.02.02v.03s-.02.02-.02.02v.03s-.01.03-.01.03h0v.02s-.02.03-.02.03v.07s-.01.03-.01.03v.03s0,.04,0,.04v.12h0v.18s0,.03,0,.03v.03s.01.03.01.03v.03s.02.03.02.03h0v.04s.02.03.02.03v.02s.02.02.02.02v.02s.02.02.02.02v.02s.03.02.03.02v.02h.02s.02.03.02.03h0s.02.02.02.02h0s.02.03.02.03h0s.02.02.02.02h.04s0,.02,0,.02h.04s.02.01.02.01h.02s.02,0,.02,0h.06s.02,0,.02,0h.04s.02,0,.02,0h.06s.02,0,.02,0h.02s.02-.01.02-.01h.02s.02-.02.02-.02h.03s.02-.02.02-.02l.02-.02h0s.02-.02.02-.02h0s.02-.03.02-.03h0s.01-.03.01-.03l.02-.02v-.02s.02-.02.02-.02v-.02s.02-.02.02-.02v-.02s.02-.03.02-.03v-.02s.02-.02.02-.02h0v-.03s.01-.03.01-.03v-.03s.02-.03.02-.03v-.1s.01-.04.01-.04v-.07Zm2.35-1.09h0v-.02s.02,0,.02,0h0s.01-.02.01-.02h.02s0-.02,0-.02h0s.02-.02.02-.02h0s.01-.02.01-.02h.03s.02-.02.02-.02h.05s.02,0,.02,0h.67l-3.76,4.94h-.01s0,.02,0,.02h0s-.01.02-.01.02h0s0,.02,0,.02h-.01s-.02.02-.02.02h-.02s-.01.02-.01.02h-.02s-.01,0-.01,0h0s-.02.01-.02.01h-.05s-.02,0-.02,0h-.66l3.76-4.93Zm1.18,3.74h0v.16s-.02.06-.02.06v.1s-.03.05-.03.05v.05s-.03.05-.03.05l-.02.04h0l-.02.05-.02.04-.02.05-.02.04-.03.04-.03.04-.02.04-.03.03-.03.04-.03.03h0l-.04.03-.03.03-.04.03-.03.03-.04.02-.04.03-.04.02-.04.02-.04.02-.04.02h0l-.04.02h-.04s-.05.03-.05.03h-.04s-.05.02-.05.02h-.04s-.05,0-.05,0h-.04s-.05.01-.05.01h-.19s-.05-.01-.05-.01h-.05s-.04-.02-.04-.02h-.05s-.04-.03-.04-.03h-.05s-.04-.03-.04-.03h0l-.04-.02-.04-.02-.04-.02-.04-.02-.04-.03-.04-.02-.03-.03-.04-.03-.03-.03-.03-.03h0l-.03-.03-.03-.04-.03-.03-.02-.04-.03-.04-.02-.04-.03-.04-.02-.05-.02-.04v-.05h0l-.02-.04-.02-.05v-.05s-.02-.05-.02-.05v-.05s-.02-.05-.02-.05v-.11s0-.06,0-.06v-.05h0v-.18s0-.05,0-.05v-.05s.02-.06.02-.06v-.05s.02-.05.02-.05l.02-.05.02-.05h0v-.04s.03-.05.03-.05l.02-.04.03-.05.02-.04.03-.04.02-.03.03-.04.03-.04.03-.03h0l.03-.03.03-.03.04-.03.03-.03.04-.03.04-.02.04-.02.04-.02.04-.02.04-.02h0l.04-.02.05-.02h.04s.05-.02.05-.02h.04s.05-.02.05-.02h.05s.05-.01.05-.01h.29s.05.02.05.02h.05s.04.02.04.02h.05s.04.03.04.03l.04.02h0l.05.02.04.02.04.02.04.02.03.02.04.03.04.03.03.03.03.03.03.03h0l.03.03.03.04.03.04.03.03.02.04.03.04.02.05.02.04.02.05.02.04h0l.02.05v.05s.03.05.03.05v.05s.02.06.02.06v.05s.01.05.01.05v.06s0,.06,0,.06v.06Zm-.67,0h0v-.16s-.01-.03-.01-.03v-.07s0-.03,0-.03v-.03s-.02-.02-.02-.02h0v-.03s0-.03,0-.03v-.02s-.02-.03-.02-.03v-.02s-.03-.02-.03-.02v-.02s-.02-.02-.02-.02v-.02s-.03-.02-.03-.02h0s0-.03,0-.03h-.02s0-.02,0-.02l-.02-.02h-.02s0-.02,0-.02h-.02s-.02-.02-.02-.02h-.04s0-.02,0-.02h-.04s-.02-.01-.02-.01h-.02s-.02,0-.02,0h-.17s-.02,0-.02,0h0s-.02.01-.02.01h-.02s-.02.02-.02.02h-.04s0,.02,0,.02h-.02s-.02.02-.02.02v.02s-.03.01-.03.01h0s0,.03,0,.03h-.02s-.01.03-.01.03v.02s-.03.02-.03.02v.02s-.02.02-.02.02v.02s-.02.03-.02.03v.02s-.02.03-.02.03v.03h0v.02s-.02.03-.02.03v.07s0,.03,0,.03v.07s0,.04,0,.04v.08h0v.14s0,.04,0,.04v.06s0,.03,0,.03v.03s.02.03.02.03h0v.05s.02.02.02.02v.02s.02.03.02.03v.02s.02.02.02.02h.02s0,.03,0,.03v.02h.03s0,.03,0,.03h0s.02.03.02.03h0s.02.02.02.02h.02s0,.02,0,.02h.02s.02,0,.02,0h.02s.02.02.02.02h.03s.02.01.02.01h.04s.02,0,.02,0h.13s.02,0,.02,0h.04s.02-.01.02-.01h0s.02-.02.02-.02h.04s.02-.02.02-.02h0s.02-.02.02-.02h.02s0-.03,0-.03h.02s0-.03,0-.03h0s.02-.03.02-.03v-.02s.02-.01.02-.01v-.02s.03-.02.03-.02v-.03s.02-.02.02-.02v-.02s0-.03,0-.03v-.02h0v-.03s.02-.03.02-.03v-.06s0-.03,0-.03v-.07s.01-.04.01-.04v-.07Z"/><path class="cls-3" d="m105.52,53.09v.65h-2.8v-.65h1.02v-2.95h0v-.15s.01-.03.01-.03v-.19l-.73.61h0s0,.02,0,.02h-.01s-.02.02-.02.02h-.02s-.01.02-.01.02h-.04s0,.01,0,.01h-.13s0-.01,0-.01h-.02s-.01-.01-.01-.01h0s0,0,0,0h-.01s0-.01,0-.01h0s-.01-.02-.01-.02h0s0-.02,0-.02h-.01v-.02l-.28-.37,1.55-1.32h.71v4.43h.91Z"/><path class="cls-3" d="m107.79,50.51l-.18.22h0l.03-.02h.03s.03-.02.03-.02l.03-.02h.04s.03-.02.03-.02h.03s.03-.02.03-.02h.04s.03-.01.03-.01h.03s.04-.02.04-.02h.03s.04,0,.04,0h.04s.03-.01.03-.01h.12s.04-.01.04-.01h.11s.06.01.06.01h.05s.06.02.06.02h.06s.05.02.05.02h.06s.05.03.05.03l.05.02h0l.06.02.05.02.05.02.05.03.05.03.05.03.04.03.05.03.04.04.05.04h0l.04.03.03.05.04.04.04.04.03.05.03.05.04.05.02.05.03.05.03.06h0l.02.06.02.06.02.06.02.06v.07s.02.06.02.06v.07s.02.07.02.07v.15h0v.21s-.02.07-.02.07v.07s-.02.06-.02.06l-.02.07-.02.06-.02.06-.03.07h0l-.02.06-.03.06-.03.06-.04.05-.03.06-.04.05-.04.05-.04.05-.04.05-.05.05h0l-.05.04-.05.05-.05.04-.05.04-.06.03-.06.04-.06.03-.06.03-.06.03-.07.03h0l-.06.03-.07.02-.07.02-.07.02h-.08s-.07.02-.07.02h-.07s-.08.02-.08.02h-.16s-.08,0-.08,0h-.15s-.08-.02-.08-.02h-.07s-.07-.02-.07-.02l-.08-.02-.06-.02-.07-.02-.07-.02h0l-.06-.03-.06-.03-.06-.03-.06-.03-.06-.04-.05-.04-.05-.04-.05-.04-.05-.04-.05-.05h0l-.04-.04-.04-.05-.04-.05-.04-.06-.04-.05-.03-.06-.03-.06-.03-.06-.03-.06-.03-.07h0l-.02-.06-.02-.07-.02-.07v-.07s-.03-.07-.03-.07v-.08s-.02-.07-.02-.07v-.16s0-.08,0-.08h0v-.07s0-.07,0-.07v-.07s.02-.07.02-.07v-.08s.03-.07.03-.07v-.07s.04-.08.04-.08l.02-.07.03-.08h0l.03-.07.03-.08.04-.08.04-.08.04-.07.05-.08.05-.08.05-.08.06-.08.06-.08,1.21-1.63h0s.02-.03.02-.03h0s.02-.03.02-.03h.02s0-.03,0-.03h.02s.03-.03.03-.03h.02s.02-.02.02-.02h.03s.02-.02.02-.02h.03s.03-.02.03-.02h.05s.03-.01.03-.01h.03s.03,0,.03,0h.8l-1.5,1.84Zm.2,2.58h.08s.04-.01.04-.01h.07s.04-.02.04-.02h.04s.03-.02.03-.02h.04s.03-.02.03-.02h0l.04-.02h.03s.03-.03.03-.03l.04-.02.03-.02.03-.02.02-.02.03-.02.03-.02.02-.03h0l.03-.02.02-.03.02-.03.02-.03.02-.03.02-.03.02-.03.02-.03v-.03s.03-.03.03-.03h0v-.04s.02-.03.02-.03v-.04s.02-.04.02-.04v-.03s.02-.04.02-.04v-.08s0-.04,0-.04v-.04h0v-.12s0-.04,0-.04v-.04s-.02-.04-.02-.04v-.07s-.03-.04-.03-.04v-.03h0v-.04s-.03-.03-.03-.03v-.03s-.03-.04-.03-.04l-.02-.03-.02-.02-.02-.03-.02-.03-.02-.02-.03-.03h0l-.02-.02-.03-.03-.03-.02-.02-.02-.03-.02h-.03s-.03-.03-.03-.03l-.04-.02h-.03s-.03-.02-.03-.02h0l-.04-.02h-.03s-.04-.02-.04-.02h-.07s-.04-.02-.04-.02h-.08s-.04-.01-.04-.01h-.12s-.04.01-.04.01h-.08s-.03.02-.03.02h-.04s-.04.02-.04.02h-.03s-.04.02-.04.02h0l-.03.02h-.03s-.03.03-.03.03l-.03.02-.03.02-.03.02-.03.02-.02.02-.03.02-.02.03h0l-.03.02-.02.03-.02.03-.02.02-.02.03-.02.03v.03s-.03.04-.03.04l-.02.03v.03h0v.04s-.02.03-.02.03v.04s-.02.03-.02.03v.04s-.01.04-.01.04v.03s0,.04,0,.04v.08h-.01v.08s.01.04.01.04v.08s0,.04,0,.04v.04s.02.03.02.03v.04s.02.03.02.03h0v.04s.03.03.03.03v.03s.03.03.03.03v.03s.03.03.03.03l.02.03.02.03.02.02.02.03h0l.03.02.02.02.03.03.02.02.03.02.03.02h.03s.03.03.03.03l.03.02h.04s.03.02.03.02h.04s.03.02.03.02h.04s.04.02.04.02h.04s.04.01.04.01h.08s.05.01.05.01Z"/><path class="cls-3" d="m112.64,49.9h0v.11s-.01.05-.01.05v.06s-.02.05-.02.05v.05s-.02.05-.02.05l-.02.05v.05s-.03.05-.03.05h0l-.02.04-.02.05-.02.04-.03.04-.02.04-.03.04-.03.04-.02.03-.04.04-.03.03h0l-.03.03-.03.03-.04.03-.03.03-.04.02-.04.03-.04.02-.04.02-.04.02-.04.02h0l-.04.02h-.05s-.04.03-.04.03h-.05s-.04.02-.04.02h-.09s-.05.02-.05.02h-.24s-.04-.02-.04-.02h-.1s-.04-.02-.04-.02l-.05-.02h-.04s-.04-.03-.04-.03h0l-.05-.02-.04-.02-.04-.02-.04-.02-.03-.03-.04-.02-.04-.03-.03-.03-.03-.03-.03-.03h0l-.04-.03-.02-.04-.03-.03-.03-.04-.02-.04-.03-.04-.02-.04-.02-.04-.02-.05-.02-.04h0v-.05s-.03-.05-.03-.05v-.05s-.02-.05-.02-.05v-.05s-.02-.05-.02-.05v-.06s-.01-.05-.01-.05v-.11h0v-.23s.02-.05.02-.05v-.06s.02-.05.02-.05v-.05s.03-.05.03-.05v-.05h0l.02-.04.02-.05.02-.04.02-.04.03-.05.02-.04.03-.03.03-.04.02-.04.04-.03h0l.03-.03.03-.03.03-.03.04-.03.04-.02.03-.03.04-.02.04-.02.04-.02.05-.02h0l.04-.02h.04s.05-.03.05-.03h.04s.05-.02.05-.02h.05s.04,0,.04,0h.05s.05-.01.05-.01h.2s.05.01.05.01h.05s.04.02.04.02h.05s.04.03.04.03h.05s.04.03.04.03h0l.04.02.04.02.04.02.04.02.04.03.04.02.03.03.04.03.03.03.03.03h0l.04.03.02.04.03.04.03.03.02.04.03.05.02.04.02.04.02.05.02.04h0l.02.05v.05s.02.05.02.05l.02.05v.06s0,.05,0,.05v.06s0,.05,0,.05v.06s.01.06.01.06Zm-.67,0h0v-.15s0-.04,0-.04v-.06s-.02-.04-.02-.04v-.05h0v-.03s-.02-.03-.02-.03v-.02s-.02-.02-.02-.02v-.03s-.02-.02-.02-.02v-.02s-.02-.02-.02-.02l-.02-.02h0s0-.03,0-.03l-.02-.02h0s-.02-.02-.02-.02v-.02s-.03-.01-.03-.01h-.02s0-.02,0-.02h-.02s-.02-.01-.02-.01h-.02s-.02-.02-.02-.02h-.04s-.02-.01-.02-.01h-.02s-.02-.01-.02-.01h-.16s-.02.01-.02.01h-.02s-.02.01-.02.01h-.02s-.01.02-.01.02h-.04s-.02.02-.02.02h0s-.02.02-.02.02v.02s-.03.01-.03.01h0s-.02.03-.02.03v.02h-.02s-.02.03-.02.03v.02s-.02.02-.02.02v.02s-.02.03-.02.03v.02s-.02.02-.02.02v.06h0v.03s-.02.02-.02.02v.07s0,.03,0,.03v.04s-.01.03-.01.03v.12h0v.18s.01.03.01.03v.03s0,.03,0,.03v.03s.02.03.02.03h0v.02s0,.03,0,.03v.02s.02.02.02.02v.02s.02.02.02.02v.02s.02.02.02.02l.02.02v.02h.02s.02.03.02.03h0s.02.02.02.02v.02s.03.01.03.01h0s.02.02.02.02h.02s.02.01.02.01h.01s.02.02.02.02h.04s.02.01.02.01h.06s.02.01.02.01h.08s.02-.01.02-.01h.06s.02-.01.02-.01h.02s.02-.02.02-.02h.04s0-.02,0-.02h.02s.02-.02.02-.02v-.02s.03-.01.03-.01h0s.02-.03.02-.03h0s0-.03,0-.03l.02-.02v-.02s.02-.02.02-.02v-.02s.02-.02.02-.02v-.02s.02-.02.02-.02v-.03s.02-.02.02-.02h0v-.03s0-.03,0-.03v-.03s.02-.03.02-.03v-.1s0-.04,0-.04v-.07Zm2.35-1.09h0s.01-.02.01-.02h0s.01-.02.01-.02h0s0-.02,0-.02h.01s.02-.02.02-.02h.01s0-.02,0-.02h0s.02,0,.02,0h0s.02-.01.02-.01h.01s.02-.01.02-.01h.02s.02,0,.02,0h.67l-3.76,4.94h0s0,.02,0,.02h-.01s0,.02,0,.02h0s-.01.02-.01.02h0s0,.02,0,.02h-.02s0,.01,0,.01h-.01s-.02.02-.02.02h-.02s-.02.01-.02.01h-.03s-.02.01-.02.01h-.68l3.76-4.93Zm1.18,3.74h0v.16s-.01.06-.01.06v.05s-.02.05-.02.05l-.02.05v.05s-.03.05-.03.05l-.02.05h0l-.02.04-.02.05-.02.04-.02.04-.03.04-.02.04-.03.04-.03.03-.03.04-.03.03h0l-.04.03-.03.03-.03.03-.04.03-.04.03-.04.02-.03.02-.04.03-.05.02h-.04s-.04.03-.04.03l-.04.02h-.05s-.04.02-.04.02h-.05s-.04.02-.04.02h-.09s-.05.01-.05.01h-.19s-.05-.01-.05-.01h-.05s-.04-.02-.04-.02h-.05s-.04-.02-.04-.02l-.05-.02-.04-.02h-.04s-.04-.03-.04-.03l-.04-.03-.04-.02-.04-.02-.04-.03-.03-.03-.04-.03-.03-.03-.03-.03h0l-.03-.03-.03-.04-.03-.03-.02-.04-.03-.04-.02-.04-.02-.04-.02-.04-.02-.05-.02-.04h0l-.02-.05v-.05s-.03-.05-.03-.05v-.05s-.02-.05-.02-.05v-.05s0-.06,0-.06v-.05s-.01-.06-.01-.06v-.05h0v-.17s.01-.06.01-.06v-.05s.02-.06.02-.06v-.05s.03-.05.03-.05v-.05s.03-.05.03-.05h0l.02-.04.02-.05.02-.04.02-.04.02-.05.03-.03.02-.04.03-.04.03-.03.03-.04h0l.03-.03.03-.03.04-.03.03-.03.04-.02.04-.03.04-.02.04-.02.04-.02.04-.02h0l.04-.02h.05s.04-.03.04-.03h.05s.04-.02.04-.02h.05s.05-.01.05-.01h.05s.05,0,.05,0h.2s.04,0,.04,0h.05s.05.02.05.02h.04s.05.03.05.03h.04s.04.03.04.03h0l.05.02.04.02.04.02.04.02.03.03.04.02.04.03.03.03.03.03.03.03h0l.04.04.03.03.02.04.03.04.03.03.02.05.02.04.02.04.02.05.02.04h0l.02.05v.05s.03.05.03.05v.05s.02.06.02.06v.05s0,.06,0,.06v.05s.01.06.01.06v.06Zm-.67,0h0v-.19s0-.03,0-.03v-.03s0-.04,0-.04v-.02s-.02-.03-.02-.03h0v-.06s-.02-.02-.02-.02v-.02s-.02-.03-.02-.03v-.02s-.03-.02-.03-.02v-.02s-.02-.02-.02-.02h-.02s0-.03,0-.03v-.02s-.03-.01-.03-.01h-.01s-.02-.03-.02-.03h-.02s-.01-.02-.01-.02h-.02s-.02-.02-.02-.02h-.04s-.01-.02-.01-.02h-.04s-.02,0-.02,0h-.02s-.02-.01-.02-.01h-.16s-.02.01-.02.01h-.02s-.02,0-.02,0h-.02s-.02.02-.02.02h-.03s-.02.02-.02.02h-.02s-.01.02-.01.02l-.02.02h-.01s-.02.02-.02.02v.02s-.03.02-.03.02h0s0,.03,0,.03v.02s-.03.02-.03.02v.02s-.02.03-.02.03v.02s-.02.02-.02.02v.06h0v.03s0,.02,0,.02v.04s-.01.03-.01.03v.03s0,.04,0,.04v.07s-.01.04-.01.04v.04h0v.11s.01.03.01.03v.07s0,.03,0,.03v.03s.01.03.01.03v.03h0v.02s0,.03,0,.03v.02s.02.03.02.03v.02s.02.02.02.02l.02.02v.02s.02,0,.02,0v.02h0l.02.02h.01s.02.03.02.03h.01s.02.02.02.02h.01s.02.02.02.02h.02s.01.02.01.02h.02s.02,0,.02,0h.02s.02.01.02.01h.02s.02.01.02.01h.02s.02.01.02.01h.16s.02-.01.02-.01h.02s.02-.01.02-.01h.01s.02-.01.02-.01h.02s.02-.02.02-.02h.02s.01-.02.01-.02h.02s.02-.02.02-.02h.01s.02-.03.02-.03h.01s0-.03,0-.03h0l.02-.02h0s0-.03,0-.03l.02-.02v-.02s.02-.02.02-.02v-.03s.02-.02.02-.02v-.03s0-.02,0-.02h0v-.03s.02-.03.02-.03v-.06s0-.03,0-.03v-.04s0-.03,0-.03v-.11Z"/></svg>