<?xml version="1.0" encoding="UTF-8"?><svg id="Capa_1" xmlns="http://www.w3.org/2000/svg" viewBox="0 0 126.1 63.04"><defs><style>.cls-1{fill:#fa4d57;}.cls-1,.cls-2,.cls-3,.cls-4{stroke-width:0px;}.cls-2{fill:#b5b5b5;}.cls-3{fill:#fff;}.cls-4{fill:#003b88;}</style></defs><polygon class="cls-4" points="73.06 33.15 73.78 31.01 74.49 28.88 75.21 26.74 75.92 24.61 76.64 22.47 77.36 20.34 78.07 18.2 78.79 16.07 79.5 13.93 80.22 11.8 80.93 9.66 81.65 7.53 82.36 5.39 83.08 3.26 81.01 2.6 78.92 2.02 76.8 1.51 74.68 1.07 72.54 .71 70.39 .42 68.23 .2 66.06 .06 63.89 0 61.72 0 59.55 .09 57.38 .25 55.22 .48 53.07 .78 50.94 1.16 48.81 1.62 46.71 2.14 44.62 2.74 42.55 3.41 40.51 4.16 38.5 4.97 36.51 5.85 34.56 6.79 32.64 7.81 30.76 8.89 28.91 10.03 27.11 11.24 25.34 12.51 23.63 13.83 21.96 15.22 20.33 16.66 18.76 18.16 17.24 19.71 15.78 21.32 14.37 22.97 13.02 24.67 11.73 26.41 10.5 28.2 9.33 30.03 8.22 31.9 7.18 33.81 6.21 35.75 5.3 37.72 4.47 39.73 3.7 41.76 3 43.81 2.37 45.89 1.82 47.99 1.34 50.11 .93 52.24 .59 54.39 .33 56.54 .15 58.7 .03 60.87 0 63.04 2.25 63.04 4.5 63.04 6.75 63.04 9 63.04 11.26 63.04 13.51 63.04 15.76 63.04 18.01 63.04 20.26 63.04 22.52 63.04 24.77 63.04 27.02 63.04 29.27 63.04 31.52 63.04 31.6 60.83 31.83 58.64 32.22 56.46 32.76 54.31 33.44 52.21 34.27 50.16 35.25 48.18 36.36 46.27 37.6 44.44 38.97 42.7 40.45 41.06 42.05 39.53 43.75 38.12 45.54 36.82 47.42 35.66 49.38 34.63 51.41 33.75 53.49 33 55.62 32.41 57.78 31.96 59.98 31.67 62.18 31.53 64.39 31.55 66.6 31.72 68.78 32.04 70.94 32.52 73.06 33.15"/><polygon class="cls-2" points="85.23 40.64 86.82 39.04 88.4 37.44 89.99 35.84 91.57 34.24 93.16 32.64 94.74 31.04 96.32 29.44 97.91 27.84 99.49 26.24 101.08 24.64 102.66 23.04 104.25 21.44 105.83 19.84 107.42 18.24 105.81 16.71 104.16 15.23 102.45 13.82 100.69 12.46 98.89 11.17 97.05 9.94 95.16 8.78 93.23 7.68 91.26 6.65 89.26 5.7 87.23 4.81 85.17 4 83.08 3.26 82.36 5.39 81.65 7.53 80.93 9.66 80.22 11.8 79.5 13.93 78.79 16.07 78.07 18.2 77.36 20.34 76.64 22.47 75.92 24.61 75.21 26.74 74.49 28.88 73.78 31.01 73.06 33.15 75.31 34 77.49 35.02 79.58 36.2 81.57 37.53 83.46 39.02 85.23 40.64"/><polygon class="cls-1" points="94.58 63.04 96.83 63.04 99.08 63.04 101.33 63.04 103.58 63.04 105.84 63.04 108.09 63.04 110.34 63.04 112.59 63.04 114.84 63.04 117.1 63.04 119.35 63.04 121.6 63.04 123.85 63.04 126.1 63.04 126.07 60.88 125.96 58.71 125.77 56.56 125.51 54.4 125.18 52.26 124.77 50.14 124.29 48.02 123.74 45.93 123.11 43.85 122.42 41.8 121.65 39.77 120.82 37.77 119.92 35.8 118.95 33.87 117.91 31.96 116.81 30.1 115.65 28.27 114.42 26.48 113.14 24.74 111.79 23.04 110.39 21.39 108.93 19.79 107.42 18.24 105.83 19.84 104.25 21.44 102.66 23.04 101.08 24.64 99.49 26.24 97.91 27.84 96.32 29.44 94.74 31.04 93.16 32.64 91.57 34.24 89.99 35.84 88.4 37.44 86.82 39.04 85.23 40.64 86.78 42.29 88.21 44.05 89.51 45.9 90.67 47.85 91.69 49.87 92.56 51.96 93.28 54.11 93.85 56.3 94.25 58.53 94.5 60.78 94.58 63.04"/><path class="cls-3" d="m30.32,23.97l-.18.21h.03s.03-.03.03-.03h.03s.03-.02.03-.02h.03s.04-.02.04-.02h.03s.03-.02.03-.02h.03s.04-.02.04-.02h.03s.04,0,.04,0h.03s.04-.02.04-.02h.11s.04-.01.04-.01h.25s.05.01.05.01h.06s.05.02.05.02h.06s.05.03.05.03l.06.02h.05s.06.03.06.03l.05.02.05.03.05.02.05.03.05.03.04.03.05.04.04.03.04.04h0l.04.04.04.04.04.04.04.05.03.04.03.05.03.05.03.05.03.06.03.05h0l.02.06.02.06.02.06.02.07v.06s.02.07.02.07v.07s.02.07.02.07v.15h0v.21s-.02.06-.02.06v.07s-.02.07-.02.07l-.02.06-.02.07-.02.06-.03.06h0l-.02.06-.03.06-.03.06-.04.06-.03.05-.04.05-.04.06-.04.05-.05.05-.04.04h0l-.05.05-.05.04-.05.04-.06.04-.05.04-.06.03-.06.04-.06.03-.06.03-.07.03h0l-.07.02-.06.02-.07.02-.07.02-.08.02h-.07s-.08.02-.08.02h-.15s-.08,0-.08,0h-.16s-.08,0-.08,0h-.07s-.07-.02-.07-.02l-.08-.02h-.07s-.07-.03-.07-.03l-.06-.02-.07-.03h0l-.06-.03-.06-.03-.06-.03-.06-.03-.06-.03-.05-.04-.05-.04-.05-.04-.05-.05-.05-.04h0l-.04-.05-.05-.05-.04-.05-.03-.05-.04-.06-.03-.06-.04-.05-.03-.06-.02-.07-.03-.06h0l-.02-.07-.02-.07-.02-.07-.02-.07v-.07s-.02-.07-.02-.07v-.08s-.01-.07-.01-.07v-.08s-.01-.08-.01-.08h0v-.14s.01-.08.01-.08l.02-.07v-.07s.02-.08.02-.08l.02-.07.02-.07.03-.08.03-.07h0l.03-.08.03-.08.04-.07.04-.08.04-.08.05-.08.05-.08.05-.08.06-.08.06-.08,1.21-1.62h0v-.02s.02-.01.02-.01l.02-.02.02-.02h.01s.02-.02.02-.02l.02-.02h.02s.03-.02.03-.02l.02-.02h.02s.03-.02.03-.02h.03s.02,0,.02,0h.03s.03-.02.03-.02h.12s.77-.01.77-.01l-1.5,1.85Zm.19,2.57h.16s.04-.02.04-.02h.08s.03-.02.03-.02h.04s.03-.03.03-.03h.04s.03-.03.03-.03l.03-.02h.03s.03-.03.03-.03l.03-.02.03-.02.03-.03.03-.02.02-.02h0l.03-.03.02-.03.02-.02.02-.03.02-.03.02-.03.02-.03.02-.03v-.04s.03-.03.03-.03h0v-.03s.02-.04.02-.04v-.03s.02-.04.02-.04v-.04s.02-.04.02-.04v-.11s0-.04,0-.04h0v-.09s0-.04,0-.04v-.08s-.02-.03-.02-.03v-.04s-.02-.04-.02-.04v-.03s-.02-.04-.02-.04h0v-.03s-.03-.04-.03-.04v-.03s-.03-.03-.03-.03l-.02-.03-.02-.03-.02-.03-.02-.02-.03-.03-.02-.02h0l-.02-.03-.03-.02-.03-.02-.03-.02-.02-.02-.03-.02-.03-.02h-.04s-.03-.03-.03-.03h-.03s-.04-.02-.04-.02h-.03s-.04-.02-.04-.02h-.04s-.03-.02-.03-.02h-.08s-.04,0-.04,0h-.24s-.04,0-.04,0h-.04s-.03.02-.03.02h-.04s-.03.02-.03.02l-.04.02h-.03s-.03.03-.03.03h-.03s-.03.03-.03.03l-.03.02-.03.02-.03.02-.03.03-.02.02-.02.02h0l-.03.03-.02.02-.02.03-.02.03-.02.03-.02.03-.02.03v.03s-.03.03-.03.03v.04h-.01v.03s-.02.04-.02.04v.03s-.02.04-.02.04v.03s-.02.04-.02.04v.11s-.01.04-.01.04h0v.09s.01.04.01.04v.07s0,.04,0,.04v.04s.02.04.02.04v.03s.02.04.02.04h0v.03s.02.03.02.03l.02.04.02.03v.03s.03.03.03.03l.02.02.02.03.02.03.02.02h0l.02.03.03.02.02.02.03.02.03.02.03.02.03.02.03.02h.03s.03.03.03.03h.04s.03.02.03.02h.04s.04.02.04.02h.04s.04,0,.04,0h.04s.04.01.04.01h.08Z"/><path class="cls-3" d="m36.45,24.66h0v.13s-.01.13-.01.13v.12s-.02.12-.02.12v.12s-.03.11-.03.11l-.02.11-.02.11-.02.1-.03.1h0l-.03.1-.03.09-.03.09-.04.09-.04.08-.04.08-.04.07-.04.07-.05.07-.05.07h0l-.05.06-.05.06-.06.06-.06.05-.05.05-.06.04-.07.05-.06.04-.07.03-.06.04h0l-.07.03-.07.02-.07.02-.07.02-.08.02-.07.02h-.08s-.07.01-.07.01h-.08s-.08,0-.08,0h-.16s-.07,0-.07,0h-.08s-.07-.03-.07-.03l-.07-.02-.08-.02-.07-.02-.07-.02-.07-.03h0l-.06-.04-.07-.03-.06-.04-.06-.05-.06-.04-.06-.05-.05-.05-.06-.06-.05-.06-.05-.06h0l-.05-.07-.05-.07-.04-.07-.04-.07-.04-.08-.04-.08-.04-.09-.03-.09-.03-.09-.03-.1h0l-.03-.1-.02-.1-.02-.11-.02-.11-.02-.11v-.12s-.02-.12-.02-.12v-.12s0-.13,0-.13v-.13h0v-.38s.02-.12.02-.12v-.12s.03-.12.03-.12l.02-.11.02-.1.02-.1.03-.1h0l.03-.1.03-.09.03-.09.04-.09.04-.08.04-.08.04-.07.04-.08.05-.06.05-.07h0l.05-.06.05-.06.06-.06.05-.05.06-.05.06-.04.06-.05.06-.04.07-.03.06-.03h0l.07-.03.07-.03.07-.02.08-.02.07-.02.07-.02h.08s.07,0,.07,0h.08s.08-.01.08-.01h.16s.07.01.07.01h.08s.07.03.07.03l.08.02.07.02.07.02.07.03.07.03h0l.06.03.07.03.06.04.07.05.06.04.05.05.06.05.06.06.05.06.05.06h0l.05.07.05.06.04.08.04.07.04.08.04.08.04.09.03.09.03.09.03.1h0l.03.1.02.1.02.1.02.11.02.12v.12s.02.12.02.12v.12s.01.13.01.13v.13Zm-.9,0h0v-.31s-.01-.1-.01-.1v-.09s-.02-.09-.02-.09v-.09s-.02-.08-.02-.08v-.08s-.03-.07-.03-.07h0l-.02-.07v-.07s-.03-.07-.03-.07l-.02-.06-.02-.06-.03-.05-.02-.06-.02-.05-.03-.04-.03-.05h0l-.02-.04-.03-.04-.03-.03-.03-.04-.03-.03-.03-.03-.03-.02-.04-.03-.03-.02h-.04s-.03-.03-.03-.03l-.04-.02h-.03s-.04-.02-.04-.02h-.03s-.04-.02-.04-.02h-.07s-.04,0-.04,0h-.15s-.04,0-.04,0h-.03s-.04.02-.04.02h-.03s-.04.02-.04.02l-.04.02-.03.02h-.03s-.04.03-.04.03l-.03.03-.03.02-.03.03-.03.03-.03.04-.03.03-.03.04-.03.04h0l-.02.05-.03.04-.02.05-.02.06-.03.05-.02.06-.02.06-.02.07v.07s-.03.07-.03.07h0v.07s-.03.08-.03.08v.08s-.02.09-.02.09v.09s-.01.09-.01.09v.1s-.01.1-.01.1v.1s0,.11,0,.11h0v.21s0,.1,0,.1v.1s.01.09.01.09v.09s.02.09.02.09v.08s.03.08.03.08v.07h.01l.02.07v.07s.03.06.03.06l.02.07.02.06.03.05.02.05.02.05.03.05.02.05h0l.03.04.03.04.03.03.03.04.03.03.03.03.03.02.03.03.04.02.03.02h.03s.04.03.04.03h.04s.03.02.03.02h.04s.03.02.03.02h.08s.03,0,.03,0h.15s.04,0,.04,0h.04s.03-.02.03-.02h.04s.03-.02.03-.02l.04-.02h.03s.04-.03.04-.03l.03-.02.04-.03.03-.02.03-.03.03-.03.03-.04.03-.03.03-.04.02-.04h0l.03-.05.03-.05.02-.05.02-.05.03-.05.02-.06.02-.07.02-.06v-.07s.03-.07.03-.07h0l.02-.07v-.08s.02-.08.02-.08v-.09s.02-.09.02-.09v-.09s.01-.1.01-.1v-.1s.01-.1.01-.1v-.11Z"/><path class="cls-3" d="m39.23,23.35h0v.17s-.01.05-.01.05v.06s-.02.05-.02.05l-.02.05v.05s-.03.04-.03.04l-.02.05h0l-.02.05-.02.04-.02.04-.02.05-.03.04-.02.03-.03.04-.03.04-.03.03-.03.04h0l-.03.03-.04.03-.03.03-.04.02-.04.03-.03.02-.04.03-.04.02-.04.02-.05.02h-.04s-.04.03-.04.03h-.05s-.04.02-.04.02h-.05s-.04.02-.04.02h-.04s-.05,0-.05,0h-.29s-.04-.02-.04-.02h-.05s-.05-.02-.05-.02h-.04s-.05-.03-.05-.03h-.04s-.04-.03-.04-.03l-.04-.02-.04-.02-.04-.03-.04-.02-.03-.03-.04-.02-.03-.03-.04-.03-.03-.03h0l-.03-.04-.03-.03-.03-.04-.02-.04-.03-.03-.02-.04-.02-.05-.02-.04-.02-.04-.02-.05h0l-.02-.05v-.04s-.03-.05-.03-.05v-.05s-.02-.05-.02-.05v-.06s-.01-.05-.01-.05v-.06s-.01-.05-.01-.05v-.06h0v-.17s.01-.05.01-.05v-.06s.02-.05.02-.05v-.05s.03-.05.03-.05v-.05s.03-.05.03-.05h0l.02-.05.02-.04.02-.05.02-.04.02-.04.03-.04.02-.04.03-.04.03-.03.03-.03h0l.03-.04.04-.03.03-.03.04-.02.03-.03.04-.02.04-.03.04-.02.04-.02.04-.02h.04s.05-.03.05-.03h.04s.05-.02.05-.02h.05s.04-.02.04-.02h.05s.05,0,.05,0h.05s.05-.01.05-.01h.1s.05.01.05.01h.04s.05.02.05.02h.05s.04.02.04.02h.05s.04.03.04.03h.04s.05.03.05.03l.04.02.04.02.04.03.04.02.03.03.04.02.03.03.04.03.03.04h0l.03.03.03.03.03.04.02.04.03.04.02.04.03.04.02.05.02.04v.05h.01l.02.05.02.05v.05s.02.05.02.05v.05s.02.06.02.06v.11s.01.05.01.05v.06Zm-.66,0h0v-.08s-.01-.03-.01-.03v-.11s0-.03,0-.03v-.03s-.02-.03-.02-.03v-.03h0v-.05s-.02-.03-.02-.03v-.02s-.02-.02-.02-.02v-.02s-.03-.02-.03-.02v-.02s-.02-.02-.02-.02v-.02h-.01l-.02-.02h-.01s-.02-.03-.02-.03h-.01s-.02-.02-.02-.02h-.01s-.02-.02-.02-.02h-.02s-.02-.02-.02-.02h-.02s-.01-.02-.01-.02h-.04s-.02,0-.02,0h-.02s-.02-.01-.02-.01h-.04s-.02,0-.02,0h-.08s-.02,0-.02,0h-.04s-.02.01-.02.01h-.02s-.02,0-.02,0h-.02s-.02.02-.02.02h-.01s-.02.02-.02.02h-.02s-.01.02-.01.02h-.02s-.01.02-.01.02l-.02.02h-.01s-.02.03-.02.03h0v.02s-.02.02-.02.02v.02s-.02.02-.02.02v.02s-.02.02-.02.02v.02s-.02.03-.02.03v.02s-.02.03-.02.03h0v.03s0,.03,0,.03v.03s-.01.03-.01.03v.04s-.01.03-.01.03v.11s-.01.04-.01.04h0v.08s.01.03.01.03v.1s.01.04.01.04v.03s.01.02.01.02v.03h0v.03s.02.02.02.02v.02s.02.03.02.03v.02s.02.02.02.02v.02s.02.02.02.02v.02s.02,0,.02,0h0l.02.02h.01s.02.03.02.03h.01s.02.02.02.02h.01s.02.02.02.02h.02s.01.02.01.02h.02s.02,0,.02,0h.02s.02.02.02.02h.06s.02.01.02.01h.16s.02-.01.02-.01h.04s.02-.02.02-.02h.03s.02-.02.02-.02h.02s.02-.02.02-.02h.01s.02-.02.02-.02h.01s.02-.03.02-.03h.01s.02-.03.02-.03h.01s.01-.03.01-.03v-.02s.03-.02.03-.02v-.02s.02-.02.02-.02v-.03s.02-.02.02-.02v-.02s.01-.03.01-.03h0v-.03s.02-.02.02-.02v-.03s.01-.04.01-.04v-.03s0-.03,0-.03v-.11s.01-.04.01-.04Zm2.35-1.09h.01s.01-.02.01-.02h.01s0-.02,0-.02h.01s.01-.02.01-.02h0s.01-.02.01-.02h.02s.02-.02.02-.02h.01s.02,0,.02,0h.01s.02-.01.02-.01h.02s.02,0,.02,0h.06s.63-.01.63-.01l-3.77,4.94h0v.02h0s-.01.02-.01.02h-.01s-.02.02-.02.02h-.01s-.01.01-.01.01h0s-.01.02-.01.02h-.01s-.02.02-.02.02h-.02s-.02.01-.02.01h-.01s-.02,0-.02,0h-.71l3.76-4.93Zm1.18,3.74h0v.11s0,.06,0,.06v.05s-.02.06-.02.06v.05s-.02.05-.02.05l-.02.05v.04s-.03.05-.03.05h0l-.02.05-.02.04-.02.04-.03.05-.02.04-.03.03-.03.04-.03.04-.03.03-.03.04h0l-.03.03-.03.03-.04.03-.04.02-.03.03-.04.03-.04.02-.04.02-.04.02-.04.02h0l-.05.02h-.04s-.04.02-.04.02l-.05.02h-.04s-.05.01-.05.01h-.04s-.05,0-.05,0h-.04s-.05,0-.05,0h-.1s-.05,0-.05,0h-.04s-.05,0-.05,0h-.05s-.04-.03-.04-.03h-.05s-.04-.02-.04-.02l-.04-.02h0l-.05-.02-.04-.02-.04-.02-.04-.02-.03-.03-.04-.03-.04-.02-.03-.03-.03-.03-.04-.03h0l-.03-.04-.02-.03-.03-.04-.03-.04-.02-.03-.03-.04-.02-.05-.02-.04-.02-.04-.02-.05h0v-.05s-.03-.04-.03-.04v-.05s-.02-.05-.02-.05v-.05s-.02-.06-.02-.06v-.05s-.01-.06-.01-.06v-.11h-.01v-.06s.01-.05.01-.05v-.11s.02-.06.02-.06v-.05s.02-.05.02-.05v-.05s.03-.05.03-.05v-.05h.01l.02-.05.02-.04.02-.05.02-.04.03-.04.02-.04.03-.04.03-.04.02-.03.03-.03h0l.04-.04.03-.03.03-.03.04-.02.04-.03.03-.02.04-.03.04-.02.04-.02.05-.02h.04s.04-.03.04-.03h.05s.04-.02.04-.02h.05s.05-.02.05-.02h.04s.05-.01.05-.01h.05s.05,0,.05,0h.1s.05,0,.05,0h.05s.04.02.04.02h.05s.05.02.05.02h.04s.05.03.05.03h.04s.04.03.04.03l.04.02.04.02.04.03.04.02.04.03.03.02.04.03.03.03.03.04h0l.03.03.03.03.03.04.02.04.03.04.02.04.03.04.02.05.02.04.02.05h0v.05s.03.05.03.05v.05s.02.05.02.05v.05s.02.06.02.06v.05s.01.06.01.06v.05s0,.06,0,.06Zm-.67,0h0v-.11s-.01-.04-.01-.04v-.07s0-.03,0-.03v-.03s-.01-.03-.01-.03v-.03h-.01v-.02s-.02-.03-.02-.03v-.03s-.02-.02-.02-.02v-.02s-.02-.02-.02-.02v-.02s-.02-.02-.02-.02l-.02-.02v-.02h-.01v-.02s-.03,0-.03,0h-.01s-.02-.03-.02-.03h-.01s-.02-.02-.02-.02h-.02s0-.02,0-.02h-.02s-.02-.02-.02-.02h-.02s-.02,0-.02,0h-.02s-.02-.01-.02-.01h-.02s-.02,0-.02,0h-.04s-.02-.01-.02-.01h-.08s-.02.01-.02.01h-.04s-.02,0-.02,0h-.02s-.02.01-.02.01h0s-.02.02-.02.02h-.02s-.02.02-.02.02h0s-.02.02-.02.02h-.01s-.02.03-.02.03h-.01s-.02.02-.02.02v.02h-.01l-.02.02v.02s-.02.02-.02.02v.02s-.02.02-.02.02v.02s-.02.02-.02.02v.03s-.02.03-.02.03v.02h-.01v.06s-.02.03-.02.03v.1s-.01.04-.01.04v.11h0v.18s.01.03.01.03v.07s.02.02.02.02v.03h0v.03s.02.02.02.02v.03s.02.02.02.02v.02s.02.02.02.02v.02s.02.02.02.02v.02s.03.02.03.02h.01s.02.03.02.03h.01s.02.02.02.02h.01s.02.03.02.03h0s.02.02.02.02h.04s0,.02,0,.02h.04s.02.01.02.01h.02s.02,0,.02,0h.06s.02.01.02.01h.04s.02-.01.02-.01h.06s.02,0,.02,0h.02s.02-.01.02-.01h.02s.02-.02.02-.02h.03s.02-.02.02-.02l.02-.02h.01s.02-.02.02-.02h.01s.02-.03.02-.03h0s.01-.03.01-.03l.02-.02v-.02s.02-.02.02-.02v-.02s.02-.02.02-.02v-.02s.02-.03.02-.03v-.02s.02-.03.02-.03h0v-.03s.01-.02.01-.02v-.03s.01-.04.01-.04v-.03s0-.03,0-.03v-.07s.01-.04.01-.04v-.04Z"/><path class="cls-3" d="m84.53,24.66v.65h-2.8v-.65h1.02v-2.96h0v-.1s.01-.04.01-.04v-.22l-.72.61h-.02s-.01.02-.01.02h-.01s-.01.02-.01.02h-.03s0,0,0,0h-.02s-.01,0-.01,0h0s-.01.01-.01.01h-.12s0-.01,0-.01h-.03s0,0,0,0h0s-.01,0-.01,0h-.02s-.01-.01-.01-.01h-.01v-.02h-.02s-.01-.02-.01-.02h0s-.01,0-.01,0h0s-.28-.38-.28-.38l1.55-1.32h.71v4.43h.91Z"/><path class="cls-3" d="m86.39,22.08h.04s.03-.01.03-.01h.03s.04-.02.04-.02h.06s.03,0,.03,0h.06s.04-.01.04-.01h.06s.03,0,.03,0h.12s.03-.01.03-.01h.21s.07.01.07.01h.08s.07.02.07.02l.07.02h.07s.06.03.06.03l.07.02.06.02h0l.06.03.06.02.05.03.06.03.05.03.05.04.05.03.04.04.05.04.04.04h0l.04.04.04.05.03.04.04.05.03.05.03.05.03.05.03.05.02.06.02.06h0l.02.05.02.06.02.06v.06s.02.06.02.06v.06s.02.06.02.06v.13s.01.06.01.06h0v.16s-.02.08-.02.08v.07s-.02.08-.02.08v.07s-.03.07-.03.07l-.02.07-.03.07-.03.07h0l-.03.06-.03.07-.03.06-.04.06-.03.06-.05.05-.04.06-.04.05-.05.05-.05.05h0l-.05.05-.05.04-.06.04-.06.04-.06.04-.06.03-.06.04-.06.03-.07.03-.07.02h0l-.07.03-.07.02-.07.02-.07.02h-.08s-.07.02-.07.02h-.08s-.08.02-.08.02h-.39s-.05-.01-.05-.01h-.04s-.04-.02-.04-.02h-.05s-.04-.02-.04-.02h-.04s-.05-.02-.05-.02h-.04s-.04-.02-.04-.02h-.04s-.04-.03-.04-.03h-.04s-.04-.02-.04-.02l-.04-.02h-.03s-.04-.03-.04-.03l-.04-.02-.03-.02-.04-.02h-.03s-.04-.03-.04-.03l-.03-.02-.04-.02-.03-.02-.03-.02h0l-.03-.03-.03-.02-.03-.02-.03-.02-.03-.03-.03-.02-.03-.02-.02-.02-.03-.03-.03-.02.27-.37h0l.02-.02.02-.02.02-.02.02-.02h.02s.02-.02.02-.02h.02s.03,0,.03,0h.03s.02-.01.02-.01h.05s.02.01.02.01h.04s.02.02.02.02h.01s.02.02.02.02h.02s.02.02.02.02h.02s.02.02.02.02h.02s.02.03.02.03h.02s.02.02.02.02h.02s.02.03.02.03h.03s.02.02.02.02l.03.02h.02s.03.02.03.02h.03s.02.03.02.03h.03s.03.02.03.02h.03s.03.02.03.02h.04s.03.02.03.02h.04s.03.02.03.02h.08s.04.01.04.01h.04s.05,0,.05,0h.18s.04,0,.04,0h.04s.05-.02.05-.02h.04s.04-.02.04-.02h.03s.04-.03.04-.03h.04s.03-.03.03-.03l.03-.02.04-.02.03-.02.03-.02.03-.03.02-.02.03-.03.02-.02h0l.03-.03.02-.03.02-.03.02-.03.02-.04.02-.03v-.03s.03-.04.03-.04v-.03s.02-.04.02-.04h0l.02-.04v-.04s.02-.04.02-.04v-.08s.02-.04.02-.04v-.09s0-.04,0-.04v-.05h0v-.16s-.02-.07-.02-.07l-.02-.07-.02-.07-.03-.06-.03-.06-.04-.05-.04-.06-.04-.04h0l-.05-.05-.06-.04-.06-.03-.06-.03-.07-.03-.07-.02-.08-.02h-.08s-.09-.02-.09-.02h-.24s-.07,0-.07,0h-.07s-.08.02-.08.02l-.07.02-.08.02-.07.02-.08.02-.07.02-.54-.15.42-2.46h2.5v.37h0v.1s-.02.03-.02.03v.04s-.02.02-.02.02v.03s-.03.03-.03.03l-.02.02-.02.03h0l-.03.02-.03.02-.03.02h-.03s-.04.03-.04.03h-.04s-.04,0-.04,0h-.05s-.05.01-.05.01h-1.45l-.18,1.06Z"/><path class="cls-3" d="m91.65,21.47h0v.11s0,.05,0,.05v.06s-.02.05-.02.05v.05s-.02.05-.02.05v.05s-.03.05-.03.05l-.02.04h0l-.02.05-.02.04-.02.05-.03.04-.02.04-.03.04-.03.04-.02.03-.03.04-.04.03h0l-.03.03-.03.03-.04.03-.03.03-.04.02-.04.03-.04.02-.04.02-.04.02-.04.02h0l-.04.02h-.05s-.04.02-.04.02l-.05.02h-.04s-.04.01-.04.01h-.05s-.04,0-.04,0h-.05s-.05.01-.05.01h-.1s-.04-.01-.04-.01h-.05s-.05,0-.05,0h-.05s-.04-.03-.04-.03h-.05s-.04-.02-.04-.02l-.04-.02h0l-.04-.02-.05-.02-.04-.02-.03-.02-.04-.03-.04-.02-.03-.03-.04-.03-.03-.03-.03-.03h0l-.03-.03-.03-.04-.03-.03-.03-.04-.02-.04-.03-.04-.02-.04-.02-.05-.02-.04-.02-.05h0v-.04s-.03-.05-.03-.05v-.05s-.02-.05-.02-.05v-.05s-.02-.05-.02-.05v-.06s-.01-.05-.01-.05v-.11h0v-.23s.02-.05.02-.05v-.06s.02-.05.02-.05v-.05s.03-.05.03-.05v-.05h.01l.02-.04.02-.05.02-.04.02-.05.03-.04.02-.04.03-.03.03-.04.03-.04.03-.03h0l.03-.03.03-.03.04-.03.03-.03.04-.03.04-.02.03-.02.04-.02.05-.02.04-.02h0l.04-.02.04-.02h.05s.04-.02.04-.02h.05s.05-.02.05-.02h.05s.04-.01.04-.01h.3s.05.02.05.02h.04s.05.02.05.02h.04s.05.03.05.03l.04.02h0l.04.02.04.02.04.02.04.02.04.02.04.03.03.03.04.03.03.03.03.03h0l.04.03.03.04.02.04.03.03.03.04.02.04.02.05.02.04.02.05.02.04h0l.02.05v.05s.02.05.02.05l.02.05v.06s0,.05,0,.05v.05s.01.06.01.06v.06s0,.06,0,.06Zm-.67,0h0v-.19s-.01-.03-.01-.03v-.04s-.02-.03-.02-.03v-.05h-.01v-.03s-.02-.03-.02-.03v-.02s-.02-.03-.02-.03v-.02s-.02-.02-.02-.02v-.02s-.02-.02-.02-.02l-.02-.02v-.02h-.02s-.02-.03-.02-.03h0s-.02-.02-.02-.02v-.02s-.03-.01-.03-.01h-.02s0-.02,0-.02h-.02s-.02,0-.02,0h-.02s-.02-.02-.02-.02h-.04s-.01-.01-.01-.01h-.02s-.02,0-.02,0h-.17s-.02,0-.02,0h-.02s-.02.01-.02.01h0s-.02.02-.02.02h-.04s-.02.02-.02.02h-.01s-.02.02-.02.02v.02s-.03.01-.03.01h-.01s-.02.03-.02.03h0s-.01.03-.01.03v.02s-.03.02-.03.02v.02s-.02.02-.02.02v.02s-.02.03-.02.03v.02s-.01.03-.01.03v.03h0v.02s-.02.03-.02.03v.07s-.01.03-.01.03v.07s0,.04,0,.04v.08h0v.14s0,.04,0,.04v.06s.01.03.01.03v.03s.02.03.02.03h0v.02s0,.03,0,.03v.02s.02.02.02.02v.02s.02.02.02.02v.02s.03.02.03.02v.02s.02.02.02.02h0s.02.03.02.03h.01s.02.02.02.02h.01s.02.03.02.03h.01s.02.02.02.02h.04s.02.02.02.02h.03s.02,0,.02,0h.02s.02.01.02.01h.06s.02,0,.02,0h.05s.02,0,.02,0h.05s.02-.01.02-.01h.02s.02,0,.02,0h.02s.02-.02.02-.02h.03s.02-.02.02-.02l.02-.02h0s.02-.02.02-.02h0s.02-.03.02-.03h0s.01-.03.01-.03l.02-.02v-.02s.02-.02.02-.02v-.02s.02-.02.02-.02v-.02s.02-.02.02-.02v-.03s.02-.02.02-.02h0v-.03s.01-.03.01-.03v-.03s.02-.03.02-.03v-.07s.01-.03.01-.03v-.11Zm2.35-1.09h.01s0-.03,0-.03h.01s0,0,0,0h0s.01-.02.01-.02h0s.02-.02.02-.02h0s0-.02,0-.02h.01s.02,0,.02,0h.01s.02-.02.02-.02h.05s.02,0,.02,0h.68l-3.77,4.94h-.01s-.01.02-.01.02h0s-.01.02-.01.02h-.01s-.01.02-.01.02h0s-.01.02-.01.02h-.03s-.01.02-.01.02h-.01s-.02.01-.02.01h-.01s-.02,0-.02,0h-.05s-.01.01-.01.01h-.67l3.76-4.93Zm1.18,3.74h0v.16s0,.06,0,.06v.05s-.02.05-.02.05l-.02.05v.05s-.03.05-.03.05l-.02.04h0l-.02.05-.02.04-.02.05-.02.04-.03.04-.02.04-.03.04-.03.03-.03.04-.03.03h0l-.03.03-.04.03-.03.03-.04.03-.04.02-.03.03-.04.02-.04.02-.04.02-.05.02h0l-.04.02h-.04s-.05.03-.05.03h-.04s-.05.02-.05.02h-.04s-.05.01-.05.01h-.04s-.05,0-.05,0h-.19s-.05,0-.05,0h-.05s-.04-.02-.04-.02h-.05s-.04-.03-.04-.03h-.05s-.04-.03-.04-.03h0l-.04-.02-.04-.02-.04-.02-.04-.02-.04-.03-.04-.02-.03-.03-.03-.03-.04-.03-.03-.03h0l-.03-.03-.03-.04-.03-.03-.02-.04-.03-.04-.02-.04-.02-.04-.02-.05-.02-.04-.02-.05h0l-.02-.04v-.05s-.03-.05-.03-.05v-.05s-.02-.05-.02-.05v-.05s0-.06,0-.06v-.05s0-.06,0-.06v-.05h0v-.18s0-.05,0-.05v-.05s.02-.06.02-.06v-.05s.03-.05.03-.05v-.05s.03-.05.03-.05h0l.02-.04.02-.05.02-.04.02-.05.02-.04.03-.04.02-.03.03-.04.03-.04.03-.03h0l.03-.03.04-.03.03-.03.03-.03.04-.03.04-.02.04-.02.04-.02.04-.02.04-.02h0l.04-.02.05-.02h.04s.05-.02.05-.02h.04s.05-.02.05-.02h.05s.05,0,.05,0h.29s.05.02.05.02h.05s.04.02.04.02h.05s.04.03.04.03l.04.02h0l.05.02.04.02.04.02.04.02.04.02.03.03.04.03.03.03.03.03.04.03h0l.03.03.03.04.02.04.03.03.03.04.02.04.02.05.02.04.02.05.02.04h0l.02.05v.05s.03.05.03.05v.05s.02.06.02.06v.05s.01.05.01.05v.06s0,.06,0,.06v.06Zm-.67,0h0v-.19s-.01-.03-.01-.03v-.04s0-.03,0-.03v-.03s-.02-.02-.02-.02h0v-.06s-.02-.02-.02-.02v-.03s-.02-.02-.02-.02v-.02s-.03-.02-.03-.02v-.02s-.02-.02-.02-.02h0s-.02-.03-.02-.03v-.02s-.03-.01-.03-.01h0s-.02-.03-.02-.03h0s-.02-.02-.02-.02h-.02s-.02-.02-.02-.02h-.03s-.02-.02-.02-.02h-.04s-.02,0-.02,0h-.02s-.02,0-.02,0h-.16s-.02,0-.02,0h-.02s-.02,0-.02,0h-.02s-.02.02-.02.02h-.03s-.02.02-.02.02h-.02s0,.02,0,.02l-.02.02h0s-.02.02-.02.02v.02s-.03.02-.03.02h-.01s0,.03,0,.03v.02s-.03.02-.03.02v.02s-.02.02-.02.02v.03s-.02.02-.02.02v.06h-.01v.02s0,.03,0,.03v.03s0,.04,0,.04v.03s-.01.03-.01.03v.08s0,.04,0,.04v.04h0v.11s0,.03,0,.03v.07s.01.03.01.03v.03s0,.03,0,.03v.03h0v.02s.01.03.01.03v.02s.02.02.02.02v.03s.02.02.02.02l.02.02h0s0,.03,0,.03v.02h.03s0,.03,0,.03h.02s0,.03,0,.03h.02s0,.02,0,.02h.02s.02.02.02.02h0s.02.02.02.02h.04s.02.01.02.01h.02s.02,0,.02,0h.04s.02.01.02.01h.12s.02-.01.02-.01h.04s.02,0,.02,0h.02s.01-.01.01-.01h.02s.02-.02.02-.02h.02s.02-.02.02-.02h0s.02-.02.02-.02v-.02s.03-.01.03-.01v-.02s.03,0,.03,0h0v-.02s.02-.02.02-.02h.01s.02-.03.02-.03v-.02s.02-.03.02-.03v-.02s.02-.02.02-.02v-.03s0-.02,0-.02h0v-.03s.02-.03.02-.03v-.06s0-.03,0-.03v-.04s.01-.03.01-.03v-.11Z"/><path class="cls-3" d="m103.2,46.57h.1s.02.02.02.02h.02s.02.02.02.02h.02s.02.02.02.02l.02.02h0s.02.03.02.03v.02s.02.02.02.02v.02s.02.02.02.02v.04s.01.03.01.03v.54h-3.48v-.28h0v-.06s.01-.02.01-.02h0s0-.03,0-.03v-.04s0-.02,0-.02v-.02h.01v-.02s.02,0,.02,0v-.02s.02-.02.02-.02v-.02s.02-.02.02-.02h0s.02-.03.02-.03v-.02s.03,0,.03,0l1.54-1.54h0l.03-.04.04-.04.04-.04.03-.04.04-.04.03-.03.04-.04.03-.04.03-.03.03-.04h0l.03-.03.03-.04.03-.04.02-.03.03-.04.03-.03.02-.04.02-.03.02-.04.03-.03h0l.02-.04v-.03s.03-.04.03-.04l.02-.03.02-.04v-.03s.02-.04.02-.04l.02-.04v-.03s.02-.04.02-.04h0v-.03s.02-.04.02-.04v-.04s.02-.04.02-.04v-.07s0-.04,0-.04v-.08s.01-.04.01-.04h0v-.07s-.01-.03-.01-.03v-.07s0-.03,0-.03v-.03s-.02-.03-.02-.03v-.03s-.02-.03-.02-.03h0v-.03s-.02-.02-.02-.02v-.03s-.03-.02-.03-.02v-.03s-.03-.02-.03-.02v-.02s-.03-.02-.03-.02l-.02-.02-.02-.02h0l-.02-.02-.02-.02-.02-.02h-.02s-.02-.03-.02-.03h-.03s-.02-.02-.02-.02h-.03s-.02-.02-.02-.02h-.03s-.03-.02-.03-.02h-.02s-.03-.02-.03-.02h-.06s-.03-.01-.03-.01h-.03s-.03,0-.03,0h-.22s-.03,0-.03,0h-.03s-.02.02-.02.02h-.06s-.02.02-.02.02h-.03s-.02.02-.02.02h-.03s-.02.02-.02.02l-.02.02h-.03s-.02.03-.02.03h-.02s-.02.03-.02.03h-.02s-.02.03-.02.03h-.02s-.02.03-.02.03v.02s-.03.02-.03.02l-.02.02v.02s-.03.02-.03.02v.02h-.01v.02s-.03.02-.03.02v.02s-.02.03-.02.03v.02s-.02.02-.02.02v.03s-.02.02-.02.02v.02s-.02.03-.02.03h0v.03s-.02.03-.02.03v.03s-.03.02-.03.02v.02s-.03.02-.03.02l-.02.02v.02s-.03.01-.03.01h-.02s-.02.02-.02.02h-.02s-.02.02-.02.02h-.06s-.02,0-.02,0h-.1s-.03,0-.03,0l-.46-.08h0v-.07s.03-.07.03-.07v-.07s.03-.07.03-.07l.02-.06.02-.07.02-.06.03-.06.02-.06.03-.05h0l.03-.06.04-.05.03-.05.04-.05.03-.04.04-.05.04-.04.04-.04.04-.04.05-.04h0l.05-.04.04-.03.05-.03.05-.03.05-.03.06-.03.05-.02.05-.03.06-.02.06-.02h.06s.06-.03.06-.03l.06-.02h.06s.06-.02.06-.02h.07s.06,0,.06,0h.07s.06-.01.06-.01h.27s.07.02.07.02h.06l.07.02h.06s.06.03.06.03h.06s.06.03.06.03h0l.06.02.05.03.06.02.05.03.05.03.05.03.05.03.04.03.05.04.04.03h0l.04.04.04.04.03.05.04.04.03.04.03.05.03.05.03.05.03.05.02.05h0l.02.05.02.06.02.06v.05s.03.06.03.06v.06s.02.06.02.06v.13s.01.06.01.06h0v.11s-.01.06-.01.06v.05s0,.05,0,.05v.05s-.02.05-.02.05l-.02.05v.05s-.03.05-.03.05h0v.05s-.03.05-.03.05l-.02.04-.02.05-.02.04-.03.05-.02.04-.02.05-.03.04-.03.05h0l-.03.04-.03.04-.02.05-.04.04-.03.04-.03.04-.03.04-.04.05-.03.04-.04.04h0l-.04.04-.04.04-.03.04-.04.04-.04.04-.04.04-.04.05-.04.04-.04.04-.04.04-1.14,1.17h.03s.03-.02.03-.02h.04s.03-.02.03-.02h.06s.04-.02.04-.02h.06s.03-.01.03-.01h.04s.03-.01.03-.01h.03s.03,0,.03,0h.03s.03-.01.03-.01h1.43Z"/><path class="cls-3" d="m105.25,44.14h.06s.04-.01.04-.01h.03s.03,0,.03,0h.03s.04-.01.04-.01h.03s.03-.01.03-.01h.06s.03-.01.03-.01h.06s.03,0,.03,0h.38s.07.02.07.02h.07s.07.02.07.02l.07.02h.07s.06.03.06.03l.06.03h0l.06.02.06.03.06.03.05.03.05.03.05.03.05.04.05.04.04.04.04.04h0l.04.04.04.04.04.05.03.05.03.05.03.05.03.05.03.05.02.06.03.05h0l.02.06v.06s.03.05.03.05v.06s.02.06.02.06v.06s.02.07.02.07v.06s.01.06.01.06v.07h0v.16s-.01.07-.01.07v.08s-.03.07-.03.07v.08s-.03.07-.03.07l-.02.07-.03.07-.02.06h0l-.03.07-.03.06-.04.07-.03.06-.04.05-.04.06-.04.05-.05.06-.05.05-.05.05h0l-.05.04-.05.05-.06.04-.05.04-.06.03-.06.04-.07.03-.06.03-.07.03-.07.03h0l-.06.02-.08.03-.07.02h-.07s-.07.03-.07.03h-.08s-.08.02-.08.02h-.15s-.09.01-.09.01h-.18s-.05-.01-.05-.01h-.04s-.05,0-.05,0h-.04s-.04-.02-.04-.02h-.05s-.04-.02-.04-.02h-.04s-.04-.02-.04-.02h-.04s-.05-.03-.05-.03h-.04s-.04-.02-.04-.02l-.03-.02h-.04s-.04-.03-.04-.03h0l-.04-.02h-.03s-.04-.03-.04-.03l-.04-.02-.03-.02-.03-.02-.04-.02-.03-.02-.04-.02-.03-.02h0l-.03-.02-.03-.02-.03-.02-.03-.03-.03-.02-.03-.02-.02-.03-.03-.02-.03-.02-.02-.03.26-.36h0l.02-.03.02-.02.02-.02h.02s.02-.02.02-.02h.02s.03-.02.03-.02h.02s.03-.01.03-.01h.1s.01.01.01.01h.02s.02.01.02.01h.02s.02.02.02.02h0s.02.02.02.02l.02.02h.02s.02.02.02.02h.02s.02.02.02.02l.02.02h.03s.02.02.02.02l.02.02h.03s.02.02.02.02h.03s.02.03.02.03h.03s.03.02.03.02h.03s.03.03.03.03h.03s.03.02.03.02h.03s.03.02.03.02h.04s.04.01.04.01h.03s.04.02.04.02h.36s.04-.02.04-.02h.08s.04-.03.04-.03h.04s.03-.02.03-.02h0l.04-.02.03-.02h.04s.03-.03.03-.03l.03-.03.03-.02.03-.02.03-.02.02-.03.03-.03h0l.02-.03.02-.03.02-.03.02-.03.02-.03.02-.03.02-.04v-.03s.03-.04.03-.04v-.04h0v-.04s.02-.03.02-.03v-.05s.02-.04.02-.04v-.04s0-.04,0-.04v-.04s0-.05,0-.05v-.08h0v-.16s-.02-.08-.02-.08l-.02-.07-.02-.06-.03-.06-.03-.06-.03-.06-.04-.05-.05-.05h0l-.05-.04-.06-.04-.05-.04-.07-.03-.07-.02-.07-.03h-.08s-.08-.02-.08-.02h-.09s-.09-.01-.09-.01h-.22s-.07.02-.07.02h-.07s-.08.02-.08.02l-.07.02-.08.02-.07.02-.08.03-.54-.15.42-2.47h2.51v.37h0v.04s0,.03,0,.03v.04s0,.03,0,.03v.03s-.03.03-.03.03v.03s-.03.02-.03.02l-.02.03-.02.02h0l-.03.03-.02.02h-.03s-.04.03-.04.03h-.04s-.04.02-.04.02h-.04s-.05.02-.05.02h-1.49l-.18,1.05Z"/><path class="cls-3" d="m110.5,43.53h0v.17s-.01.05-.01.05v.05s-.02.06-.02.06l-.02.05v.05s-.03.04-.03.04l-.02.05h0l-.02.05-.02.04-.02.04-.02.04-.03.04-.02.04-.03.04-.03.04-.03.03-.03.04h0l-.04.03-.03.03-.03.03-.04.02-.04.03-.04.02-.03.03-.04.02-.05.02-.04.02h-.04s-.04.03-.04.03h-.05s-.04.02-.04.02h-.05s-.04.02-.04.02h-.05s-.04.01-.04.01h-.29s-.05-.02-.05-.02h-.04s-.05-.02-.05-.02h-.04s-.05-.03-.05-.03h-.04s-.04-.03-.04-.03l-.04-.02-.04-.02-.04-.03-.04-.02-.04-.03-.03-.02-.04-.03-.03-.03-.03-.03h0l-.03-.04-.03-.03-.03-.04-.02-.04-.03-.04-.02-.04-.02-.04-.03-.04v-.04s-.03-.05-.03-.05h0l-.02-.05v-.04s-.03-.05-.03-.05v-.05s-.02-.06-.02-.06v-.05s0-.05,0-.05v-.06s-.01-.05-.01-.05v-.06h0v-.17s.01-.06.01-.06v-.05s.02-.05.02-.05v-.05s.03-.05.03-.05v-.05s.03-.05.03-.05h0l.02-.05v-.04s.04-.05.04-.05l.02-.04.02-.04.03-.04.02-.04.03-.04.03-.03.03-.03h0l.03-.04.03-.03.04-.03.03-.02.04-.03.04-.02.04-.03.04-.02.04-.02.04-.02h.04s.05-.03.05-.03h.04s.05-.03.05-.03h.04s.05-.01.05-.01h.05s.05,0,.05,0h.05s.05-.01.05-.01h.1s.04.01.04.01h.05s.05,0,.05,0h.05s.04.03.04.03h.05s.04.03.04.03h.04s.05.03.05.03l.04.02.04.02.04.03.04.02.03.03.04.02.03.03.04.03.03.04h0l.03.03.03.03.03.04.02.04.03.04.02.04.02.04.03.05.02.04v.05h0l.02.05.02.05v.05s.02.05.02.05v.05s.02.05.02.05v.12s.01.05.01.05v.06Zm-.66,0h0v-.04s-.01-.04-.01-.04v-.11s0-.03,0-.03v-.03s0-.03,0-.03v-.03s-.02-.03-.02-.03h0v-.05s-.02-.03-.02-.03v-.02s-.02-.02-.02-.02v-.02s-.03-.02-.03-.02v-.02s-.02-.02-.02-.02l-.02-.02h0v-.02s-.02,0-.02,0l-.02-.02h-.01s-.02-.02-.02-.02h-.02s-.01-.02-.01-.02h-.02s-.02-.02-.02-.02h-.02s-.02-.02-.02-.02h-.03s-.02,0-.02,0h-.02s-.02-.01-.02-.01h-.04s-.02-.01-.02-.01h-.08s-.02.01-.02.01h-.04s-.02.01-.02.01h-.02s-.02,0-.02,0h-.02s-.02.02-.02.02h-.01s-.02.02-.02.02h-.02s-.01.02-.01.02h-.02s-.01.02-.01.02l-.02.02h-.01s-.02.03-.02.03h0v.02s-.02.02-.02.02v.02s-.02.02-.02.02v.02s-.02.02-.02.02v.02s-.02.03-.02.03v.02s-.02.03-.02.03h0v.03s0,.03,0,.03v.03s-.01.03-.01.03v.03s0,.04,0,.04v.07s-.01.04-.01.04v.04h0v.11s.01.04.01.04v.06s0,.04,0,.04v.03s.01.02.01.02v.03h0v.03s.02.02.02.02v.02s.02.03.02.03v.02s.02.02.02.02v.02s.02.02.02.02h0s0,.03,0,.03h0l.02.02h.01s.02.03.02.03h.01s.02.02.02.02h.01s.02.02.02.02h.02s.01.02.01.02h.02s.02.01.02.01h.02s.02,0,.02,0h.02s.02.01.02.01h.02s.02.01.02.01h.16s.02-.01.02-.01h.02s.02-.01.02-.01h.01s.02,0,.02,0h.02s.02-.02.02-.02h.02s.01-.02.01-.02h.02s.02-.02.02-.02h.01s.02-.03.02-.03h.01s0-.03,0-.03h0l.02-.02h0s0-.03,0-.03l.02-.02v-.02s.02-.02.02-.02v-.03s.02-.02.02-.02v-.02s0-.03,0-.03h0v-.03s.02-.02.02-.02v-.07s0-.03,0-.03v-.03s0-.04,0-.04v-.11Zm2.35-1.09h.01s0-.02,0-.02h0s.01-.02.01-.02h0s.01-.02.01-.02h0s0-.02,0-.02h.02s.02-.02.02-.02h0s0,0,0,0h.02s.02-.02.02-.02h.08s.02,0,.02,0h.63l-3.77,4.94h0v.03h0s-.02.02-.02.02h0s-.01.01-.01.01h0s0,.02,0,.02h-.01s0,.02,0,.02h-.02s0,.01,0,.01h-.02s0,.01,0,.01h-.03s-.02.01-.02.01h-.69l3.76-4.93Zm1.18,3.74h0v.06s0,.05,0,.05v.11s-.02.06-.02.06v.05s-.02.05-.02.05l-.02.05v.04s-.03.05-.03.05h0l-.02.05-.02.04-.03.04-.02.04-.02.05-.03.03-.03.04-.03.04-.03.03-.03.04h0l-.03.03-.04.03-.03.03-.04.02-.03.03-.04.02-.04.03-.04.02-.04.02-.04.02h0l-.05.02h-.04s-.04.02-.04.02l-.05.02h-.09s-.04.02-.04.02h-.09s-.05.01-.05.01h-.1s-.05-.01-.05-.01h-.04s-.05-.02-.05-.02h-.05l-.04-.02h-.05s-.04-.02-.04-.02l-.05-.02h0l-.04-.02-.04-.02-.04-.02-.04-.03-.04-.02-.03-.03-.04-.02-.03-.03-.03-.03-.04-.03h0l-.03-.04-.03-.03-.02-.04-.03-.04-.02-.03-.03-.05-.02-.04-.02-.04-.02-.04-.02-.05h0l-.02-.05v-.04s-.02-.05-.02-.05v-.05s-.02-.05-.02-.05v-.06s-.02-.05-.02-.05v-.11s-.01-.06-.01-.06h0v-.11s.01-.06.01-.06v-.05s.02-.06.02-.06v-.05s.02-.05.02-.05v-.05s.02-.05.02-.05l.02-.05h0l.02-.05.02-.04.02-.05.02-.04.03-.04.02-.04.03-.04.02-.04.03-.03.03-.03h0l.04-.04.03-.03.03-.03.04-.02.03-.03.04-.02.04-.03.04-.02.04-.02.04-.02h.05s.04-.03.04-.03h.05s.04-.03.04-.03h.05s.05-.01.05-.01h.04s.05,0,.05,0h.05s.05-.01.05-.01h.1s.05.01.05.01h.05s.04,0,.04,0h.05s.05.03.05.03h.04s.04.03.04.03h.05s.04.03.04.03l.04.02.04.02.04.03.04.02.04.03.03.02.03.03.04.03.03.04h0l.03.03.03.03.03.04.02.04.03.04.02.04.03.04.02.05.02.04v.05h0l.02.05.02.05v.05s.02.05.02.05v.05s.02.06.02.06v.05s.01.06.01.06v.11Zm-.67,0h0v-.08s-.01-.03-.01-.03v-.11s0-.03,0-.03v-.03s-.02-.03-.02-.03v-.03h0v-.03s-.02-.02-.02-.02v-.03s-.02-.02-.02-.02v-.02s-.02-.02-.02-.02v-.02s-.02-.02-.02-.02l-.02-.02v-.02h-.01v-.02s-.03-.01-.03-.01v-.02s-.03-.01-.03-.01h0s-.02-.02-.02-.02h-.02s-.02-.02-.02-.02h-.01s-.02-.02-.02-.02h-.02s-.02-.01-.02-.01h-.02s-.02,0-.02,0h-.02s-.02-.01-.02-.01h-.04s-.02-.01-.02-.01h-.08s-.02.01-.02.01h-.04s-.02.01-.02.01h-.02s-.02,0-.02,0h-.02s0,.02,0,.02h-.02s-.02.02-.02.02h0s-.02.02-.02.02h-.02s-.01.02-.01.02l-.02.02h-.01s0,.03,0,.03h0l-.02.02v.02s-.02.02-.02.02v.02s-.02.02-.02.02v.02s-.02.02-.02.02v.03s-.02.02-.02.02v.03h0v.06s-.02.03-.02.03v.1s0,.04,0,.04v.11h0v.18s0,.03,0,.03v.07s.02.02.02.02v.03h0v.03s.02.02.02.02v.03s.02.02.02.02v.02s.02.02.02.02v.02s.02.02.02.02v.02s.03.02.03.02h0s.01.03.01.03h.02s.01.02.01.02h.02s.02.03.02.03h0s.02.01.02.01h.02s0,.02,0,.02h.02s.02.01.02.01h.02s.02.01.02.01h.02s.02.01.02.01h.06s.02,0,.02,0h.04s.02,0,.02,0h.06s.02-.01.02-.01h.02s.02-.01.02-.01h.02s.02-.02.02-.02h.01s.02-.01.02-.01h.02s.02-.03.02-.03h0s.02-.02.02-.02h0s.02-.03.02-.03h0s.01-.03.01-.03l.02-.02v-.02s.02-.02.02-.02v-.02s.02-.02.02-.02v-.02s.02-.03.02-.03v-.02s.02-.03.02-.03h0v-.05s.02-.03.02-.03v-.07s0-.03,0-.03v-.11s.01-.04.01-.04Z"/></svg>