<?xml version="1.0" encoding="UTF-8"?><svg id="Capa_1" xmlns="http://www.w3.org/2000/svg" viewBox="0 0 126.1 63.05"><defs><style>.cls-1{fill:#fa4d57;}.cls-1,.cls-2,.cls-3,.cls-4{stroke-width:0px;}.cls-2{fill:#b5b5b5;}.cls-3{fill:#fff;}.cls-4{fill:#003b88;}</style></defs><polygon class="cls-4" points="86.68 42.19 88.37 40.7 90.06 39.21 91.75 37.72 93.44 36.23 95.12 34.73 96.81 33.24 98.5 31.75 100.19 30.26 101.88 28.77 103.56 27.28 105.25 25.79 106.94 24.3 108.63 22.81 110.32 21.32 108.87 19.73 107.37 18.2 105.81 16.72 104.21 15.29 102.56 13.91 100.86 12.6 99.12 11.34 97.34 10.14 95.52 9 93.66 7.93 91.76 6.92 89.84 5.97 87.88 5.09 85.89 4.28 83.87 3.54 81.84 2.86 79.77 2.26 77.69 1.72 75.6 1.26 73.49 .87 71.36 .55 69.23 .3 67.09 .13 64.94 .03 62.8 0 60.65 .05 58.5 .16 56.37 .36 54.23 .62 52.11 .96 50.01 1.36 47.91 1.84 45.84 2.39 43.78 3.02 41.75 3.71 39.74 4.47 37.76 5.29 35.8 6.19 33.88 7.15 32 8.18 30.15 9.27 28.33 10.42 26.56 11.63 24.83 12.9 23.15 14.23 21.51 15.62 19.92 17.06 18.37 18.56 16.89 20.1 15.45 21.7 14.07 23.35 12.74 25.04 11.48 26.77 10.27 28.55 9.13 30.37 8.05 32.22 7.03 34.11 6.08 36.04 5.19 37.99 4.37 39.98 3.62 41.99 2.94 44.03 2.32 46.08 1.78 48.16 1.31 50.26 .91 52.37 .58 54.49 .32 56.62 .14 58.76 .03 60.91 0 63.05 2.25 63.05 4.5 63.05 6.75 63.05 9 63.05 11.26 63.05 13.51 63.05 15.76 63.05 18.01 63.05 20.26 63.05 22.52 63.05 24.77 63.05 27.02 63.05 29.27 63.05 31.52 63.05 31.6 60.88 31.82 58.71 32.2 56.57 32.72 54.45 33.39 52.38 34.19 50.36 35.14 48.39 36.22 46.5 37.42 44.69 38.75 42.96 40.2 41.33 41.75 39.81 43.41 38.39 45.16 37.1 46.99 35.92 48.9 34.88 50.88 33.97 52.92 33.2 55.01 32.57 57.13 32.09 59.28 31.75 61.45 31.57 63.63 31.53 65.8 31.65 67.97 31.91 70.1 32.33 72.21 32.89 74.27 33.59 76.28 34.44 78.22 35.42 80.09 36.53 81.88 37.77 83.58 39.13 85.19 40.61 86.68 42.19"/><polygon class="cls-2" points="91.96 50.49 94.03 49.59 96.1 48.69 98.16 47.8 100.23 46.9 102.29 46 104.36 45.1 106.42 44.21 108.49 43.31 110.55 42.41 112.62 41.51 114.68 40.62 116.75 39.72 118.81 38.82 120.88 37.92 119.97 35.93 118.99 33.96 117.94 32.03 116.83 30.14 115.65 28.29 114.41 26.48 113.11 24.71 111.74 22.99 110.32 21.32 108.63 22.81 106.94 24.3 105.25 25.79 103.56 27.28 101.88 28.77 100.19 30.26 98.5 31.75 96.81 33.24 95.12 34.73 93.44 36.23 91.75 37.72 90.06 39.21 88.37 40.7 86.68 42.19 88.24 44.1 89.65 46.13 90.89 48.26 91.96 50.49"/><polygon class="cls-1" points="94.58 63.05 96.83 63.05 99.08 63.05 101.33 63.05 103.58 63.05 105.84 63.05 108.09 63.05 110.34 63.05 112.59 63.05 114.84 63.05 117.1 63.05 119.35 63.05 121.6 63.05 123.85 63.05 126.1 63.05 126.07 60.9 125.96 58.75 125.77 56.6 125.52 54.46 125.19 52.34 124.78 50.22 124.31 48.12 123.76 46.04 123.15 43.97 122.46 41.93 121.7 39.91 120.88 37.92 118.81 38.82 116.75 39.72 114.68 40.62 112.62 41.51 110.55 42.41 108.49 43.31 106.42 44.21 104.36 45.1 102.29 46 100.23 46.9 98.16 47.8 96.1 48.69 94.03 49.59 91.96 50.49 92.76 52.49 93.41 54.54 93.92 56.64 94.28 58.76 94.5 60.9 94.58 63.05"/><path class="cls-3" d="m43.21,16.29v.37h0v.07s0,.03,0,.03v.08s-.01.03-.01.03v.02s-.01.02-.01.02v.03h-.01v.02s0,.02,0,.02h-.01s-.01.03-.01.03v.04s-.02,0-.02,0v.02s-.01.01-.01.01v.02s-1.93,3.95-1.93,3.95h0v.03s-.03.02-.03.02v.02s-.03.03-.03.03v.02s-.03.02-.03.02l-.02.02-.02.02-.02.02h-.02s-.02.03-.02.03h-.02s-.03.03-.03.03h-.03s-.03.02-.03.02h-.06s-.03,0-.03,0h-.03s-.04,0-.04,0h-.63l1.96-3.88h0l.02-.02v-.02s.02-.03.02-.03l.02-.02v-.02s.02-.02.02-.02v-.02s.03-.02.03-.02v-.02s.02-.02.02-.02h0l.02-.02v-.02s.02-.02.02-.02l.02-.02v-.02s.03-.02.03-.02v-.02s.03-.02.03-.02v-.02s.03-.02.03-.02h-2.49s-.01-.01-.01-.01h-.02s0-.02,0-.02h-.01v-.02s-.03,0-.03,0h-.01s-.01-.02-.01-.02h0v-.03h-.01s-.01-.03-.01-.03h0v-.03h0v-.61h3.51Z"/><path class="cls-3" d="m47.27,16.29v.37h0v.16s-.01.02-.01.02v.05s-.02.02-.02.02v.03h0v.02s-.02.02-.02.02h0s-.01.03-.01.03v.02s0,.02,0,.02h-.01s-.01.03-.01.03h-.01v.03l-1.92,3.95h0l-.02.03v.02s-.02.02-.02.02l-.02.03-.02.02v.02s-.03.02-.03.02l-.02.02-.02.02h-.02s-.02.03-.02.03h-.03s-.02.03-.02.03h-.03s-.03.02-.03.02h-.06s-.03,0-.03,0h-.04s-.03,0-.03,0h-.63l1.96-3.88h0v-.02s.03-.02.03-.02v-.03s.02-.02.02-.02l.02-.02v-.02s.02-.02.02-.02v-.02s.03-.02.03-.02v-.02h.01v-.02s.03-.02.03-.02v-.02s.02-.02.02-.02l.02-.02v-.02s.03-.02.03-.02v-.02s.03-.02.03-.02l.02-.02h-2.49s-.02-.01-.02-.01h-.01s0-.02,0-.02h-.02v-.02s-.02,0-.02,0h-.01s-.01-.02-.01-.02h0s-.01-.03-.01-.03h0s-.01-.03-.01-.03h0s0-.03,0-.03h0v-.61h3.5Z"/><path class="cls-3" d="m50.12,17.51h0v.17s-.01.06-.01.06v.05s-.02.05-.02.05l-.02.05v.05s-.03.05-.03.05l-.02.04h0l-.02.05-.02.04-.02.05-.02.04-.03.04-.02.04-.03.04-.03.03-.03.04-.03.03h0l-.03.03-.04.03-.03.03-.04.03-.04.02-.03.03-.04.02-.04.02-.04.02-.05.02h0l-.04.02h-.04s-.05.02-.05.02h-.04s-.04.02-.04.02h-.05s-.04.02-.04.02h-.1s-.04,0-.04,0h-.1s-.05,0-.05,0h-.05s-.04-.02-.04-.02h-.05s-.05-.02-.05-.02h-.04s-.04-.02-.04-.02l-.05-.02h0l-.04-.02-.04-.02-.04-.02-.04-.02-.04-.03-.03-.02-.04-.03-.03-.03-.04-.03-.03-.03h0l-.03-.03-.03-.04-.03-.03-.02-.04-.03-.04-.02-.04-.02-.04-.02-.05-.02-.04-.02-.05h0l-.02-.04v-.05s-.03-.05-.03-.05v-.05s-.02-.05-.02-.05v-.05s-.01-.06-.01-.06v-.05s-.01-.06-.01-.06v-.06h0v-.17s.01-.05.01-.05v-.06s.02-.05.02-.05v-.05s.03-.05.03-.05v-.05s.03-.05.03-.05h0l.02-.04.02-.05.02-.04.02-.05.02-.04.03-.04.02-.04.03-.03.03-.04.03-.03h0l.03-.03.04-.03.03-.03.04-.03.03-.03.04-.02.04-.02.04-.03.04-.02h.04s.05-.03.05-.03l.04-.02h.04s.05-.02.05-.02h.05s.04-.02.04-.02h.05s.05-.01.05-.01h.29s.05.02.05.02h.05s.04.02.04.02h.05s.04.03.04.03l.04.02h.05s.04.03.04.03l.04.03.04.02.04.02.03.03.04.03.03.03.04.03.03.03h0l.03.03.03.04.03.03.02.04.03.04.02.04.03.05.02.04.02.05.02.04h0v.05s.03.05.03.05v.05s.02.05.02.05v.05s.02.06.02.06v.11s.01.06.01.06v.05Zm-.66,0h0v-.07s0-.04,0-.04v-.11s-.01-.03-.01-.03v-.03s-.02-.03-.02-.03v-.03h0v-.05s-.02-.02-.02-.02v-.03s-.02-.02-.02-.02v-.02s-.02-.02-.02-.02l-.02-.02v-.02s-.02-.02-.02-.02h-.02s-.01-.03-.01-.03h-.02s-.01-.03-.01-.03h-.02s-.01-.02-.01-.02h-.02s-.02-.02-.02-.02h-.02s-.02-.02-.02-.02h-.03s-.02,0-.02,0h-.02s-.02-.01-.02-.01h-.02s-.02,0-.02,0h-.16s-.02,0-.02,0h-.02s-.02.01-.02.01h-.02s-.02,0-.02,0h-.02s-.01.02-.01.02h-.02s-.02.02-.02.02h-.01s-.02.02-.02.02v.02s-.03,0-.03,0v.02s-.03,0-.03,0h0v.02s-.02.02-.02.02v.02s-.02.02-.02.02v.02s-.02.02-.02.02v.03s-.02.02-.02.02v.03s-.02.02-.02.02h0v.06s-.02.03-.02.03v.07s-.01.03-.01.03v.11s0,.04,0,.04h0v.08s0,.04,0,.04v.1s.01.03.01.03v.03s.02.03.02.03v.02h0v.03s.02.02.02.02v.03s.02.02.02.02v.02s.02.02.02.02v.02s.02.02.02.02v.02s.02.01.02.01h0l.02.02v.02s.03,0,.03,0h.01s.02.02.02.02v.02s.03,0,.03,0h.03s.02.02.02.02h.02s.02,0,.02,0h.02s.02.01.02.01h.02s.02,0,.02,0h.06s.02.01.02.01h.04s.02-.01.02-.01h.06s.02,0,.02,0h.02s.02-.01.02-.01h.01s.02-.02.02-.02h.02s.02-.01.02-.01h.02s.01-.03.01-.03h.02s.01-.02.01-.02h.02s.01-.03.01-.03l.02-.02h.01s.01-.03.01-.03l.02-.02v-.02s.02-.02.02-.02v-.02s.02-.02.02-.02v-.03s.02-.02.02-.02v-.03h0v-.02s.02-.03.02-.03v-.03s.01-.03.01-.03v-.03s.01-.04.01-.04v-.11s0-.04,0-.04Zm2.35-1.09h.01s.01-.02.01-.02h.01s0-.02,0-.02h.01s.01,0,.01,0h0s.01-.02.01-.02h.01s.01-.02.01-.02h.02s.01-.02.01-.02h.03s.02,0,.02,0h.02s.02-.01.02-.01h.69l-3.76,4.94h0s-.01.02-.01.02h-.01s-.01.02-.01.02h0s-.02.02-.02.02h-.01s0,.02,0,.02h-.02s-.02.02-.02.02h-.02s-.02.01-.02.01h-.01s-.02,0-.02,0h-.03s-.02,0-.02,0h-.66l3.76-4.94Zm1.18,3.75h0v.11s0,.05,0,.05v.06s-.02.05-.02.05v.05s-.02.05-.02.05l-.02.05v.05s-.03.04-.03.04h0l-.02.05-.02.04-.02.05-.03.04-.02.04-.03.04-.03.04-.03.03-.03.04-.03.03h0l-.03.03-.03.03-.04.03-.03.03-.04.02-.04.03-.04.02-.04.02-.04.02-.04.02h0l-.05.02h-.04s-.04.03-.04.03h-.05s-.04.02-.04.02h-.05s-.04.01-.04.01h-.05s-.04,0-.04,0h-.2s-.04,0-.04,0h-.05s-.05-.02-.05-.02h-.04s-.05-.03-.05-.03h-.04s-.04-.03-.04-.03h0l-.05-.02-.04-.02-.04-.02-.04-.02-.03-.03-.04-.02-.04-.03-.03-.03-.03-.03-.04-.03h0l-.03-.03-.02-.04-.03-.03-.03-.04-.02-.04-.03-.04-.02-.04-.02-.05-.02-.04-.02-.05h0v-.04s-.03-.05-.03-.05v-.05s-.02-.05-.02-.05v-.05s-.02-.05-.02-.05v-.06s-.01-.05-.01-.05v-.11h0v-.23s.02-.06.02-.06v-.05s.02-.05.02-.05v-.05s.03-.05.03-.05v-.05h.01l.02-.04.02-.05.02-.04.02-.05.03-.04.02-.04.03-.04.03-.03.02-.04.03-.03h0l.04-.03.03-.03.03-.03.04-.03.04-.03.03-.02.04-.02.04-.03h.04s.05-.03.05-.03h0l.04-.02.04-.02h.05s.04-.02.04-.02h.05s.05-.02.05-.02h.04s.05,0,.05,0h.3s.05.02.05.02h.04s.05.02.05.02h.04s.05.03.05.03l.04.02h0l.04.02h.04s.04.04.04.04l.04.02.04.02.04.03.03.03.04.03.03.03.03.03h0l.03.03.03.04.03.03.03.04.02.04.02.04.03.05.02.04.02.05.02.04h0v.05s.03.05.03.05v.05s.02.05.02.05v.05s.02.06.02.06v.05s.01.06.01.06v.06s0,.06,0,.06Zm-.67,0h0v-.12s-.01-.04-.01-.04v-.06s0-.04,0-.04v-.03s-.01-.03-.01-.03v-.02h-.01v-.03s-.02-.03-.02-.03v-.02s-.02-.03-.02-.03v-.02s-.02-.02-.02-.02v-.02s-.02-.02-.02-.02l-.02-.02v-.02h-.02s-.02-.03-.02-.03h-.01s-.02-.03-.02-.03h-.01s-.02-.02-.02-.02h-.02s0-.02,0-.02h-.02s-.02-.01-.02-.01h-.02s-.02-.02-.02-.02h-.04s-.02,0-.02,0h-.02s-.02-.01-.02-.01h-.16s-.02.01-.02.01h-.02s-.02,0-.02,0h-.02s0,.02,0,.02h-.04s-.02.02-.02.02h0s-.02.02-.02.02h0s-.02.03-.02.03h-.01s-.02.03-.02.03h-.01s0,.03,0,.03l-.02.02v.02s-.02.02-.02.02v.02s-.02.02-.02.02v.03s-.02.02-.02.02v.03s-.02.03-.02.03h0v.05s0,.03,0,.03v.04s-.01.03-.01.03v.03s-.01.04-.01.04v.12h0v.18s.01.03.01.03v.03s.01.03.01.03v.03s0,.02,0,.02h0v.03s.02.03.02.03v.02s.02.02.02.02v.02s.02.03.02.03v.02s.02,0,.02,0l.02.02v.02h.02s.02.03.02.03h.01s.02.03.02.03h0s.02.02.02.02h0s.02.02.02.02h.02s.02.01.02.01h0s.02.02.02.02h.04s.02,0,.02,0h.04s.02,0,.02,0h.12s.02,0,.02,0h.04s.02,0,.02,0h.02s.02-.02.02-.02h.04s0-.02,0-.02h.02s.02-.02.02-.02h.01s.02-.03.02-.03h.01s.02-.03.02-.03h0s.01-.03.01-.03l.02-.02h0s.01-.03.01-.03v-.03s.02-.02.02-.02v-.02s.02-.02.02-.02v-.03s.02-.03.02-.03h0v-.02s.01-.03.01-.03v-.03s.01-.03.01-.03v-.03s0-.04,0-.04v-.07s.01-.04.01-.04v-.03Z"/><path class="cls-3" d="m99.64,39.55v.65h-2.81v-.65h1.03v-2.95h0v-.21s0-.04,0-.04v-.11l-.73.61h-.01s0,.02,0,.02h-.03s-.01.02-.01.02h-.03s0,0,0,0h0s-.01.01-.01.01h-.04s-.01,0-.01,0h-.05s-.01,0-.01,0h-.04s0-.01,0-.01h-.02s-.01,0-.01,0h-.02s-.01-.02-.01-.02h-.02v-.02h-.02s0-.02,0-.02h0s-.01,0-.01,0l-.27-.38,1.55-1.31h.71v4.42h.91Z"/><path class="cls-3" d="m103.97,37.67h0v.26s0,.12,0,.12v.12s-.03.12-.03.12v.11s-.03.11-.03.11l-.02.11-.03.1-.03.1h0l-.02.1-.04.09-.03.09-.04.08-.03.09-.04.08-.05.07-.04.07-.05.07-.05.07h0l-.05.06-.05.06-.06.06-.05.05-.06.05-.06.04-.06.05-.07.04-.06.03-.07.04h0l-.07.02-.07.03-.07.02-.07.02-.07.02h-.08s-.07.03-.07.03h-.16s-.08.01-.08.01h-.15s-.08-.01-.08-.01l-.07-.02h-.08s-.07-.03-.07-.03l-.07-.02-.07-.02-.07-.03-.07-.02h0l-.07-.04-.06-.03-.07-.04-.06-.05-.06-.04-.06-.05-.05-.05-.06-.06-.05-.06-.05-.06h0l-.05-.07-.04-.07-.05-.07-.04-.07-.04-.08-.04-.09-.03-.08-.04-.09-.03-.09-.03-.1h0l-.02-.1-.03-.1-.02-.11-.02-.11v-.11s-.03-.12-.03-.12v-.12s0-.12,0-.12v-.13s0-.13,0-.13h0v-.26s0-.12,0-.12v-.13s.03-.11.03-.11v-.12s.03-.11.03-.11l.02-.1.03-.11.02-.09h0l.03-.1.03-.09.04-.09.03-.09.04-.08.04-.08.04-.07.05-.08.04-.07.05-.06h0l.05-.06.05-.06.06-.06.05-.05.06-.05.06-.04.06-.05.07-.04.06-.03.07-.03h0l.07-.03.07-.03.07-.02.07-.03h.07s.08-.03.08-.03h.07s.08-.02.08-.02h.39s.07.02.07.02l.08.02h.07s.07.04.07.04l.07.02.07.03.07.03h0l.07.03.06.03.07.04.06.05.06.04.06.05.05.05.06.06.05.06.05.06h0l.05.06.05.07.04.08.05.07.04.08.03.08.04.09.03.09.04.09.02.1h0l.03.09.03.11.02.1.02.11v.12s.03.11.03.11v.13s0,.12,0,.12v.13s0,.13,0,.13Zm-.9,0h0v-.41s-.02-.09-.02-.09v-.09l-.02-.09v-.08s-.02-.08-.02-.08l-.02-.07h0v-.07s-.03-.07-.03-.07l-.02-.07-.02-.06-.02-.06-.02-.05-.03-.06-.02-.05-.03-.04-.02-.05h0l-.03-.04-.03-.04-.03-.03-.03-.04-.03-.03-.03-.03-.03-.02-.03-.03-.04-.02-.03-.02h-.04s-.03-.03-.03-.03h-.04s-.03-.02-.03-.02h-.04s-.04-.02-.04-.02h-.03s-.04,0-.04,0h-.22s-.04.02-.04.02h-.04s-.03.02-.03.02h-.04s-.03.03-.03.03h-.04s-.03.03-.03.03l-.04.02-.03.03-.03.02-.03.03-.03.03-.03.04-.03.03-.03.04-.02.04h0l-.03.05-.02.04-.03.05-.02.06-.02.05-.02.06-.02.06-.02.07-.02.07-.02.07h0v.07s-.02.08-.02.08l-.02.08v.09s0,.09,0,.09v.09s-.02.1-.02.1v.31h0v.41s.02.09.02.09v.18s.03.08.03.08v.08s.02.07.02.07h0l.02.07.02.07.02.06.02.07.02.05.02.06.02.05.03.05.02.05.03.05h0l.02.04.03.04.03.03.03.04.03.03.03.03.03.02.03.03.04.02.03.02h.04s.03.03.03.03h.04s.03.02.03.02h.04s.04.02.04.02h.07s.04.01.04.01h.15s.03-.01.03-.01h.04s.04-.02.04-.02h.03s.04-.02.04-.02l.03-.02h.04s.03-.03.03-.03l.04-.02.03-.03.03-.02.03-.03.03-.03.03-.04.03-.03.03-.04.03-.04h0l.02-.05.03-.05.02-.05.03-.05.02-.06.02-.05.02-.07.02-.06.02-.07v-.07h0l.02-.07v-.08s.02-.08.02-.08l.02-.09v-.18s.02-.1.02-.1v-.31Z"/><path class="cls-3" d="m106.76,36.36h0v.06s0,.05,0,.05v.11s-.02.05-.02.05v.06s-.02.05-.02.05l-.02.05v.04s-.03.05-.03.05h0l-.02.05-.02.04-.03.04-.02.04-.02.04-.03.04-.03.04-.03.04-.03.03-.03.04h0l-.03.03-.04.03-.03.03-.04.02-.03.03-.04.02-.04.03-.04.02-.04.02h-.04s-.05.03-.05.03l-.04.02h-.04s-.05.02-.05.02h-.04s-.05.02-.05.02h-.09s-.04,0-.04,0h-.2s-.05,0-.05,0h-.04s-.05-.02-.05-.02h-.04s-.05-.02-.05-.02l-.04-.02-.05-.02h-.04s-.04-.03-.04-.03l-.04-.02-.04-.03-.04-.02-.03-.03-.04-.02-.03-.03-.04-.03-.03-.03h0l-.03-.04-.03-.03-.02-.04-.03-.04-.02-.04-.03-.04-.02-.04-.02-.04-.02-.04-.02-.05h0l-.02-.05v-.04s-.02-.05-.02-.05l-.02-.05v-.11s-.02-.05-.02-.05v-.11s-.01-.06-.01-.06h0v-.11s.01-.06.01-.06v-.06s.02-.05.02-.05v-.05l.02-.05v-.05s.02-.05.02-.05l.02-.05h0l.02-.05.02-.04.02-.05.02-.04.03-.04.02-.04.03-.04.02-.04.03-.03.03-.03h0l.03-.04.04-.03.03-.03.04-.02.03-.03.04-.02.04-.03.04-.02.04-.02.04-.02h.05s.04-.03.04-.03h.05s.04-.03.04-.03h.05s.04,0,.04,0h.05s.05,0,.05,0h.05s.05-.01.05-.01h.1s.05.01.05.01h.05s.04,0,.04,0h.05s.05.03.05.03h.04s.04.03.04.03h.05s.04.03.04.03l.04.02.04.02.04.03.04.02.04.03.03.02.04.03.03.03.03.04h0l.03.03.03.03.03.04.03.04.02.04.03.04.02.04.02.05.02.04.02.05h0v.05s.03.05.03.05v.05s.02.05.02.05v.05s.02.05.02.05v.06s.01.06.01.06v.11Zm-.67,0h0v-.15s-.01-.04-.01-.04v-.03s0-.03,0-.03v-.03s-.02-.03-.02-.03v-.03h0v-.03s-.02-.02-.02-.02v-.03s-.02-.02-.02-.02v-.02s-.02-.02-.02-.02v-.02s-.02-.02-.02-.02l-.02-.02v-.02h-.01l-.02-.02h-.01s0-.03,0-.03h-.02s-.02-.02-.02-.02h-.01s-.02-.02-.02-.02h-.02s-.01-.02-.01-.02h-.02s-.02-.02-.02-.02h-.04s-.02,0-.02,0h-.02s-.02-.01-.02-.01h-.04s-.02,0-.02,0h-.08s-.02,0-.02,0h-.04s-.02.01-.02.01h-.02s-.02,0-.02,0h-.02s0,.02,0,.02h-.02s-.02.02-.02.02h0s-.02.02-.02.02h-.02s-.01.02-.01.02l-.02.02h-.01s0,.03,0,.03h0l-.02.02v.02s-.02.02-.02.02v.02s-.02.02-.02.02v.02s-.02.02-.02.02v.03s-.02.02-.02.02v.03h0v.06s0,.03,0,.03v.03s-.01.03-.01.03v.04s0,.04,0,.04v.11h0v.18s0,.03,0,.03v.04s.01.02.01.02v.03s0,.03,0,.03h0v.03s.02.02.02.02v.02s.02.03.02.03v.02s.02.02.02.02v.02s.02.02.02.02h0s.02.03.02.03h0v.02s.02,0,.02,0l.02.02h.01s.02.02.02.02h.02s0,.02,0,.02h.02s.02.02.02.02h0s.02,0,.02,0h.02s.02.01.02.01h.02s.02,0,.02,0h.02s.02.01.02.01h.16s.02-.01.02-.01h.02s.02,0,.02,0h.02s.02-.01.02-.01h.02s.01-.02.01-.02h.02s.02-.02.02-.02h.01s.02-.02.02-.02h.02s0-.03,0-.03h.01s.02-.03.02-.03h0v-.02s.03,0,.03,0v-.02s.02-.02.02-.02v-.02s.02-.02.02-.02v-.03s.02-.02.02-.02v-.02s.02-.03.02-.03h0v-.06s.02-.02.02-.02v-.07s0-.03,0-.03v-.04s.01-.03.01-.03v-.08Zm2.35-1.09h.01s0-.02,0-.02h0s.01-.02.01-.02h0s.01-.02.01-.02h0s0-.02,0-.02h.01s.02-.01.02-.01h.01s0-.02,0-.02h.02s0-.01,0-.01h.02s.02,0,.02,0h.06s.02-.01.02-.01h.63l-3.76,4.94h-.01s0,.03,0,.03h0s-.01.02-.01.02h0s0,.01,0,.01h-.01s-.02.02-.02.02h-.01s0,.02,0,.02h-.03s-.01.02-.01.02h-.05s-.01.01-.01.01h-.7l3.76-4.93Zm1.18,3.74h0v.17s-.02.05-.02.05v.05s-.02.06-.02.06v.05s-.02.05-.02.05l-.02.04-.02.05h0l-.02.05-.02.04-.02.04-.03.04-.02.04-.03.04-.02.04-.03.04-.03.03-.03.04h0l-.04.03-.03.03-.04.03-.03.02-.04.03-.04.02-.04.03-.04.02-.04.02-.04.02h0l-.04.02h-.05s-.04.02-.04.02h-.04s-.05.02-.05.02h-.04s-.05.02-.05.02h-.09s-.05.01-.05.01h-.09s-.05-.01-.05-.01h-.05s-.05-.02-.05-.02h-.04s-.05-.02-.05-.02h-.04s-.05-.02-.05-.02l-.04-.02h0l-.04-.02-.04-.02-.04-.02-.04-.03-.04-.02-.04-.03-.03-.02-.04-.03-.03-.03-.03-.03h0l-.03-.04-.03-.03-.03-.04-.03-.04-.02-.04-.02-.04-.03-.04-.02-.04-.02-.04v-.05h0l-.02-.05-.02-.04v-.05s-.02-.05-.02-.05v-.06s-.02-.05-.02-.05v-.11s0-.05,0-.05v-.06h0v-.17s0-.06,0-.06v-.05s.02-.05.02-.05v-.05s.02-.05.02-.05l.02-.05.02-.05h0v-.05s.03-.04.03-.04l.02-.05.03-.04.02-.04.02-.04.03-.04.03-.04.03-.03.03-.03h0l.03-.04.03-.03.04-.03.03-.02.04-.03.04-.02.04-.03.04-.02.04-.02.04-.02h.04s.05-.03.05-.03h.04s.05-.03.05-.03h.04s.05,0,.05,0h.05s.05-.01.05-.01h.04s.05,0,.05,0h.1s.05,0,.05,0h.05s.05.01.05.01h.04s.05.03.05.03h.04s.05.03.05.03h.04s.04.03.04.03l.05.02.04.02.03.03.04.02.04.03.03.02.04.03.03.03.03.04h0l.03.03.03.03.03.04.03.04.02.04.03.04.02.04.02.05.02.04.02.05h0l.02.05v.05s.02.05.02.05l.02.05v.05s0,.05,0,.05v.06s.02.06.02.06v.11Zm-.67,0h0v-.15s-.01-.04-.01-.04v-.06s-.02-.03-.02-.03v-.06h-.01v-.03s-.02-.02-.02-.02v-.05s-.03-.02-.03-.02v-.02s-.02-.02-.02-.02v-.02s-.02-.02-.02-.02l-.02-.02h0v-.02s-.03,0-.03,0v-.02s-.03,0-.03,0h0s-.02-.02-.02-.02h0s-.02-.02-.02-.02h-.02s-.02-.02-.02-.02h-.02s-.02,0-.02,0h0s-.02-.01-.02-.01h-.02s-.02,0-.02,0h-.04s-.02-.01-.02-.01h-.09s-.02.01-.02.01h-.04s-.02,0-.02,0h0s-.02.01-.02.01h-.02s-.02.02-.02.02h-.02s0,.02,0,.02h-.02s-.02.02-.02.02h0s-.02.02-.02.02v.02s-.03,0-.03,0v.02h0v.02s-.02.02-.02.02l-.02.02v.02s-.02.02-.02.02v.02s-.02.02-.02.02v.03s-.02.02-.02.02v.03h0v.03s-.02.03-.02.03v.06s0,.03,0,.03v.08s0,.03,0,.03v.08h0v.15s0,.03,0,.03v.07s0,.03,0,.03v.02s.02.03.02.03h0v.05s.02.03.02.03v.02s.02.02.02.02v.02s.02.02.02.02l.02.02v.02s.02.01.02.01h0v.02s.03.02.03.02h0s.02.02.02.02h0s.02.03.02.03h.02s0,.01,0,.01h.02s.02.02.02.02h.02s.02,0,.02,0h0s.02.01.02.01h.02s.02.01.02.01h.06s.02,0,.02,0h.05s.02,0,.02,0h.06s.02-.01.02-.01h0s.02-.01.02-.01h.02s.02-.02.02-.02h.02s.02-.01.02-.01h0s.02-.03.02-.03h0s.02-.02.02-.02h0s.02-.03.02-.03v-.02h.03s0-.03,0-.03v-.02s.02-.02.02-.02v-.02s.03-.02.03-.02v-.02s.01-.03.01-.03v-.02s.02-.03.02-.03h0v-.03s.01-.02.01-.02v-.03s.02-.04.02-.04v-.1s.01-.03.01-.03v-.08Z"/><path class="cls-3" d="m106.04,55.31v.65h-2.81v-.65h1.03v-2.95h0v-.21s0-.04,0-.04v-.11l-.73.61h0s-.01.02-.01.02h-.03s0,.02,0,.02h-.02s-.02.01-.02.01h0s0,.01,0,.01h-.04s0,0,0,0h-.05s0,0,0,0h-.04s0-.01,0-.01h-.02s0-.01,0-.01h-.01s0-.01,0-.01h0s-.01-.02-.01-.02h0s0-.01,0-.01h-.01s0-.02,0-.02h0s0-.01,0-.01l-.27-.38,1.55-1.31h.71v4.42h.91Z"/><path class="cls-3" d="m106.86,52.31h0v-.08s.02-.07.02-.07l.02-.06v-.07s.03-.07.03-.07l.02-.06.03-.06.02-.06.03-.06.03-.05h0l.03-.06.03-.05.04-.05.03-.05.04-.04.04-.05.04-.04.04-.04.04-.04.04-.04h0l.05-.04.05-.03.05-.03.05-.03.05-.03.05-.03.05-.02.06-.03.06-.02.05-.02h0l.06-.02h.06s.06-.03.06-.03h.07s.06-.02.06-.02h.06s.07-.01.07-.01h.06s.07,0,.07,0h.27s.06,0,.06,0h.07s.06.02.06.02l.06.02h.06s.06.03.06.03l.06.02h0l.05.02.06.02.05.03.05.02.05.03.05.03.04.03.05.03.04.03.04.04h0l.04.03.04.04.03.04.03.04.04.04.03.04.02.04.03.05.02.04.02.05h0l.02.05.02.05.02.05v.05s.03.05.03.05v.05s0,.05,0,.05v.06s.01.05.01.05v.06h0v.18s-.01.04-.01.04v.05s0,.04,0,.04v.04s-.02.04-.02.04v.03h0v.04s-.03.03-.03.03v.04s-.02.03-.02.03l-.02.03v.04s-.03.03-.03.03l-.02.03-.02.02-.02.03h0l-.02.03-.02.03-.02.02-.03.02-.02.03-.03.02-.02.02-.03.02-.03.02-.03.02h0l-.03.02-.03.02-.03.02h-.04s-.03.03-.03.03l-.03.02h-.04s-.04.02-.04.02l-.03.02h-.04s.09.04.09.04l.08.03.08.04.08.04.07.04.06.05.06.05.06.05.05.05.05.06h0l.04.06.04.06.03.07.03.07.03.07.02.08v.08s.03.08.03.08v.17h0v.22s-.02.07-.02.07v.07s-.03.06-.03.06v.07s-.04.06-.04.06l-.02.06-.03.06h0l-.02.06-.04.05-.03.05-.03.06-.04.05-.04.04-.04.05-.04.05-.05.04-.04.04h0l-.05.04-.05.03-.05.04-.06.03-.05.03-.06.03-.06.03-.05.02-.07.03-.06.02h0l-.06.02h-.06s-.07.03-.07.03h-.06s-.07.02-.07.02h-.07s-.06.02-.06.02h-.14s-.07.01-.07.01h-.22s-.07-.01-.07-.01h-.07s-.06-.02-.06-.02h-.07s-.06-.03-.06-.03h-.06s-.06-.03-.06-.03h0l-.05-.02-.06-.02-.05-.02-.05-.02-.05-.03-.05-.02-.05-.03-.04-.03-.05-.03-.04-.04h0l-.04-.03-.04-.04-.04-.04-.04-.04-.04-.04-.03-.04-.03-.05-.04-.04-.03-.05-.03-.05h0l-.03-.05-.03-.05-.02-.05-.03-.06-.03-.06-.02-.06-.02-.05-.03-.07-.02-.06-.02-.06.38-.16h.03s.03-.02.03-.02h.03s.03-.02.03-.02h.16s.03.01.03.01h.02s.02.02.02.02h.03s.02.03.02.03h.01s.02.03.02.03l.02.02v.02s.02.02.02.02h0l.02.02v.03s.02.02.02.02l.02.02v.03s.02.02.02.02l.02.03v.02s.03.03.03.03v.02h.01l.02.02v.03s.03.02.03.02l.02.02.02.02v.02s.03.02.03.02l.02.02.02.02.02.02h0l.02.02.03.02h.02s.02.03.02.03l.03.02h.02s.03.03.03.03h.02s.03.02.03.02h.03s.03.02.03.02h.03s.03.02.03.02h.03s.04.02.04.02h.1s.04.01.04.01h.17s.04-.01.04-.01h.04s.03-.02.03-.02h.04l.04-.02h.03s.03-.02.03-.02h0l.04-.02h.03s.03-.03.03-.03l.03-.02h.03s.02-.03.02-.03l.03-.02.02-.02.03-.03.02-.02h0l.02-.02.02-.03.02-.02.02-.03.02-.02v-.03s.03-.02.03-.02v-.03s.02-.03.02-.03v-.03h0v-.02s.02-.03.02-.03v-.03s.02-.03.02-.03v-.06s.01-.03.01-.03v-.03s0-.02,0-.02v-.03h0v-.14s0-.04,0-.04v-.03s-.01-.03-.01-.03v-.03s0-.03,0-.03v-.03h0v-.03s-.02-.03-.02-.03v-.03s-.02-.03-.02-.03l-.02-.02-.02-.03v-.02s-.04-.02-.04-.02l-.02-.03-.02-.02h0l-.03-.02-.02-.02-.03-.02-.04-.02h-.03s-.04-.03-.04-.03h-.04s-.04-.03-.04-.03h-.04s-.05-.02-.05-.02h-.04s-.05-.02-.05-.02h-.06s-.05-.02-.05-.02h-.06s-.07-.01-.07-.01h-.06s-.07-.01-.07-.01h-.15v-.62h.18s.06-.01.06-.01h.05s.06-.01.06-.01h.04s.05-.02.05-.02h.05s.04-.02.04-.02h.04s.04-.02.04-.02l.04-.02h.04s.03-.03.03-.03h.03s.03-.03.03-.03l.03-.02h.03s.02-.03.02-.03h0l.03-.02.02-.03.02-.02.02-.02.02-.02.02-.03v-.02s.03-.03.03-.03v-.03s.02-.03.02-.03h0v-.02s.02-.03.02-.03v-.06s.02-.03.02-.03v-.1s0-.03,0-.03v-.03h0v-.14s-.02-.06-.02-.06v-.06s-.03-.06-.03-.06l-.02-.05-.03-.05-.03-.05-.03-.04-.04-.04h0l-.04-.03-.05-.03-.04-.03-.05-.03-.05-.02h-.06s-.06-.03-.06-.03h-.06s-.06-.01-.06-.01h-.21s-.03.01-.03.01h-.03s-.03.02-.03.02h-.05s-.02.02-.02.02h-.03s-.02.02-.02.02h-.03s-.02.02-.02.02l-.03.02h-.02s-.02.02-.02.02l-.02.02-.02.02h-.02s-.02.03-.02.03h-.02s-.02.03-.02.03l-.02.02v.02s-.03.02-.03.02l-.02.02v.02s-.03.02-.03.02h0v.02s-.02.02-.02.02v.02s-.03.02-.03.02v.03s-.02.02-.02.02v.02s0,.03,0,.03v.02s-.02.03-.02.03h0v.03s-.03.03-.03.03v.03s-.02.02-.02.02l-.02.02-.02.02v.02s-.03.02-.03.02h-.02s-.02.02-.02.02h-.02s-.02.02-.02.02h-.02s-.03,0-.03,0h-.02s-.03.01-.03.01h-.09s-.04-.01-.04-.01l-.45-.08Z"/><path class="cls-3" d="m113.16,52.12h0v.06s0,.05,0,.05v.11s-.02.05-.02.05v.06s-.02.05-.02.05l-.02.04v.05s-.03.05-.03.05h0l-.02.05-.02.04-.03.04-.02.04-.02.04-.03.04-.03.04-.03.04-.03.03-.03.04h0l-.03.03-.03.03-.04.03-.04.02-.03.03-.04.02-.04.03-.04.02-.04.02h-.04s-.05.03-.05.03l-.04.02h-.04s-.05.02-.05.02h-.04s-.05.02-.05.02h-.09s-.04.01-.04.01h-.2s-.04-.01-.04-.01h-.05s-.05-.02-.05-.02h-.04s-.05-.02-.05-.02l-.04-.02-.04-.02h-.05s-.04-.03-.04-.03l-.04-.02-.04-.03-.03-.02-.04-.03-.04-.02-.03-.03-.03-.03-.04-.03h0l-.03-.04-.03-.03-.02-.04-.03-.04-.02-.04-.03-.04-.02-.04-.02-.04-.02-.04-.02-.05h0v-.05s-.03-.05-.03-.05v-.04s-.02-.05-.02-.05v-.06s-.02-.05-.02-.05v-.05s0-.06,0-.06v-.11h0v-.06s0-.05,0-.05v-.12s.02-.05.02-.05v-.05s.02-.05.02-.05v-.05s.03-.05.03-.05v-.05h0l.02-.05.02-.04.02-.05.02-.04.03-.04.02-.04.03-.04.02-.04.03-.03.03-.04h0l.04-.03.03-.03.03-.03.04-.02.04-.03.03-.03.04-.02.04-.02.04-.02.05-.02h.04s.04-.03.04-.03h.05s.04-.03.04-.03h.05s.05-.01.05-.01h.04s.05-.02.05-.02h.25s.05.02.05.02h.09s.05.03.05.03h.04s.04.03.04.03h.05s.04.03.04.03l.04.02.04.02.04.02.04.03.04.03.03.02.04.03.03.03.03.03h0l.03.04.03.03.03.04.03.04.02.04.03.04.02.04.02.05.02.04.02.05h0v.05s.03.05.03.05v.05s.02.05.02.05v.05s.02.05.02.05v.06s0,.06,0,.06v.05s0,.06,0,.06Zm-.67,0h0v-.15s0-.04,0-.04v-.03s-.01-.03-.01-.03v-.03s0-.03,0-.03v-.03h0v-.03s-.02-.02-.02-.02v-.03s-.02-.02-.02-.02v-.02s-.02-.02-.02-.02v-.02s-.02-.02-.02-.02l-.02-.02v-.02h0v-.02s-.03-.01-.03-.01v-.02s-.03-.01-.03-.01h-.01s-.02-.02-.02-.02h-.02s-.02-.02-.02-.02h0s-.02-.02-.02-.02h-.02s-.02-.01-.02-.01h-.02s-.02,0-.02,0h-.02s-.02-.01-.02-.01h-.04s-.02-.01-.02-.01h-.08s-.02.01-.02.01h-.04s-.02.01-.02.01h-.02s-.02,0-.02,0h0s-.02.02-.02.02h-.02s-.02.02-.02.02h-.01s-.02.02-.02.02h-.02s0,.02,0,.02v.02s-.03.01-.03.01v.02h-.01v.02s-.03.02-.03.02v.02s-.02.02-.02.02v.02s-.02.02-.02.02v.02s-.02.03-.02.03v.02s0,.03,0,.03h0v.03s-.02.03-.02.03v.06s0,.03,0,.03v.04s-.01.03-.01.03v.12h0v.18s.01.03.01.03v.03s0,.03,0,.03v.03s.02.03.02.03h0v.05s.02.02.02.02v.03s.02.02.02.02v.02s.02.02.02.02v.02s.03,0,.03,0v.02h0v.02s.03.01.03.01h.01s0,.03,0,.03h.02s.02.02.02.02h.01s.02.02.02.02h.02s.02.02.02.02h.03s.02.01.02.01h.02s.02.01.02.01h.02s.02.01.02.01h.16s.02-.01.02-.01h.02s.02-.01.02-.01h.02s.02-.01.02-.01h.02s0-.02,0-.02h.02s.02-.02.02-.02h.02s.01-.02.01-.02l.02-.02h.01s.02-.02.02-.02v-.02h.01v-.02s.03,0,.03,0v-.02s.02-.02.02-.02v-.02s.02-.02.02-.02v-.03s.02-.02.02-.02v-.02s.02-.03.02-.03h0v-.03s0-.03,0-.03v-.03s0-.03,0-.03v-.03s.01-.03.01-.03v-.04s0-.03,0-.03v-.08Zm2.35-1.09h0s.01-.02.01-.02h0s0-.02,0-.02h.01s0-.02,0-.02h0s.01-.02.01-.02h.02s.01-.01.01-.01h0s0-.02,0-.02h.02s.02-.01.02-.01h0s.02-.01.02-.01h.06s.02-.01.02-.01h.63l-3.76,4.94h0s-.01.02-.01.02v.02s-.02.01-.02.01h-.02s0,.02,0,.02h-.02s0,.02,0,.02h-.01s0,0,0,0h-.02s0,.02,0,.02h-.05s0,0,0,0h-.7l3.76-4.93Zm1.18,3.74h0v.17s-.02.05-.02.05v.05l-.02.06v.05s-.02.05-.02.05l-.02.04-.02.05h0l-.02.05-.02.04-.02.04-.02.04-.03.04-.03.04-.02.04-.03.04-.03.03-.03.04h0l-.04.03-.03.03-.04.03-.03.02-.04.03-.04.02-.04.03-.04.02-.04.02-.04.02h0l-.04.02h-.05s-.04.02-.04.02h-.04s-.05.02-.05.02h-.04s-.05.02-.05.02h-.09s-.04,0-.04,0h-.1s-.05,0-.05,0h-.05s-.05-.02-.05-.02h-.04s-.05-.02-.05-.02h-.04s-.05-.02-.05-.02l-.04-.02h0l-.04-.02-.04-.02-.04-.02-.04-.03-.04-.02-.04-.03-.03-.02-.04-.03-.03-.03-.03-.03h0l-.03-.04-.03-.03-.03-.04-.02-.04-.03-.04-.02-.04-.03-.04-.02-.04-.02-.04v-.05h-.01l-.02-.05-.02-.04v-.05s-.02-.05-.02-.05v-.06s-.02-.05-.02-.05v-.11s0-.05,0-.05v-.06h0v-.17s0-.06,0-.06v-.05s.02-.05.02-.05v-.05s.02-.05.02-.05l.02-.05.02-.05h0v-.05s.03-.04.03-.04l.02-.05.03-.04.02-.04.03-.04.02-.04.03-.04.03-.03.03-.03h0l.03-.04.03-.03.04-.03.03-.02.04-.03.04-.02.04-.03.04-.02.04-.02.04-.02h.04s.05-.03.05-.03h.04s.05-.03.05-.03h.04s.05-.01.05-.01h.05s.05-.01.05-.01h.05s.05,0,.05,0h.1s.04,0,.04,0h.05s.05.01.05.01h.04s.05.03.05.03h.04s.05.03.05.03h.04s.04.03.04.03l.05.02.04.02.04.03.03.02.04.03.04.02.03.03.03.03.03.04h0l.03.03.03.03.03.04.03.04.02.04.03.04.02.04.02.05.02.04.02.05h0l.02.05v.05s.03.05.03.05v.05s.02.05.02.05v.05s0,.06,0,.06v.06s0,.05,0,.05v.06Zm-.67,0h0v-.15s0-.04,0-.04v-.06s-.01-.03-.01-.03v-.03s-.02-.03-.02-.03h0v-.03s-.01-.02-.01-.02v-.03s-.02-.02-.02-.02v-.02s-.03-.02-.03-.02v-.02s-.02-.02-.02-.02v-.02s-.03-.02-.03-.02h0v-.02s-.02-.01-.02-.01l-.02-.02h0s-.02-.02-.02-.02h-.02s-.01-.02-.01-.02h-.02s-.02-.02-.02-.02h-.02s-.02-.02-.02-.02h-.03s-.02-.01-.02-.01h-.02s-.02,0-.02,0h-.04s-.02-.01-.02-.01h-.09s-.02.01-.02.01h-.04s0,0,0,0h-.02s-.02.01-.02.01h-.02s-.02.02-.02.02h-.02s-.01.02-.01.02h-.02s-.02.02-.02.02h-.01s-.02.02-.02.02v.02s-.02.01-.02.01l-.02.02h0v.02s-.02.02-.02.02l-.02.02v.02s-.02.02-.02.02v.02s-.02.02-.02.02v.03s-.02.02-.02.02v.03h0v.03s-.02.03-.02.03v.06s0,.03,0,.03v.08s-.01.03-.01.03v.08h0v.15s.01.03.01.03v.06s0,.03,0,.03v.03s.02.03.02.03h0v.05s.02.03.02.03v.02s.02.02.02.02v.02s.02.02.02.02l.02.02v.02s.02.01.02.01h0l.02.02h0s.01.03.01.03h.02s.01.02.01.02h.02s.02.02.02.02h.01s.02.02.02.02h.02s.02.02.02.02h.04s0,.01,0,.01h.02s.02,0,.02,0h.09s.02,0,.02,0h.1s.02,0,.02,0h.01s.02-.01.02-.01h.02s.02-.02.02-.02h.02s.02-.02.02-.02h.01s.02-.02.02-.02h.02s0-.02,0-.02l.02-.02h0s.01-.03.01-.03h.02s.01-.03.01-.03v-.02s.02-.02.02-.02l.02-.02v-.02s.02-.02.02-.02v-.03s0-.02,0-.02v-.03h.01v-.03s.02-.03.02-.03v-.06s.01-.03.01-.03v-.07s0-.03,0-.03v-.08Z"/></svg>