<?xml version="1.0" encoding="utf-8"?>
<!-- Generator: Adobe Illustrator 26.2.1, SVG Export Plug-In . SVG Version: 6.00 Build 0)  -->
<svg version="1.1" id="Capa_1" xmlns="http://www.w3.org/2000/svg" xmlns:xlink="http://www.w3.org/1999/xlink" x="0px" y="0px"
	 viewBox="0 0 15 15" style="enable-background:new 0 0 15 15;" xml:space="preserve">
<style type="text/css">
	.st0{fill:#142893;}
	.st1{fill:#FFFFFF;}
</style>
<g id="tw" transform="translate(-837 -293)">
	<circle id="Elipse_3" class="st0" cx="844.5" cy="300.5" r="7.5"/>
	<path id="Trazado_56" class="st1" d="M848.1,298.8c0,0.1,0,0.2,0,0.2c0,2.9-2.3,5.2-5.2,5.2c0,0,0,0-0.1,0c-1,0-2-0.3-2.8-0.8
		c0.1,0,0.3,0,0.4,0c0.8,0,1.6-0.3,2.3-0.8c-0.8,0-1.5-0.5-1.7-1.3c0.1,0,0.2,0,0.3,0c0.2,0,0.3,0,0.5-0.1c-0.9-0.2-1.5-0.9-1.5-1.8
		v0c0.3,0.1,0.5,0.2,0.8,0.2c-0.5-0.3-0.8-0.9-0.8-1.5c0-0.3,0.1-0.6,0.3-0.9c0.9,1.2,2.3,1.9,3.8,1.9c0-0.1,0-0.3,0-0.4
		c0-1,0.8-1.8,1.8-1.8c0,0,0,0,0,0c0.5,0,1,0.2,1.3,0.6c0.4-0.1,0.8-0.2,1.2-0.4c-0.1,0.4-0.4,0.8-0.8,1c0.4,0,0.7-0.1,1.1-0.3
		C848.7,298.2,848.4,298.6,848.1,298.8z"/>
</g>
</svg>
