<?xml version="1.0" encoding="utf-8"?>
<!-- Generator: Adobe Illustrator 26.2.1, SVG Export Plug-In . SVG Version: 6.00 Build 0)  -->
<svg version="1.1" id="Capa_1" xmlns="http://www.w3.org/2000/svg" xmlns:xlink="http://www.w3.org/1999/xlink" x="0px" y="0px"
	 viewBox="0 0 15 15" style="enable-background:new 0 0 15 15;" xml:space="preserve">
<style type="text/css">
	.st0{fill:#142893;}
	.st1{fill:#FFFFFF;}
</style>
<g id="web" transform="translate(-837 -246)">
	<circle id="Elipse_1" class="st0" cx="844.5" cy="253.5" r="7.5"/>
	<path id="Trazado_54" class="st1" d="M844.5,249c2.5,0,4.5,2,4.5,4.5s-2,4.5-4.5,4.5s-4.5-2-4.5-4.5S842,249,844.5,249z
		 M844.5,257.2c0.1,0,0.5-0.1,0.8-0.9c0.2-0.4,0.3-0.7,0.4-1.1h-2.4c0.1,0.4,0.2,0.8,0.4,1.1C844,257,844.4,257.2,844.5,257.2z
		 M843.1,254.3h2.7c0-0.3,0-0.6,0-0.8s0-0.6,0-0.8h-2.7c0,0.3,0,0.6,0,0.8S843.1,254.1,843.1,254.3z M845.7,251.8
		c-0.1-0.4-0.2-0.8-0.4-1.1c-0.4-0.7-0.7-0.9-0.8-0.9s-0.5,0.1-0.8,0.9c-0.2,0.4-0.3,0.7-0.4,1.1H845.7z M846.7,252.7
		c0,0.3,0,0.6,0,0.8c0,0.3,0,0.6,0,0.8h1.3c0.1-0.3,0.1-0.6,0.1-0.8c0-0.3,0-0.6-0.1-0.8H846.7z M846,250.2c0.3,0.5,0.5,1.1,0.6,1.6
		h1.2C847.4,251.1,846.8,250.5,846,250.2z M843,250.2c-0.7,0.3-1.4,0.9-1.7,1.6h1.2C842.5,251.2,842.7,250.7,843,250.2L843,250.2z
		 M840.8,253.5c0,0.3,0,0.6,0.1,0.8h1.3c0-0.3,0-0.6,0-0.8s0-0.6,0-0.8h-1.3C840.9,252.9,840.8,253.2,840.8,253.5z M847.7,255.2
		h-1.2c-0.1,0.6-0.3,1.1-0.6,1.6C846.8,256.5,847.4,255.9,847.7,255.2L847.7,255.2z M842.4,255.2h-1.2c0.4,0.7,1,1.3,1.7,1.6
		C842.7,256.3,842.5,255.8,842.4,255.2L842.4,255.2z"/>
</g>
</svg>
