<svg xmlns="http://www.w3.org/2000/svg" viewBox="0 0 285.3 61.45"><defs><style>.cls-1{fill:#56565a;}.cls-2{fill:#400099;}</style></defs><g id="Foreground"><path class="cls-1" d="M136,12a.3.3,0,0,0,.29-.3V9.45a.29.29,0,0,0-.29-.3h-6.19a.3.3,0,0,0-.3.3v2.29a.31.31,0,0,0,.3.3H131l-2.34,9.87L125.26,9.37a.31.31,0,0,0-.28-.22h-2.4a.31.31,0,0,0-.28.22l-3.44,12.54L116.51,12h1.23a.3.3,0,0,0,.3-.3V9.45a.29.29,0,0,0-.3-.3h-6.16a.3.3,0,0,0-.3.3v2.29a.31.31,0,0,0,.3.3h1.48l3.8,15.22a.31.31,0,0,0,.29.22h3.11a.34.34,0,0,0,.29-.21l3.22-11.69L127,27.27a.31.31,0,0,0,.28.21h3.11a.31.31,0,0,0,.29-.22L134.49,12Z"/><path class="cls-1" d="M142.23,38.32l-1.67,0A4.36,4.36,0,0,0,137.11,40c-.13-1.1-.89-1.61-2.07-1.61h-2.6a.3.3,0,0,0-.3.3V41a.29.29,0,0,0,.3.29h1.38V49h-1.17a.3.3,0,0,0-.3.3v2.24a.31.31,0,0,0,.3.3h5.69a.3.3,0,0,0,.29-.3V49.3a.29.29,0,0,0-.29-.3H137.2V46.21c0-2.39,1.09-4.61,3.29-4.61.38,0,1.71.08,1.71.08a.3.3,0,0,0,.32-.29V38.62A.31.31,0,0,0,142.23,38.32Z"/><path class="cls-1" d="M150.08,20.75a7.21,7.21,0,1,0-7.21,7A7,7,0,0,0,150.08,20.75Zm-7.21,4a3.79,3.79,0,0,1-3.77-4,3.78,3.78,0,1,1,7.55,0A3.82,3.82,0,0,1,142.87,24.72Z"/><path class="cls-1" d="M269.91,23.48a.29.29,0,0,0-.44-.1l-.2.15c-.1.08-.27.22-.49.38a6.64,6.64,0,0,1-.8.5,5,5,0,0,1-2.38.61,3.73,3.73,0,0,1-3.87-4,3.6,3.6,0,0,1,3.72-3.92c1.23,0,2.18.51,2.18.92v1.06a.3.3,0,0,0,.3.3h2.51a.29.29,0,0,0,.3-.3V17.39c0-2.69-3.64-3.32-5.36-3.32a6.89,6.89,0,0,0-7.08,7,6.9,6.9,0,0,0,7.2,7,8.14,8.14,0,0,0,5.44-2.15.32.32,0,0,0,.06-.36Z"/><path class="cls-1" d="M152.47,16.9h1.79v7.75h-1.57a.29.29,0,0,0-.29.29v2.25a.29.29,0,0,0,.29.29h6.49a.29.29,0,0,0,.3-.29V24.94a.29.29,0,0,0-.3-.29h-1.54v-2.8c0-2.38,1.09-4.61,3.28-4.61.39,0,1.72.09,1.72.09A.3.3,0,0,0,163,17V14.27a.3.3,0,0,0-.28-.3s-1.35-.06-1.67-.06a4.33,4.33,0,0,0-3.45,1.75c-.13-1.09-.9-1.6-2.08-1.6h-3a.31.31,0,0,0-.3.3V16.6A.31.31,0,0,0,152.47,16.9Z"/><path class="cls-1" d="M179.14,27.78a5.1,5.1,0,0,0,3.77-1.5,1.82,1.82,0,0,0,2,1.2h2.28a.3.3,0,0,0,.3-.29V24.94a.3.3,0,0,0-.3-.29h-1.09V9.45a.3.3,0,0,0-.3-.3h-4.44a.3.3,0,0,0-.3.3v2.24a.31.31,0,0,0,.3.3h1.36v2.95a4.91,4.91,0,0,0-3.31-1.17c-3.67,0-6.14,2.84-6.14,7S175.44,27.78,179.14,27.78Zm.59-10.93c1.94,0,3,1.77,3,3.95,0,2.85-1.55,3.92-3.08,3.92-1.7,0-3-1.42-3-3.95S178.08,16.85,179.73,16.85Z"/><path class="cls-1" d="M150.58,38.12a7,7,0,1,0,7.2,7A7,7,0,0,0,150.58,38.12Zm0,11a3.95,3.95,0,1,1,3.78-4A3.79,3.79,0,0,1,150.58,49.07Z"/><path class="cls-1" d="M127.14,33.88a7.74,7.74,0,0,0-3.17-.5h-8.85a.29.29,0,0,0-.29.29V36a.29.29,0,0,0,.29.29h1.47V48.8h-1.47a.29.29,0,0,0-.29.29v2.32a.3.3,0,0,0,.29.3h6.4a.31.31,0,0,0,.3-.3V49.09a.3.3,0,0,0-.3-.29H120V45.2h4a7.79,7.79,0,0,0,2.77-.4,5.62,5.62,0,0,0,3.59-5.55A5.61,5.61,0,0,0,127.14,33.88Zm-1.67,8a4.58,4.58,0,0,1-1.75.3H120V36.38h3.71a4.08,4.08,0,0,1,1.87.36,2.61,2.61,0,0,1,1.29,2.51A2.66,2.66,0,0,1,125.47,41.89Z"/><path class="cls-1" d="M285.2,21.53s.1-.81.1-1.14c0-3.42-2-6.32-5.88-6.32s-6.71,2.78-6.71,7a6.83,6.83,0,0,0,7.08,7,8,8,0,0,0,5.29-2,.31.31,0,0,0,.06-.36L284,23.65a.3.3,0,0,0-.46-.07s-.26.24-.42.36a6.66,6.66,0,0,1-.71.44,5.29,5.29,0,0,1-2.43.64,3.64,3.64,0,0,1-3.75-3.23h8.71A.31.31,0,0,0,285.2,21.53Zm-8.84-2.26a3.08,3.08,0,0,1,3-2.32,2.43,2.43,0,0,1,2.43,2.32Z"/><path class="cls-1" d="M256.55,25h-1.27V14.66a.3.3,0,0,0-.29-.3h-4.45a.3.3,0,0,0-.29.3V16.9a.29.29,0,0,0,.29.3h1.37V25h-1.24a.29.29,0,0,0-.3.29v2.25a.29.29,0,0,0,.3.29h5.88a.3.3,0,0,0,.3-.29V25.24A.3.3,0,0,0,256.55,25Z"/><path class="cls-1" d="M206.6,9.45h-6.09a.31.31,0,0,0-.3.3V12a.31.31,0,0,0,.3.3h1.4V22.2c0,2.1-1,2.7-2.13,2.7-1.51,0-2.18-1.13-2.18-2.7v-.56a.29.29,0,0,0-.3-.29h-2.78a.3.3,0,0,0-.3.29v.81a5.24,5.24,0,0,0,5.54,5.63,5.36,5.36,0,0,0,5.6-5.73v-10h1.24a.31.31,0,0,0,.3-.3V9.75A.31.31,0,0,0,206.6,9.45Z"/><path class="cls-1" d="M205,49s-.42,0-.74,0c-.81,0-2.15-.23-2.15-2.35V41.38h2.68a.3.3,0,0,0,.29-.3V38.84a.3.3,0,0,0-.29-.3h-2.68V35.83a.3.3,0,0,0-.3-.3h-2.73a.31.31,0,0,0-.3.3v2.71H197a.31.31,0,0,0-.3.3v2.24a.31.31,0,0,0,.3.3h1.79v5.54c0,4.6,3.61,5.14,5.24,5.14a8.76,8.76,0,0,0,1.1-.08.31.31,0,0,0,.26-.29V49.3A.29.29,0,0,0,205,49Z"/><path class="cls-1" d="M232.7,19.69c-1.67-.57-2.54-1-2.54-1.71,0-.54.58-1,1.72-1s1.69.5,1.69.78v1a.3.3,0,0,0,.29.3h2.49a.31.31,0,0,0,.3-.3v-1.7c0-2.36-3.16-3-4.8-3-2.2,0-5.09,1-5.09,3.93,0,2.66,2.45,3.6,4.21,4.25.43.16.83.29,1.2.44a7.32,7.32,0,0,1,.91.41c.47.28.66.56.66.95,0,.56-.64,1.09-2,1.09s-2.35-.52-2.35-1.05v-1a.3.3,0,0,0-.3-.29h-2.49a.29.29,0,0,0-.29.29v1.53c0,2.47,3.14,3.47,5.36,3.47,2.91,0,5.48-1.37,5.48-4.16S234.52,20.3,232.7,19.69Z"/><path class="cls-1" d="M164,38.54H159.5a.31.31,0,0,0-.3.3v2.24a.31.31,0,0,0,.3.3h1.39V51.76c0,2.07-1.36,2.3-2.16,2.3l-1.39,0a.29.29,0,0,0-.33.29v2.34a.31.31,0,0,0,.25.29s1.21.08,1.74.08c1.61,0,5.26-.59,5.26-5.19v-13A.3.3,0,0,0,164,38.54Z"/><path class="cls-1" d="M223.63,25l-1.55,0V14.66a.3.3,0,0,0-.29-.3h-4.47a.31.31,0,0,0-.3.3V16.9a.3.3,0,0,0,.3.3h1.39v3.38c0,2.31-1.44,4.34-3.53,4.34-1.52,0-1.84-.9-1.84-2.59V14.66a.3.3,0,0,0-.29-.3h-4.47a.31.31,0,0,0-.3.3V16.9a.3.3,0,0,0,.3.3H210v5.62c0,3.5,1.56,5.26,4.57,5.26a5.61,5.61,0,0,0,4.26-1.83,1.81,1.81,0,0,0,2,1.53h2.78a.3.3,0,0,0,.3-.29V25.27A.31.31,0,0,0,223.63,25Z"/><path class="cls-1" d="M193.91,47.66a.29.29,0,0,0-.45-.1l-.19.15c-.11.08-.27.22-.5.38a5.76,5.76,0,0,1-.79.5,5.06,5.06,0,0,1-2.38.61,3.73,3.73,0,0,1-3.88-4,3.61,3.61,0,0,1,3.73-3.92c1.22,0,2.18.51,2.18.92v1.06a.31.31,0,0,0,.3.3h2.51a.31.31,0,0,0,.3-.3V41.57c0-2.69-3.65-3.32-5.36-3.32a7,7,0,1,0,.12,14,8.14,8.14,0,0,0,5.44-2.15.32.32,0,0,0,.06-.36Z"/><rect class="cls-1" x="160.84" y="33.63" width="3.5" height="3.43" rx="0.3"/><path class="cls-1" d="M169.88,27.56c.59,0,1.28-.07,1.28-.07a.31.31,0,0,0,.27-.29l0-2.37a.29.29,0,0,0-.32-.3s-.47,0-.84,0c-.63,0-.83-.27-.83-1.27V9.45a.3.3,0,0,0-.3-.3h-4.44a.29.29,0,0,0-.3.3v2.24a.3.3,0,0,0,.3.3h1.36V23.45C166.09,26.67,167.89,27.56,169.88,27.56Z"/><path class="cls-1" d="M173.89,38.25c-3.82,0-6.71,2.78-6.71,7a6.83,6.83,0,0,0,7.08,7,8.17,8.17,0,0,0,5.3-2,.3.3,0,0,0,.05-.36l-1.18-2.11a.29.29,0,0,0-.46-.07s-.26.24-.42.36a6.66,6.66,0,0,1-.71.44,5.29,5.29,0,0,1-2.43.64A3.65,3.65,0,0,1,170.66,46h8.72a.31.31,0,0,0,.29-.26s.1-.81.1-1.14C179.77,41.15,177.78,38.25,173.89,38.25Zm-3,5.2a3.07,3.07,0,0,1,3-2.32,2.42,2.42,0,0,1,2.42,2.32Z"/><path class="cls-1" d="M247.13,24.83s-.42,0-.73,0c-.82,0-2.16-.23-2.16-2.35V17.2h2.68a.29.29,0,0,0,.29-.3V14.66a.3.3,0,0,0-.29-.3h-2.68V11.65a.3.3,0,0,0-.29-.3h-2.74a.31.31,0,0,0-.3.3v2.71h-1.84a.3.3,0,0,0-.29.3V16.9a.29.29,0,0,0,.29.3h1.79v5.54c0,4.6,3.61,5.14,5.24,5.14a8.76,8.76,0,0,0,1.1-.08.31.31,0,0,0,.26-.29V25.12A.29.29,0,0,0,247.13,24.83Z"/><rect class="cls-1" x="251.85" y="9.44" width="3.5" height="3.43" rx="0.3"/><path class="cls-2" d="M72.22,48.53c-7-.61-14.52-.94-22.51-.94-6.73,0-13.31.23-19.34.67a39.4,39.4,0,0,1-1.68-5c6-.49,12.3-.77,18.72-.83V32.84c-18.21.14-34,2-46.08,5A25.65,25.65,0,0,0,6.72,46.2c4.22-.81,8.67-1.51,13.33-2.07a45.66,45.66,0,0,1-1.23-5.92c1.82-.23,3.28-.44,5.2-.63,1.26,9.94,5.5,17.91,11.15,22.59a77.53,77.53,0,0,0,12.24,1.28V51.08h5.28V61.42a76.65,76.65,0,0,0,11.47-1.29A30.54,30.54,0,0,0,72.22,48.53Z"/><path class="cls-2" d="M56.17,32.9V27.71c6.65.16,13.08.57,19.2,1.2A45.26,45.26,0,0,0,73.72,18.8c-7.4-.69-15.44-1.07-24-1.07-7.22,0-14.23.27-20.64.77a37.32,37.32,0,0,1,2-5.3c5.25-.38,10.75-.59,16.33-.64V0a78.74,78.74,0,0,0-9.62.84C30.1,5.5,24.35,15.65,23.71,29c7.49-.78,15.45-1.23,23.7-1.3V21.22h2.3l3,0V42.42c7.35.08,14.47.47,21.22,1.12a44.27,44.27,0,0,0,1.17-6c1.91.19,3.38.4,5.21.63A43.53,43.53,0,0,1,72.37,58a52.49,52.49,0,0,0,15.22-7.59c-2.2-.36-4.47-.7-6.83-1a42.49,42.49,0,0,0,1.74-4.91c3.44.47,6.76,1,9.94,1.61a25.52,25.52,0,0,0,5.37-8.39C86.67,35,72.49,33.27,56.17,32.9Z"/><path class="cls-2" d="M11.58,50.49a52.92,52.92,0,0,0,15.25,7.58,39.94,39.94,0,0,1-5.09-9C18.19,49.47,14.8,50,11.58,50.49Z"/><path class="cls-2" d="M21.62,14.08A38,38,0,0,1,28.41,2.9C18.6,5.78,10.56,10.6,5.56,16.56,10.58,15.56,16,14.72,21.62,14.08Z"/><path class="cls-2" d="M80.69,29.52A183.32,183.32,0,0,1,99,32.76a19.57,19.57,0,0,0,.11-2,20.15,20.15,0,0,0-1.78-8.19C93,21.5,88.19,20.6,83,19.87a44,44,0,0,0-1.67-5.36q6.36.83,12.16,2c-5-6-13.14-10.79-23-13.64C76.39,9.38,80.24,18.88,80.69,29.52Z"/><path class="cls-2" d="M19.85,19.43A161.18,161.18,0,0,0,1.74,22.62,20.1,20.1,0,0,0,0,30.73a18.22,18.22,0,0,0,.12,2.1,179,179,0,0,1,18.27-3.26A47.5,47.5,0,0,1,19.85,19.43Z"/><path class="cls-2" d="M52.69,12.56c6.58.07,13,.39,19.09.92A27.54,27.54,0,0,0,61.25,1,.79.79,0,0,1,61,.8,77.57,77.57,0,0,0,52.69,0Z"/></g></svg>