<svg xmlns="http://www.w3.org/2000/svg" xmlns:xlink="http://www.w3.org/1999/xlink" width="34" height="34" viewBox="0 0 34 34">
  <defs>
    <filter id="Elipse_100" x="0" y="0" width="34" height="34" filterUnits="userSpaceOnUse">
      <feOffset dx="2" dy="2" input="SourceAlpha"/>
      <feGaussianBlur stdDeviation="1" result="blur"/>
      <feFlood flood-color="#ccc"/>
      <feComposite operator="in" in2="blur"/>
      <feComposite in="SourceGraphic"/>
    </filter>
  </defs>
  <g id="Grupo_11819" data-name="Grupo 11819" transform="translate(-23 -79)">
    <g transform="matrix(1, 0, 0, 1, 23, 79)" filter="url(#Elipse_100)">
      <g id="Elipse_100-2" data-name="Elipse 100" transform="translate(1 1)" fill="#fff" stroke="#f5f5f5" stroke-width="1">
        <circle cx="14" cy="14" r="14" stroke="none"/>
        <circle cx="14" cy="14" r="13.5" fill="none"/>
      </g>
    </g>
    <path id="house-solid" d="M12.371,5.489a.694.694,0,0,1-.687.69H11l.015,3.442A1.576,1.576,0,0,1,11,9.795v.346a.859.859,0,0,1-.859.859H9.8c-.024,0-.047,0-.071,0s-.06,0-.09,0H8.422a.859.859,0,0,1-.859-.859V8.25a.687.687,0,0,0-.687-.687H5.5a.687.687,0,0,0-.687.688v1.891A.859.859,0,0,1,3.953,11h-1.2c-.032,0-.064,0-.1,0s-.052,0-.077,0H2.234a.859.859,0,0,1-.859-.859V7.734a.563.563,0,0,1,0-.06v-1.5H.688A.679.679,0,0,1,0,5.489a.7.7,0,0,1,.215-.516L5.723.172A.62.62,0,0,1,6.2,0a.714.714,0,0,1,.451.15l5.487,4.823A.589.589,0,0,1,12.371,5.489Z" transform="translate(32 88)" fill="#5939aa"/>
  </g>
</svg>
